G04 #@! TF.GenerationSoftware,KiCad,Pcbnew,(5.1.2)-2*
G04 #@! TF.CreationDate,2019-10-27T19:51:02+01:00*
G04 #@! TF.ProjectId,Servo_PCB,53657276-6f5f-4504-9342-2e6b69636164,rev?*
G04 #@! TF.SameCoordinates,Original*
G04 #@! TF.FileFunction,Soldermask,Bot*
G04 #@! TF.FilePolarity,Negative*
%FSLAX46Y46*%
G04 Gerber Fmt 4.6, Leading zero omitted, Abs format (unit mm)*
G04 Created by KiCad (PCBNEW (5.1.2)-2) date 2019-10-27 19:51:02*
%MOMM*%
%LPD*%
G04 APERTURE LIST*
%ADD10C,0.100000*%
G04 APERTURE END LIST*
D10*
G36*
X83310443Y-91685519D02*
G01*
X83376627Y-91692037D01*
X83546466Y-91743557D01*
X83702991Y-91827222D01*
X83738729Y-91856552D01*
X83840186Y-91939814D01*
X83923448Y-92041271D01*
X83952778Y-92077009D01*
X84036443Y-92233534D01*
X84087963Y-92403373D01*
X84105359Y-92580000D01*
X84087963Y-92756627D01*
X84036443Y-92926466D01*
X83952778Y-93082991D01*
X83923448Y-93118729D01*
X83840186Y-93220186D01*
X83738729Y-93303448D01*
X83702991Y-93332778D01*
X83546466Y-93416443D01*
X83376627Y-93467963D01*
X83310442Y-93474482D01*
X83244260Y-93481000D01*
X83155740Y-93481000D01*
X83089558Y-93474482D01*
X83023373Y-93467963D01*
X82853534Y-93416443D01*
X82697009Y-93332778D01*
X82661271Y-93303448D01*
X82559814Y-93220186D01*
X82476552Y-93118729D01*
X82447222Y-93082991D01*
X82363557Y-92926466D01*
X82312037Y-92756627D01*
X82294641Y-92580000D01*
X82312037Y-92403373D01*
X82363557Y-92233534D01*
X82447222Y-92077009D01*
X82476552Y-92041271D01*
X82559814Y-91939814D01*
X82661271Y-91856552D01*
X82697009Y-91827222D01*
X82853534Y-91743557D01*
X83023373Y-91692037D01*
X83089557Y-91685519D01*
X83155740Y-91679000D01*
X83244260Y-91679000D01*
X83310443Y-91685519D01*
X83310443Y-91685519D01*
G37*
G36*
X131110443Y-91685519D02*
G01*
X131176627Y-91692037D01*
X131346466Y-91743557D01*
X131502991Y-91827222D01*
X131538729Y-91856552D01*
X131640186Y-91939814D01*
X131723448Y-92041271D01*
X131752778Y-92077009D01*
X131836443Y-92233534D01*
X131887963Y-92403373D01*
X131905359Y-92580000D01*
X131887963Y-92756627D01*
X131836443Y-92926466D01*
X131752778Y-93082991D01*
X131723448Y-93118729D01*
X131640186Y-93220186D01*
X131538729Y-93303448D01*
X131502991Y-93332778D01*
X131346466Y-93416443D01*
X131176627Y-93467963D01*
X131110442Y-93474482D01*
X131044260Y-93481000D01*
X130955740Y-93481000D01*
X130889558Y-93474482D01*
X130823373Y-93467963D01*
X130653534Y-93416443D01*
X130497009Y-93332778D01*
X130461271Y-93303448D01*
X130359814Y-93220186D01*
X130276552Y-93118729D01*
X130247222Y-93082991D01*
X130163557Y-92926466D01*
X130112037Y-92756627D01*
X130094641Y-92580000D01*
X130112037Y-92403373D01*
X130163557Y-92233534D01*
X130247222Y-92077009D01*
X130276552Y-92041271D01*
X130359814Y-91939814D01*
X130461271Y-91856552D01*
X130497009Y-91827222D01*
X130653534Y-91743557D01*
X130823373Y-91692037D01*
X130889557Y-91685519D01*
X130955740Y-91679000D01*
X131044260Y-91679000D01*
X131110443Y-91685519D01*
X131110443Y-91685519D01*
G37*
G36*
X62810443Y-91685519D02*
G01*
X62876627Y-91692037D01*
X63046466Y-91743557D01*
X63202991Y-91827222D01*
X63238729Y-91856552D01*
X63340186Y-91939814D01*
X63423448Y-92041271D01*
X63452778Y-92077009D01*
X63536443Y-92233534D01*
X63587963Y-92403373D01*
X63605359Y-92580000D01*
X63587963Y-92756627D01*
X63536443Y-92926466D01*
X63452778Y-93082991D01*
X63423448Y-93118729D01*
X63340186Y-93220186D01*
X63238729Y-93303448D01*
X63202991Y-93332778D01*
X63046466Y-93416443D01*
X62876627Y-93467963D01*
X62810442Y-93474482D01*
X62744260Y-93481000D01*
X62655740Y-93481000D01*
X62589558Y-93474482D01*
X62523373Y-93467963D01*
X62353534Y-93416443D01*
X62197009Y-93332778D01*
X62161271Y-93303448D01*
X62059814Y-93220186D01*
X61976552Y-93118729D01*
X61947222Y-93082991D01*
X61863557Y-92926466D01*
X61812037Y-92756627D01*
X61794641Y-92580000D01*
X61812037Y-92403373D01*
X61863557Y-92233534D01*
X61947222Y-92077009D01*
X61976552Y-92041271D01*
X62059814Y-91939814D01*
X62161271Y-91856552D01*
X62197009Y-91827222D01*
X62353534Y-91743557D01*
X62523373Y-91692037D01*
X62589557Y-91685519D01*
X62655740Y-91679000D01*
X62744260Y-91679000D01*
X62810443Y-91685519D01*
X62810443Y-91685519D01*
G37*
G36*
X69610443Y-91685519D02*
G01*
X69676627Y-91692037D01*
X69846466Y-91743557D01*
X70002991Y-91827222D01*
X70038729Y-91856552D01*
X70140186Y-91939814D01*
X70223448Y-92041271D01*
X70252778Y-92077009D01*
X70336443Y-92233534D01*
X70387963Y-92403373D01*
X70405359Y-92580000D01*
X70387963Y-92756627D01*
X70336443Y-92926466D01*
X70252778Y-93082991D01*
X70223448Y-93118729D01*
X70140186Y-93220186D01*
X70038729Y-93303448D01*
X70002991Y-93332778D01*
X69846466Y-93416443D01*
X69676627Y-93467963D01*
X69610442Y-93474482D01*
X69544260Y-93481000D01*
X69455740Y-93481000D01*
X69389558Y-93474482D01*
X69323373Y-93467963D01*
X69153534Y-93416443D01*
X68997009Y-93332778D01*
X68961271Y-93303448D01*
X68859814Y-93220186D01*
X68776552Y-93118729D01*
X68747222Y-93082991D01*
X68663557Y-92926466D01*
X68612037Y-92756627D01*
X68594641Y-92580000D01*
X68612037Y-92403373D01*
X68663557Y-92233534D01*
X68747222Y-92077009D01*
X68776552Y-92041271D01*
X68859814Y-91939814D01*
X68961271Y-91856552D01*
X68997009Y-91827222D01*
X69153534Y-91743557D01*
X69323373Y-91692037D01*
X69389557Y-91685519D01*
X69455740Y-91679000D01*
X69544260Y-91679000D01*
X69610443Y-91685519D01*
X69610443Y-91685519D01*
G37*
G36*
X76410443Y-91685519D02*
G01*
X76476627Y-91692037D01*
X76646466Y-91743557D01*
X76802991Y-91827222D01*
X76838729Y-91856552D01*
X76940186Y-91939814D01*
X77023448Y-92041271D01*
X77052778Y-92077009D01*
X77136443Y-92233534D01*
X77187963Y-92403373D01*
X77205359Y-92580000D01*
X77187963Y-92756627D01*
X77136443Y-92926466D01*
X77052778Y-93082991D01*
X77023448Y-93118729D01*
X76940186Y-93220186D01*
X76838729Y-93303448D01*
X76802991Y-93332778D01*
X76646466Y-93416443D01*
X76476627Y-93467963D01*
X76410442Y-93474482D01*
X76344260Y-93481000D01*
X76255740Y-93481000D01*
X76189558Y-93474482D01*
X76123373Y-93467963D01*
X75953534Y-93416443D01*
X75797009Y-93332778D01*
X75761271Y-93303448D01*
X75659814Y-93220186D01*
X75576552Y-93118729D01*
X75547222Y-93082991D01*
X75463557Y-92926466D01*
X75412037Y-92756627D01*
X75394641Y-92580000D01*
X75412037Y-92403373D01*
X75463557Y-92233534D01*
X75547222Y-92077009D01*
X75576552Y-92041271D01*
X75659814Y-91939814D01*
X75761271Y-91856552D01*
X75797009Y-91827222D01*
X75953534Y-91743557D01*
X76123373Y-91692037D01*
X76189557Y-91685519D01*
X76255740Y-91679000D01*
X76344260Y-91679000D01*
X76410443Y-91685519D01*
X76410443Y-91685519D01*
G37*
G36*
X137960443Y-91685519D02*
G01*
X138026627Y-91692037D01*
X138196466Y-91743557D01*
X138352991Y-91827222D01*
X138388729Y-91856552D01*
X138490186Y-91939814D01*
X138573448Y-92041271D01*
X138602778Y-92077009D01*
X138686443Y-92233534D01*
X138737963Y-92403373D01*
X138755359Y-92580000D01*
X138737963Y-92756627D01*
X138686443Y-92926466D01*
X138602778Y-93082991D01*
X138573448Y-93118729D01*
X138490186Y-93220186D01*
X138388729Y-93303448D01*
X138352991Y-93332778D01*
X138196466Y-93416443D01*
X138026627Y-93467963D01*
X137960442Y-93474482D01*
X137894260Y-93481000D01*
X137805740Y-93481000D01*
X137739558Y-93474482D01*
X137673373Y-93467963D01*
X137503534Y-93416443D01*
X137347009Y-93332778D01*
X137311271Y-93303448D01*
X137209814Y-93220186D01*
X137126552Y-93118729D01*
X137097222Y-93082991D01*
X137013557Y-92926466D01*
X136962037Y-92756627D01*
X136944641Y-92580000D01*
X136962037Y-92403373D01*
X137013557Y-92233534D01*
X137097222Y-92077009D01*
X137126552Y-92041271D01*
X137209814Y-91939814D01*
X137311271Y-91856552D01*
X137347009Y-91827222D01*
X137503534Y-91743557D01*
X137673373Y-91692037D01*
X137739557Y-91685519D01*
X137805740Y-91679000D01*
X137894260Y-91679000D01*
X137960443Y-91685519D01*
X137960443Y-91685519D01*
G37*
G36*
X124260443Y-91685519D02*
G01*
X124326627Y-91692037D01*
X124496466Y-91743557D01*
X124652991Y-91827222D01*
X124688729Y-91856552D01*
X124790186Y-91939814D01*
X124873448Y-92041271D01*
X124902778Y-92077009D01*
X124986443Y-92233534D01*
X125037963Y-92403373D01*
X125055359Y-92580000D01*
X125037963Y-92756627D01*
X124986443Y-92926466D01*
X124902778Y-93082991D01*
X124873448Y-93118729D01*
X124790186Y-93220186D01*
X124688729Y-93303448D01*
X124652991Y-93332778D01*
X124496466Y-93416443D01*
X124326627Y-93467963D01*
X124260442Y-93474482D01*
X124194260Y-93481000D01*
X124105740Y-93481000D01*
X124039558Y-93474482D01*
X123973373Y-93467963D01*
X123803534Y-93416443D01*
X123647009Y-93332778D01*
X123611271Y-93303448D01*
X123509814Y-93220186D01*
X123426552Y-93118729D01*
X123397222Y-93082991D01*
X123313557Y-92926466D01*
X123262037Y-92756627D01*
X123244641Y-92580000D01*
X123262037Y-92403373D01*
X123313557Y-92233534D01*
X123397222Y-92077009D01*
X123426552Y-92041271D01*
X123509814Y-91939814D01*
X123611271Y-91856552D01*
X123647009Y-91827222D01*
X123803534Y-91743557D01*
X123973373Y-91692037D01*
X124039557Y-91685519D01*
X124105740Y-91679000D01*
X124194260Y-91679000D01*
X124260443Y-91685519D01*
X124260443Y-91685519D01*
G37*
G36*
X117460443Y-91685519D02*
G01*
X117526627Y-91692037D01*
X117696466Y-91743557D01*
X117852991Y-91827222D01*
X117888729Y-91856552D01*
X117990186Y-91939814D01*
X118073448Y-92041271D01*
X118102778Y-92077009D01*
X118186443Y-92233534D01*
X118237963Y-92403373D01*
X118255359Y-92580000D01*
X118237963Y-92756627D01*
X118186443Y-92926466D01*
X118102778Y-93082991D01*
X118073448Y-93118729D01*
X117990186Y-93220186D01*
X117888729Y-93303448D01*
X117852991Y-93332778D01*
X117696466Y-93416443D01*
X117526627Y-93467963D01*
X117460442Y-93474482D01*
X117394260Y-93481000D01*
X117305740Y-93481000D01*
X117239558Y-93474482D01*
X117173373Y-93467963D01*
X117003534Y-93416443D01*
X116847009Y-93332778D01*
X116811271Y-93303448D01*
X116709814Y-93220186D01*
X116626552Y-93118729D01*
X116597222Y-93082991D01*
X116513557Y-92926466D01*
X116462037Y-92756627D01*
X116444641Y-92580000D01*
X116462037Y-92403373D01*
X116513557Y-92233534D01*
X116597222Y-92077009D01*
X116626552Y-92041271D01*
X116709814Y-91939814D01*
X116811271Y-91856552D01*
X116847009Y-91827222D01*
X117003534Y-91743557D01*
X117173373Y-91692037D01*
X117239557Y-91685519D01*
X117305740Y-91679000D01*
X117394260Y-91679000D01*
X117460443Y-91685519D01*
X117460443Y-91685519D01*
G37*
G36*
X110610443Y-91685519D02*
G01*
X110676627Y-91692037D01*
X110846466Y-91743557D01*
X111002991Y-91827222D01*
X111038729Y-91856552D01*
X111140186Y-91939814D01*
X111223448Y-92041271D01*
X111252778Y-92077009D01*
X111336443Y-92233534D01*
X111387963Y-92403373D01*
X111405359Y-92580000D01*
X111387963Y-92756627D01*
X111336443Y-92926466D01*
X111252778Y-93082991D01*
X111223448Y-93118729D01*
X111140186Y-93220186D01*
X111038729Y-93303448D01*
X111002991Y-93332778D01*
X110846466Y-93416443D01*
X110676627Y-93467963D01*
X110610442Y-93474482D01*
X110544260Y-93481000D01*
X110455740Y-93481000D01*
X110389558Y-93474482D01*
X110323373Y-93467963D01*
X110153534Y-93416443D01*
X109997009Y-93332778D01*
X109961271Y-93303448D01*
X109859814Y-93220186D01*
X109776552Y-93118729D01*
X109747222Y-93082991D01*
X109663557Y-92926466D01*
X109612037Y-92756627D01*
X109594641Y-92580000D01*
X109612037Y-92403373D01*
X109663557Y-92233534D01*
X109747222Y-92077009D01*
X109776552Y-92041271D01*
X109859814Y-91939814D01*
X109961271Y-91856552D01*
X109997009Y-91827222D01*
X110153534Y-91743557D01*
X110323373Y-91692037D01*
X110389557Y-91685519D01*
X110455740Y-91679000D01*
X110544260Y-91679000D01*
X110610443Y-91685519D01*
X110610443Y-91685519D01*
G37*
G36*
X103760443Y-91685519D02*
G01*
X103826627Y-91692037D01*
X103996466Y-91743557D01*
X104152991Y-91827222D01*
X104188729Y-91856552D01*
X104290186Y-91939814D01*
X104373448Y-92041271D01*
X104402778Y-92077009D01*
X104486443Y-92233534D01*
X104537963Y-92403373D01*
X104555359Y-92580000D01*
X104537963Y-92756627D01*
X104486443Y-92926466D01*
X104402778Y-93082991D01*
X104373448Y-93118729D01*
X104290186Y-93220186D01*
X104188729Y-93303448D01*
X104152991Y-93332778D01*
X103996466Y-93416443D01*
X103826627Y-93467963D01*
X103760442Y-93474482D01*
X103694260Y-93481000D01*
X103605740Y-93481000D01*
X103539558Y-93474482D01*
X103473373Y-93467963D01*
X103303534Y-93416443D01*
X103147009Y-93332778D01*
X103111271Y-93303448D01*
X103009814Y-93220186D01*
X102926552Y-93118729D01*
X102897222Y-93082991D01*
X102813557Y-92926466D01*
X102762037Y-92756627D01*
X102744641Y-92580000D01*
X102762037Y-92403373D01*
X102813557Y-92233534D01*
X102897222Y-92077009D01*
X102926552Y-92041271D01*
X103009814Y-91939814D01*
X103111271Y-91856552D01*
X103147009Y-91827222D01*
X103303534Y-91743557D01*
X103473373Y-91692037D01*
X103539557Y-91685519D01*
X103605740Y-91679000D01*
X103694260Y-91679000D01*
X103760443Y-91685519D01*
X103760443Y-91685519D01*
G37*
G36*
X96910443Y-91685519D02*
G01*
X96976627Y-91692037D01*
X97146466Y-91743557D01*
X97302991Y-91827222D01*
X97338729Y-91856552D01*
X97440186Y-91939814D01*
X97523448Y-92041271D01*
X97552778Y-92077009D01*
X97636443Y-92233534D01*
X97687963Y-92403373D01*
X97705359Y-92580000D01*
X97687963Y-92756627D01*
X97636443Y-92926466D01*
X97552778Y-93082991D01*
X97523448Y-93118729D01*
X97440186Y-93220186D01*
X97338729Y-93303448D01*
X97302991Y-93332778D01*
X97146466Y-93416443D01*
X96976627Y-93467963D01*
X96910442Y-93474482D01*
X96844260Y-93481000D01*
X96755740Y-93481000D01*
X96689558Y-93474482D01*
X96623373Y-93467963D01*
X96453534Y-93416443D01*
X96297009Y-93332778D01*
X96261271Y-93303448D01*
X96159814Y-93220186D01*
X96076552Y-93118729D01*
X96047222Y-93082991D01*
X95963557Y-92926466D01*
X95912037Y-92756627D01*
X95894641Y-92580000D01*
X95912037Y-92403373D01*
X95963557Y-92233534D01*
X96047222Y-92077009D01*
X96076552Y-92041271D01*
X96159814Y-91939814D01*
X96261271Y-91856552D01*
X96297009Y-91827222D01*
X96453534Y-91743557D01*
X96623373Y-91692037D01*
X96689557Y-91685519D01*
X96755740Y-91679000D01*
X96844260Y-91679000D01*
X96910443Y-91685519D01*
X96910443Y-91685519D01*
G37*
G36*
X90110443Y-91685519D02*
G01*
X90176627Y-91692037D01*
X90346466Y-91743557D01*
X90502991Y-91827222D01*
X90538729Y-91856552D01*
X90640186Y-91939814D01*
X90723448Y-92041271D01*
X90752778Y-92077009D01*
X90836443Y-92233534D01*
X90887963Y-92403373D01*
X90905359Y-92580000D01*
X90887963Y-92756627D01*
X90836443Y-92926466D01*
X90752778Y-93082991D01*
X90723448Y-93118729D01*
X90640186Y-93220186D01*
X90538729Y-93303448D01*
X90502991Y-93332778D01*
X90346466Y-93416443D01*
X90176627Y-93467963D01*
X90110442Y-93474482D01*
X90044260Y-93481000D01*
X89955740Y-93481000D01*
X89889558Y-93474482D01*
X89823373Y-93467963D01*
X89653534Y-93416443D01*
X89497009Y-93332778D01*
X89461271Y-93303448D01*
X89359814Y-93220186D01*
X89276552Y-93118729D01*
X89247222Y-93082991D01*
X89163557Y-92926466D01*
X89112037Y-92756627D01*
X89094641Y-92580000D01*
X89112037Y-92403373D01*
X89163557Y-92233534D01*
X89247222Y-92077009D01*
X89276552Y-92041271D01*
X89359814Y-91939814D01*
X89461271Y-91856552D01*
X89497009Y-91827222D01*
X89653534Y-91743557D01*
X89823373Y-91692037D01*
X89889557Y-91685519D01*
X89955740Y-91679000D01*
X90044260Y-91679000D01*
X90110443Y-91685519D01*
X90110443Y-91685519D01*
G37*
G36*
X110610443Y-89145519D02*
G01*
X110676627Y-89152037D01*
X110846466Y-89203557D01*
X111002991Y-89287222D01*
X111038729Y-89316552D01*
X111140186Y-89399814D01*
X111223448Y-89501271D01*
X111252778Y-89537009D01*
X111336443Y-89693534D01*
X111387963Y-89863373D01*
X111405359Y-90040000D01*
X111387963Y-90216627D01*
X111336443Y-90386466D01*
X111252778Y-90542991D01*
X111223448Y-90578729D01*
X111140186Y-90680186D01*
X111038729Y-90763448D01*
X111002991Y-90792778D01*
X110846466Y-90876443D01*
X110676627Y-90927963D01*
X110610443Y-90934481D01*
X110544260Y-90941000D01*
X110455740Y-90941000D01*
X110389557Y-90934481D01*
X110323373Y-90927963D01*
X110153534Y-90876443D01*
X109997009Y-90792778D01*
X109961271Y-90763448D01*
X109859814Y-90680186D01*
X109776552Y-90578729D01*
X109747222Y-90542991D01*
X109663557Y-90386466D01*
X109612037Y-90216627D01*
X109594641Y-90040000D01*
X109612037Y-89863373D01*
X109663557Y-89693534D01*
X109747222Y-89537009D01*
X109776552Y-89501271D01*
X109859814Y-89399814D01*
X109961271Y-89316552D01*
X109997009Y-89287222D01*
X110153534Y-89203557D01*
X110323373Y-89152037D01*
X110389557Y-89145519D01*
X110455740Y-89139000D01*
X110544260Y-89139000D01*
X110610443Y-89145519D01*
X110610443Y-89145519D01*
G37*
G36*
X90110443Y-89145519D02*
G01*
X90176627Y-89152037D01*
X90346466Y-89203557D01*
X90502991Y-89287222D01*
X90538729Y-89316552D01*
X90640186Y-89399814D01*
X90723448Y-89501271D01*
X90752778Y-89537009D01*
X90836443Y-89693534D01*
X90887963Y-89863373D01*
X90905359Y-90040000D01*
X90887963Y-90216627D01*
X90836443Y-90386466D01*
X90752778Y-90542991D01*
X90723448Y-90578729D01*
X90640186Y-90680186D01*
X90538729Y-90763448D01*
X90502991Y-90792778D01*
X90346466Y-90876443D01*
X90176627Y-90927963D01*
X90110443Y-90934481D01*
X90044260Y-90941000D01*
X89955740Y-90941000D01*
X89889557Y-90934481D01*
X89823373Y-90927963D01*
X89653534Y-90876443D01*
X89497009Y-90792778D01*
X89461271Y-90763448D01*
X89359814Y-90680186D01*
X89276552Y-90578729D01*
X89247222Y-90542991D01*
X89163557Y-90386466D01*
X89112037Y-90216627D01*
X89094641Y-90040000D01*
X89112037Y-89863373D01*
X89163557Y-89693534D01*
X89247222Y-89537009D01*
X89276552Y-89501271D01*
X89359814Y-89399814D01*
X89461271Y-89316552D01*
X89497009Y-89287222D01*
X89653534Y-89203557D01*
X89823373Y-89152037D01*
X89889557Y-89145519D01*
X89955740Y-89139000D01*
X90044260Y-89139000D01*
X90110443Y-89145519D01*
X90110443Y-89145519D01*
G37*
G36*
X83310443Y-89145519D02*
G01*
X83376627Y-89152037D01*
X83546466Y-89203557D01*
X83702991Y-89287222D01*
X83738729Y-89316552D01*
X83840186Y-89399814D01*
X83923448Y-89501271D01*
X83952778Y-89537009D01*
X84036443Y-89693534D01*
X84087963Y-89863373D01*
X84105359Y-90040000D01*
X84087963Y-90216627D01*
X84036443Y-90386466D01*
X83952778Y-90542991D01*
X83923448Y-90578729D01*
X83840186Y-90680186D01*
X83738729Y-90763448D01*
X83702991Y-90792778D01*
X83546466Y-90876443D01*
X83376627Y-90927963D01*
X83310443Y-90934481D01*
X83244260Y-90941000D01*
X83155740Y-90941000D01*
X83089557Y-90934481D01*
X83023373Y-90927963D01*
X82853534Y-90876443D01*
X82697009Y-90792778D01*
X82661271Y-90763448D01*
X82559814Y-90680186D01*
X82476552Y-90578729D01*
X82447222Y-90542991D01*
X82363557Y-90386466D01*
X82312037Y-90216627D01*
X82294641Y-90040000D01*
X82312037Y-89863373D01*
X82363557Y-89693534D01*
X82447222Y-89537009D01*
X82476552Y-89501271D01*
X82559814Y-89399814D01*
X82661271Y-89316552D01*
X82697009Y-89287222D01*
X82853534Y-89203557D01*
X83023373Y-89152037D01*
X83089557Y-89145519D01*
X83155740Y-89139000D01*
X83244260Y-89139000D01*
X83310443Y-89145519D01*
X83310443Y-89145519D01*
G37*
G36*
X76410443Y-89145519D02*
G01*
X76476627Y-89152037D01*
X76646466Y-89203557D01*
X76802991Y-89287222D01*
X76838729Y-89316552D01*
X76940186Y-89399814D01*
X77023448Y-89501271D01*
X77052778Y-89537009D01*
X77136443Y-89693534D01*
X77187963Y-89863373D01*
X77205359Y-90040000D01*
X77187963Y-90216627D01*
X77136443Y-90386466D01*
X77052778Y-90542991D01*
X77023448Y-90578729D01*
X76940186Y-90680186D01*
X76838729Y-90763448D01*
X76802991Y-90792778D01*
X76646466Y-90876443D01*
X76476627Y-90927963D01*
X76410443Y-90934481D01*
X76344260Y-90941000D01*
X76255740Y-90941000D01*
X76189557Y-90934481D01*
X76123373Y-90927963D01*
X75953534Y-90876443D01*
X75797009Y-90792778D01*
X75761271Y-90763448D01*
X75659814Y-90680186D01*
X75576552Y-90578729D01*
X75547222Y-90542991D01*
X75463557Y-90386466D01*
X75412037Y-90216627D01*
X75394641Y-90040000D01*
X75412037Y-89863373D01*
X75463557Y-89693534D01*
X75547222Y-89537009D01*
X75576552Y-89501271D01*
X75659814Y-89399814D01*
X75761271Y-89316552D01*
X75797009Y-89287222D01*
X75953534Y-89203557D01*
X76123373Y-89152037D01*
X76189557Y-89145519D01*
X76255740Y-89139000D01*
X76344260Y-89139000D01*
X76410443Y-89145519D01*
X76410443Y-89145519D01*
G37*
G36*
X137960443Y-89145519D02*
G01*
X138026627Y-89152037D01*
X138196466Y-89203557D01*
X138352991Y-89287222D01*
X138388729Y-89316552D01*
X138490186Y-89399814D01*
X138573448Y-89501271D01*
X138602778Y-89537009D01*
X138686443Y-89693534D01*
X138737963Y-89863373D01*
X138755359Y-90040000D01*
X138737963Y-90216627D01*
X138686443Y-90386466D01*
X138602778Y-90542991D01*
X138573448Y-90578729D01*
X138490186Y-90680186D01*
X138388729Y-90763448D01*
X138352991Y-90792778D01*
X138196466Y-90876443D01*
X138026627Y-90927963D01*
X137960443Y-90934481D01*
X137894260Y-90941000D01*
X137805740Y-90941000D01*
X137739557Y-90934481D01*
X137673373Y-90927963D01*
X137503534Y-90876443D01*
X137347009Y-90792778D01*
X137311271Y-90763448D01*
X137209814Y-90680186D01*
X137126552Y-90578729D01*
X137097222Y-90542991D01*
X137013557Y-90386466D01*
X136962037Y-90216627D01*
X136944641Y-90040000D01*
X136962037Y-89863373D01*
X137013557Y-89693534D01*
X137097222Y-89537009D01*
X137126552Y-89501271D01*
X137209814Y-89399814D01*
X137311271Y-89316552D01*
X137347009Y-89287222D01*
X137503534Y-89203557D01*
X137673373Y-89152037D01*
X137739557Y-89145519D01*
X137805740Y-89139000D01*
X137894260Y-89139000D01*
X137960443Y-89145519D01*
X137960443Y-89145519D01*
G37*
G36*
X131110443Y-89145519D02*
G01*
X131176627Y-89152037D01*
X131346466Y-89203557D01*
X131502991Y-89287222D01*
X131538729Y-89316552D01*
X131640186Y-89399814D01*
X131723448Y-89501271D01*
X131752778Y-89537009D01*
X131836443Y-89693534D01*
X131887963Y-89863373D01*
X131905359Y-90040000D01*
X131887963Y-90216627D01*
X131836443Y-90386466D01*
X131752778Y-90542991D01*
X131723448Y-90578729D01*
X131640186Y-90680186D01*
X131538729Y-90763448D01*
X131502991Y-90792778D01*
X131346466Y-90876443D01*
X131176627Y-90927963D01*
X131110443Y-90934481D01*
X131044260Y-90941000D01*
X130955740Y-90941000D01*
X130889557Y-90934481D01*
X130823373Y-90927963D01*
X130653534Y-90876443D01*
X130497009Y-90792778D01*
X130461271Y-90763448D01*
X130359814Y-90680186D01*
X130276552Y-90578729D01*
X130247222Y-90542991D01*
X130163557Y-90386466D01*
X130112037Y-90216627D01*
X130094641Y-90040000D01*
X130112037Y-89863373D01*
X130163557Y-89693534D01*
X130247222Y-89537009D01*
X130276552Y-89501271D01*
X130359814Y-89399814D01*
X130461271Y-89316552D01*
X130497009Y-89287222D01*
X130653534Y-89203557D01*
X130823373Y-89152037D01*
X130889557Y-89145519D01*
X130955740Y-89139000D01*
X131044260Y-89139000D01*
X131110443Y-89145519D01*
X131110443Y-89145519D01*
G37*
G36*
X62810443Y-89145519D02*
G01*
X62876627Y-89152037D01*
X63046466Y-89203557D01*
X63202991Y-89287222D01*
X63238729Y-89316552D01*
X63340186Y-89399814D01*
X63423448Y-89501271D01*
X63452778Y-89537009D01*
X63536443Y-89693534D01*
X63587963Y-89863373D01*
X63605359Y-90040000D01*
X63587963Y-90216627D01*
X63536443Y-90386466D01*
X63452778Y-90542991D01*
X63423448Y-90578729D01*
X63340186Y-90680186D01*
X63238729Y-90763448D01*
X63202991Y-90792778D01*
X63046466Y-90876443D01*
X62876627Y-90927963D01*
X62810443Y-90934481D01*
X62744260Y-90941000D01*
X62655740Y-90941000D01*
X62589557Y-90934481D01*
X62523373Y-90927963D01*
X62353534Y-90876443D01*
X62197009Y-90792778D01*
X62161271Y-90763448D01*
X62059814Y-90680186D01*
X61976552Y-90578729D01*
X61947222Y-90542991D01*
X61863557Y-90386466D01*
X61812037Y-90216627D01*
X61794641Y-90040000D01*
X61812037Y-89863373D01*
X61863557Y-89693534D01*
X61947222Y-89537009D01*
X61976552Y-89501271D01*
X62059814Y-89399814D01*
X62161271Y-89316552D01*
X62197009Y-89287222D01*
X62353534Y-89203557D01*
X62523373Y-89152037D01*
X62589557Y-89145519D01*
X62655740Y-89139000D01*
X62744260Y-89139000D01*
X62810443Y-89145519D01*
X62810443Y-89145519D01*
G37*
G36*
X124260443Y-89145519D02*
G01*
X124326627Y-89152037D01*
X124496466Y-89203557D01*
X124652991Y-89287222D01*
X124688729Y-89316552D01*
X124790186Y-89399814D01*
X124873448Y-89501271D01*
X124902778Y-89537009D01*
X124986443Y-89693534D01*
X125037963Y-89863373D01*
X125055359Y-90040000D01*
X125037963Y-90216627D01*
X124986443Y-90386466D01*
X124902778Y-90542991D01*
X124873448Y-90578729D01*
X124790186Y-90680186D01*
X124688729Y-90763448D01*
X124652991Y-90792778D01*
X124496466Y-90876443D01*
X124326627Y-90927963D01*
X124260443Y-90934481D01*
X124194260Y-90941000D01*
X124105740Y-90941000D01*
X124039557Y-90934481D01*
X123973373Y-90927963D01*
X123803534Y-90876443D01*
X123647009Y-90792778D01*
X123611271Y-90763448D01*
X123509814Y-90680186D01*
X123426552Y-90578729D01*
X123397222Y-90542991D01*
X123313557Y-90386466D01*
X123262037Y-90216627D01*
X123244641Y-90040000D01*
X123262037Y-89863373D01*
X123313557Y-89693534D01*
X123397222Y-89537009D01*
X123426552Y-89501271D01*
X123509814Y-89399814D01*
X123611271Y-89316552D01*
X123647009Y-89287222D01*
X123803534Y-89203557D01*
X123973373Y-89152037D01*
X124039557Y-89145519D01*
X124105740Y-89139000D01*
X124194260Y-89139000D01*
X124260443Y-89145519D01*
X124260443Y-89145519D01*
G37*
G36*
X117460443Y-89145519D02*
G01*
X117526627Y-89152037D01*
X117696466Y-89203557D01*
X117852991Y-89287222D01*
X117888729Y-89316552D01*
X117990186Y-89399814D01*
X118073448Y-89501271D01*
X118102778Y-89537009D01*
X118186443Y-89693534D01*
X118237963Y-89863373D01*
X118255359Y-90040000D01*
X118237963Y-90216627D01*
X118186443Y-90386466D01*
X118102778Y-90542991D01*
X118073448Y-90578729D01*
X117990186Y-90680186D01*
X117888729Y-90763448D01*
X117852991Y-90792778D01*
X117696466Y-90876443D01*
X117526627Y-90927963D01*
X117460443Y-90934481D01*
X117394260Y-90941000D01*
X117305740Y-90941000D01*
X117239557Y-90934481D01*
X117173373Y-90927963D01*
X117003534Y-90876443D01*
X116847009Y-90792778D01*
X116811271Y-90763448D01*
X116709814Y-90680186D01*
X116626552Y-90578729D01*
X116597222Y-90542991D01*
X116513557Y-90386466D01*
X116462037Y-90216627D01*
X116444641Y-90040000D01*
X116462037Y-89863373D01*
X116513557Y-89693534D01*
X116597222Y-89537009D01*
X116626552Y-89501271D01*
X116709814Y-89399814D01*
X116811271Y-89316552D01*
X116847009Y-89287222D01*
X117003534Y-89203557D01*
X117173373Y-89152037D01*
X117239557Y-89145519D01*
X117305740Y-89139000D01*
X117394260Y-89139000D01*
X117460443Y-89145519D01*
X117460443Y-89145519D01*
G37*
G36*
X103760443Y-89145519D02*
G01*
X103826627Y-89152037D01*
X103996466Y-89203557D01*
X104152991Y-89287222D01*
X104188729Y-89316552D01*
X104290186Y-89399814D01*
X104373448Y-89501271D01*
X104402778Y-89537009D01*
X104486443Y-89693534D01*
X104537963Y-89863373D01*
X104555359Y-90040000D01*
X104537963Y-90216627D01*
X104486443Y-90386466D01*
X104402778Y-90542991D01*
X104373448Y-90578729D01*
X104290186Y-90680186D01*
X104188729Y-90763448D01*
X104152991Y-90792778D01*
X103996466Y-90876443D01*
X103826627Y-90927963D01*
X103760443Y-90934481D01*
X103694260Y-90941000D01*
X103605740Y-90941000D01*
X103539557Y-90934481D01*
X103473373Y-90927963D01*
X103303534Y-90876443D01*
X103147009Y-90792778D01*
X103111271Y-90763448D01*
X103009814Y-90680186D01*
X102926552Y-90578729D01*
X102897222Y-90542991D01*
X102813557Y-90386466D01*
X102762037Y-90216627D01*
X102744641Y-90040000D01*
X102762037Y-89863373D01*
X102813557Y-89693534D01*
X102897222Y-89537009D01*
X102926552Y-89501271D01*
X103009814Y-89399814D01*
X103111271Y-89316552D01*
X103147009Y-89287222D01*
X103303534Y-89203557D01*
X103473373Y-89152037D01*
X103539557Y-89145519D01*
X103605740Y-89139000D01*
X103694260Y-89139000D01*
X103760443Y-89145519D01*
X103760443Y-89145519D01*
G37*
G36*
X96910443Y-89145519D02*
G01*
X96976627Y-89152037D01*
X97146466Y-89203557D01*
X97302991Y-89287222D01*
X97338729Y-89316552D01*
X97440186Y-89399814D01*
X97523448Y-89501271D01*
X97552778Y-89537009D01*
X97636443Y-89693534D01*
X97687963Y-89863373D01*
X97705359Y-90040000D01*
X97687963Y-90216627D01*
X97636443Y-90386466D01*
X97552778Y-90542991D01*
X97523448Y-90578729D01*
X97440186Y-90680186D01*
X97338729Y-90763448D01*
X97302991Y-90792778D01*
X97146466Y-90876443D01*
X96976627Y-90927963D01*
X96910443Y-90934481D01*
X96844260Y-90941000D01*
X96755740Y-90941000D01*
X96689557Y-90934481D01*
X96623373Y-90927963D01*
X96453534Y-90876443D01*
X96297009Y-90792778D01*
X96261271Y-90763448D01*
X96159814Y-90680186D01*
X96076552Y-90578729D01*
X96047222Y-90542991D01*
X95963557Y-90386466D01*
X95912037Y-90216627D01*
X95894641Y-90040000D01*
X95912037Y-89863373D01*
X95963557Y-89693534D01*
X96047222Y-89537009D01*
X96076552Y-89501271D01*
X96159814Y-89399814D01*
X96261271Y-89316552D01*
X96297009Y-89287222D01*
X96453534Y-89203557D01*
X96623373Y-89152037D01*
X96689557Y-89145519D01*
X96755740Y-89139000D01*
X96844260Y-89139000D01*
X96910443Y-89145519D01*
X96910443Y-89145519D01*
G37*
G36*
X69610443Y-89145519D02*
G01*
X69676627Y-89152037D01*
X69846466Y-89203557D01*
X70002991Y-89287222D01*
X70038729Y-89316552D01*
X70140186Y-89399814D01*
X70223448Y-89501271D01*
X70252778Y-89537009D01*
X70336443Y-89693534D01*
X70387963Y-89863373D01*
X70405359Y-90040000D01*
X70387963Y-90216627D01*
X70336443Y-90386466D01*
X70252778Y-90542991D01*
X70223448Y-90578729D01*
X70140186Y-90680186D01*
X70038729Y-90763448D01*
X70002991Y-90792778D01*
X69846466Y-90876443D01*
X69676627Y-90927963D01*
X69610443Y-90934481D01*
X69544260Y-90941000D01*
X69455740Y-90941000D01*
X69389557Y-90934481D01*
X69323373Y-90927963D01*
X69153534Y-90876443D01*
X68997009Y-90792778D01*
X68961271Y-90763448D01*
X68859814Y-90680186D01*
X68776552Y-90578729D01*
X68747222Y-90542991D01*
X68663557Y-90386466D01*
X68612037Y-90216627D01*
X68594641Y-90040000D01*
X68612037Y-89863373D01*
X68663557Y-89693534D01*
X68747222Y-89537009D01*
X68776552Y-89501271D01*
X68859814Y-89399814D01*
X68961271Y-89316552D01*
X68997009Y-89287222D01*
X69153534Y-89203557D01*
X69323373Y-89152037D01*
X69389557Y-89145519D01*
X69455740Y-89139000D01*
X69544260Y-89139000D01*
X69610443Y-89145519D01*
X69610443Y-89145519D01*
G37*
G36*
X90901000Y-88401000D02*
G01*
X89099000Y-88401000D01*
X89099000Y-86599000D01*
X90901000Y-86599000D01*
X90901000Y-88401000D01*
X90901000Y-88401000D01*
G37*
G36*
X111401000Y-88401000D02*
G01*
X109599000Y-88401000D01*
X109599000Y-86599000D01*
X111401000Y-86599000D01*
X111401000Y-88401000D01*
X111401000Y-88401000D01*
G37*
G36*
X70401000Y-88401000D02*
G01*
X68599000Y-88401000D01*
X68599000Y-86599000D01*
X70401000Y-86599000D01*
X70401000Y-88401000D01*
X70401000Y-88401000D01*
G37*
G36*
X63601000Y-88401000D02*
G01*
X61799000Y-88401000D01*
X61799000Y-86599000D01*
X63601000Y-86599000D01*
X63601000Y-88401000D01*
X63601000Y-88401000D01*
G37*
G36*
X104551000Y-88401000D02*
G01*
X102749000Y-88401000D01*
X102749000Y-86599000D01*
X104551000Y-86599000D01*
X104551000Y-88401000D01*
X104551000Y-88401000D01*
G37*
G36*
X118251000Y-88401000D02*
G01*
X116449000Y-88401000D01*
X116449000Y-86599000D01*
X118251000Y-86599000D01*
X118251000Y-88401000D01*
X118251000Y-88401000D01*
G37*
G36*
X125051000Y-88401000D02*
G01*
X123249000Y-88401000D01*
X123249000Y-86599000D01*
X125051000Y-86599000D01*
X125051000Y-88401000D01*
X125051000Y-88401000D01*
G37*
G36*
X77201000Y-88401000D02*
G01*
X75399000Y-88401000D01*
X75399000Y-86599000D01*
X77201000Y-86599000D01*
X77201000Y-88401000D01*
X77201000Y-88401000D01*
G37*
G36*
X138751000Y-88401000D02*
G01*
X136949000Y-88401000D01*
X136949000Y-86599000D01*
X138751000Y-86599000D01*
X138751000Y-88401000D01*
X138751000Y-88401000D01*
G37*
G36*
X131901000Y-88401000D02*
G01*
X130099000Y-88401000D01*
X130099000Y-86599000D01*
X131901000Y-86599000D01*
X131901000Y-88401000D01*
X131901000Y-88401000D01*
G37*
G36*
X97701000Y-88401000D02*
G01*
X95899000Y-88401000D01*
X95899000Y-86599000D01*
X97701000Y-86599000D01*
X97701000Y-88401000D01*
X97701000Y-88401000D01*
G37*
G36*
X84101000Y-88401000D02*
G01*
X82299000Y-88401000D01*
X82299000Y-86599000D01*
X84101000Y-86599000D01*
X84101000Y-88401000D01*
X84101000Y-88401000D01*
G37*
G36*
X73623651Y-77872888D02*
G01*
X73934870Y-77967296D01*
X74221680Y-78120599D01*
X74221683Y-78120601D01*
X74221684Y-78120602D01*
X74473082Y-78326918D01*
X74679398Y-78578316D01*
X74679401Y-78578320D01*
X74832704Y-78865130D01*
X74927112Y-79176349D01*
X74958988Y-79500000D01*
X74927112Y-79823651D01*
X74832704Y-80134870D01*
X74679401Y-80421680D01*
X74679399Y-80421683D01*
X74679398Y-80421684D01*
X74473082Y-80673082D01*
X74221684Y-80879398D01*
X74221680Y-80879401D01*
X73934870Y-81032704D01*
X73623651Y-81127112D01*
X73381107Y-81151000D01*
X73218893Y-81151000D01*
X72976349Y-81127112D01*
X72665130Y-81032704D01*
X72378320Y-80879401D01*
X72378316Y-80879398D01*
X72126918Y-80673082D01*
X71920602Y-80421684D01*
X71920601Y-80421683D01*
X71920599Y-80421680D01*
X71767296Y-80134870D01*
X71672888Y-79823651D01*
X71641012Y-79500000D01*
X71672888Y-79176349D01*
X71767296Y-78865130D01*
X71920599Y-78578320D01*
X71920602Y-78578316D01*
X72126918Y-78326918D01*
X72378316Y-78120602D01*
X72378317Y-78120601D01*
X72378320Y-78120599D01*
X72665130Y-77967296D01*
X72976349Y-77872888D01*
X73218893Y-77849000D01*
X73381107Y-77849000D01*
X73623651Y-77872888D01*
X73623651Y-77872888D01*
G37*
G36*
X62251000Y-81151000D02*
G01*
X58949000Y-81151000D01*
X58949000Y-77849000D01*
X62251000Y-77849000D01*
X62251000Y-81151000D01*
X62251000Y-81151000D01*
G37*
G36*
X139951000Y-81151000D02*
G01*
X136649000Y-81151000D01*
X136649000Y-77849000D01*
X139951000Y-77849000D01*
X139951000Y-81151000D01*
X139951000Y-81151000D01*
G37*
G36*
X125923651Y-77872888D02*
G01*
X126234870Y-77967296D01*
X126521680Y-78120599D01*
X126521683Y-78120601D01*
X126521684Y-78120602D01*
X126773082Y-78326918D01*
X126979398Y-78578316D01*
X126979401Y-78578320D01*
X127132704Y-78865130D01*
X127227112Y-79176349D01*
X127258988Y-79500000D01*
X127227112Y-79823651D01*
X127132704Y-80134870D01*
X126979401Y-80421680D01*
X126979399Y-80421683D01*
X126979398Y-80421684D01*
X126773082Y-80673082D01*
X126521684Y-80879398D01*
X126521680Y-80879401D01*
X126234870Y-81032704D01*
X125923651Y-81127112D01*
X125681107Y-81151000D01*
X125518893Y-81151000D01*
X125276349Y-81127112D01*
X124965130Y-81032704D01*
X124678320Y-80879401D01*
X124678316Y-80879398D01*
X124426918Y-80673082D01*
X124220602Y-80421684D01*
X124220601Y-80421683D01*
X124220599Y-80421680D01*
X124067296Y-80134870D01*
X123972888Y-79823651D01*
X123941012Y-79500000D01*
X123972888Y-79176349D01*
X124067296Y-78865130D01*
X124220599Y-78578320D01*
X124220602Y-78578316D01*
X124426918Y-78326918D01*
X124678316Y-78120602D01*
X124678317Y-78120601D01*
X124678320Y-78120599D01*
X124965130Y-77967296D01*
X125276349Y-77872888D01*
X125518893Y-77849000D01*
X125681107Y-77849000D01*
X125923651Y-77872888D01*
X125923651Y-77872888D01*
G37*
G36*
X130432463Y-70377229D02*
G01*
X130800228Y-70488790D01*
X131139162Y-70669954D01*
X131436240Y-70913760D01*
X131680046Y-71210838D01*
X131861210Y-71549772D01*
X131972771Y-71917537D01*
X132010440Y-72300000D01*
X131972771Y-72682463D01*
X131861210Y-73050228D01*
X131680046Y-73389162D01*
X131436240Y-73686240D01*
X131139162Y-73930046D01*
X130800228Y-74111210D01*
X130432463Y-74222771D01*
X130145847Y-74251000D01*
X128254153Y-74251000D01*
X127967537Y-74222771D01*
X127599772Y-74111210D01*
X127260838Y-73930046D01*
X126963760Y-73686240D01*
X126719954Y-73389162D01*
X126538790Y-73050228D01*
X126427229Y-72682463D01*
X126389560Y-72300000D01*
X126427229Y-71917537D01*
X126538790Y-71549772D01*
X126719954Y-71210838D01*
X126963760Y-70913760D01*
X127260838Y-70669954D01*
X127599772Y-70488790D01*
X127967537Y-70377229D01*
X128254153Y-70349000D01*
X130145847Y-70349000D01*
X130432463Y-70377229D01*
X130432463Y-70377229D01*
G37*
G36*
X138332463Y-70377229D02*
G01*
X138700228Y-70488790D01*
X139039162Y-70669954D01*
X139336240Y-70913760D01*
X139580046Y-71210838D01*
X139761210Y-71549772D01*
X139872771Y-71917537D01*
X139910440Y-72300000D01*
X139872771Y-72682463D01*
X139761210Y-73050228D01*
X139580046Y-73389162D01*
X139336240Y-73686240D01*
X139039162Y-73930046D01*
X138700228Y-74111210D01*
X138332463Y-74222771D01*
X138045847Y-74251000D01*
X136354153Y-74251000D01*
X136067537Y-74222771D01*
X135699772Y-74111210D01*
X135360838Y-73930046D01*
X135063760Y-73686240D01*
X134819954Y-73389162D01*
X134638790Y-73050228D01*
X134527229Y-72682463D01*
X134489560Y-72300000D01*
X134527229Y-71917537D01*
X134638790Y-71549772D01*
X134819954Y-71210838D01*
X135063760Y-70913760D01*
X135360838Y-70669954D01*
X135699772Y-70488790D01*
X136067537Y-70377229D01*
X136354153Y-70349000D01*
X138045847Y-70349000D01*
X138332463Y-70377229D01*
X138332463Y-70377229D01*
G37*
G36*
X62732463Y-70277229D02*
G01*
X63100228Y-70388790D01*
X63439162Y-70569954D01*
X63736240Y-70813760D01*
X63980046Y-71110838D01*
X64161210Y-71449772D01*
X64272771Y-71817537D01*
X64310440Y-72200000D01*
X64272771Y-72582463D01*
X64161210Y-72950228D01*
X63980046Y-73289162D01*
X63736240Y-73586240D01*
X63439162Y-73830046D01*
X63100228Y-74011210D01*
X62732463Y-74122771D01*
X62445847Y-74151000D01*
X60754153Y-74151000D01*
X60467537Y-74122771D01*
X60099772Y-74011210D01*
X59760838Y-73830046D01*
X59463760Y-73586240D01*
X59219954Y-73289162D01*
X59038790Y-72950228D01*
X58927229Y-72582463D01*
X58889560Y-72200000D01*
X58927229Y-71817537D01*
X59038790Y-71449772D01*
X59219954Y-71110838D01*
X59463760Y-70813760D01*
X59760838Y-70569954D01*
X60099772Y-70388790D01*
X60467537Y-70277229D01*
X60754153Y-70249000D01*
X62445847Y-70249000D01*
X62732463Y-70277229D01*
X62732463Y-70277229D01*
G37*
G36*
X70832463Y-70277229D02*
G01*
X71200228Y-70388790D01*
X71539162Y-70569954D01*
X71836240Y-70813760D01*
X72080046Y-71110838D01*
X72261210Y-71449772D01*
X72372771Y-71817537D01*
X72410440Y-72200000D01*
X72372771Y-72582463D01*
X72261210Y-72950228D01*
X72080046Y-73289162D01*
X71836240Y-73586240D01*
X71539162Y-73830046D01*
X71200228Y-74011210D01*
X70832463Y-74122771D01*
X70545847Y-74151000D01*
X68654153Y-74151000D01*
X68367537Y-74122771D01*
X67999772Y-74011210D01*
X67660838Y-73830046D01*
X67363760Y-73586240D01*
X67119954Y-73289162D01*
X66938790Y-72950228D01*
X66827229Y-72582463D01*
X66789560Y-72200000D01*
X66827229Y-71817537D01*
X66938790Y-71449772D01*
X67119954Y-71110838D01*
X67363760Y-70813760D01*
X67660838Y-70569954D01*
X67999772Y-70388790D01*
X68367537Y-70277229D01*
X68654153Y-70249000D01*
X70545847Y-70249000D01*
X70832463Y-70277229D01*
X70832463Y-70277229D01*
G37*
G36*
X145975256Y-70441298D02*
G01*
X146081579Y-70462447D01*
X146145181Y-70488792D01*
X146374590Y-70583816D01*
X146382042Y-70586903D01*
X146652451Y-70767585D01*
X146882415Y-70997549D01*
X147063097Y-71267958D01*
X147187553Y-71568421D01*
X147251000Y-71887391D01*
X147251000Y-72212609D01*
X147187553Y-72531579D01*
X147063097Y-72832042D01*
X146882415Y-73102451D01*
X146652451Y-73332415D01*
X146382042Y-73513097D01*
X146081579Y-73637553D01*
X145975256Y-73658702D01*
X145762611Y-73701000D01*
X145437389Y-73701000D01*
X145224744Y-73658702D01*
X145118421Y-73637553D01*
X144817958Y-73513097D01*
X144547549Y-73332415D01*
X144317585Y-73102451D01*
X144136903Y-72832042D01*
X144012447Y-72531579D01*
X143949000Y-72212609D01*
X143949000Y-71887391D01*
X144012447Y-71568421D01*
X144136903Y-71267958D01*
X144317585Y-70997549D01*
X144547549Y-70767585D01*
X144817958Y-70586903D01*
X144825411Y-70583816D01*
X145054819Y-70488792D01*
X145118421Y-70462447D01*
X145224744Y-70441298D01*
X145437389Y-70399000D01*
X145762611Y-70399000D01*
X145975256Y-70441298D01*
X145975256Y-70441298D01*
G37*
G36*
X54475256Y-70441298D02*
G01*
X54581579Y-70462447D01*
X54645181Y-70488792D01*
X54874590Y-70583816D01*
X54882042Y-70586903D01*
X55152451Y-70767585D01*
X55382415Y-70997549D01*
X55563097Y-71267958D01*
X55687553Y-71568421D01*
X55751000Y-71887391D01*
X55751000Y-72212609D01*
X55687553Y-72531579D01*
X55563097Y-72832042D01*
X55382415Y-73102451D01*
X55152451Y-73332415D01*
X54882042Y-73513097D01*
X54581579Y-73637553D01*
X54475256Y-73658702D01*
X54262611Y-73701000D01*
X53937389Y-73701000D01*
X53724744Y-73658702D01*
X53618421Y-73637553D01*
X53317958Y-73513097D01*
X53047549Y-73332415D01*
X52817585Y-73102451D01*
X52636903Y-72832042D01*
X52512447Y-72531579D01*
X52449000Y-72212609D01*
X52449000Y-71887391D01*
X52512447Y-71568421D01*
X52636903Y-71267958D01*
X52817585Y-70997549D01*
X53047549Y-70767585D01*
X53317958Y-70586903D01*
X53325411Y-70583816D01*
X53554819Y-70488792D01*
X53618421Y-70462447D01*
X53724744Y-70441298D01*
X53937389Y-70399000D01*
X54262611Y-70399000D01*
X54475256Y-70441298D01*
X54475256Y-70441298D01*
G37*
G36*
X121948228Y-69681703D02*
G01*
X122103100Y-69745853D01*
X122242481Y-69838985D01*
X122361015Y-69957519D01*
X122454147Y-70096900D01*
X122518297Y-70251772D01*
X122551000Y-70416184D01*
X122551000Y-70583816D01*
X122518297Y-70748228D01*
X122454147Y-70903100D01*
X122361015Y-71042481D01*
X122242481Y-71161015D01*
X122103100Y-71254147D01*
X121948228Y-71318297D01*
X121783816Y-71351000D01*
X121616184Y-71351000D01*
X121451772Y-71318297D01*
X121296900Y-71254147D01*
X121157519Y-71161015D01*
X121038985Y-71042481D01*
X120945853Y-70903100D01*
X120881703Y-70748228D01*
X120849000Y-70583816D01*
X120849000Y-70416184D01*
X120881703Y-70251772D01*
X120945853Y-70096900D01*
X121038985Y-69957519D01*
X121157519Y-69838985D01*
X121296900Y-69745853D01*
X121451772Y-69681703D01*
X121616184Y-69649000D01*
X121783816Y-69649000D01*
X121948228Y-69681703D01*
X121948228Y-69681703D01*
G37*
G36*
X77448228Y-69681703D02*
G01*
X77603100Y-69745853D01*
X77742481Y-69838985D01*
X77861015Y-69957519D01*
X77954147Y-70096900D01*
X78018297Y-70251772D01*
X78051000Y-70416184D01*
X78051000Y-70583816D01*
X78018297Y-70748228D01*
X77954147Y-70903100D01*
X77861015Y-71042481D01*
X77742481Y-71161015D01*
X77603100Y-71254147D01*
X77448228Y-71318297D01*
X77283816Y-71351000D01*
X77116184Y-71351000D01*
X76951772Y-71318297D01*
X76796900Y-71254147D01*
X76657519Y-71161015D01*
X76538985Y-71042481D01*
X76445853Y-70903100D01*
X76381703Y-70748228D01*
X76349000Y-70583816D01*
X76349000Y-70416184D01*
X76381703Y-70251772D01*
X76445853Y-70096900D01*
X76538985Y-69957519D01*
X76657519Y-69838985D01*
X76796900Y-69745853D01*
X76951772Y-69681703D01*
X77116184Y-69649000D01*
X77283816Y-69649000D01*
X77448228Y-69681703D01*
X77448228Y-69681703D01*
G37*
G36*
X109263229Y-68406704D02*
G01*
X109418101Y-68470854D01*
X109557482Y-68563986D01*
X109676016Y-68682520D01*
X109769148Y-68821901D01*
X109833298Y-68976773D01*
X109866001Y-69141185D01*
X109866001Y-69308817D01*
X109833298Y-69473229D01*
X109769148Y-69628101D01*
X109676016Y-69767482D01*
X109557482Y-69886016D01*
X109418101Y-69979148D01*
X109263229Y-70043298D01*
X109098817Y-70076001D01*
X108931185Y-70076001D01*
X108766773Y-70043298D01*
X108611901Y-69979148D01*
X108472520Y-69886016D01*
X108353986Y-69767482D01*
X108260854Y-69628101D01*
X108196704Y-69473229D01*
X108164001Y-69308817D01*
X108164001Y-69141185D01*
X108196704Y-68976773D01*
X108260854Y-68821901D01*
X108353986Y-68682520D01*
X108472520Y-68563986D01*
X108611901Y-68470854D01*
X108766773Y-68406704D01*
X108931185Y-68374001D01*
X109098817Y-68374001D01*
X109263229Y-68406704D01*
X109263229Y-68406704D01*
G37*
G36*
X111721824Y-68386314D02*
G01*
X111882243Y-68434977D01*
X111949362Y-68470853D01*
X112030079Y-68513997D01*
X112159660Y-68620342D01*
X112266005Y-68749923D01*
X112266006Y-68749925D01*
X112345025Y-68897759D01*
X112393688Y-69058178D01*
X112410118Y-69225001D01*
X112393688Y-69391824D01*
X112345025Y-69552243D01*
X112304478Y-69628101D01*
X112266005Y-69700079D01*
X112159660Y-69829660D01*
X112030079Y-69936005D01*
X112030077Y-69936006D01*
X111882243Y-70015025D01*
X111721824Y-70063688D01*
X111596805Y-70076001D01*
X111513197Y-70076001D01*
X111388178Y-70063688D01*
X111227759Y-70015025D01*
X111079925Y-69936006D01*
X111079923Y-69936005D01*
X110950342Y-69829660D01*
X110843997Y-69700079D01*
X110805524Y-69628101D01*
X110764977Y-69552243D01*
X110716314Y-69391824D01*
X110699884Y-69225001D01*
X110716314Y-69058178D01*
X110764977Y-68897759D01*
X110843996Y-68749925D01*
X110843997Y-68749923D01*
X110950342Y-68620342D01*
X111079923Y-68513997D01*
X111160640Y-68470853D01*
X111227759Y-68434977D01*
X111388178Y-68386314D01*
X111513197Y-68374001D01*
X111596805Y-68374001D01*
X111721824Y-68386314D01*
X111721824Y-68386314D01*
G37*
G36*
X103123229Y-68406704D02*
G01*
X103278101Y-68470854D01*
X103417482Y-68563986D01*
X103536016Y-68682520D01*
X103629148Y-68821901D01*
X103693298Y-68976773D01*
X103726001Y-69141185D01*
X103726001Y-69308817D01*
X103693298Y-69473229D01*
X103629148Y-69628101D01*
X103536016Y-69767482D01*
X103417482Y-69886016D01*
X103278101Y-69979148D01*
X103123229Y-70043298D01*
X102958817Y-70076001D01*
X102791185Y-70076001D01*
X102626773Y-70043298D01*
X102471901Y-69979148D01*
X102332520Y-69886016D01*
X102213986Y-69767482D01*
X102120854Y-69628101D01*
X102056704Y-69473229D01*
X102024001Y-69308817D01*
X102024001Y-69141185D01*
X102056704Y-68976773D01*
X102120854Y-68821901D01*
X102213986Y-68682520D01*
X102332520Y-68563986D01*
X102471901Y-68470854D01*
X102626773Y-68406704D01*
X102791185Y-68374001D01*
X102958817Y-68374001D01*
X103123229Y-68406704D01*
X103123229Y-68406704D01*
G37*
G36*
X105581824Y-68386314D02*
G01*
X105742243Y-68434977D01*
X105809362Y-68470853D01*
X105890079Y-68513997D01*
X106019660Y-68620342D01*
X106126005Y-68749923D01*
X106126006Y-68749925D01*
X106205025Y-68897759D01*
X106253688Y-69058178D01*
X106270118Y-69225001D01*
X106253688Y-69391824D01*
X106205025Y-69552243D01*
X106164478Y-69628101D01*
X106126005Y-69700079D01*
X106019660Y-69829660D01*
X105890079Y-69936005D01*
X105890077Y-69936006D01*
X105742243Y-70015025D01*
X105581824Y-70063688D01*
X105456805Y-70076001D01*
X105373197Y-70076001D01*
X105248178Y-70063688D01*
X105087759Y-70015025D01*
X104939925Y-69936006D01*
X104939923Y-69936005D01*
X104810342Y-69829660D01*
X104703997Y-69700079D01*
X104665524Y-69628101D01*
X104624977Y-69552243D01*
X104576314Y-69391824D01*
X104559884Y-69225001D01*
X104576314Y-69058178D01*
X104624977Y-68897759D01*
X104703996Y-68749925D01*
X104703997Y-68749923D01*
X104810342Y-68620342D01*
X104939923Y-68513997D01*
X105020640Y-68470853D01*
X105087759Y-68434977D01*
X105248178Y-68386314D01*
X105373197Y-68374001D01*
X105456805Y-68374001D01*
X105581824Y-68386314D01*
X105581824Y-68386314D01*
G37*
G36*
X67951000Y-67551000D02*
G01*
X64849000Y-67551000D01*
X64849000Y-64449000D01*
X67951000Y-64449000D01*
X67951000Y-67551000D01*
X67951000Y-67551000D01*
G37*
G36*
X61554128Y-64465185D02*
G01*
X61772410Y-64508604D01*
X62054674Y-64625521D01*
X62308705Y-64795259D01*
X62524741Y-65011295D01*
X62694479Y-65265326D01*
X62811396Y-65547590D01*
X62871000Y-65847240D01*
X62871000Y-66152760D01*
X62811396Y-66452410D01*
X62694479Y-66734674D01*
X62524741Y-66988705D01*
X62308705Y-67204741D01*
X62054674Y-67374479D01*
X61772410Y-67491396D01*
X61622585Y-67521198D01*
X61472761Y-67551000D01*
X61167239Y-67551000D01*
X61017415Y-67521198D01*
X60867590Y-67491396D01*
X60585326Y-67374479D01*
X60331295Y-67204741D01*
X60115259Y-66988705D01*
X59945521Y-66734674D01*
X59828604Y-66452410D01*
X59769000Y-66152760D01*
X59769000Y-65847240D01*
X59828604Y-65547590D01*
X59945521Y-65265326D01*
X60115259Y-65011295D01*
X60331295Y-64795259D01*
X60585326Y-64625521D01*
X60867590Y-64508604D01*
X61085872Y-64465185D01*
X61167239Y-64449000D01*
X61472761Y-64449000D01*
X61554128Y-64465185D01*
X61554128Y-64465185D01*
G37*
G36*
X133851000Y-67451000D02*
G01*
X130749000Y-67451000D01*
X130749000Y-64349000D01*
X133851000Y-64349000D01*
X133851000Y-67451000D01*
X133851000Y-67451000D01*
G37*
G36*
X137682585Y-64378802D02*
G01*
X137832410Y-64408604D01*
X138114674Y-64525521D01*
X138368705Y-64695259D01*
X138584741Y-64911295D01*
X138754479Y-65165326D01*
X138871396Y-65447590D01*
X138931000Y-65747240D01*
X138931000Y-66052760D01*
X138871396Y-66352410D01*
X138754479Y-66634674D01*
X138584741Y-66888705D01*
X138368705Y-67104741D01*
X138114674Y-67274479D01*
X137832410Y-67391396D01*
X137682585Y-67421198D01*
X137532761Y-67451000D01*
X137227239Y-67451000D01*
X137077415Y-67421198D01*
X136927590Y-67391396D01*
X136645326Y-67274479D01*
X136391295Y-67104741D01*
X136175259Y-66888705D01*
X136005521Y-66634674D01*
X135888604Y-66352410D01*
X135829000Y-66052760D01*
X135829000Y-65747240D01*
X135888604Y-65447590D01*
X136005521Y-65165326D01*
X136175259Y-64911295D01*
X136391295Y-64695259D01*
X136645326Y-64525521D01*
X136927590Y-64408604D01*
X137077415Y-64378802D01*
X137227239Y-64349000D01*
X137532761Y-64349000D01*
X137682585Y-64378802D01*
X137682585Y-64378802D01*
G37*
G36*
X77448228Y-64681703D02*
G01*
X77603100Y-64745853D01*
X77742481Y-64838985D01*
X77861015Y-64957519D01*
X77954147Y-65096900D01*
X78018297Y-65251772D01*
X78051000Y-65416184D01*
X78051000Y-65583816D01*
X78018297Y-65748228D01*
X77954147Y-65903100D01*
X77861015Y-66042481D01*
X77742481Y-66161015D01*
X77603100Y-66254147D01*
X77448228Y-66318297D01*
X77283816Y-66351000D01*
X77116184Y-66351000D01*
X76951772Y-66318297D01*
X76796900Y-66254147D01*
X76657519Y-66161015D01*
X76538985Y-66042481D01*
X76445853Y-65903100D01*
X76381703Y-65748228D01*
X76349000Y-65583816D01*
X76349000Y-65416184D01*
X76381703Y-65251772D01*
X76445853Y-65096900D01*
X76538985Y-64957519D01*
X76657519Y-64838985D01*
X76796900Y-64745853D01*
X76951772Y-64681703D01*
X77116184Y-64649000D01*
X77283816Y-64649000D01*
X77448228Y-64681703D01*
X77448228Y-64681703D01*
G37*
G36*
X121948228Y-64681703D02*
G01*
X122103100Y-64745853D01*
X122242481Y-64838985D01*
X122361015Y-64957519D01*
X122454147Y-65096900D01*
X122518297Y-65251772D01*
X122551000Y-65416184D01*
X122551000Y-65583816D01*
X122518297Y-65748228D01*
X122454147Y-65903100D01*
X122361015Y-66042481D01*
X122242481Y-66161015D01*
X122103100Y-66254147D01*
X121948228Y-66318297D01*
X121783816Y-66351000D01*
X121616184Y-66351000D01*
X121451772Y-66318297D01*
X121296900Y-66254147D01*
X121157519Y-66161015D01*
X121038985Y-66042481D01*
X120945853Y-65903100D01*
X120881703Y-65748228D01*
X120849000Y-65583816D01*
X120849000Y-65416184D01*
X120881703Y-65251772D01*
X120945853Y-65096900D01*
X121038985Y-64957519D01*
X121157519Y-64838985D01*
X121296900Y-64745853D01*
X121451772Y-64681703D01*
X121616184Y-64649000D01*
X121783816Y-64649000D01*
X121948228Y-64681703D01*
X121948228Y-64681703D01*
G37*
G36*
X103576626Y-62687037D02*
G01*
X103746465Y-62738557D01*
X103746467Y-62738558D01*
X103902989Y-62822221D01*
X104040186Y-62934814D01*
X104123448Y-63036271D01*
X104152778Y-63072009D01*
X104236443Y-63228534D01*
X104287963Y-63398373D01*
X104301000Y-63530742D01*
X104301000Y-63869257D01*
X104287963Y-64001626D01*
X104236443Y-64171466D01*
X104152778Y-64327991D01*
X104135536Y-64349000D01*
X104040186Y-64465186D01*
X103945250Y-64543097D01*
X103902991Y-64577778D01*
X103746466Y-64661443D01*
X103576627Y-64712963D01*
X103400000Y-64730359D01*
X103223374Y-64712963D01*
X103053535Y-64661443D01*
X102897010Y-64577778D01*
X102759815Y-64465185D01*
X102647222Y-64327991D01*
X102563557Y-64171466D01*
X102512037Y-64001627D01*
X102499000Y-63869258D01*
X102499000Y-63530743D01*
X102512037Y-63398374D01*
X102563557Y-63228535D01*
X102647222Y-63072010D01*
X102647223Y-63072009D01*
X102759814Y-62934814D01*
X102861271Y-62851552D01*
X102897009Y-62822222D01*
X103053534Y-62738557D01*
X103223373Y-62687037D01*
X103400000Y-62669641D01*
X103576626Y-62687037D01*
X103576626Y-62687037D01*
G37*
G36*
X106076626Y-62687037D02*
G01*
X106246465Y-62738557D01*
X106246467Y-62738558D01*
X106402989Y-62822221D01*
X106540186Y-62934814D01*
X106623448Y-63036271D01*
X106652778Y-63072009D01*
X106736443Y-63228534D01*
X106787963Y-63398373D01*
X106801000Y-63530742D01*
X106801000Y-63869257D01*
X106787963Y-64001626D01*
X106736443Y-64171466D01*
X106652778Y-64327991D01*
X106635536Y-64349000D01*
X106540186Y-64465186D01*
X106445250Y-64543097D01*
X106402991Y-64577778D01*
X106246466Y-64661443D01*
X106076627Y-64712963D01*
X105900000Y-64730359D01*
X105723374Y-64712963D01*
X105553535Y-64661443D01*
X105397010Y-64577778D01*
X105259815Y-64465185D01*
X105147222Y-64327991D01*
X105063557Y-64171466D01*
X105012037Y-64001627D01*
X104999000Y-63869258D01*
X104999000Y-63530743D01*
X105012037Y-63398374D01*
X105063557Y-63228535D01*
X105147222Y-63072010D01*
X105147223Y-63072009D01*
X105259814Y-62934814D01*
X105361271Y-62851552D01*
X105397009Y-62822222D01*
X105553534Y-62738557D01*
X105723373Y-62687037D01*
X105900000Y-62669641D01*
X106076626Y-62687037D01*
X106076626Y-62687037D01*
G37*
G36*
X108576626Y-62687037D02*
G01*
X108746465Y-62738557D01*
X108746467Y-62738558D01*
X108902989Y-62822221D01*
X109040186Y-62934814D01*
X109123448Y-63036271D01*
X109152778Y-63072009D01*
X109236443Y-63228534D01*
X109287963Y-63398373D01*
X109301000Y-63530742D01*
X109301000Y-63869257D01*
X109287963Y-64001626D01*
X109236443Y-64171466D01*
X109152778Y-64327991D01*
X109135536Y-64349000D01*
X109040186Y-64465186D01*
X108945250Y-64543097D01*
X108902991Y-64577778D01*
X108746466Y-64661443D01*
X108576627Y-64712963D01*
X108400000Y-64730359D01*
X108223374Y-64712963D01*
X108053535Y-64661443D01*
X107897010Y-64577778D01*
X107759815Y-64465185D01*
X107647222Y-64327991D01*
X107563557Y-64171466D01*
X107512037Y-64001627D01*
X107499000Y-63869258D01*
X107499000Y-63530743D01*
X107512037Y-63398374D01*
X107563557Y-63228535D01*
X107647222Y-63072010D01*
X107647223Y-63072009D01*
X107759814Y-62934814D01*
X107861271Y-62851552D01*
X107897009Y-62822222D01*
X108053534Y-62738557D01*
X108223373Y-62687037D01*
X108400000Y-62669641D01*
X108576626Y-62687037D01*
X108576626Y-62687037D01*
G37*
G36*
X101658600Y-62677989D02*
G01*
X101691652Y-62688015D01*
X101722103Y-62704292D01*
X101748799Y-62726201D01*
X101770708Y-62752897D01*
X101786985Y-62783348D01*
X101797011Y-62816400D01*
X101801000Y-62856903D01*
X101801000Y-64543097D01*
X101797011Y-64583600D01*
X101786985Y-64616652D01*
X101770708Y-64647103D01*
X101748799Y-64673799D01*
X101722103Y-64695708D01*
X101691652Y-64711985D01*
X101658600Y-64722011D01*
X101618097Y-64726000D01*
X100181903Y-64726000D01*
X100141400Y-64722011D01*
X100108348Y-64711985D01*
X100077897Y-64695708D01*
X100051201Y-64673799D01*
X100029292Y-64647103D01*
X100013015Y-64616652D01*
X100002989Y-64583600D01*
X99999000Y-64543097D01*
X99999000Y-62856903D01*
X100002989Y-62816400D01*
X100013015Y-62783348D01*
X100029292Y-62752897D01*
X100051201Y-62726201D01*
X100077897Y-62704292D01*
X100108348Y-62688015D01*
X100141400Y-62677989D01*
X100181903Y-62674000D01*
X101618097Y-62674000D01*
X101658600Y-62677989D01*
X101658600Y-62677989D01*
G37*
M02*
