G04 #@! TF.GenerationSoftware,KiCad,Pcbnew,(5.1.2)-2*
G04 #@! TF.CreationDate,2019-10-27T19:51:02+01:00*
G04 #@! TF.ProjectId,Servo_PCB,53657276-6f5f-4504-9342-2e6b69636164,rev?*
G04 #@! TF.SameCoordinates,Original*
G04 #@! TF.FileFunction,Copper,L1,Top*
G04 #@! TF.FilePolarity,Positive*
%FSLAX46Y46*%
G04 Gerber Fmt 4.6, Leading zero omitted, Abs format (unit mm)*
G04 Created by KiCad (PCBNEW (5.1.2)-2) date 2019-10-27 19:51:02*
%MOMM*%
%LPD*%
G04 APERTURE LIST*
%ADD10R,1.500000X1.500000*%
%ADD11O,1.700000X1.700000*%
%ADD12R,1.700000X1.700000*%
%ADD13C,0.100000*%
%ADD14C,1.250000*%
%ADD15C,1.150000*%
%ADD16C,1.600000*%
%ADD17O,3.200000X3.200000*%
%ADD18R,3.200000X3.200000*%
%ADD19O,5.300000X3.800000*%
%ADD20O,5.500000X3.800000*%
%ADD21R,3.000000X3.000000*%
%ADD22C,3.000000*%
%ADD23C,1.700000*%
%ADD24O,1.700000X1.950000*%
%ADD25R,1.000000X1.500000*%
%ADD26R,1.100000X0.400000*%
%ADD27C,0.975000*%
%ADD28C,0.950000*%
%ADD29O,1.600000X1.600000*%
%ADD30R,0.900000X0.900000*%
%ADD31C,0.800000*%
%ADD32C,0.250000*%
%ADD33C,2.000000*%
%ADD34C,6.000000*%
G04 APERTURE END LIST*
D10*
X141250000Y-87400000D03*
X141250000Y-95000000D03*
X134400000Y-87400000D03*
X134400000Y-95000000D03*
X127600000Y-87600000D03*
X127600000Y-95000000D03*
X120750000Y-87600000D03*
X120750000Y-95000000D03*
X113900000Y-87600000D03*
X113900000Y-95000000D03*
X107100000Y-87600000D03*
X107100000Y-95000000D03*
X100200000Y-87600000D03*
X100200000Y-95000000D03*
X93400000Y-87600000D03*
X86600000Y-95000000D03*
X86600000Y-87550000D03*
X93400000Y-95000000D03*
X79750000Y-87550000D03*
X79700000Y-95000000D03*
X72900000Y-87550000D03*
X72900000Y-95000000D03*
X66100000Y-87500000D03*
X66100000Y-95000000D03*
D11*
X137850000Y-92580000D03*
X137850000Y-90040000D03*
D12*
X137850000Y-87500000D03*
D11*
X131000000Y-92580000D03*
X131000000Y-90040000D03*
D12*
X131000000Y-87500000D03*
D11*
X124150000Y-92580000D03*
X124150000Y-90040000D03*
D12*
X124150000Y-87500000D03*
D11*
X117350000Y-92580000D03*
X117350000Y-90040000D03*
D12*
X117350000Y-87500000D03*
D11*
X110500000Y-92580000D03*
X110500000Y-90040000D03*
D12*
X110500000Y-87500000D03*
D11*
X103650000Y-92580000D03*
X103650000Y-90040000D03*
D12*
X103650000Y-87500000D03*
D11*
X96800000Y-92580000D03*
X96800000Y-90040000D03*
D12*
X96800000Y-87500000D03*
D11*
X90000000Y-92580000D03*
X90000000Y-90040000D03*
D12*
X90000000Y-87500000D03*
D11*
X83200000Y-92580000D03*
X83200000Y-90040000D03*
D12*
X83200000Y-87500000D03*
D11*
X76300000Y-92580000D03*
X76300000Y-90040000D03*
D12*
X76300000Y-87500000D03*
D11*
X69500000Y-92580000D03*
X69500000Y-90040000D03*
D12*
X69500000Y-87500000D03*
D11*
X62700000Y-92580000D03*
X62700000Y-90040000D03*
D12*
X62700000Y-87500000D03*
D13*
G36*
X142349504Y-89426204D02*
G01*
X142373773Y-89429804D01*
X142397571Y-89435765D01*
X142420671Y-89444030D01*
X142442849Y-89454520D01*
X142463893Y-89467133D01*
X142483598Y-89481747D01*
X142501777Y-89498223D01*
X142518253Y-89516402D01*
X142532867Y-89536107D01*
X142545480Y-89557151D01*
X142555970Y-89579329D01*
X142564235Y-89602429D01*
X142570196Y-89626227D01*
X142573796Y-89650496D01*
X142575000Y-89675000D01*
X142575000Y-90425000D01*
X142573796Y-90449504D01*
X142570196Y-90473773D01*
X142564235Y-90497571D01*
X142555970Y-90520671D01*
X142545480Y-90542849D01*
X142532867Y-90563893D01*
X142518253Y-90583598D01*
X142501777Y-90601777D01*
X142483598Y-90618253D01*
X142463893Y-90632867D01*
X142442849Y-90645480D01*
X142420671Y-90655970D01*
X142397571Y-90664235D01*
X142373773Y-90670196D01*
X142349504Y-90673796D01*
X142325000Y-90675000D01*
X140175000Y-90675000D01*
X140150496Y-90673796D01*
X140126227Y-90670196D01*
X140102429Y-90664235D01*
X140079329Y-90655970D01*
X140057151Y-90645480D01*
X140036107Y-90632867D01*
X140016402Y-90618253D01*
X139998223Y-90601777D01*
X139981747Y-90583598D01*
X139967133Y-90563893D01*
X139954520Y-90542849D01*
X139944030Y-90520671D01*
X139935765Y-90497571D01*
X139929804Y-90473773D01*
X139926204Y-90449504D01*
X139925000Y-90425000D01*
X139925000Y-89675000D01*
X139926204Y-89650496D01*
X139929804Y-89626227D01*
X139935765Y-89602429D01*
X139944030Y-89579329D01*
X139954520Y-89557151D01*
X139967133Y-89536107D01*
X139981747Y-89516402D01*
X139998223Y-89498223D01*
X140016402Y-89481747D01*
X140036107Y-89467133D01*
X140057151Y-89454520D01*
X140079329Y-89444030D01*
X140102429Y-89435765D01*
X140126227Y-89429804D01*
X140150496Y-89426204D01*
X140175000Y-89425000D01*
X142325000Y-89425000D01*
X142349504Y-89426204D01*
X142349504Y-89426204D01*
G37*
D14*
X141250000Y-90050000D03*
D13*
G36*
X142349504Y-92226204D02*
G01*
X142373773Y-92229804D01*
X142397571Y-92235765D01*
X142420671Y-92244030D01*
X142442849Y-92254520D01*
X142463893Y-92267133D01*
X142483598Y-92281747D01*
X142501777Y-92298223D01*
X142518253Y-92316402D01*
X142532867Y-92336107D01*
X142545480Y-92357151D01*
X142555970Y-92379329D01*
X142564235Y-92402429D01*
X142570196Y-92426227D01*
X142573796Y-92450496D01*
X142575000Y-92475000D01*
X142575000Y-93225000D01*
X142573796Y-93249504D01*
X142570196Y-93273773D01*
X142564235Y-93297571D01*
X142555970Y-93320671D01*
X142545480Y-93342849D01*
X142532867Y-93363893D01*
X142518253Y-93383598D01*
X142501777Y-93401777D01*
X142483598Y-93418253D01*
X142463893Y-93432867D01*
X142442849Y-93445480D01*
X142420671Y-93455970D01*
X142397571Y-93464235D01*
X142373773Y-93470196D01*
X142349504Y-93473796D01*
X142325000Y-93475000D01*
X140175000Y-93475000D01*
X140150496Y-93473796D01*
X140126227Y-93470196D01*
X140102429Y-93464235D01*
X140079329Y-93455970D01*
X140057151Y-93445480D01*
X140036107Y-93432867D01*
X140016402Y-93418253D01*
X139998223Y-93401777D01*
X139981747Y-93383598D01*
X139967133Y-93363893D01*
X139954520Y-93342849D01*
X139944030Y-93320671D01*
X139935765Y-93297571D01*
X139929804Y-93273773D01*
X139926204Y-93249504D01*
X139925000Y-93225000D01*
X139925000Y-92475000D01*
X139926204Y-92450496D01*
X139929804Y-92426227D01*
X139935765Y-92402429D01*
X139944030Y-92379329D01*
X139954520Y-92357151D01*
X139967133Y-92336107D01*
X139981747Y-92316402D01*
X139998223Y-92298223D01*
X140016402Y-92281747D01*
X140036107Y-92267133D01*
X140057151Y-92254520D01*
X140079329Y-92244030D01*
X140102429Y-92235765D01*
X140126227Y-92229804D01*
X140150496Y-92226204D01*
X140175000Y-92225000D01*
X142325000Y-92225000D01*
X142349504Y-92226204D01*
X142349504Y-92226204D01*
G37*
D14*
X141250000Y-92850000D03*
D13*
G36*
X135499504Y-89426204D02*
G01*
X135523773Y-89429804D01*
X135547571Y-89435765D01*
X135570671Y-89444030D01*
X135592849Y-89454520D01*
X135613893Y-89467133D01*
X135633598Y-89481747D01*
X135651777Y-89498223D01*
X135668253Y-89516402D01*
X135682867Y-89536107D01*
X135695480Y-89557151D01*
X135705970Y-89579329D01*
X135714235Y-89602429D01*
X135720196Y-89626227D01*
X135723796Y-89650496D01*
X135725000Y-89675000D01*
X135725000Y-90425000D01*
X135723796Y-90449504D01*
X135720196Y-90473773D01*
X135714235Y-90497571D01*
X135705970Y-90520671D01*
X135695480Y-90542849D01*
X135682867Y-90563893D01*
X135668253Y-90583598D01*
X135651777Y-90601777D01*
X135633598Y-90618253D01*
X135613893Y-90632867D01*
X135592849Y-90645480D01*
X135570671Y-90655970D01*
X135547571Y-90664235D01*
X135523773Y-90670196D01*
X135499504Y-90673796D01*
X135475000Y-90675000D01*
X133325000Y-90675000D01*
X133300496Y-90673796D01*
X133276227Y-90670196D01*
X133252429Y-90664235D01*
X133229329Y-90655970D01*
X133207151Y-90645480D01*
X133186107Y-90632867D01*
X133166402Y-90618253D01*
X133148223Y-90601777D01*
X133131747Y-90583598D01*
X133117133Y-90563893D01*
X133104520Y-90542849D01*
X133094030Y-90520671D01*
X133085765Y-90497571D01*
X133079804Y-90473773D01*
X133076204Y-90449504D01*
X133075000Y-90425000D01*
X133075000Y-89675000D01*
X133076204Y-89650496D01*
X133079804Y-89626227D01*
X133085765Y-89602429D01*
X133094030Y-89579329D01*
X133104520Y-89557151D01*
X133117133Y-89536107D01*
X133131747Y-89516402D01*
X133148223Y-89498223D01*
X133166402Y-89481747D01*
X133186107Y-89467133D01*
X133207151Y-89454520D01*
X133229329Y-89444030D01*
X133252429Y-89435765D01*
X133276227Y-89429804D01*
X133300496Y-89426204D01*
X133325000Y-89425000D01*
X135475000Y-89425000D01*
X135499504Y-89426204D01*
X135499504Y-89426204D01*
G37*
D14*
X134400000Y-90050000D03*
D13*
G36*
X135499504Y-92226204D02*
G01*
X135523773Y-92229804D01*
X135547571Y-92235765D01*
X135570671Y-92244030D01*
X135592849Y-92254520D01*
X135613893Y-92267133D01*
X135633598Y-92281747D01*
X135651777Y-92298223D01*
X135668253Y-92316402D01*
X135682867Y-92336107D01*
X135695480Y-92357151D01*
X135705970Y-92379329D01*
X135714235Y-92402429D01*
X135720196Y-92426227D01*
X135723796Y-92450496D01*
X135725000Y-92475000D01*
X135725000Y-93225000D01*
X135723796Y-93249504D01*
X135720196Y-93273773D01*
X135714235Y-93297571D01*
X135705970Y-93320671D01*
X135695480Y-93342849D01*
X135682867Y-93363893D01*
X135668253Y-93383598D01*
X135651777Y-93401777D01*
X135633598Y-93418253D01*
X135613893Y-93432867D01*
X135592849Y-93445480D01*
X135570671Y-93455970D01*
X135547571Y-93464235D01*
X135523773Y-93470196D01*
X135499504Y-93473796D01*
X135475000Y-93475000D01*
X133325000Y-93475000D01*
X133300496Y-93473796D01*
X133276227Y-93470196D01*
X133252429Y-93464235D01*
X133229329Y-93455970D01*
X133207151Y-93445480D01*
X133186107Y-93432867D01*
X133166402Y-93418253D01*
X133148223Y-93401777D01*
X133131747Y-93383598D01*
X133117133Y-93363893D01*
X133104520Y-93342849D01*
X133094030Y-93320671D01*
X133085765Y-93297571D01*
X133079804Y-93273773D01*
X133076204Y-93249504D01*
X133075000Y-93225000D01*
X133075000Y-92475000D01*
X133076204Y-92450496D01*
X133079804Y-92426227D01*
X133085765Y-92402429D01*
X133094030Y-92379329D01*
X133104520Y-92357151D01*
X133117133Y-92336107D01*
X133131747Y-92316402D01*
X133148223Y-92298223D01*
X133166402Y-92281747D01*
X133186107Y-92267133D01*
X133207151Y-92254520D01*
X133229329Y-92244030D01*
X133252429Y-92235765D01*
X133276227Y-92229804D01*
X133300496Y-92226204D01*
X133325000Y-92225000D01*
X135475000Y-92225000D01*
X135499504Y-92226204D01*
X135499504Y-92226204D01*
G37*
D14*
X134400000Y-92850000D03*
D13*
G36*
X128699504Y-89426204D02*
G01*
X128723773Y-89429804D01*
X128747571Y-89435765D01*
X128770671Y-89444030D01*
X128792849Y-89454520D01*
X128813893Y-89467133D01*
X128833598Y-89481747D01*
X128851777Y-89498223D01*
X128868253Y-89516402D01*
X128882867Y-89536107D01*
X128895480Y-89557151D01*
X128905970Y-89579329D01*
X128914235Y-89602429D01*
X128920196Y-89626227D01*
X128923796Y-89650496D01*
X128925000Y-89675000D01*
X128925000Y-90425000D01*
X128923796Y-90449504D01*
X128920196Y-90473773D01*
X128914235Y-90497571D01*
X128905970Y-90520671D01*
X128895480Y-90542849D01*
X128882867Y-90563893D01*
X128868253Y-90583598D01*
X128851777Y-90601777D01*
X128833598Y-90618253D01*
X128813893Y-90632867D01*
X128792849Y-90645480D01*
X128770671Y-90655970D01*
X128747571Y-90664235D01*
X128723773Y-90670196D01*
X128699504Y-90673796D01*
X128675000Y-90675000D01*
X126525000Y-90675000D01*
X126500496Y-90673796D01*
X126476227Y-90670196D01*
X126452429Y-90664235D01*
X126429329Y-90655970D01*
X126407151Y-90645480D01*
X126386107Y-90632867D01*
X126366402Y-90618253D01*
X126348223Y-90601777D01*
X126331747Y-90583598D01*
X126317133Y-90563893D01*
X126304520Y-90542849D01*
X126294030Y-90520671D01*
X126285765Y-90497571D01*
X126279804Y-90473773D01*
X126276204Y-90449504D01*
X126275000Y-90425000D01*
X126275000Y-89675000D01*
X126276204Y-89650496D01*
X126279804Y-89626227D01*
X126285765Y-89602429D01*
X126294030Y-89579329D01*
X126304520Y-89557151D01*
X126317133Y-89536107D01*
X126331747Y-89516402D01*
X126348223Y-89498223D01*
X126366402Y-89481747D01*
X126386107Y-89467133D01*
X126407151Y-89454520D01*
X126429329Y-89444030D01*
X126452429Y-89435765D01*
X126476227Y-89429804D01*
X126500496Y-89426204D01*
X126525000Y-89425000D01*
X128675000Y-89425000D01*
X128699504Y-89426204D01*
X128699504Y-89426204D01*
G37*
D14*
X127600000Y-90050000D03*
D13*
G36*
X128699504Y-92226204D02*
G01*
X128723773Y-92229804D01*
X128747571Y-92235765D01*
X128770671Y-92244030D01*
X128792849Y-92254520D01*
X128813893Y-92267133D01*
X128833598Y-92281747D01*
X128851777Y-92298223D01*
X128868253Y-92316402D01*
X128882867Y-92336107D01*
X128895480Y-92357151D01*
X128905970Y-92379329D01*
X128914235Y-92402429D01*
X128920196Y-92426227D01*
X128923796Y-92450496D01*
X128925000Y-92475000D01*
X128925000Y-93225000D01*
X128923796Y-93249504D01*
X128920196Y-93273773D01*
X128914235Y-93297571D01*
X128905970Y-93320671D01*
X128895480Y-93342849D01*
X128882867Y-93363893D01*
X128868253Y-93383598D01*
X128851777Y-93401777D01*
X128833598Y-93418253D01*
X128813893Y-93432867D01*
X128792849Y-93445480D01*
X128770671Y-93455970D01*
X128747571Y-93464235D01*
X128723773Y-93470196D01*
X128699504Y-93473796D01*
X128675000Y-93475000D01*
X126525000Y-93475000D01*
X126500496Y-93473796D01*
X126476227Y-93470196D01*
X126452429Y-93464235D01*
X126429329Y-93455970D01*
X126407151Y-93445480D01*
X126386107Y-93432867D01*
X126366402Y-93418253D01*
X126348223Y-93401777D01*
X126331747Y-93383598D01*
X126317133Y-93363893D01*
X126304520Y-93342849D01*
X126294030Y-93320671D01*
X126285765Y-93297571D01*
X126279804Y-93273773D01*
X126276204Y-93249504D01*
X126275000Y-93225000D01*
X126275000Y-92475000D01*
X126276204Y-92450496D01*
X126279804Y-92426227D01*
X126285765Y-92402429D01*
X126294030Y-92379329D01*
X126304520Y-92357151D01*
X126317133Y-92336107D01*
X126331747Y-92316402D01*
X126348223Y-92298223D01*
X126366402Y-92281747D01*
X126386107Y-92267133D01*
X126407151Y-92254520D01*
X126429329Y-92244030D01*
X126452429Y-92235765D01*
X126476227Y-92229804D01*
X126500496Y-92226204D01*
X126525000Y-92225000D01*
X128675000Y-92225000D01*
X128699504Y-92226204D01*
X128699504Y-92226204D01*
G37*
D14*
X127600000Y-92850000D03*
D13*
G36*
X121849504Y-89426204D02*
G01*
X121873773Y-89429804D01*
X121897571Y-89435765D01*
X121920671Y-89444030D01*
X121942849Y-89454520D01*
X121963893Y-89467133D01*
X121983598Y-89481747D01*
X122001777Y-89498223D01*
X122018253Y-89516402D01*
X122032867Y-89536107D01*
X122045480Y-89557151D01*
X122055970Y-89579329D01*
X122064235Y-89602429D01*
X122070196Y-89626227D01*
X122073796Y-89650496D01*
X122075000Y-89675000D01*
X122075000Y-90425000D01*
X122073796Y-90449504D01*
X122070196Y-90473773D01*
X122064235Y-90497571D01*
X122055970Y-90520671D01*
X122045480Y-90542849D01*
X122032867Y-90563893D01*
X122018253Y-90583598D01*
X122001777Y-90601777D01*
X121983598Y-90618253D01*
X121963893Y-90632867D01*
X121942849Y-90645480D01*
X121920671Y-90655970D01*
X121897571Y-90664235D01*
X121873773Y-90670196D01*
X121849504Y-90673796D01*
X121825000Y-90675000D01*
X119675000Y-90675000D01*
X119650496Y-90673796D01*
X119626227Y-90670196D01*
X119602429Y-90664235D01*
X119579329Y-90655970D01*
X119557151Y-90645480D01*
X119536107Y-90632867D01*
X119516402Y-90618253D01*
X119498223Y-90601777D01*
X119481747Y-90583598D01*
X119467133Y-90563893D01*
X119454520Y-90542849D01*
X119444030Y-90520671D01*
X119435765Y-90497571D01*
X119429804Y-90473773D01*
X119426204Y-90449504D01*
X119425000Y-90425000D01*
X119425000Y-89675000D01*
X119426204Y-89650496D01*
X119429804Y-89626227D01*
X119435765Y-89602429D01*
X119444030Y-89579329D01*
X119454520Y-89557151D01*
X119467133Y-89536107D01*
X119481747Y-89516402D01*
X119498223Y-89498223D01*
X119516402Y-89481747D01*
X119536107Y-89467133D01*
X119557151Y-89454520D01*
X119579329Y-89444030D01*
X119602429Y-89435765D01*
X119626227Y-89429804D01*
X119650496Y-89426204D01*
X119675000Y-89425000D01*
X121825000Y-89425000D01*
X121849504Y-89426204D01*
X121849504Y-89426204D01*
G37*
D14*
X120750000Y-90050000D03*
D13*
G36*
X121849504Y-92226204D02*
G01*
X121873773Y-92229804D01*
X121897571Y-92235765D01*
X121920671Y-92244030D01*
X121942849Y-92254520D01*
X121963893Y-92267133D01*
X121983598Y-92281747D01*
X122001777Y-92298223D01*
X122018253Y-92316402D01*
X122032867Y-92336107D01*
X122045480Y-92357151D01*
X122055970Y-92379329D01*
X122064235Y-92402429D01*
X122070196Y-92426227D01*
X122073796Y-92450496D01*
X122075000Y-92475000D01*
X122075000Y-93225000D01*
X122073796Y-93249504D01*
X122070196Y-93273773D01*
X122064235Y-93297571D01*
X122055970Y-93320671D01*
X122045480Y-93342849D01*
X122032867Y-93363893D01*
X122018253Y-93383598D01*
X122001777Y-93401777D01*
X121983598Y-93418253D01*
X121963893Y-93432867D01*
X121942849Y-93445480D01*
X121920671Y-93455970D01*
X121897571Y-93464235D01*
X121873773Y-93470196D01*
X121849504Y-93473796D01*
X121825000Y-93475000D01*
X119675000Y-93475000D01*
X119650496Y-93473796D01*
X119626227Y-93470196D01*
X119602429Y-93464235D01*
X119579329Y-93455970D01*
X119557151Y-93445480D01*
X119536107Y-93432867D01*
X119516402Y-93418253D01*
X119498223Y-93401777D01*
X119481747Y-93383598D01*
X119467133Y-93363893D01*
X119454520Y-93342849D01*
X119444030Y-93320671D01*
X119435765Y-93297571D01*
X119429804Y-93273773D01*
X119426204Y-93249504D01*
X119425000Y-93225000D01*
X119425000Y-92475000D01*
X119426204Y-92450496D01*
X119429804Y-92426227D01*
X119435765Y-92402429D01*
X119444030Y-92379329D01*
X119454520Y-92357151D01*
X119467133Y-92336107D01*
X119481747Y-92316402D01*
X119498223Y-92298223D01*
X119516402Y-92281747D01*
X119536107Y-92267133D01*
X119557151Y-92254520D01*
X119579329Y-92244030D01*
X119602429Y-92235765D01*
X119626227Y-92229804D01*
X119650496Y-92226204D01*
X119675000Y-92225000D01*
X121825000Y-92225000D01*
X121849504Y-92226204D01*
X121849504Y-92226204D01*
G37*
D14*
X120750000Y-92850000D03*
D13*
G36*
X114999504Y-89426204D02*
G01*
X115023773Y-89429804D01*
X115047571Y-89435765D01*
X115070671Y-89444030D01*
X115092849Y-89454520D01*
X115113893Y-89467133D01*
X115133598Y-89481747D01*
X115151777Y-89498223D01*
X115168253Y-89516402D01*
X115182867Y-89536107D01*
X115195480Y-89557151D01*
X115205970Y-89579329D01*
X115214235Y-89602429D01*
X115220196Y-89626227D01*
X115223796Y-89650496D01*
X115225000Y-89675000D01*
X115225000Y-90425000D01*
X115223796Y-90449504D01*
X115220196Y-90473773D01*
X115214235Y-90497571D01*
X115205970Y-90520671D01*
X115195480Y-90542849D01*
X115182867Y-90563893D01*
X115168253Y-90583598D01*
X115151777Y-90601777D01*
X115133598Y-90618253D01*
X115113893Y-90632867D01*
X115092849Y-90645480D01*
X115070671Y-90655970D01*
X115047571Y-90664235D01*
X115023773Y-90670196D01*
X114999504Y-90673796D01*
X114975000Y-90675000D01*
X112825000Y-90675000D01*
X112800496Y-90673796D01*
X112776227Y-90670196D01*
X112752429Y-90664235D01*
X112729329Y-90655970D01*
X112707151Y-90645480D01*
X112686107Y-90632867D01*
X112666402Y-90618253D01*
X112648223Y-90601777D01*
X112631747Y-90583598D01*
X112617133Y-90563893D01*
X112604520Y-90542849D01*
X112594030Y-90520671D01*
X112585765Y-90497571D01*
X112579804Y-90473773D01*
X112576204Y-90449504D01*
X112575000Y-90425000D01*
X112575000Y-89675000D01*
X112576204Y-89650496D01*
X112579804Y-89626227D01*
X112585765Y-89602429D01*
X112594030Y-89579329D01*
X112604520Y-89557151D01*
X112617133Y-89536107D01*
X112631747Y-89516402D01*
X112648223Y-89498223D01*
X112666402Y-89481747D01*
X112686107Y-89467133D01*
X112707151Y-89454520D01*
X112729329Y-89444030D01*
X112752429Y-89435765D01*
X112776227Y-89429804D01*
X112800496Y-89426204D01*
X112825000Y-89425000D01*
X114975000Y-89425000D01*
X114999504Y-89426204D01*
X114999504Y-89426204D01*
G37*
D14*
X113900000Y-90050000D03*
D13*
G36*
X114999504Y-92226204D02*
G01*
X115023773Y-92229804D01*
X115047571Y-92235765D01*
X115070671Y-92244030D01*
X115092849Y-92254520D01*
X115113893Y-92267133D01*
X115133598Y-92281747D01*
X115151777Y-92298223D01*
X115168253Y-92316402D01*
X115182867Y-92336107D01*
X115195480Y-92357151D01*
X115205970Y-92379329D01*
X115214235Y-92402429D01*
X115220196Y-92426227D01*
X115223796Y-92450496D01*
X115225000Y-92475000D01*
X115225000Y-93225000D01*
X115223796Y-93249504D01*
X115220196Y-93273773D01*
X115214235Y-93297571D01*
X115205970Y-93320671D01*
X115195480Y-93342849D01*
X115182867Y-93363893D01*
X115168253Y-93383598D01*
X115151777Y-93401777D01*
X115133598Y-93418253D01*
X115113893Y-93432867D01*
X115092849Y-93445480D01*
X115070671Y-93455970D01*
X115047571Y-93464235D01*
X115023773Y-93470196D01*
X114999504Y-93473796D01*
X114975000Y-93475000D01*
X112825000Y-93475000D01*
X112800496Y-93473796D01*
X112776227Y-93470196D01*
X112752429Y-93464235D01*
X112729329Y-93455970D01*
X112707151Y-93445480D01*
X112686107Y-93432867D01*
X112666402Y-93418253D01*
X112648223Y-93401777D01*
X112631747Y-93383598D01*
X112617133Y-93363893D01*
X112604520Y-93342849D01*
X112594030Y-93320671D01*
X112585765Y-93297571D01*
X112579804Y-93273773D01*
X112576204Y-93249504D01*
X112575000Y-93225000D01*
X112575000Y-92475000D01*
X112576204Y-92450496D01*
X112579804Y-92426227D01*
X112585765Y-92402429D01*
X112594030Y-92379329D01*
X112604520Y-92357151D01*
X112617133Y-92336107D01*
X112631747Y-92316402D01*
X112648223Y-92298223D01*
X112666402Y-92281747D01*
X112686107Y-92267133D01*
X112707151Y-92254520D01*
X112729329Y-92244030D01*
X112752429Y-92235765D01*
X112776227Y-92229804D01*
X112800496Y-92226204D01*
X112825000Y-92225000D01*
X114975000Y-92225000D01*
X114999504Y-92226204D01*
X114999504Y-92226204D01*
G37*
D14*
X113900000Y-92850000D03*
D13*
G36*
X108199504Y-89426204D02*
G01*
X108223773Y-89429804D01*
X108247571Y-89435765D01*
X108270671Y-89444030D01*
X108292849Y-89454520D01*
X108313893Y-89467133D01*
X108333598Y-89481747D01*
X108351777Y-89498223D01*
X108368253Y-89516402D01*
X108382867Y-89536107D01*
X108395480Y-89557151D01*
X108405970Y-89579329D01*
X108414235Y-89602429D01*
X108420196Y-89626227D01*
X108423796Y-89650496D01*
X108425000Y-89675000D01*
X108425000Y-90425000D01*
X108423796Y-90449504D01*
X108420196Y-90473773D01*
X108414235Y-90497571D01*
X108405970Y-90520671D01*
X108395480Y-90542849D01*
X108382867Y-90563893D01*
X108368253Y-90583598D01*
X108351777Y-90601777D01*
X108333598Y-90618253D01*
X108313893Y-90632867D01*
X108292849Y-90645480D01*
X108270671Y-90655970D01*
X108247571Y-90664235D01*
X108223773Y-90670196D01*
X108199504Y-90673796D01*
X108175000Y-90675000D01*
X106025000Y-90675000D01*
X106000496Y-90673796D01*
X105976227Y-90670196D01*
X105952429Y-90664235D01*
X105929329Y-90655970D01*
X105907151Y-90645480D01*
X105886107Y-90632867D01*
X105866402Y-90618253D01*
X105848223Y-90601777D01*
X105831747Y-90583598D01*
X105817133Y-90563893D01*
X105804520Y-90542849D01*
X105794030Y-90520671D01*
X105785765Y-90497571D01*
X105779804Y-90473773D01*
X105776204Y-90449504D01*
X105775000Y-90425000D01*
X105775000Y-89675000D01*
X105776204Y-89650496D01*
X105779804Y-89626227D01*
X105785765Y-89602429D01*
X105794030Y-89579329D01*
X105804520Y-89557151D01*
X105817133Y-89536107D01*
X105831747Y-89516402D01*
X105848223Y-89498223D01*
X105866402Y-89481747D01*
X105886107Y-89467133D01*
X105907151Y-89454520D01*
X105929329Y-89444030D01*
X105952429Y-89435765D01*
X105976227Y-89429804D01*
X106000496Y-89426204D01*
X106025000Y-89425000D01*
X108175000Y-89425000D01*
X108199504Y-89426204D01*
X108199504Y-89426204D01*
G37*
D14*
X107100000Y-90050000D03*
D13*
G36*
X108199504Y-92226204D02*
G01*
X108223773Y-92229804D01*
X108247571Y-92235765D01*
X108270671Y-92244030D01*
X108292849Y-92254520D01*
X108313893Y-92267133D01*
X108333598Y-92281747D01*
X108351777Y-92298223D01*
X108368253Y-92316402D01*
X108382867Y-92336107D01*
X108395480Y-92357151D01*
X108405970Y-92379329D01*
X108414235Y-92402429D01*
X108420196Y-92426227D01*
X108423796Y-92450496D01*
X108425000Y-92475000D01*
X108425000Y-93225000D01*
X108423796Y-93249504D01*
X108420196Y-93273773D01*
X108414235Y-93297571D01*
X108405970Y-93320671D01*
X108395480Y-93342849D01*
X108382867Y-93363893D01*
X108368253Y-93383598D01*
X108351777Y-93401777D01*
X108333598Y-93418253D01*
X108313893Y-93432867D01*
X108292849Y-93445480D01*
X108270671Y-93455970D01*
X108247571Y-93464235D01*
X108223773Y-93470196D01*
X108199504Y-93473796D01*
X108175000Y-93475000D01*
X106025000Y-93475000D01*
X106000496Y-93473796D01*
X105976227Y-93470196D01*
X105952429Y-93464235D01*
X105929329Y-93455970D01*
X105907151Y-93445480D01*
X105886107Y-93432867D01*
X105866402Y-93418253D01*
X105848223Y-93401777D01*
X105831747Y-93383598D01*
X105817133Y-93363893D01*
X105804520Y-93342849D01*
X105794030Y-93320671D01*
X105785765Y-93297571D01*
X105779804Y-93273773D01*
X105776204Y-93249504D01*
X105775000Y-93225000D01*
X105775000Y-92475000D01*
X105776204Y-92450496D01*
X105779804Y-92426227D01*
X105785765Y-92402429D01*
X105794030Y-92379329D01*
X105804520Y-92357151D01*
X105817133Y-92336107D01*
X105831747Y-92316402D01*
X105848223Y-92298223D01*
X105866402Y-92281747D01*
X105886107Y-92267133D01*
X105907151Y-92254520D01*
X105929329Y-92244030D01*
X105952429Y-92235765D01*
X105976227Y-92229804D01*
X106000496Y-92226204D01*
X106025000Y-92225000D01*
X108175000Y-92225000D01*
X108199504Y-92226204D01*
X108199504Y-92226204D01*
G37*
D14*
X107100000Y-92850000D03*
D13*
G36*
X101299504Y-89426204D02*
G01*
X101323773Y-89429804D01*
X101347571Y-89435765D01*
X101370671Y-89444030D01*
X101392849Y-89454520D01*
X101413893Y-89467133D01*
X101433598Y-89481747D01*
X101451777Y-89498223D01*
X101468253Y-89516402D01*
X101482867Y-89536107D01*
X101495480Y-89557151D01*
X101505970Y-89579329D01*
X101514235Y-89602429D01*
X101520196Y-89626227D01*
X101523796Y-89650496D01*
X101525000Y-89675000D01*
X101525000Y-90425000D01*
X101523796Y-90449504D01*
X101520196Y-90473773D01*
X101514235Y-90497571D01*
X101505970Y-90520671D01*
X101495480Y-90542849D01*
X101482867Y-90563893D01*
X101468253Y-90583598D01*
X101451777Y-90601777D01*
X101433598Y-90618253D01*
X101413893Y-90632867D01*
X101392849Y-90645480D01*
X101370671Y-90655970D01*
X101347571Y-90664235D01*
X101323773Y-90670196D01*
X101299504Y-90673796D01*
X101275000Y-90675000D01*
X99125000Y-90675000D01*
X99100496Y-90673796D01*
X99076227Y-90670196D01*
X99052429Y-90664235D01*
X99029329Y-90655970D01*
X99007151Y-90645480D01*
X98986107Y-90632867D01*
X98966402Y-90618253D01*
X98948223Y-90601777D01*
X98931747Y-90583598D01*
X98917133Y-90563893D01*
X98904520Y-90542849D01*
X98894030Y-90520671D01*
X98885765Y-90497571D01*
X98879804Y-90473773D01*
X98876204Y-90449504D01*
X98875000Y-90425000D01*
X98875000Y-89675000D01*
X98876204Y-89650496D01*
X98879804Y-89626227D01*
X98885765Y-89602429D01*
X98894030Y-89579329D01*
X98904520Y-89557151D01*
X98917133Y-89536107D01*
X98931747Y-89516402D01*
X98948223Y-89498223D01*
X98966402Y-89481747D01*
X98986107Y-89467133D01*
X99007151Y-89454520D01*
X99029329Y-89444030D01*
X99052429Y-89435765D01*
X99076227Y-89429804D01*
X99100496Y-89426204D01*
X99125000Y-89425000D01*
X101275000Y-89425000D01*
X101299504Y-89426204D01*
X101299504Y-89426204D01*
G37*
D14*
X100200000Y-90050000D03*
D13*
G36*
X101299504Y-92226204D02*
G01*
X101323773Y-92229804D01*
X101347571Y-92235765D01*
X101370671Y-92244030D01*
X101392849Y-92254520D01*
X101413893Y-92267133D01*
X101433598Y-92281747D01*
X101451777Y-92298223D01*
X101468253Y-92316402D01*
X101482867Y-92336107D01*
X101495480Y-92357151D01*
X101505970Y-92379329D01*
X101514235Y-92402429D01*
X101520196Y-92426227D01*
X101523796Y-92450496D01*
X101525000Y-92475000D01*
X101525000Y-93225000D01*
X101523796Y-93249504D01*
X101520196Y-93273773D01*
X101514235Y-93297571D01*
X101505970Y-93320671D01*
X101495480Y-93342849D01*
X101482867Y-93363893D01*
X101468253Y-93383598D01*
X101451777Y-93401777D01*
X101433598Y-93418253D01*
X101413893Y-93432867D01*
X101392849Y-93445480D01*
X101370671Y-93455970D01*
X101347571Y-93464235D01*
X101323773Y-93470196D01*
X101299504Y-93473796D01*
X101275000Y-93475000D01*
X99125000Y-93475000D01*
X99100496Y-93473796D01*
X99076227Y-93470196D01*
X99052429Y-93464235D01*
X99029329Y-93455970D01*
X99007151Y-93445480D01*
X98986107Y-93432867D01*
X98966402Y-93418253D01*
X98948223Y-93401777D01*
X98931747Y-93383598D01*
X98917133Y-93363893D01*
X98904520Y-93342849D01*
X98894030Y-93320671D01*
X98885765Y-93297571D01*
X98879804Y-93273773D01*
X98876204Y-93249504D01*
X98875000Y-93225000D01*
X98875000Y-92475000D01*
X98876204Y-92450496D01*
X98879804Y-92426227D01*
X98885765Y-92402429D01*
X98894030Y-92379329D01*
X98904520Y-92357151D01*
X98917133Y-92336107D01*
X98931747Y-92316402D01*
X98948223Y-92298223D01*
X98966402Y-92281747D01*
X98986107Y-92267133D01*
X99007151Y-92254520D01*
X99029329Y-92244030D01*
X99052429Y-92235765D01*
X99076227Y-92229804D01*
X99100496Y-92226204D01*
X99125000Y-92225000D01*
X101275000Y-92225000D01*
X101299504Y-92226204D01*
X101299504Y-92226204D01*
G37*
D14*
X100200000Y-92850000D03*
D13*
G36*
X94499504Y-89426204D02*
G01*
X94523773Y-89429804D01*
X94547571Y-89435765D01*
X94570671Y-89444030D01*
X94592849Y-89454520D01*
X94613893Y-89467133D01*
X94633598Y-89481747D01*
X94651777Y-89498223D01*
X94668253Y-89516402D01*
X94682867Y-89536107D01*
X94695480Y-89557151D01*
X94705970Y-89579329D01*
X94714235Y-89602429D01*
X94720196Y-89626227D01*
X94723796Y-89650496D01*
X94725000Y-89675000D01*
X94725000Y-90425000D01*
X94723796Y-90449504D01*
X94720196Y-90473773D01*
X94714235Y-90497571D01*
X94705970Y-90520671D01*
X94695480Y-90542849D01*
X94682867Y-90563893D01*
X94668253Y-90583598D01*
X94651777Y-90601777D01*
X94633598Y-90618253D01*
X94613893Y-90632867D01*
X94592849Y-90645480D01*
X94570671Y-90655970D01*
X94547571Y-90664235D01*
X94523773Y-90670196D01*
X94499504Y-90673796D01*
X94475000Y-90675000D01*
X92325000Y-90675000D01*
X92300496Y-90673796D01*
X92276227Y-90670196D01*
X92252429Y-90664235D01*
X92229329Y-90655970D01*
X92207151Y-90645480D01*
X92186107Y-90632867D01*
X92166402Y-90618253D01*
X92148223Y-90601777D01*
X92131747Y-90583598D01*
X92117133Y-90563893D01*
X92104520Y-90542849D01*
X92094030Y-90520671D01*
X92085765Y-90497571D01*
X92079804Y-90473773D01*
X92076204Y-90449504D01*
X92075000Y-90425000D01*
X92075000Y-89675000D01*
X92076204Y-89650496D01*
X92079804Y-89626227D01*
X92085765Y-89602429D01*
X92094030Y-89579329D01*
X92104520Y-89557151D01*
X92117133Y-89536107D01*
X92131747Y-89516402D01*
X92148223Y-89498223D01*
X92166402Y-89481747D01*
X92186107Y-89467133D01*
X92207151Y-89454520D01*
X92229329Y-89444030D01*
X92252429Y-89435765D01*
X92276227Y-89429804D01*
X92300496Y-89426204D01*
X92325000Y-89425000D01*
X94475000Y-89425000D01*
X94499504Y-89426204D01*
X94499504Y-89426204D01*
G37*
D14*
X93400000Y-90050000D03*
D13*
G36*
X94499504Y-92226204D02*
G01*
X94523773Y-92229804D01*
X94547571Y-92235765D01*
X94570671Y-92244030D01*
X94592849Y-92254520D01*
X94613893Y-92267133D01*
X94633598Y-92281747D01*
X94651777Y-92298223D01*
X94668253Y-92316402D01*
X94682867Y-92336107D01*
X94695480Y-92357151D01*
X94705970Y-92379329D01*
X94714235Y-92402429D01*
X94720196Y-92426227D01*
X94723796Y-92450496D01*
X94725000Y-92475000D01*
X94725000Y-93225000D01*
X94723796Y-93249504D01*
X94720196Y-93273773D01*
X94714235Y-93297571D01*
X94705970Y-93320671D01*
X94695480Y-93342849D01*
X94682867Y-93363893D01*
X94668253Y-93383598D01*
X94651777Y-93401777D01*
X94633598Y-93418253D01*
X94613893Y-93432867D01*
X94592849Y-93445480D01*
X94570671Y-93455970D01*
X94547571Y-93464235D01*
X94523773Y-93470196D01*
X94499504Y-93473796D01*
X94475000Y-93475000D01*
X92325000Y-93475000D01*
X92300496Y-93473796D01*
X92276227Y-93470196D01*
X92252429Y-93464235D01*
X92229329Y-93455970D01*
X92207151Y-93445480D01*
X92186107Y-93432867D01*
X92166402Y-93418253D01*
X92148223Y-93401777D01*
X92131747Y-93383598D01*
X92117133Y-93363893D01*
X92104520Y-93342849D01*
X92094030Y-93320671D01*
X92085765Y-93297571D01*
X92079804Y-93273773D01*
X92076204Y-93249504D01*
X92075000Y-93225000D01*
X92075000Y-92475000D01*
X92076204Y-92450496D01*
X92079804Y-92426227D01*
X92085765Y-92402429D01*
X92094030Y-92379329D01*
X92104520Y-92357151D01*
X92117133Y-92336107D01*
X92131747Y-92316402D01*
X92148223Y-92298223D01*
X92166402Y-92281747D01*
X92186107Y-92267133D01*
X92207151Y-92254520D01*
X92229329Y-92244030D01*
X92252429Y-92235765D01*
X92276227Y-92229804D01*
X92300496Y-92226204D01*
X92325000Y-92225000D01*
X94475000Y-92225000D01*
X94499504Y-92226204D01*
X94499504Y-92226204D01*
G37*
D14*
X93400000Y-92850000D03*
D13*
G36*
X87699504Y-89426204D02*
G01*
X87723773Y-89429804D01*
X87747571Y-89435765D01*
X87770671Y-89444030D01*
X87792849Y-89454520D01*
X87813893Y-89467133D01*
X87833598Y-89481747D01*
X87851777Y-89498223D01*
X87868253Y-89516402D01*
X87882867Y-89536107D01*
X87895480Y-89557151D01*
X87905970Y-89579329D01*
X87914235Y-89602429D01*
X87920196Y-89626227D01*
X87923796Y-89650496D01*
X87925000Y-89675000D01*
X87925000Y-90425000D01*
X87923796Y-90449504D01*
X87920196Y-90473773D01*
X87914235Y-90497571D01*
X87905970Y-90520671D01*
X87895480Y-90542849D01*
X87882867Y-90563893D01*
X87868253Y-90583598D01*
X87851777Y-90601777D01*
X87833598Y-90618253D01*
X87813893Y-90632867D01*
X87792849Y-90645480D01*
X87770671Y-90655970D01*
X87747571Y-90664235D01*
X87723773Y-90670196D01*
X87699504Y-90673796D01*
X87675000Y-90675000D01*
X85525000Y-90675000D01*
X85500496Y-90673796D01*
X85476227Y-90670196D01*
X85452429Y-90664235D01*
X85429329Y-90655970D01*
X85407151Y-90645480D01*
X85386107Y-90632867D01*
X85366402Y-90618253D01*
X85348223Y-90601777D01*
X85331747Y-90583598D01*
X85317133Y-90563893D01*
X85304520Y-90542849D01*
X85294030Y-90520671D01*
X85285765Y-90497571D01*
X85279804Y-90473773D01*
X85276204Y-90449504D01*
X85275000Y-90425000D01*
X85275000Y-89675000D01*
X85276204Y-89650496D01*
X85279804Y-89626227D01*
X85285765Y-89602429D01*
X85294030Y-89579329D01*
X85304520Y-89557151D01*
X85317133Y-89536107D01*
X85331747Y-89516402D01*
X85348223Y-89498223D01*
X85366402Y-89481747D01*
X85386107Y-89467133D01*
X85407151Y-89454520D01*
X85429329Y-89444030D01*
X85452429Y-89435765D01*
X85476227Y-89429804D01*
X85500496Y-89426204D01*
X85525000Y-89425000D01*
X87675000Y-89425000D01*
X87699504Y-89426204D01*
X87699504Y-89426204D01*
G37*
D14*
X86600000Y-90050000D03*
D13*
G36*
X87699504Y-92226204D02*
G01*
X87723773Y-92229804D01*
X87747571Y-92235765D01*
X87770671Y-92244030D01*
X87792849Y-92254520D01*
X87813893Y-92267133D01*
X87833598Y-92281747D01*
X87851777Y-92298223D01*
X87868253Y-92316402D01*
X87882867Y-92336107D01*
X87895480Y-92357151D01*
X87905970Y-92379329D01*
X87914235Y-92402429D01*
X87920196Y-92426227D01*
X87923796Y-92450496D01*
X87925000Y-92475000D01*
X87925000Y-93225000D01*
X87923796Y-93249504D01*
X87920196Y-93273773D01*
X87914235Y-93297571D01*
X87905970Y-93320671D01*
X87895480Y-93342849D01*
X87882867Y-93363893D01*
X87868253Y-93383598D01*
X87851777Y-93401777D01*
X87833598Y-93418253D01*
X87813893Y-93432867D01*
X87792849Y-93445480D01*
X87770671Y-93455970D01*
X87747571Y-93464235D01*
X87723773Y-93470196D01*
X87699504Y-93473796D01*
X87675000Y-93475000D01*
X85525000Y-93475000D01*
X85500496Y-93473796D01*
X85476227Y-93470196D01*
X85452429Y-93464235D01*
X85429329Y-93455970D01*
X85407151Y-93445480D01*
X85386107Y-93432867D01*
X85366402Y-93418253D01*
X85348223Y-93401777D01*
X85331747Y-93383598D01*
X85317133Y-93363893D01*
X85304520Y-93342849D01*
X85294030Y-93320671D01*
X85285765Y-93297571D01*
X85279804Y-93273773D01*
X85276204Y-93249504D01*
X85275000Y-93225000D01*
X85275000Y-92475000D01*
X85276204Y-92450496D01*
X85279804Y-92426227D01*
X85285765Y-92402429D01*
X85294030Y-92379329D01*
X85304520Y-92357151D01*
X85317133Y-92336107D01*
X85331747Y-92316402D01*
X85348223Y-92298223D01*
X85366402Y-92281747D01*
X85386107Y-92267133D01*
X85407151Y-92254520D01*
X85429329Y-92244030D01*
X85452429Y-92235765D01*
X85476227Y-92229804D01*
X85500496Y-92226204D01*
X85525000Y-92225000D01*
X87675000Y-92225000D01*
X87699504Y-92226204D01*
X87699504Y-92226204D01*
G37*
D14*
X86600000Y-92850000D03*
D13*
G36*
X80799504Y-89376204D02*
G01*
X80823773Y-89379804D01*
X80847571Y-89385765D01*
X80870671Y-89394030D01*
X80892849Y-89404520D01*
X80913893Y-89417133D01*
X80933598Y-89431747D01*
X80951777Y-89448223D01*
X80968253Y-89466402D01*
X80982867Y-89486107D01*
X80995480Y-89507151D01*
X81005970Y-89529329D01*
X81014235Y-89552429D01*
X81020196Y-89576227D01*
X81023796Y-89600496D01*
X81025000Y-89625000D01*
X81025000Y-90375000D01*
X81023796Y-90399504D01*
X81020196Y-90423773D01*
X81014235Y-90447571D01*
X81005970Y-90470671D01*
X80995480Y-90492849D01*
X80982867Y-90513893D01*
X80968253Y-90533598D01*
X80951777Y-90551777D01*
X80933598Y-90568253D01*
X80913893Y-90582867D01*
X80892849Y-90595480D01*
X80870671Y-90605970D01*
X80847571Y-90614235D01*
X80823773Y-90620196D01*
X80799504Y-90623796D01*
X80775000Y-90625000D01*
X78625000Y-90625000D01*
X78600496Y-90623796D01*
X78576227Y-90620196D01*
X78552429Y-90614235D01*
X78529329Y-90605970D01*
X78507151Y-90595480D01*
X78486107Y-90582867D01*
X78466402Y-90568253D01*
X78448223Y-90551777D01*
X78431747Y-90533598D01*
X78417133Y-90513893D01*
X78404520Y-90492849D01*
X78394030Y-90470671D01*
X78385765Y-90447571D01*
X78379804Y-90423773D01*
X78376204Y-90399504D01*
X78375000Y-90375000D01*
X78375000Y-89625000D01*
X78376204Y-89600496D01*
X78379804Y-89576227D01*
X78385765Y-89552429D01*
X78394030Y-89529329D01*
X78404520Y-89507151D01*
X78417133Y-89486107D01*
X78431747Y-89466402D01*
X78448223Y-89448223D01*
X78466402Y-89431747D01*
X78486107Y-89417133D01*
X78507151Y-89404520D01*
X78529329Y-89394030D01*
X78552429Y-89385765D01*
X78576227Y-89379804D01*
X78600496Y-89376204D01*
X78625000Y-89375000D01*
X80775000Y-89375000D01*
X80799504Y-89376204D01*
X80799504Y-89376204D01*
G37*
D14*
X79700000Y-90000000D03*
D13*
G36*
X80799504Y-92176204D02*
G01*
X80823773Y-92179804D01*
X80847571Y-92185765D01*
X80870671Y-92194030D01*
X80892849Y-92204520D01*
X80913893Y-92217133D01*
X80933598Y-92231747D01*
X80951777Y-92248223D01*
X80968253Y-92266402D01*
X80982867Y-92286107D01*
X80995480Y-92307151D01*
X81005970Y-92329329D01*
X81014235Y-92352429D01*
X81020196Y-92376227D01*
X81023796Y-92400496D01*
X81025000Y-92425000D01*
X81025000Y-93175000D01*
X81023796Y-93199504D01*
X81020196Y-93223773D01*
X81014235Y-93247571D01*
X81005970Y-93270671D01*
X80995480Y-93292849D01*
X80982867Y-93313893D01*
X80968253Y-93333598D01*
X80951777Y-93351777D01*
X80933598Y-93368253D01*
X80913893Y-93382867D01*
X80892849Y-93395480D01*
X80870671Y-93405970D01*
X80847571Y-93414235D01*
X80823773Y-93420196D01*
X80799504Y-93423796D01*
X80775000Y-93425000D01*
X78625000Y-93425000D01*
X78600496Y-93423796D01*
X78576227Y-93420196D01*
X78552429Y-93414235D01*
X78529329Y-93405970D01*
X78507151Y-93395480D01*
X78486107Y-93382867D01*
X78466402Y-93368253D01*
X78448223Y-93351777D01*
X78431747Y-93333598D01*
X78417133Y-93313893D01*
X78404520Y-93292849D01*
X78394030Y-93270671D01*
X78385765Y-93247571D01*
X78379804Y-93223773D01*
X78376204Y-93199504D01*
X78375000Y-93175000D01*
X78375000Y-92425000D01*
X78376204Y-92400496D01*
X78379804Y-92376227D01*
X78385765Y-92352429D01*
X78394030Y-92329329D01*
X78404520Y-92307151D01*
X78417133Y-92286107D01*
X78431747Y-92266402D01*
X78448223Y-92248223D01*
X78466402Y-92231747D01*
X78486107Y-92217133D01*
X78507151Y-92204520D01*
X78529329Y-92194030D01*
X78552429Y-92185765D01*
X78576227Y-92179804D01*
X78600496Y-92176204D01*
X78625000Y-92175000D01*
X80775000Y-92175000D01*
X80799504Y-92176204D01*
X80799504Y-92176204D01*
G37*
D14*
X79700000Y-92800000D03*
D13*
G36*
X73999504Y-89376204D02*
G01*
X74023773Y-89379804D01*
X74047571Y-89385765D01*
X74070671Y-89394030D01*
X74092849Y-89404520D01*
X74113893Y-89417133D01*
X74133598Y-89431747D01*
X74151777Y-89448223D01*
X74168253Y-89466402D01*
X74182867Y-89486107D01*
X74195480Y-89507151D01*
X74205970Y-89529329D01*
X74214235Y-89552429D01*
X74220196Y-89576227D01*
X74223796Y-89600496D01*
X74225000Y-89625000D01*
X74225000Y-90375000D01*
X74223796Y-90399504D01*
X74220196Y-90423773D01*
X74214235Y-90447571D01*
X74205970Y-90470671D01*
X74195480Y-90492849D01*
X74182867Y-90513893D01*
X74168253Y-90533598D01*
X74151777Y-90551777D01*
X74133598Y-90568253D01*
X74113893Y-90582867D01*
X74092849Y-90595480D01*
X74070671Y-90605970D01*
X74047571Y-90614235D01*
X74023773Y-90620196D01*
X73999504Y-90623796D01*
X73975000Y-90625000D01*
X71825000Y-90625000D01*
X71800496Y-90623796D01*
X71776227Y-90620196D01*
X71752429Y-90614235D01*
X71729329Y-90605970D01*
X71707151Y-90595480D01*
X71686107Y-90582867D01*
X71666402Y-90568253D01*
X71648223Y-90551777D01*
X71631747Y-90533598D01*
X71617133Y-90513893D01*
X71604520Y-90492849D01*
X71594030Y-90470671D01*
X71585765Y-90447571D01*
X71579804Y-90423773D01*
X71576204Y-90399504D01*
X71575000Y-90375000D01*
X71575000Y-89625000D01*
X71576204Y-89600496D01*
X71579804Y-89576227D01*
X71585765Y-89552429D01*
X71594030Y-89529329D01*
X71604520Y-89507151D01*
X71617133Y-89486107D01*
X71631747Y-89466402D01*
X71648223Y-89448223D01*
X71666402Y-89431747D01*
X71686107Y-89417133D01*
X71707151Y-89404520D01*
X71729329Y-89394030D01*
X71752429Y-89385765D01*
X71776227Y-89379804D01*
X71800496Y-89376204D01*
X71825000Y-89375000D01*
X73975000Y-89375000D01*
X73999504Y-89376204D01*
X73999504Y-89376204D01*
G37*
D14*
X72900000Y-90000000D03*
D13*
G36*
X73999504Y-92176204D02*
G01*
X74023773Y-92179804D01*
X74047571Y-92185765D01*
X74070671Y-92194030D01*
X74092849Y-92204520D01*
X74113893Y-92217133D01*
X74133598Y-92231747D01*
X74151777Y-92248223D01*
X74168253Y-92266402D01*
X74182867Y-92286107D01*
X74195480Y-92307151D01*
X74205970Y-92329329D01*
X74214235Y-92352429D01*
X74220196Y-92376227D01*
X74223796Y-92400496D01*
X74225000Y-92425000D01*
X74225000Y-93175000D01*
X74223796Y-93199504D01*
X74220196Y-93223773D01*
X74214235Y-93247571D01*
X74205970Y-93270671D01*
X74195480Y-93292849D01*
X74182867Y-93313893D01*
X74168253Y-93333598D01*
X74151777Y-93351777D01*
X74133598Y-93368253D01*
X74113893Y-93382867D01*
X74092849Y-93395480D01*
X74070671Y-93405970D01*
X74047571Y-93414235D01*
X74023773Y-93420196D01*
X73999504Y-93423796D01*
X73975000Y-93425000D01*
X71825000Y-93425000D01*
X71800496Y-93423796D01*
X71776227Y-93420196D01*
X71752429Y-93414235D01*
X71729329Y-93405970D01*
X71707151Y-93395480D01*
X71686107Y-93382867D01*
X71666402Y-93368253D01*
X71648223Y-93351777D01*
X71631747Y-93333598D01*
X71617133Y-93313893D01*
X71604520Y-93292849D01*
X71594030Y-93270671D01*
X71585765Y-93247571D01*
X71579804Y-93223773D01*
X71576204Y-93199504D01*
X71575000Y-93175000D01*
X71575000Y-92425000D01*
X71576204Y-92400496D01*
X71579804Y-92376227D01*
X71585765Y-92352429D01*
X71594030Y-92329329D01*
X71604520Y-92307151D01*
X71617133Y-92286107D01*
X71631747Y-92266402D01*
X71648223Y-92248223D01*
X71666402Y-92231747D01*
X71686107Y-92217133D01*
X71707151Y-92204520D01*
X71729329Y-92194030D01*
X71752429Y-92185765D01*
X71776227Y-92179804D01*
X71800496Y-92176204D01*
X71825000Y-92175000D01*
X73975000Y-92175000D01*
X73999504Y-92176204D01*
X73999504Y-92176204D01*
G37*
D14*
X72900000Y-92800000D03*
D13*
G36*
X67199504Y-89376204D02*
G01*
X67223773Y-89379804D01*
X67247571Y-89385765D01*
X67270671Y-89394030D01*
X67292849Y-89404520D01*
X67313893Y-89417133D01*
X67333598Y-89431747D01*
X67351777Y-89448223D01*
X67368253Y-89466402D01*
X67382867Y-89486107D01*
X67395480Y-89507151D01*
X67405970Y-89529329D01*
X67414235Y-89552429D01*
X67420196Y-89576227D01*
X67423796Y-89600496D01*
X67425000Y-89625000D01*
X67425000Y-90375000D01*
X67423796Y-90399504D01*
X67420196Y-90423773D01*
X67414235Y-90447571D01*
X67405970Y-90470671D01*
X67395480Y-90492849D01*
X67382867Y-90513893D01*
X67368253Y-90533598D01*
X67351777Y-90551777D01*
X67333598Y-90568253D01*
X67313893Y-90582867D01*
X67292849Y-90595480D01*
X67270671Y-90605970D01*
X67247571Y-90614235D01*
X67223773Y-90620196D01*
X67199504Y-90623796D01*
X67175000Y-90625000D01*
X65025000Y-90625000D01*
X65000496Y-90623796D01*
X64976227Y-90620196D01*
X64952429Y-90614235D01*
X64929329Y-90605970D01*
X64907151Y-90595480D01*
X64886107Y-90582867D01*
X64866402Y-90568253D01*
X64848223Y-90551777D01*
X64831747Y-90533598D01*
X64817133Y-90513893D01*
X64804520Y-90492849D01*
X64794030Y-90470671D01*
X64785765Y-90447571D01*
X64779804Y-90423773D01*
X64776204Y-90399504D01*
X64775000Y-90375000D01*
X64775000Y-89625000D01*
X64776204Y-89600496D01*
X64779804Y-89576227D01*
X64785765Y-89552429D01*
X64794030Y-89529329D01*
X64804520Y-89507151D01*
X64817133Y-89486107D01*
X64831747Y-89466402D01*
X64848223Y-89448223D01*
X64866402Y-89431747D01*
X64886107Y-89417133D01*
X64907151Y-89404520D01*
X64929329Y-89394030D01*
X64952429Y-89385765D01*
X64976227Y-89379804D01*
X65000496Y-89376204D01*
X65025000Y-89375000D01*
X67175000Y-89375000D01*
X67199504Y-89376204D01*
X67199504Y-89376204D01*
G37*
D14*
X66100000Y-90000000D03*
D13*
G36*
X67199504Y-92176204D02*
G01*
X67223773Y-92179804D01*
X67247571Y-92185765D01*
X67270671Y-92194030D01*
X67292849Y-92204520D01*
X67313893Y-92217133D01*
X67333598Y-92231747D01*
X67351777Y-92248223D01*
X67368253Y-92266402D01*
X67382867Y-92286107D01*
X67395480Y-92307151D01*
X67405970Y-92329329D01*
X67414235Y-92352429D01*
X67420196Y-92376227D01*
X67423796Y-92400496D01*
X67425000Y-92425000D01*
X67425000Y-93175000D01*
X67423796Y-93199504D01*
X67420196Y-93223773D01*
X67414235Y-93247571D01*
X67405970Y-93270671D01*
X67395480Y-93292849D01*
X67382867Y-93313893D01*
X67368253Y-93333598D01*
X67351777Y-93351777D01*
X67333598Y-93368253D01*
X67313893Y-93382867D01*
X67292849Y-93395480D01*
X67270671Y-93405970D01*
X67247571Y-93414235D01*
X67223773Y-93420196D01*
X67199504Y-93423796D01*
X67175000Y-93425000D01*
X65025000Y-93425000D01*
X65000496Y-93423796D01*
X64976227Y-93420196D01*
X64952429Y-93414235D01*
X64929329Y-93405970D01*
X64907151Y-93395480D01*
X64886107Y-93382867D01*
X64866402Y-93368253D01*
X64848223Y-93351777D01*
X64831747Y-93333598D01*
X64817133Y-93313893D01*
X64804520Y-93292849D01*
X64794030Y-93270671D01*
X64785765Y-93247571D01*
X64779804Y-93223773D01*
X64776204Y-93199504D01*
X64775000Y-93175000D01*
X64775000Y-92425000D01*
X64776204Y-92400496D01*
X64779804Y-92376227D01*
X64785765Y-92352429D01*
X64794030Y-92329329D01*
X64804520Y-92307151D01*
X64817133Y-92286107D01*
X64831747Y-92266402D01*
X64848223Y-92248223D01*
X64866402Y-92231747D01*
X64886107Y-92217133D01*
X64907151Y-92204520D01*
X64929329Y-92194030D01*
X64952429Y-92185765D01*
X64976227Y-92179804D01*
X65000496Y-92176204D01*
X65025000Y-92175000D01*
X67175000Y-92175000D01*
X67199504Y-92176204D01*
X67199504Y-92176204D01*
G37*
D14*
X66100000Y-92800000D03*
D13*
G36*
X113074505Y-72676204D02*
G01*
X113098773Y-72679804D01*
X113122572Y-72685765D01*
X113145671Y-72694030D01*
X113167850Y-72704520D01*
X113188893Y-72717132D01*
X113208599Y-72731747D01*
X113226777Y-72748223D01*
X113243253Y-72766401D01*
X113257868Y-72786107D01*
X113270480Y-72807150D01*
X113280970Y-72829329D01*
X113289235Y-72852428D01*
X113295196Y-72876227D01*
X113298796Y-72900495D01*
X113300000Y-72924999D01*
X113300000Y-73575001D01*
X113298796Y-73599505D01*
X113295196Y-73623773D01*
X113289235Y-73647572D01*
X113280970Y-73670671D01*
X113270480Y-73692850D01*
X113257868Y-73713893D01*
X113243253Y-73733599D01*
X113226777Y-73751777D01*
X113208599Y-73768253D01*
X113188893Y-73782868D01*
X113167850Y-73795480D01*
X113145671Y-73805970D01*
X113122572Y-73814235D01*
X113098773Y-73820196D01*
X113074505Y-73823796D01*
X113050001Y-73825000D01*
X112149999Y-73825000D01*
X112125495Y-73823796D01*
X112101227Y-73820196D01*
X112077428Y-73814235D01*
X112054329Y-73805970D01*
X112032150Y-73795480D01*
X112011107Y-73782868D01*
X111991401Y-73768253D01*
X111973223Y-73751777D01*
X111956747Y-73733599D01*
X111942132Y-73713893D01*
X111929520Y-73692850D01*
X111919030Y-73670671D01*
X111910765Y-73647572D01*
X111904804Y-73623773D01*
X111901204Y-73599505D01*
X111900000Y-73575001D01*
X111900000Y-72924999D01*
X111901204Y-72900495D01*
X111904804Y-72876227D01*
X111910765Y-72852428D01*
X111919030Y-72829329D01*
X111929520Y-72807150D01*
X111942132Y-72786107D01*
X111956747Y-72766401D01*
X111973223Y-72748223D01*
X111991401Y-72731747D01*
X112011107Y-72717132D01*
X112032150Y-72704520D01*
X112054329Y-72694030D01*
X112077428Y-72685765D01*
X112101227Y-72679804D01*
X112125495Y-72676204D01*
X112149999Y-72675000D01*
X113050001Y-72675000D01*
X113074505Y-72676204D01*
X113074505Y-72676204D01*
G37*
D15*
X112600000Y-73250000D03*
D13*
G36*
X113074505Y-74726204D02*
G01*
X113098773Y-74729804D01*
X113122572Y-74735765D01*
X113145671Y-74744030D01*
X113167850Y-74754520D01*
X113188893Y-74767132D01*
X113208599Y-74781747D01*
X113226777Y-74798223D01*
X113243253Y-74816401D01*
X113257868Y-74836107D01*
X113270480Y-74857150D01*
X113280970Y-74879329D01*
X113289235Y-74902428D01*
X113295196Y-74926227D01*
X113298796Y-74950495D01*
X113300000Y-74974999D01*
X113300000Y-75625001D01*
X113298796Y-75649505D01*
X113295196Y-75673773D01*
X113289235Y-75697572D01*
X113280970Y-75720671D01*
X113270480Y-75742850D01*
X113257868Y-75763893D01*
X113243253Y-75783599D01*
X113226777Y-75801777D01*
X113208599Y-75818253D01*
X113188893Y-75832868D01*
X113167850Y-75845480D01*
X113145671Y-75855970D01*
X113122572Y-75864235D01*
X113098773Y-75870196D01*
X113074505Y-75873796D01*
X113050001Y-75875000D01*
X112149999Y-75875000D01*
X112125495Y-75873796D01*
X112101227Y-75870196D01*
X112077428Y-75864235D01*
X112054329Y-75855970D01*
X112032150Y-75845480D01*
X112011107Y-75832868D01*
X111991401Y-75818253D01*
X111973223Y-75801777D01*
X111956747Y-75783599D01*
X111942132Y-75763893D01*
X111929520Y-75742850D01*
X111919030Y-75720671D01*
X111910765Y-75697572D01*
X111904804Y-75673773D01*
X111901204Y-75649505D01*
X111900000Y-75625001D01*
X111900000Y-74974999D01*
X111901204Y-74950495D01*
X111904804Y-74926227D01*
X111910765Y-74902428D01*
X111919030Y-74879329D01*
X111929520Y-74857150D01*
X111942132Y-74836107D01*
X111956747Y-74816401D01*
X111973223Y-74798223D01*
X111991401Y-74781747D01*
X112011107Y-74767132D01*
X112032150Y-74754520D01*
X112054329Y-74744030D01*
X112077428Y-74735765D01*
X112101227Y-74729804D01*
X112125495Y-74726204D01*
X112149999Y-74725000D01*
X113050001Y-74725000D01*
X113074505Y-74726204D01*
X113074505Y-74726204D01*
G37*
D15*
X112600000Y-75300000D03*
D16*
X77200000Y-65500000D03*
X77200000Y-70500000D03*
X121700000Y-70500000D03*
X121700000Y-65500000D03*
D17*
X73300000Y-79500000D03*
D18*
X60600000Y-79500000D03*
X138300000Y-79500000D03*
D17*
X125600000Y-79500000D03*
D19*
X61600000Y-72200000D03*
D20*
X69600000Y-72200000D03*
X129200000Y-72300000D03*
D19*
X137200000Y-72300000D03*
D21*
X66400000Y-66000000D03*
D22*
X61320000Y-66000000D03*
X137380000Y-65900000D03*
D21*
X132300000Y-65900000D03*
D13*
G36*
X101524504Y-62726204D02*
G01*
X101548773Y-62729804D01*
X101572571Y-62735765D01*
X101595671Y-62744030D01*
X101617849Y-62754520D01*
X101638893Y-62767133D01*
X101658598Y-62781747D01*
X101676777Y-62798223D01*
X101693253Y-62816402D01*
X101707867Y-62836107D01*
X101720480Y-62857151D01*
X101730970Y-62879329D01*
X101739235Y-62902429D01*
X101745196Y-62926227D01*
X101748796Y-62950496D01*
X101750000Y-62975000D01*
X101750000Y-64425000D01*
X101748796Y-64449504D01*
X101745196Y-64473773D01*
X101739235Y-64497571D01*
X101730970Y-64520671D01*
X101720480Y-64542849D01*
X101707867Y-64563893D01*
X101693253Y-64583598D01*
X101676777Y-64601777D01*
X101658598Y-64618253D01*
X101638893Y-64632867D01*
X101617849Y-64645480D01*
X101595671Y-64655970D01*
X101572571Y-64664235D01*
X101548773Y-64670196D01*
X101524504Y-64673796D01*
X101500000Y-64675000D01*
X100300000Y-64675000D01*
X100275496Y-64673796D01*
X100251227Y-64670196D01*
X100227429Y-64664235D01*
X100204329Y-64655970D01*
X100182151Y-64645480D01*
X100161107Y-64632867D01*
X100141402Y-64618253D01*
X100123223Y-64601777D01*
X100106747Y-64583598D01*
X100092133Y-64563893D01*
X100079520Y-64542849D01*
X100069030Y-64520671D01*
X100060765Y-64497571D01*
X100054804Y-64473773D01*
X100051204Y-64449504D01*
X100050000Y-64425000D01*
X100050000Y-62975000D01*
X100051204Y-62950496D01*
X100054804Y-62926227D01*
X100060765Y-62902429D01*
X100069030Y-62879329D01*
X100079520Y-62857151D01*
X100092133Y-62836107D01*
X100106747Y-62816402D01*
X100123223Y-62798223D01*
X100141402Y-62781747D01*
X100161107Y-62767133D01*
X100182151Y-62754520D01*
X100204329Y-62744030D01*
X100227429Y-62735765D01*
X100251227Y-62729804D01*
X100275496Y-62726204D01*
X100300000Y-62725000D01*
X101500000Y-62725000D01*
X101524504Y-62726204D01*
X101524504Y-62726204D01*
G37*
D23*
X100900000Y-63700000D03*
D24*
X103400000Y-63700000D03*
X105900000Y-63700000D03*
X108400000Y-63700000D03*
D25*
X84450000Y-69600000D03*
X85750000Y-69600000D03*
X85750000Y-72100000D03*
X84450000Y-72100000D03*
X85750000Y-74600000D03*
X84450000Y-74600000D03*
X92350000Y-69600000D03*
X93650000Y-69600000D03*
X92350000Y-72100000D03*
X93650000Y-72100000D03*
X93650000Y-74600000D03*
X92350000Y-74600000D03*
D26*
X101750000Y-73975000D03*
X101750000Y-74625000D03*
X101750000Y-75275000D03*
X101750000Y-75925000D03*
X101750000Y-76575000D03*
X101750000Y-77225000D03*
X101750000Y-77875000D03*
X101750000Y-78525000D03*
X101750000Y-79175000D03*
X101750000Y-79825000D03*
X101750000Y-80475000D03*
X101750000Y-81125000D03*
X101750000Y-81775000D03*
X101750000Y-82425000D03*
X107450000Y-82425000D03*
X107450000Y-81775000D03*
X107450000Y-81125000D03*
X107450000Y-80475000D03*
X107450000Y-79825000D03*
X107450000Y-79175000D03*
X107450000Y-78525000D03*
X107450000Y-77875000D03*
X107450000Y-77225000D03*
X107450000Y-76575000D03*
X107450000Y-75925000D03*
X107450000Y-75275000D03*
X107450000Y-74625000D03*
X107450000Y-73975000D03*
D13*
G36*
X94667642Y-64601174D02*
G01*
X94691303Y-64604684D01*
X94714507Y-64610496D01*
X94737029Y-64618554D01*
X94758653Y-64628782D01*
X94779170Y-64641079D01*
X94798383Y-64655329D01*
X94816107Y-64671393D01*
X94832171Y-64689117D01*
X94846421Y-64708330D01*
X94858718Y-64728847D01*
X94868946Y-64750471D01*
X94877004Y-64772993D01*
X94882816Y-64796197D01*
X94886326Y-64819858D01*
X94887500Y-64843750D01*
X94887500Y-65756250D01*
X94886326Y-65780142D01*
X94882816Y-65803803D01*
X94877004Y-65827007D01*
X94868946Y-65849529D01*
X94858718Y-65871153D01*
X94846421Y-65891670D01*
X94832171Y-65910883D01*
X94816107Y-65928607D01*
X94798383Y-65944671D01*
X94779170Y-65958921D01*
X94758653Y-65971218D01*
X94737029Y-65981446D01*
X94714507Y-65989504D01*
X94691303Y-65995316D01*
X94667642Y-65998826D01*
X94643750Y-66000000D01*
X94156250Y-66000000D01*
X94132358Y-65998826D01*
X94108697Y-65995316D01*
X94085493Y-65989504D01*
X94062971Y-65981446D01*
X94041347Y-65971218D01*
X94020830Y-65958921D01*
X94001617Y-65944671D01*
X93983893Y-65928607D01*
X93967829Y-65910883D01*
X93953579Y-65891670D01*
X93941282Y-65871153D01*
X93931054Y-65849529D01*
X93922996Y-65827007D01*
X93917184Y-65803803D01*
X93913674Y-65780142D01*
X93912500Y-65756250D01*
X93912500Y-64843750D01*
X93913674Y-64819858D01*
X93917184Y-64796197D01*
X93922996Y-64772993D01*
X93931054Y-64750471D01*
X93941282Y-64728847D01*
X93953579Y-64708330D01*
X93967829Y-64689117D01*
X93983893Y-64671393D01*
X94001617Y-64655329D01*
X94020830Y-64641079D01*
X94041347Y-64628782D01*
X94062971Y-64618554D01*
X94085493Y-64610496D01*
X94108697Y-64604684D01*
X94132358Y-64601174D01*
X94156250Y-64600000D01*
X94643750Y-64600000D01*
X94667642Y-64601174D01*
X94667642Y-64601174D01*
G37*
D27*
X94400000Y-65300000D03*
D13*
G36*
X96542642Y-64601174D02*
G01*
X96566303Y-64604684D01*
X96589507Y-64610496D01*
X96612029Y-64618554D01*
X96633653Y-64628782D01*
X96654170Y-64641079D01*
X96673383Y-64655329D01*
X96691107Y-64671393D01*
X96707171Y-64689117D01*
X96721421Y-64708330D01*
X96733718Y-64728847D01*
X96743946Y-64750471D01*
X96752004Y-64772993D01*
X96757816Y-64796197D01*
X96761326Y-64819858D01*
X96762500Y-64843750D01*
X96762500Y-65756250D01*
X96761326Y-65780142D01*
X96757816Y-65803803D01*
X96752004Y-65827007D01*
X96743946Y-65849529D01*
X96733718Y-65871153D01*
X96721421Y-65891670D01*
X96707171Y-65910883D01*
X96691107Y-65928607D01*
X96673383Y-65944671D01*
X96654170Y-65958921D01*
X96633653Y-65971218D01*
X96612029Y-65981446D01*
X96589507Y-65989504D01*
X96566303Y-65995316D01*
X96542642Y-65998826D01*
X96518750Y-66000000D01*
X96031250Y-66000000D01*
X96007358Y-65998826D01*
X95983697Y-65995316D01*
X95960493Y-65989504D01*
X95937971Y-65981446D01*
X95916347Y-65971218D01*
X95895830Y-65958921D01*
X95876617Y-65944671D01*
X95858893Y-65928607D01*
X95842829Y-65910883D01*
X95828579Y-65891670D01*
X95816282Y-65871153D01*
X95806054Y-65849529D01*
X95797996Y-65827007D01*
X95792184Y-65803803D01*
X95788674Y-65780142D01*
X95787500Y-65756250D01*
X95787500Y-64843750D01*
X95788674Y-64819858D01*
X95792184Y-64796197D01*
X95797996Y-64772993D01*
X95806054Y-64750471D01*
X95816282Y-64728847D01*
X95828579Y-64708330D01*
X95842829Y-64689117D01*
X95858893Y-64671393D01*
X95876617Y-64655329D01*
X95895830Y-64641079D01*
X95916347Y-64628782D01*
X95937971Y-64618554D01*
X95960493Y-64610496D01*
X95983697Y-64604684D01*
X96007358Y-64601174D01*
X96031250Y-64600000D01*
X96518750Y-64600000D01*
X96542642Y-64601174D01*
X96542642Y-64601174D01*
G37*
D27*
X96275000Y-65300000D03*
D13*
G36*
X109910779Y-76776144D02*
G01*
X109933834Y-76779563D01*
X109956443Y-76785227D01*
X109978387Y-76793079D01*
X109999457Y-76803044D01*
X110019448Y-76815026D01*
X110038168Y-76828910D01*
X110055438Y-76844562D01*
X110071090Y-76861832D01*
X110084974Y-76880552D01*
X110096956Y-76900543D01*
X110106921Y-76921613D01*
X110114773Y-76943557D01*
X110120437Y-76966166D01*
X110123856Y-76989221D01*
X110125000Y-77012500D01*
X110125000Y-77487500D01*
X110123856Y-77510779D01*
X110120437Y-77533834D01*
X110114773Y-77556443D01*
X110106921Y-77578387D01*
X110096956Y-77599457D01*
X110084974Y-77619448D01*
X110071090Y-77638168D01*
X110055438Y-77655438D01*
X110038168Y-77671090D01*
X110019448Y-77684974D01*
X109999457Y-77696956D01*
X109978387Y-77706921D01*
X109956443Y-77714773D01*
X109933834Y-77720437D01*
X109910779Y-77723856D01*
X109887500Y-77725000D01*
X109312500Y-77725000D01*
X109289221Y-77723856D01*
X109266166Y-77720437D01*
X109243557Y-77714773D01*
X109221613Y-77706921D01*
X109200543Y-77696956D01*
X109180552Y-77684974D01*
X109161832Y-77671090D01*
X109144562Y-77655438D01*
X109128910Y-77638168D01*
X109115026Y-77619448D01*
X109103044Y-77599457D01*
X109093079Y-77578387D01*
X109085227Y-77556443D01*
X109079563Y-77533834D01*
X109076144Y-77510779D01*
X109075000Y-77487500D01*
X109075000Y-77012500D01*
X109076144Y-76989221D01*
X109079563Y-76966166D01*
X109085227Y-76943557D01*
X109093079Y-76921613D01*
X109103044Y-76900543D01*
X109115026Y-76880552D01*
X109128910Y-76861832D01*
X109144562Y-76844562D01*
X109161832Y-76828910D01*
X109180552Y-76815026D01*
X109200543Y-76803044D01*
X109221613Y-76793079D01*
X109243557Y-76785227D01*
X109266166Y-76779563D01*
X109289221Y-76776144D01*
X109312500Y-76775000D01*
X109887500Y-76775000D01*
X109910779Y-76776144D01*
X109910779Y-76776144D01*
G37*
D28*
X109600000Y-77250000D03*
D13*
G36*
X111660779Y-76776144D02*
G01*
X111683834Y-76779563D01*
X111706443Y-76785227D01*
X111728387Y-76793079D01*
X111749457Y-76803044D01*
X111769448Y-76815026D01*
X111788168Y-76828910D01*
X111805438Y-76844562D01*
X111821090Y-76861832D01*
X111834974Y-76880552D01*
X111846956Y-76900543D01*
X111856921Y-76921613D01*
X111864773Y-76943557D01*
X111870437Y-76966166D01*
X111873856Y-76989221D01*
X111875000Y-77012500D01*
X111875000Y-77487500D01*
X111873856Y-77510779D01*
X111870437Y-77533834D01*
X111864773Y-77556443D01*
X111856921Y-77578387D01*
X111846956Y-77599457D01*
X111834974Y-77619448D01*
X111821090Y-77638168D01*
X111805438Y-77655438D01*
X111788168Y-77671090D01*
X111769448Y-77684974D01*
X111749457Y-77696956D01*
X111728387Y-77706921D01*
X111706443Y-77714773D01*
X111683834Y-77720437D01*
X111660779Y-77723856D01*
X111637500Y-77725000D01*
X111062500Y-77725000D01*
X111039221Y-77723856D01*
X111016166Y-77720437D01*
X110993557Y-77714773D01*
X110971613Y-77706921D01*
X110950543Y-77696956D01*
X110930552Y-77684974D01*
X110911832Y-77671090D01*
X110894562Y-77655438D01*
X110878910Y-77638168D01*
X110865026Y-77619448D01*
X110853044Y-77599457D01*
X110843079Y-77578387D01*
X110835227Y-77556443D01*
X110829563Y-77533834D01*
X110826144Y-77510779D01*
X110825000Y-77487500D01*
X110825000Y-77012500D01*
X110826144Y-76989221D01*
X110829563Y-76966166D01*
X110835227Y-76943557D01*
X110843079Y-76921613D01*
X110853044Y-76900543D01*
X110865026Y-76880552D01*
X110878910Y-76861832D01*
X110894562Y-76844562D01*
X110911832Y-76828910D01*
X110930552Y-76815026D01*
X110950543Y-76803044D01*
X110971613Y-76793079D01*
X110993557Y-76785227D01*
X111016166Y-76779563D01*
X111039221Y-76776144D01*
X111062500Y-76775000D01*
X111637500Y-76775000D01*
X111660779Y-76776144D01*
X111660779Y-76776144D01*
G37*
D28*
X111350000Y-77250000D03*
D13*
G36*
X89935779Y-69126144D02*
G01*
X89958834Y-69129563D01*
X89981443Y-69135227D01*
X90003387Y-69143079D01*
X90024457Y-69153044D01*
X90044448Y-69165026D01*
X90063168Y-69178910D01*
X90080438Y-69194562D01*
X90096090Y-69211832D01*
X90109974Y-69230552D01*
X90121956Y-69250543D01*
X90131921Y-69271613D01*
X90139773Y-69293557D01*
X90145437Y-69316166D01*
X90148856Y-69339221D01*
X90150000Y-69362500D01*
X90150000Y-69837500D01*
X90148856Y-69860779D01*
X90145437Y-69883834D01*
X90139773Y-69906443D01*
X90131921Y-69928387D01*
X90121956Y-69949457D01*
X90109974Y-69969448D01*
X90096090Y-69988168D01*
X90080438Y-70005438D01*
X90063168Y-70021090D01*
X90044448Y-70034974D01*
X90024457Y-70046956D01*
X90003387Y-70056921D01*
X89981443Y-70064773D01*
X89958834Y-70070437D01*
X89935779Y-70073856D01*
X89912500Y-70075000D01*
X89337500Y-70075000D01*
X89314221Y-70073856D01*
X89291166Y-70070437D01*
X89268557Y-70064773D01*
X89246613Y-70056921D01*
X89225543Y-70046956D01*
X89205552Y-70034974D01*
X89186832Y-70021090D01*
X89169562Y-70005438D01*
X89153910Y-69988168D01*
X89140026Y-69969448D01*
X89128044Y-69949457D01*
X89118079Y-69928387D01*
X89110227Y-69906443D01*
X89104563Y-69883834D01*
X89101144Y-69860779D01*
X89100000Y-69837500D01*
X89100000Y-69362500D01*
X89101144Y-69339221D01*
X89104563Y-69316166D01*
X89110227Y-69293557D01*
X89118079Y-69271613D01*
X89128044Y-69250543D01*
X89140026Y-69230552D01*
X89153910Y-69211832D01*
X89169562Y-69194562D01*
X89186832Y-69178910D01*
X89205552Y-69165026D01*
X89225543Y-69153044D01*
X89246613Y-69143079D01*
X89268557Y-69135227D01*
X89291166Y-69129563D01*
X89314221Y-69126144D01*
X89337500Y-69125000D01*
X89912500Y-69125000D01*
X89935779Y-69126144D01*
X89935779Y-69126144D01*
G37*
D28*
X89625000Y-69600000D03*
D13*
G36*
X88185779Y-69126144D02*
G01*
X88208834Y-69129563D01*
X88231443Y-69135227D01*
X88253387Y-69143079D01*
X88274457Y-69153044D01*
X88294448Y-69165026D01*
X88313168Y-69178910D01*
X88330438Y-69194562D01*
X88346090Y-69211832D01*
X88359974Y-69230552D01*
X88371956Y-69250543D01*
X88381921Y-69271613D01*
X88389773Y-69293557D01*
X88395437Y-69316166D01*
X88398856Y-69339221D01*
X88400000Y-69362500D01*
X88400000Y-69837500D01*
X88398856Y-69860779D01*
X88395437Y-69883834D01*
X88389773Y-69906443D01*
X88381921Y-69928387D01*
X88371956Y-69949457D01*
X88359974Y-69969448D01*
X88346090Y-69988168D01*
X88330438Y-70005438D01*
X88313168Y-70021090D01*
X88294448Y-70034974D01*
X88274457Y-70046956D01*
X88253387Y-70056921D01*
X88231443Y-70064773D01*
X88208834Y-70070437D01*
X88185779Y-70073856D01*
X88162500Y-70075000D01*
X87587500Y-70075000D01*
X87564221Y-70073856D01*
X87541166Y-70070437D01*
X87518557Y-70064773D01*
X87496613Y-70056921D01*
X87475543Y-70046956D01*
X87455552Y-70034974D01*
X87436832Y-70021090D01*
X87419562Y-70005438D01*
X87403910Y-69988168D01*
X87390026Y-69969448D01*
X87378044Y-69949457D01*
X87368079Y-69928387D01*
X87360227Y-69906443D01*
X87354563Y-69883834D01*
X87351144Y-69860779D01*
X87350000Y-69837500D01*
X87350000Y-69362500D01*
X87351144Y-69339221D01*
X87354563Y-69316166D01*
X87360227Y-69293557D01*
X87368079Y-69271613D01*
X87378044Y-69250543D01*
X87390026Y-69230552D01*
X87403910Y-69211832D01*
X87419562Y-69194562D01*
X87436832Y-69178910D01*
X87455552Y-69165026D01*
X87475543Y-69153044D01*
X87496613Y-69143079D01*
X87518557Y-69135227D01*
X87541166Y-69129563D01*
X87564221Y-69126144D01*
X87587500Y-69125000D01*
X88162500Y-69125000D01*
X88185779Y-69126144D01*
X88185779Y-69126144D01*
G37*
D28*
X87875000Y-69600000D03*
D13*
G36*
X88260779Y-71626144D02*
G01*
X88283834Y-71629563D01*
X88306443Y-71635227D01*
X88328387Y-71643079D01*
X88349457Y-71653044D01*
X88369448Y-71665026D01*
X88388168Y-71678910D01*
X88405438Y-71694562D01*
X88421090Y-71711832D01*
X88434974Y-71730552D01*
X88446956Y-71750543D01*
X88456921Y-71771613D01*
X88464773Y-71793557D01*
X88470437Y-71816166D01*
X88473856Y-71839221D01*
X88475000Y-71862500D01*
X88475000Y-72337500D01*
X88473856Y-72360779D01*
X88470437Y-72383834D01*
X88464773Y-72406443D01*
X88456921Y-72428387D01*
X88446956Y-72449457D01*
X88434974Y-72469448D01*
X88421090Y-72488168D01*
X88405438Y-72505438D01*
X88388168Y-72521090D01*
X88369448Y-72534974D01*
X88349457Y-72546956D01*
X88328387Y-72556921D01*
X88306443Y-72564773D01*
X88283834Y-72570437D01*
X88260779Y-72573856D01*
X88237500Y-72575000D01*
X87662500Y-72575000D01*
X87639221Y-72573856D01*
X87616166Y-72570437D01*
X87593557Y-72564773D01*
X87571613Y-72556921D01*
X87550543Y-72546956D01*
X87530552Y-72534974D01*
X87511832Y-72521090D01*
X87494562Y-72505438D01*
X87478910Y-72488168D01*
X87465026Y-72469448D01*
X87453044Y-72449457D01*
X87443079Y-72428387D01*
X87435227Y-72406443D01*
X87429563Y-72383834D01*
X87426144Y-72360779D01*
X87425000Y-72337500D01*
X87425000Y-71862500D01*
X87426144Y-71839221D01*
X87429563Y-71816166D01*
X87435227Y-71793557D01*
X87443079Y-71771613D01*
X87453044Y-71750543D01*
X87465026Y-71730552D01*
X87478910Y-71711832D01*
X87494562Y-71694562D01*
X87511832Y-71678910D01*
X87530552Y-71665026D01*
X87550543Y-71653044D01*
X87571613Y-71643079D01*
X87593557Y-71635227D01*
X87616166Y-71629563D01*
X87639221Y-71626144D01*
X87662500Y-71625000D01*
X88237500Y-71625000D01*
X88260779Y-71626144D01*
X88260779Y-71626144D01*
G37*
D28*
X87950000Y-72100000D03*
D13*
G36*
X90010779Y-71626144D02*
G01*
X90033834Y-71629563D01*
X90056443Y-71635227D01*
X90078387Y-71643079D01*
X90099457Y-71653044D01*
X90119448Y-71665026D01*
X90138168Y-71678910D01*
X90155438Y-71694562D01*
X90171090Y-71711832D01*
X90184974Y-71730552D01*
X90196956Y-71750543D01*
X90206921Y-71771613D01*
X90214773Y-71793557D01*
X90220437Y-71816166D01*
X90223856Y-71839221D01*
X90225000Y-71862500D01*
X90225000Y-72337500D01*
X90223856Y-72360779D01*
X90220437Y-72383834D01*
X90214773Y-72406443D01*
X90206921Y-72428387D01*
X90196956Y-72449457D01*
X90184974Y-72469448D01*
X90171090Y-72488168D01*
X90155438Y-72505438D01*
X90138168Y-72521090D01*
X90119448Y-72534974D01*
X90099457Y-72546956D01*
X90078387Y-72556921D01*
X90056443Y-72564773D01*
X90033834Y-72570437D01*
X90010779Y-72573856D01*
X89987500Y-72575000D01*
X89412500Y-72575000D01*
X89389221Y-72573856D01*
X89366166Y-72570437D01*
X89343557Y-72564773D01*
X89321613Y-72556921D01*
X89300543Y-72546956D01*
X89280552Y-72534974D01*
X89261832Y-72521090D01*
X89244562Y-72505438D01*
X89228910Y-72488168D01*
X89215026Y-72469448D01*
X89203044Y-72449457D01*
X89193079Y-72428387D01*
X89185227Y-72406443D01*
X89179563Y-72383834D01*
X89176144Y-72360779D01*
X89175000Y-72337500D01*
X89175000Y-71862500D01*
X89176144Y-71839221D01*
X89179563Y-71816166D01*
X89185227Y-71793557D01*
X89193079Y-71771613D01*
X89203044Y-71750543D01*
X89215026Y-71730552D01*
X89228910Y-71711832D01*
X89244562Y-71694562D01*
X89261832Y-71678910D01*
X89280552Y-71665026D01*
X89300543Y-71653044D01*
X89321613Y-71643079D01*
X89343557Y-71635227D01*
X89366166Y-71629563D01*
X89389221Y-71626144D01*
X89412500Y-71625000D01*
X89987500Y-71625000D01*
X90010779Y-71626144D01*
X90010779Y-71626144D01*
G37*
D28*
X89700000Y-72100000D03*
D13*
G36*
X90035779Y-74126144D02*
G01*
X90058834Y-74129563D01*
X90081443Y-74135227D01*
X90103387Y-74143079D01*
X90124457Y-74153044D01*
X90144448Y-74165026D01*
X90163168Y-74178910D01*
X90180438Y-74194562D01*
X90196090Y-74211832D01*
X90209974Y-74230552D01*
X90221956Y-74250543D01*
X90231921Y-74271613D01*
X90239773Y-74293557D01*
X90245437Y-74316166D01*
X90248856Y-74339221D01*
X90250000Y-74362500D01*
X90250000Y-74837500D01*
X90248856Y-74860779D01*
X90245437Y-74883834D01*
X90239773Y-74906443D01*
X90231921Y-74928387D01*
X90221956Y-74949457D01*
X90209974Y-74969448D01*
X90196090Y-74988168D01*
X90180438Y-75005438D01*
X90163168Y-75021090D01*
X90144448Y-75034974D01*
X90124457Y-75046956D01*
X90103387Y-75056921D01*
X90081443Y-75064773D01*
X90058834Y-75070437D01*
X90035779Y-75073856D01*
X90012500Y-75075000D01*
X89437500Y-75075000D01*
X89414221Y-75073856D01*
X89391166Y-75070437D01*
X89368557Y-75064773D01*
X89346613Y-75056921D01*
X89325543Y-75046956D01*
X89305552Y-75034974D01*
X89286832Y-75021090D01*
X89269562Y-75005438D01*
X89253910Y-74988168D01*
X89240026Y-74969448D01*
X89228044Y-74949457D01*
X89218079Y-74928387D01*
X89210227Y-74906443D01*
X89204563Y-74883834D01*
X89201144Y-74860779D01*
X89200000Y-74837500D01*
X89200000Y-74362500D01*
X89201144Y-74339221D01*
X89204563Y-74316166D01*
X89210227Y-74293557D01*
X89218079Y-74271613D01*
X89228044Y-74250543D01*
X89240026Y-74230552D01*
X89253910Y-74211832D01*
X89269562Y-74194562D01*
X89286832Y-74178910D01*
X89305552Y-74165026D01*
X89325543Y-74153044D01*
X89346613Y-74143079D01*
X89368557Y-74135227D01*
X89391166Y-74129563D01*
X89414221Y-74126144D01*
X89437500Y-74125000D01*
X90012500Y-74125000D01*
X90035779Y-74126144D01*
X90035779Y-74126144D01*
G37*
D28*
X89725000Y-74600000D03*
D13*
G36*
X88285779Y-74126144D02*
G01*
X88308834Y-74129563D01*
X88331443Y-74135227D01*
X88353387Y-74143079D01*
X88374457Y-74153044D01*
X88394448Y-74165026D01*
X88413168Y-74178910D01*
X88430438Y-74194562D01*
X88446090Y-74211832D01*
X88459974Y-74230552D01*
X88471956Y-74250543D01*
X88481921Y-74271613D01*
X88489773Y-74293557D01*
X88495437Y-74316166D01*
X88498856Y-74339221D01*
X88500000Y-74362500D01*
X88500000Y-74837500D01*
X88498856Y-74860779D01*
X88495437Y-74883834D01*
X88489773Y-74906443D01*
X88481921Y-74928387D01*
X88471956Y-74949457D01*
X88459974Y-74969448D01*
X88446090Y-74988168D01*
X88430438Y-75005438D01*
X88413168Y-75021090D01*
X88394448Y-75034974D01*
X88374457Y-75046956D01*
X88353387Y-75056921D01*
X88331443Y-75064773D01*
X88308834Y-75070437D01*
X88285779Y-75073856D01*
X88262500Y-75075000D01*
X87687500Y-75075000D01*
X87664221Y-75073856D01*
X87641166Y-75070437D01*
X87618557Y-75064773D01*
X87596613Y-75056921D01*
X87575543Y-75046956D01*
X87555552Y-75034974D01*
X87536832Y-75021090D01*
X87519562Y-75005438D01*
X87503910Y-74988168D01*
X87490026Y-74969448D01*
X87478044Y-74949457D01*
X87468079Y-74928387D01*
X87460227Y-74906443D01*
X87454563Y-74883834D01*
X87451144Y-74860779D01*
X87450000Y-74837500D01*
X87450000Y-74362500D01*
X87451144Y-74339221D01*
X87454563Y-74316166D01*
X87460227Y-74293557D01*
X87468079Y-74271613D01*
X87478044Y-74250543D01*
X87490026Y-74230552D01*
X87503910Y-74211832D01*
X87519562Y-74194562D01*
X87536832Y-74178910D01*
X87555552Y-74165026D01*
X87575543Y-74153044D01*
X87596613Y-74143079D01*
X87618557Y-74135227D01*
X87641166Y-74129563D01*
X87664221Y-74126144D01*
X87687500Y-74125000D01*
X88262500Y-74125000D01*
X88285779Y-74126144D01*
X88285779Y-74126144D01*
G37*
D28*
X87975000Y-74600000D03*
D13*
G36*
X96160779Y-69126144D02*
G01*
X96183834Y-69129563D01*
X96206443Y-69135227D01*
X96228387Y-69143079D01*
X96249457Y-69153044D01*
X96269448Y-69165026D01*
X96288168Y-69178910D01*
X96305438Y-69194562D01*
X96321090Y-69211832D01*
X96334974Y-69230552D01*
X96346956Y-69250543D01*
X96356921Y-69271613D01*
X96364773Y-69293557D01*
X96370437Y-69316166D01*
X96373856Y-69339221D01*
X96375000Y-69362500D01*
X96375000Y-69837500D01*
X96373856Y-69860779D01*
X96370437Y-69883834D01*
X96364773Y-69906443D01*
X96356921Y-69928387D01*
X96346956Y-69949457D01*
X96334974Y-69969448D01*
X96321090Y-69988168D01*
X96305438Y-70005438D01*
X96288168Y-70021090D01*
X96269448Y-70034974D01*
X96249457Y-70046956D01*
X96228387Y-70056921D01*
X96206443Y-70064773D01*
X96183834Y-70070437D01*
X96160779Y-70073856D01*
X96137500Y-70075000D01*
X95562500Y-70075000D01*
X95539221Y-70073856D01*
X95516166Y-70070437D01*
X95493557Y-70064773D01*
X95471613Y-70056921D01*
X95450543Y-70046956D01*
X95430552Y-70034974D01*
X95411832Y-70021090D01*
X95394562Y-70005438D01*
X95378910Y-69988168D01*
X95365026Y-69969448D01*
X95353044Y-69949457D01*
X95343079Y-69928387D01*
X95335227Y-69906443D01*
X95329563Y-69883834D01*
X95326144Y-69860779D01*
X95325000Y-69837500D01*
X95325000Y-69362500D01*
X95326144Y-69339221D01*
X95329563Y-69316166D01*
X95335227Y-69293557D01*
X95343079Y-69271613D01*
X95353044Y-69250543D01*
X95365026Y-69230552D01*
X95378910Y-69211832D01*
X95394562Y-69194562D01*
X95411832Y-69178910D01*
X95430552Y-69165026D01*
X95450543Y-69153044D01*
X95471613Y-69143079D01*
X95493557Y-69135227D01*
X95516166Y-69129563D01*
X95539221Y-69126144D01*
X95562500Y-69125000D01*
X96137500Y-69125000D01*
X96160779Y-69126144D01*
X96160779Y-69126144D01*
G37*
D28*
X95850000Y-69600000D03*
D13*
G36*
X97910779Y-69126144D02*
G01*
X97933834Y-69129563D01*
X97956443Y-69135227D01*
X97978387Y-69143079D01*
X97999457Y-69153044D01*
X98019448Y-69165026D01*
X98038168Y-69178910D01*
X98055438Y-69194562D01*
X98071090Y-69211832D01*
X98084974Y-69230552D01*
X98096956Y-69250543D01*
X98106921Y-69271613D01*
X98114773Y-69293557D01*
X98120437Y-69316166D01*
X98123856Y-69339221D01*
X98125000Y-69362500D01*
X98125000Y-69837500D01*
X98123856Y-69860779D01*
X98120437Y-69883834D01*
X98114773Y-69906443D01*
X98106921Y-69928387D01*
X98096956Y-69949457D01*
X98084974Y-69969448D01*
X98071090Y-69988168D01*
X98055438Y-70005438D01*
X98038168Y-70021090D01*
X98019448Y-70034974D01*
X97999457Y-70046956D01*
X97978387Y-70056921D01*
X97956443Y-70064773D01*
X97933834Y-70070437D01*
X97910779Y-70073856D01*
X97887500Y-70075000D01*
X97312500Y-70075000D01*
X97289221Y-70073856D01*
X97266166Y-70070437D01*
X97243557Y-70064773D01*
X97221613Y-70056921D01*
X97200543Y-70046956D01*
X97180552Y-70034974D01*
X97161832Y-70021090D01*
X97144562Y-70005438D01*
X97128910Y-69988168D01*
X97115026Y-69969448D01*
X97103044Y-69949457D01*
X97093079Y-69928387D01*
X97085227Y-69906443D01*
X97079563Y-69883834D01*
X97076144Y-69860779D01*
X97075000Y-69837500D01*
X97075000Y-69362500D01*
X97076144Y-69339221D01*
X97079563Y-69316166D01*
X97085227Y-69293557D01*
X97093079Y-69271613D01*
X97103044Y-69250543D01*
X97115026Y-69230552D01*
X97128910Y-69211832D01*
X97144562Y-69194562D01*
X97161832Y-69178910D01*
X97180552Y-69165026D01*
X97200543Y-69153044D01*
X97221613Y-69143079D01*
X97243557Y-69135227D01*
X97266166Y-69129563D01*
X97289221Y-69126144D01*
X97312500Y-69125000D01*
X97887500Y-69125000D01*
X97910779Y-69126144D01*
X97910779Y-69126144D01*
G37*
D28*
X97600000Y-69600000D03*
D13*
G36*
X96160779Y-71626144D02*
G01*
X96183834Y-71629563D01*
X96206443Y-71635227D01*
X96228387Y-71643079D01*
X96249457Y-71653044D01*
X96269448Y-71665026D01*
X96288168Y-71678910D01*
X96305438Y-71694562D01*
X96321090Y-71711832D01*
X96334974Y-71730552D01*
X96346956Y-71750543D01*
X96356921Y-71771613D01*
X96364773Y-71793557D01*
X96370437Y-71816166D01*
X96373856Y-71839221D01*
X96375000Y-71862500D01*
X96375000Y-72337500D01*
X96373856Y-72360779D01*
X96370437Y-72383834D01*
X96364773Y-72406443D01*
X96356921Y-72428387D01*
X96346956Y-72449457D01*
X96334974Y-72469448D01*
X96321090Y-72488168D01*
X96305438Y-72505438D01*
X96288168Y-72521090D01*
X96269448Y-72534974D01*
X96249457Y-72546956D01*
X96228387Y-72556921D01*
X96206443Y-72564773D01*
X96183834Y-72570437D01*
X96160779Y-72573856D01*
X96137500Y-72575000D01*
X95562500Y-72575000D01*
X95539221Y-72573856D01*
X95516166Y-72570437D01*
X95493557Y-72564773D01*
X95471613Y-72556921D01*
X95450543Y-72546956D01*
X95430552Y-72534974D01*
X95411832Y-72521090D01*
X95394562Y-72505438D01*
X95378910Y-72488168D01*
X95365026Y-72469448D01*
X95353044Y-72449457D01*
X95343079Y-72428387D01*
X95335227Y-72406443D01*
X95329563Y-72383834D01*
X95326144Y-72360779D01*
X95325000Y-72337500D01*
X95325000Y-71862500D01*
X95326144Y-71839221D01*
X95329563Y-71816166D01*
X95335227Y-71793557D01*
X95343079Y-71771613D01*
X95353044Y-71750543D01*
X95365026Y-71730552D01*
X95378910Y-71711832D01*
X95394562Y-71694562D01*
X95411832Y-71678910D01*
X95430552Y-71665026D01*
X95450543Y-71653044D01*
X95471613Y-71643079D01*
X95493557Y-71635227D01*
X95516166Y-71629563D01*
X95539221Y-71626144D01*
X95562500Y-71625000D01*
X96137500Y-71625000D01*
X96160779Y-71626144D01*
X96160779Y-71626144D01*
G37*
D28*
X95850000Y-72100000D03*
D13*
G36*
X97910779Y-71626144D02*
G01*
X97933834Y-71629563D01*
X97956443Y-71635227D01*
X97978387Y-71643079D01*
X97999457Y-71653044D01*
X98019448Y-71665026D01*
X98038168Y-71678910D01*
X98055438Y-71694562D01*
X98071090Y-71711832D01*
X98084974Y-71730552D01*
X98096956Y-71750543D01*
X98106921Y-71771613D01*
X98114773Y-71793557D01*
X98120437Y-71816166D01*
X98123856Y-71839221D01*
X98125000Y-71862500D01*
X98125000Y-72337500D01*
X98123856Y-72360779D01*
X98120437Y-72383834D01*
X98114773Y-72406443D01*
X98106921Y-72428387D01*
X98096956Y-72449457D01*
X98084974Y-72469448D01*
X98071090Y-72488168D01*
X98055438Y-72505438D01*
X98038168Y-72521090D01*
X98019448Y-72534974D01*
X97999457Y-72546956D01*
X97978387Y-72556921D01*
X97956443Y-72564773D01*
X97933834Y-72570437D01*
X97910779Y-72573856D01*
X97887500Y-72575000D01*
X97312500Y-72575000D01*
X97289221Y-72573856D01*
X97266166Y-72570437D01*
X97243557Y-72564773D01*
X97221613Y-72556921D01*
X97200543Y-72546956D01*
X97180552Y-72534974D01*
X97161832Y-72521090D01*
X97144562Y-72505438D01*
X97128910Y-72488168D01*
X97115026Y-72469448D01*
X97103044Y-72449457D01*
X97093079Y-72428387D01*
X97085227Y-72406443D01*
X97079563Y-72383834D01*
X97076144Y-72360779D01*
X97075000Y-72337500D01*
X97075000Y-71862500D01*
X97076144Y-71839221D01*
X97079563Y-71816166D01*
X97085227Y-71793557D01*
X97093079Y-71771613D01*
X97103044Y-71750543D01*
X97115026Y-71730552D01*
X97128910Y-71711832D01*
X97144562Y-71694562D01*
X97161832Y-71678910D01*
X97180552Y-71665026D01*
X97200543Y-71653044D01*
X97221613Y-71643079D01*
X97243557Y-71635227D01*
X97266166Y-71629563D01*
X97289221Y-71626144D01*
X97312500Y-71625000D01*
X97887500Y-71625000D01*
X97910779Y-71626144D01*
X97910779Y-71626144D01*
G37*
D28*
X97600000Y-72100000D03*
D13*
G36*
X97910779Y-74126144D02*
G01*
X97933834Y-74129563D01*
X97956443Y-74135227D01*
X97978387Y-74143079D01*
X97999457Y-74153044D01*
X98019448Y-74165026D01*
X98038168Y-74178910D01*
X98055438Y-74194562D01*
X98071090Y-74211832D01*
X98084974Y-74230552D01*
X98096956Y-74250543D01*
X98106921Y-74271613D01*
X98114773Y-74293557D01*
X98120437Y-74316166D01*
X98123856Y-74339221D01*
X98125000Y-74362500D01*
X98125000Y-74837500D01*
X98123856Y-74860779D01*
X98120437Y-74883834D01*
X98114773Y-74906443D01*
X98106921Y-74928387D01*
X98096956Y-74949457D01*
X98084974Y-74969448D01*
X98071090Y-74988168D01*
X98055438Y-75005438D01*
X98038168Y-75021090D01*
X98019448Y-75034974D01*
X97999457Y-75046956D01*
X97978387Y-75056921D01*
X97956443Y-75064773D01*
X97933834Y-75070437D01*
X97910779Y-75073856D01*
X97887500Y-75075000D01*
X97312500Y-75075000D01*
X97289221Y-75073856D01*
X97266166Y-75070437D01*
X97243557Y-75064773D01*
X97221613Y-75056921D01*
X97200543Y-75046956D01*
X97180552Y-75034974D01*
X97161832Y-75021090D01*
X97144562Y-75005438D01*
X97128910Y-74988168D01*
X97115026Y-74969448D01*
X97103044Y-74949457D01*
X97093079Y-74928387D01*
X97085227Y-74906443D01*
X97079563Y-74883834D01*
X97076144Y-74860779D01*
X97075000Y-74837500D01*
X97075000Y-74362500D01*
X97076144Y-74339221D01*
X97079563Y-74316166D01*
X97085227Y-74293557D01*
X97093079Y-74271613D01*
X97103044Y-74250543D01*
X97115026Y-74230552D01*
X97128910Y-74211832D01*
X97144562Y-74194562D01*
X97161832Y-74178910D01*
X97180552Y-74165026D01*
X97200543Y-74153044D01*
X97221613Y-74143079D01*
X97243557Y-74135227D01*
X97266166Y-74129563D01*
X97289221Y-74126144D01*
X97312500Y-74125000D01*
X97887500Y-74125000D01*
X97910779Y-74126144D01*
X97910779Y-74126144D01*
G37*
D28*
X97600000Y-74600000D03*
D13*
G36*
X96160779Y-74126144D02*
G01*
X96183834Y-74129563D01*
X96206443Y-74135227D01*
X96228387Y-74143079D01*
X96249457Y-74153044D01*
X96269448Y-74165026D01*
X96288168Y-74178910D01*
X96305438Y-74194562D01*
X96321090Y-74211832D01*
X96334974Y-74230552D01*
X96346956Y-74250543D01*
X96356921Y-74271613D01*
X96364773Y-74293557D01*
X96370437Y-74316166D01*
X96373856Y-74339221D01*
X96375000Y-74362500D01*
X96375000Y-74837500D01*
X96373856Y-74860779D01*
X96370437Y-74883834D01*
X96364773Y-74906443D01*
X96356921Y-74928387D01*
X96346956Y-74949457D01*
X96334974Y-74969448D01*
X96321090Y-74988168D01*
X96305438Y-75005438D01*
X96288168Y-75021090D01*
X96269448Y-75034974D01*
X96249457Y-75046956D01*
X96228387Y-75056921D01*
X96206443Y-75064773D01*
X96183834Y-75070437D01*
X96160779Y-75073856D01*
X96137500Y-75075000D01*
X95562500Y-75075000D01*
X95539221Y-75073856D01*
X95516166Y-75070437D01*
X95493557Y-75064773D01*
X95471613Y-75056921D01*
X95450543Y-75046956D01*
X95430552Y-75034974D01*
X95411832Y-75021090D01*
X95394562Y-75005438D01*
X95378910Y-74988168D01*
X95365026Y-74969448D01*
X95353044Y-74949457D01*
X95343079Y-74928387D01*
X95335227Y-74906443D01*
X95329563Y-74883834D01*
X95326144Y-74860779D01*
X95325000Y-74837500D01*
X95325000Y-74362500D01*
X95326144Y-74339221D01*
X95329563Y-74316166D01*
X95335227Y-74293557D01*
X95343079Y-74271613D01*
X95353044Y-74250543D01*
X95365026Y-74230552D01*
X95378910Y-74211832D01*
X95394562Y-74194562D01*
X95411832Y-74178910D01*
X95430552Y-74165026D01*
X95450543Y-74153044D01*
X95471613Y-74143079D01*
X95493557Y-74135227D01*
X95516166Y-74129563D01*
X95539221Y-74126144D01*
X95562500Y-74125000D01*
X96137500Y-74125000D01*
X96160779Y-74126144D01*
X96160779Y-74126144D01*
G37*
D28*
X95850000Y-74600000D03*
D13*
G36*
X94592642Y-62201174D02*
G01*
X94616303Y-62204684D01*
X94639507Y-62210496D01*
X94662029Y-62218554D01*
X94683653Y-62228782D01*
X94704170Y-62241079D01*
X94723383Y-62255329D01*
X94741107Y-62271393D01*
X94757171Y-62289117D01*
X94771421Y-62308330D01*
X94783718Y-62328847D01*
X94793946Y-62350471D01*
X94802004Y-62372993D01*
X94807816Y-62396197D01*
X94811326Y-62419858D01*
X94812500Y-62443750D01*
X94812500Y-63356250D01*
X94811326Y-63380142D01*
X94807816Y-63403803D01*
X94802004Y-63427007D01*
X94793946Y-63449529D01*
X94783718Y-63471153D01*
X94771421Y-63491670D01*
X94757171Y-63510883D01*
X94741107Y-63528607D01*
X94723383Y-63544671D01*
X94704170Y-63558921D01*
X94683653Y-63571218D01*
X94662029Y-63581446D01*
X94639507Y-63589504D01*
X94616303Y-63595316D01*
X94592642Y-63598826D01*
X94568750Y-63600000D01*
X94081250Y-63600000D01*
X94057358Y-63598826D01*
X94033697Y-63595316D01*
X94010493Y-63589504D01*
X93987971Y-63581446D01*
X93966347Y-63571218D01*
X93945830Y-63558921D01*
X93926617Y-63544671D01*
X93908893Y-63528607D01*
X93892829Y-63510883D01*
X93878579Y-63491670D01*
X93866282Y-63471153D01*
X93856054Y-63449529D01*
X93847996Y-63427007D01*
X93842184Y-63403803D01*
X93838674Y-63380142D01*
X93837500Y-63356250D01*
X93837500Y-62443750D01*
X93838674Y-62419858D01*
X93842184Y-62396197D01*
X93847996Y-62372993D01*
X93856054Y-62350471D01*
X93866282Y-62328847D01*
X93878579Y-62308330D01*
X93892829Y-62289117D01*
X93908893Y-62271393D01*
X93926617Y-62255329D01*
X93945830Y-62241079D01*
X93966347Y-62228782D01*
X93987971Y-62218554D01*
X94010493Y-62210496D01*
X94033697Y-62204684D01*
X94057358Y-62201174D01*
X94081250Y-62200000D01*
X94568750Y-62200000D01*
X94592642Y-62201174D01*
X94592642Y-62201174D01*
G37*
D27*
X94325000Y-62900000D03*
D13*
G36*
X96467642Y-62201174D02*
G01*
X96491303Y-62204684D01*
X96514507Y-62210496D01*
X96537029Y-62218554D01*
X96558653Y-62228782D01*
X96579170Y-62241079D01*
X96598383Y-62255329D01*
X96616107Y-62271393D01*
X96632171Y-62289117D01*
X96646421Y-62308330D01*
X96658718Y-62328847D01*
X96668946Y-62350471D01*
X96677004Y-62372993D01*
X96682816Y-62396197D01*
X96686326Y-62419858D01*
X96687500Y-62443750D01*
X96687500Y-63356250D01*
X96686326Y-63380142D01*
X96682816Y-63403803D01*
X96677004Y-63427007D01*
X96668946Y-63449529D01*
X96658718Y-63471153D01*
X96646421Y-63491670D01*
X96632171Y-63510883D01*
X96616107Y-63528607D01*
X96598383Y-63544671D01*
X96579170Y-63558921D01*
X96558653Y-63571218D01*
X96537029Y-63581446D01*
X96514507Y-63589504D01*
X96491303Y-63595316D01*
X96467642Y-63598826D01*
X96443750Y-63600000D01*
X95956250Y-63600000D01*
X95932358Y-63598826D01*
X95908697Y-63595316D01*
X95885493Y-63589504D01*
X95862971Y-63581446D01*
X95841347Y-63571218D01*
X95820830Y-63558921D01*
X95801617Y-63544671D01*
X95783893Y-63528607D01*
X95767829Y-63510883D01*
X95753579Y-63491670D01*
X95741282Y-63471153D01*
X95731054Y-63449529D01*
X95722996Y-63427007D01*
X95717184Y-63403803D01*
X95713674Y-63380142D01*
X95712500Y-63356250D01*
X95712500Y-62443750D01*
X95713674Y-62419858D01*
X95717184Y-62396197D01*
X95722996Y-62372993D01*
X95731054Y-62350471D01*
X95741282Y-62328847D01*
X95753579Y-62308330D01*
X95767829Y-62289117D01*
X95783893Y-62271393D01*
X95801617Y-62255329D01*
X95820830Y-62241079D01*
X95841347Y-62228782D01*
X95862971Y-62218554D01*
X95885493Y-62210496D01*
X95908697Y-62204684D01*
X95932358Y-62201174D01*
X95956250Y-62200000D01*
X96443750Y-62200000D01*
X96467642Y-62201174D01*
X96467642Y-62201174D01*
G37*
D27*
X96200000Y-62900000D03*
D29*
X105415001Y-69225001D03*
D16*
X102875001Y-69225001D03*
X109015001Y-69225001D03*
D29*
X111555001Y-69225001D03*
D30*
X94000000Y-80000000D03*
X90000000Y-80000000D03*
X92660000Y-80000000D03*
X91340000Y-80000000D03*
X92660000Y-83000000D03*
X94000000Y-83000000D03*
X90000000Y-83000000D03*
X91340000Y-83000000D03*
X87600000Y-80000000D03*
X83600000Y-80000000D03*
X86260000Y-80000000D03*
X84940000Y-80000000D03*
X86260000Y-83000000D03*
X87600000Y-83000000D03*
X83600000Y-83000000D03*
X84940000Y-83000000D03*
X118340000Y-83800000D03*
X117000000Y-83800000D03*
X121000000Y-83800000D03*
X119660000Y-83800000D03*
X118340000Y-80800000D03*
X119660000Y-80800000D03*
X117000000Y-80800000D03*
X121000000Y-80800000D03*
D31*
X85300000Y-65350000D03*
X98650000Y-64000000D03*
X107950000Y-72000000D03*
X111350000Y-72000000D03*
X103400000Y-66050000D03*
X112850000Y-77200000D03*
X105350000Y-75200000D03*
X106950000Y-69500000D03*
X87200000Y-68300000D03*
X101650000Y-72450000D03*
X87150000Y-70800000D03*
X100350000Y-72300000D03*
X87350000Y-73350000D03*
X99550000Y-75000000D03*
X95150000Y-70850000D03*
X98450000Y-75800000D03*
X97300000Y-76450000D03*
X95150000Y-73400000D03*
X95100000Y-76450000D03*
X105400000Y-76750000D03*
D32*
X84450000Y-69600000D02*
X84450000Y-72100000D01*
X84450000Y-72100000D02*
X84450000Y-74600000D01*
X92350000Y-69600000D02*
X92350000Y-72100000D01*
X92350000Y-72100000D02*
X92350000Y-74600000D01*
X99300000Y-65300000D02*
X100900000Y-63700000D01*
X96275000Y-65300000D02*
X99300000Y-65300000D01*
X84450000Y-74600000D02*
X84450000Y-76000000D01*
X84450000Y-76000000D02*
X84700000Y-76250000D01*
X90700000Y-76250000D02*
X92350000Y-74600000D01*
X84700000Y-76250000D02*
X90700000Y-76250000D01*
X84450000Y-69600000D02*
X84450000Y-66200000D01*
X84450000Y-66200000D02*
X85300000Y-65350000D01*
X100600000Y-64000000D02*
X100900000Y-63700000D01*
X98650000Y-64000000D02*
X100600000Y-64000000D01*
X100900000Y-67250000D02*
X102875001Y-69225001D01*
X100900000Y-63700000D02*
X100900000Y-67250000D01*
X109015001Y-72409999D02*
X107450000Y-73975000D01*
X109015001Y-69225001D02*
X109015001Y-72409999D01*
X102875001Y-69225001D02*
X102875001Y-70875001D01*
X102875001Y-70875001D02*
X103400000Y-71400000D01*
X106840002Y-71400000D02*
X109015001Y-69225001D01*
X103400000Y-71400000D02*
X106840002Y-71400000D01*
X107450000Y-73975000D02*
X107450000Y-72500000D01*
X107450000Y-72500000D02*
X107950000Y-72000000D01*
X111350000Y-72000000D02*
X112600000Y-73250000D01*
X89625000Y-72025000D02*
X89700000Y-72100000D01*
X89625000Y-69600000D02*
X89625000Y-72025000D01*
X89725000Y-72125000D02*
X89700000Y-72100000D01*
X89725000Y-74600000D02*
X89725000Y-72125000D01*
X97600000Y-69600000D02*
X97600000Y-72100000D01*
X97600000Y-72100000D02*
X97600000Y-74600000D01*
X103400000Y-63700000D02*
X103400000Y-61750000D01*
X103400000Y-61750000D02*
X103050000Y-61400000D01*
X97700000Y-61400000D02*
X96200000Y-62900000D01*
X103050000Y-61400000D02*
X97700000Y-61400000D01*
X97700000Y-61400000D02*
X91400000Y-61400000D01*
X89625000Y-63175000D02*
X89625000Y-69600000D01*
X91400000Y-61400000D02*
X89625000Y-63175000D01*
X89625000Y-69600000D02*
X89625000Y-69275000D01*
X89625000Y-69275000D02*
X91300000Y-67600000D01*
X91300000Y-67600000D02*
X96800000Y-67600000D01*
X97600000Y-68400000D02*
X97600000Y-69600000D01*
X96800000Y-67600000D02*
X97600000Y-68400000D01*
X103400000Y-63700000D02*
X103400000Y-66050000D01*
X112600000Y-76950000D02*
X112600000Y-75300000D01*
X112850000Y-77200000D02*
X112600000Y-76950000D01*
X111400000Y-77200000D02*
X111350000Y-77250000D01*
X112850000Y-77200000D02*
X111400000Y-77200000D01*
X110025000Y-75925000D02*
X111350000Y-77250000D01*
X107450000Y-75925000D02*
X110025000Y-75925000D01*
X107450000Y-75925000D02*
X103625000Y-75925000D01*
X103625000Y-75925000D02*
X103450000Y-76100000D01*
X103450000Y-76100000D02*
X103450000Y-81800000D01*
X102825000Y-82425000D02*
X101750000Y-82425000D01*
X103450000Y-81800000D02*
X102825000Y-82425000D01*
D33*
X66100000Y-95000000D02*
X66100000Y-92800000D01*
X72900000Y-92800000D02*
X72900000Y-95000000D01*
X79700000Y-92800000D02*
X79700000Y-95000000D01*
X86600000Y-92850000D02*
X86600000Y-95000000D01*
X93400000Y-92850000D02*
X93400000Y-95000000D01*
X100200000Y-92850000D02*
X100200000Y-95000000D01*
D34*
X60600000Y-79500000D02*
X59000000Y-79500000D01*
X59000000Y-79500000D02*
X57500000Y-81000000D01*
X57500000Y-81000000D02*
X57500000Y-97550000D01*
X57500000Y-97550000D02*
X98750000Y-97550000D01*
D33*
X100200000Y-96100000D02*
X98750000Y-97550000D01*
X100200000Y-95000000D02*
X100200000Y-96100000D01*
X107100000Y-92850000D02*
X107100000Y-95000000D01*
X113900000Y-92850000D02*
X113900000Y-95000000D01*
X120750000Y-92850000D02*
X120750000Y-95000000D01*
X127600000Y-92850000D02*
X127600000Y-95000000D01*
X134400000Y-92850000D02*
X134400000Y-95000000D01*
X141250000Y-92850000D02*
X141250000Y-95000000D01*
D34*
X138300000Y-79500000D02*
X142450000Y-79500000D01*
X142450000Y-79500000D02*
X143150000Y-79500000D01*
X142450000Y-79500000D02*
X142900000Y-79500000D01*
X142900000Y-79500000D02*
X146400000Y-83000000D01*
X146400000Y-83000000D02*
X146400000Y-97300000D01*
X146400000Y-97300000D02*
X107600000Y-97300000D01*
X69600000Y-75800000D02*
X73300000Y-79500000D01*
X69600000Y-72200000D02*
X69600000Y-75800000D01*
X129200000Y-75900000D02*
X125600000Y-79500000D01*
X129200000Y-72300000D02*
X129200000Y-75900000D01*
X61320000Y-71920000D02*
X61600000Y-72200000D01*
X61320000Y-66000000D02*
X61320000Y-71920000D01*
X137380000Y-72120000D02*
X137200000Y-72300000D01*
X137380000Y-65900000D02*
X137380000Y-72120000D01*
D32*
X105415001Y-64184999D02*
X105900000Y-63700000D01*
X105415001Y-69225001D02*
X105415001Y-64184999D01*
X107450000Y-75275000D02*
X105425000Y-75275000D01*
X105425000Y-75275000D02*
X105350000Y-75200000D01*
X105690000Y-69500000D02*
X105415001Y-69225001D01*
X106950000Y-69500000D02*
X105690000Y-69500000D01*
X111555001Y-66855001D02*
X108400000Y-63700000D01*
X111555001Y-69225001D02*
X111555001Y-66855001D01*
X107450000Y-74625000D02*
X108375000Y-74625000D01*
X108375000Y-74625000D02*
X109950000Y-73050000D01*
X109950000Y-70830002D02*
X111555001Y-69225001D01*
X109950000Y-73050000D02*
X109950000Y-70830002D01*
X83600000Y-83000000D02*
X63000000Y-83000000D01*
X62700000Y-83300000D02*
X62700000Y-87500000D01*
X63000000Y-83000000D02*
X62700000Y-83300000D01*
X84940000Y-83000000D02*
X84940000Y-83660000D01*
X84940000Y-83660000D02*
X84500000Y-84100000D01*
X72900000Y-84100000D02*
X69500000Y-87500000D01*
X84500000Y-84100000D02*
X72900000Y-84100000D01*
X86260000Y-83000000D02*
X86260000Y-83490000D01*
X86260000Y-83490000D02*
X85050000Y-84700000D01*
X79100000Y-84700000D02*
X76300000Y-87500000D01*
X85050000Y-84700000D02*
X79100000Y-84700000D01*
X87600000Y-83100000D02*
X83200000Y-87500000D01*
X87600000Y-83000000D02*
X87600000Y-83100000D01*
X90000000Y-83000000D02*
X90000000Y-87500000D01*
X91340000Y-83000000D02*
X91340000Y-84390000D01*
X91340000Y-84390000D02*
X92400000Y-85450000D01*
X94750000Y-85450000D02*
X96800000Y-87500000D01*
X92400000Y-85450000D02*
X94750000Y-85450000D01*
X92660000Y-83000000D02*
X92660000Y-83760000D01*
X92660000Y-83760000D02*
X93600000Y-84700000D01*
X100850000Y-84700000D02*
X103650000Y-87500000D01*
X93600000Y-84700000D02*
X100850000Y-84700000D01*
X94000000Y-83000000D02*
X99200000Y-83000000D01*
X99200000Y-83000000D02*
X100450000Y-84250000D01*
X107250000Y-84250000D02*
X110500000Y-87500000D01*
X100450000Y-84250000D02*
X107250000Y-84250000D01*
X117000000Y-87150000D02*
X117350000Y-87500000D01*
X117000000Y-83800000D02*
X117000000Y-87150000D01*
X118340000Y-83800000D02*
X118340000Y-85340000D01*
X118340000Y-85340000D02*
X118500000Y-85500000D01*
X122150000Y-85500000D02*
X124150000Y-87500000D01*
X118500000Y-85500000D02*
X122150000Y-85500000D01*
X119660000Y-83800000D02*
X119660000Y-84610000D01*
X119660000Y-84610000D02*
X120000000Y-84950000D01*
X128450000Y-84950000D02*
X131000000Y-87500000D01*
X120000000Y-84950000D02*
X128450000Y-84950000D01*
X134150000Y-83800000D02*
X137850000Y-87500000D01*
X121000000Y-83800000D02*
X134150000Y-83800000D01*
X87875000Y-69600000D02*
X85750000Y-69600000D01*
X87875000Y-69600000D02*
X87875000Y-68975000D01*
X87875000Y-68975000D02*
X87200000Y-68300000D01*
X101650000Y-73875000D02*
X101750000Y-73975000D01*
X101650000Y-72450000D02*
X101650000Y-73875000D01*
X85750000Y-72100000D02*
X87950000Y-72100000D01*
X87950000Y-72100000D02*
X87950000Y-71600000D01*
X87950000Y-71600000D02*
X87150000Y-70800000D01*
X100350000Y-72300000D02*
X100350000Y-74600000D01*
X101725000Y-74600000D02*
X101750000Y-74625000D01*
X100350000Y-74600000D02*
X101725000Y-74600000D01*
X87975000Y-74600000D02*
X87975000Y-73975000D01*
X87975000Y-73975000D02*
X87350000Y-73350000D01*
X99550000Y-75000000D02*
X99600000Y-75000000D01*
X99875000Y-75275000D02*
X101750000Y-75275000D01*
X99600000Y-75000000D02*
X99875000Y-75275000D01*
X87975000Y-74600000D02*
X85750000Y-74600000D01*
X95850000Y-69600000D02*
X95850000Y-70150000D01*
X95850000Y-70150000D02*
X95150000Y-70850000D01*
X98575000Y-75925000D02*
X101750000Y-75925000D01*
X98450000Y-75800000D02*
X98575000Y-75925000D01*
X93650000Y-69600000D02*
X95850000Y-69600000D01*
X101750000Y-76575000D02*
X97425000Y-76575000D01*
X97425000Y-76575000D02*
X97300000Y-76450000D01*
X95850000Y-72700000D02*
X95850000Y-72100000D01*
X95150000Y-73400000D02*
X95850000Y-72700000D01*
X93650000Y-72100000D02*
X95850000Y-72100000D01*
X95850000Y-74600000D02*
X93650000Y-74600000D01*
X95850000Y-74600000D02*
X95850000Y-75700000D01*
X95850000Y-75700000D02*
X95100000Y-76450000D01*
X105575000Y-76575000D02*
X107450000Y-76575000D01*
X105400000Y-76750000D02*
X105575000Y-76575000D01*
X101750000Y-77225000D02*
X83675000Y-77225000D01*
X83600000Y-77300000D02*
X83600000Y-80000000D01*
X83675000Y-77225000D02*
X83600000Y-77300000D01*
X101750000Y-77875000D02*
X85025000Y-77875000D01*
X84940000Y-77960000D02*
X84940000Y-80000000D01*
X85025000Y-77875000D02*
X84940000Y-77960000D01*
X101750000Y-78525000D02*
X86275000Y-78525000D01*
X86260000Y-78540000D02*
X86260000Y-80000000D01*
X86275000Y-78525000D02*
X86260000Y-78540000D01*
X88425000Y-79175000D02*
X87600000Y-80000000D01*
X101750000Y-79175000D02*
X88425000Y-79175000D01*
X94000000Y-80000000D02*
X95100000Y-80000000D01*
X95275000Y-79825000D02*
X101750000Y-79825000D01*
X95100000Y-80000000D02*
X95275000Y-79825000D01*
X101750000Y-80475000D02*
X95275000Y-80475000D01*
X95275000Y-80475000D02*
X94750000Y-81000000D01*
X94750000Y-81000000D02*
X93300000Y-81000000D01*
X92660000Y-80360000D02*
X92660000Y-80000000D01*
X93300000Y-81000000D02*
X92660000Y-80360000D01*
X101750000Y-81125000D02*
X95725000Y-81125000D01*
X95725000Y-81125000D02*
X95400000Y-81450000D01*
X95400000Y-81450000D02*
X92050000Y-81450000D01*
X91340000Y-80740000D02*
X91340000Y-80000000D01*
X92050000Y-81450000D02*
X91340000Y-80740000D01*
X101750000Y-81775000D02*
X95975000Y-81775000D01*
X95975000Y-81775000D02*
X95800000Y-81950000D01*
X95800000Y-81950000D02*
X90750000Y-81950000D01*
X90000000Y-81200000D02*
X90000000Y-80000000D01*
X90750000Y-81950000D02*
X90000000Y-81200000D01*
X117000000Y-80800000D02*
X117000000Y-81250000D01*
X115825000Y-82425000D02*
X107450000Y-82425000D01*
X117000000Y-81250000D02*
X115825000Y-82425000D01*
X118340000Y-80800000D02*
X118340000Y-80490000D01*
X118340000Y-80490000D02*
X117800000Y-79950000D01*
X117800000Y-79950000D02*
X116350000Y-79950000D01*
X114525000Y-81775000D02*
X107450000Y-81775000D01*
X116350000Y-79950000D02*
X114525000Y-81775000D01*
X119660000Y-80800000D02*
X119660000Y-80410000D01*
X119660000Y-80410000D02*
X118650000Y-79400000D01*
X118650000Y-79400000D02*
X115800000Y-79400000D01*
X114075000Y-81125000D02*
X107450000Y-81125000D01*
X115800000Y-79400000D02*
X114075000Y-81125000D01*
X121000000Y-80800000D02*
X121000000Y-80500000D01*
X121000000Y-80500000D02*
X119400000Y-78900000D01*
X119400000Y-78900000D02*
X115300000Y-78900000D01*
X113725000Y-80475000D02*
X107450000Y-80475000D01*
X115300000Y-78900000D02*
X113725000Y-80475000D01*
X107475000Y-77250000D02*
X107450000Y-77225000D01*
X109600000Y-77250000D02*
X107475000Y-77250000D01*
X94325000Y-65225000D02*
X94400000Y-65300000D01*
X94325000Y-62900000D02*
X94325000Y-65225000D01*
D33*
X76340000Y-90000000D02*
X76300000Y-90040000D01*
X79700000Y-90000000D02*
X76340000Y-90000000D01*
D32*
X79700000Y-87600000D02*
X79750000Y-87550000D01*
X79700000Y-90000000D02*
X79700000Y-87600000D01*
D33*
X69540000Y-90000000D02*
X69500000Y-90040000D01*
X72900000Y-90000000D02*
X69540000Y-90000000D01*
D32*
X72900000Y-90000000D02*
X72900000Y-87550000D01*
D33*
X66060000Y-90040000D02*
X66100000Y-90000000D01*
X62740000Y-90000000D02*
X62700000Y-90040000D01*
X66100000Y-90000000D02*
X62740000Y-90000000D01*
D32*
X66100000Y-90000000D02*
X66100000Y-87500000D01*
D33*
X100190000Y-90040000D02*
X100200000Y-90050000D01*
X96800000Y-90040000D02*
X100190000Y-90040000D01*
D32*
X100200000Y-90050000D02*
X100200000Y-87600000D01*
D33*
X93390000Y-90040000D02*
X93400000Y-90050000D01*
X90000000Y-90040000D02*
X93390000Y-90040000D01*
D32*
X93400000Y-90050000D02*
X93400000Y-87600000D01*
D33*
X86590000Y-90040000D02*
X86600000Y-90050000D01*
X83200000Y-90040000D02*
X86590000Y-90040000D01*
D32*
X86600000Y-90050000D02*
X86600000Y-87550000D01*
X120750000Y-87600000D02*
X120750000Y-90050000D01*
D33*
X117360000Y-90050000D02*
X117350000Y-90040000D01*
X120750000Y-90050000D02*
X117360000Y-90050000D01*
D32*
X113900000Y-87600000D02*
X113900000Y-90050000D01*
D33*
X110510000Y-90050000D02*
X110500000Y-90040000D01*
X113900000Y-90050000D02*
X110510000Y-90050000D01*
D32*
X107100000Y-87600000D02*
X107100000Y-90050000D01*
D33*
X103660000Y-90050000D02*
X103650000Y-90040000D01*
X107100000Y-90050000D02*
X103660000Y-90050000D01*
D32*
X141250000Y-87400000D02*
X141250000Y-90050000D01*
D33*
X137860000Y-90050000D02*
X137850000Y-90040000D01*
X141250000Y-90050000D02*
X137860000Y-90050000D01*
D32*
X134400000Y-87400000D02*
X134400000Y-90050000D01*
D33*
X131010000Y-90050000D02*
X131000000Y-90040000D01*
X134400000Y-90050000D02*
X131010000Y-90050000D01*
D32*
X127600000Y-87600000D02*
X127600000Y-90050000D01*
D33*
X124160000Y-90050000D02*
X124150000Y-90040000D01*
X127600000Y-90050000D02*
X124160000Y-90050000D01*
M02*
