G04 #@! TF.GenerationSoftware,KiCad,Pcbnew,(5.1.2)-2*
G04 #@! TF.CreationDate,2019-10-27T19:51:02+01:00*
G04 #@! TF.ProjectId,Servo_PCB,53657276-6f5f-4504-9342-2e6b69636164,rev?*
G04 #@! TF.SameCoordinates,Original*
G04 #@! TF.FileFunction,Legend,Bot*
G04 #@! TF.FilePolarity,Positive*
%FSLAX46Y46*%
G04 Gerber Fmt 4.6, Leading zero omitted, Abs format (unit mm)*
G04 Created by KiCad (PCBNEW (5.1.2)-2) date 2019-10-27 19:51:02*
%MOMM*%
%LPD*%
G04 APERTURE LIST*
%ADD10C,0.350000*%
%ADD11C,0.150000*%
G04 APERTURE END LIST*
D10*
X119327142Y-66798571D02*
X119327142Y-65298571D01*
X118755714Y-65298571D01*
X118612857Y-65370000D01*
X118541428Y-65441428D01*
X118470000Y-65584285D01*
X118470000Y-65798571D01*
X118541428Y-65941428D01*
X118612857Y-66012857D01*
X118755714Y-66084285D01*
X119327142Y-66084285D01*
X117541428Y-65298571D02*
X117255714Y-65298571D01*
X117112857Y-65370000D01*
X116970000Y-65512857D01*
X116898571Y-65798571D01*
X116898571Y-66298571D01*
X116970000Y-66584285D01*
X117112857Y-66727142D01*
X117255714Y-66798571D01*
X117541428Y-66798571D01*
X117684285Y-66727142D01*
X117827142Y-66584285D01*
X117898571Y-66298571D01*
X117898571Y-65798571D01*
X117827142Y-65512857D01*
X117684285Y-65370000D01*
X117541428Y-65298571D01*
X116398571Y-65298571D02*
X116041428Y-66798571D01*
X115755714Y-65727142D01*
X115470000Y-66798571D01*
X115112857Y-65298571D01*
X114541428Y-66012857D02*
X114041428Y-66012857D01*
X113827142Y-66798571D02*
X114541428Y-66798571D01*
X114541428Y-65298571D01*
X113827142Y-65298571D01*
X112327142Y-66798571D02*
X112827142Y-66084285D01*
X113184285Y-66798571D02*
X113184285Y-65298571D01*
X112612857Y-65298571D01*
X112470000Y-65370000D01*
X112398571Y-65441428D01*
X112327142Y-65584285D01*
X112327142Y-65798571D01*
X112398571Y-65941428D01*
X112470000Y-66012857D01*
X112612857Y-66084285D01*
X113184285Y-66084285D01*
X110612857Y-66727142D02*
X110398571Y-66798571D01*
X110041428Y-66798571D01*
X109898571Y-66727142D01*
X109827142Y-66655714D01*
X109755714Y-66512857D01*
X109755714Y-66370000D01*
X109827142Y-66227142D01*
X109898571Y-66155714D01*
X110041428Y-66084285D01*
X110327142Y-66012857D01*
X110470000Y-65941428D01*
X110541428Y-65870000D01*
X110612857Y-65727142D01*
X110612857Y-65584285D01*
X110541428Y-65441428D01*
X110470000Y-65370000D01*
X110327142Y-65298571D01*
X109970000Y-65298571D01*
X109755714Y-65370000D01*
X109112857Y-66012857D02*
X108612857Y-66012857D01*
X108398571Y-66798571D02*
X109112857Y-66798571D01*
X109112857Y-65298571D01*
X108398571Y-65298571D01*
X106898571Y-66798571D02*
X107398571Y-66084285D01*
X107755714Y-66798571D02*
X107755714Y-65298571D01*
X107184285Y-65298571D01*
X107041428Y-65370000D01*
X106970000Y-65441428D01*
X106898571Y-65584285D01*
X106898571Y-65798571D01*
X106970000Y-65941428D01*
X107041428Y-66012857D01*
X107184285Y-66084285D01*
X107755714Y-66084285D01*
X106470000Y-65298571D02*
X105970000Y-66798571D01*
X105470000Y-65298571D01*
X104684285Y-65298571D02*
X104398571Y-65298571D01*
X104255714Y-65370000D01*
X104112857Y-65512857D01*
X104041428Y-65798571D01*
X104041428Y-66298571D01*
X104112857Y-66584285D01*
X104255714Y-66727142D01*
X104398571Y-66798571D01*
X104684285Y-66798571D01*
X104827142Y-66727142D01*
X104970000Y-66584285D01*
X105041428Y-66298571D01*
X105041428Y-65798571D01*
X104970000Y-65512857D01*
X104827142Y-65370000D01*
X104684285Y-65298571D01*
X101755714Y-66012857D02*
X101541428Y-66084285D01*
X101470000Y-66155714D01*
X101398571Y-66298571D01*
X101398571Y-66512857D01*
X101470000Y-66655714D01*
X101541428Y-66727142D01*
X101684285Y-66798571D01*
X102255714Y-66798571D01*
X102255714Y-65298571D01*
X101755714Y-65298571D01*
X101612857Y-65370000D01*
X101541428Y-65441428D01*
X101470000Y-65584285D01*
X101470000Y-65727142D01*
X101541428Y-65870000D01*
X101612857Y-65941428D01*
X101755714Y-66012857D01*
X102255714Y-66012857D01*
X100470000Y-65298571D02*
X100184285Y-65298571D01*
X100041428Y-65370000D01*
X99898571Y-65512857D01*
X99827142Y-65798571D01*
X99827142Y-66298571D01*
X99898571Y-66584285D01*
X100041428Y-66727142D01*
X100184285Y-66798571D01*
X100470000Y-66798571D01*
X100612857Y-66727142D01*
X100755714Y-66584285D01*
X100827142Y-66298571D01*
X100827142Y-65798571D01*
X100755714Y-65512857D01*
X100612857Y-65370000D01*
X100470000Y-65298571D01*
X99255714Y-66370000D02*
X98541428Y-66370000D01*
X99398571Y-66798571D02*
X98898571Y-65298571D01*
X98398571Y-66798571D01*
X97041428Y-66798571D02*
X97541428Y-66084285D01*
X97898571Y-66798571D02*
X97898571Y-65298571D01*
X97327142Y-65298571D01*
X97184285Y-65370000D01*
X97112857Y-65441428D01*
X97041428Y-65584285D01*
X97041428Y-65798571D01*
X97112857Y-65941428D01*
X97184285Y-66012857D01*
X97327142Y-66084285D01*
X97898571Y-66084285D01*
X96398571Y-66798571D02*
X96398571Y-65298571D01*
X96041428Y-65298571D01*
X95827142Y-65370000D01*
X95684285Y-65512857D01*
X95612857Y-65655714D01*
X95541428Y-65941428D01*
X95541428Y-66155714D01*
X95612857Y-66441428D01*
X95684285Y-66584285D01*
X95827142Y-66727142D01*
X96041428Y-66798571D01*
X96398571Y-66798571D01*
X93970000Y-65298571D02*
X93470000Y-66798571D01*
X92970000Y-65298571D01*
X92184285Y-65298571D02*
X92041428Y-65298571D01*
X91898571Y-65370000D01*
X91827142Y-65441428D01*
X91755714Y-65584285D01*
X91684285Y-65870000D01*
X91684285Y-66227142D01*
X91755714Y-66512857D01*
X91827142Y-66655714D01*
X91898571Y-66727142D01*
X92041428Y-66798571D01*
X92184285Y-66798571D01*
X92327142Y-66727142D01*
X92398571Y-66655714D01*
X92470000Y-66512857D01*
X92541428Y-66227142D01*
X92541428Y-65870000D01*
X92470000Y-65584285D01*
X92398571Y-65441428D01*
X92327142Y-65370000D01*
X92184285Y-65298571D01*
X91041428Y-66655714D02*
X90970000Y-66727142D01*
X91041428Y-66798571D01*
X91112857Y-66727142D01*
X91041428Y-66655714D01*
X91041428Y-66798571D01*
X89612857Y-65298571D02*
X90327142Y-65298571D01*
X90398571Y-66012857D01*
X90327142Y-65941428D01*
X90184285Y-65870000D01*
X89827142Y-65870000D01*
X89684285Y-65941428D01*
X89612857Y-66012857D01*
X89541428Y-66155714D01*
X89541428Y-66512857D01*
X89612857Y-66655714D01*
X89684285Y-66727142D01*
X89827142Y-66798571D01*
X90184285Y-66798571D01*
X90327142Y-66727142D01*
X90398571Y-66655714D01*
X130313333Y-98934761D02*
X130313333Y-96934761D01*
X129170476Y-98934761D01*
X129170476Y-96934761D01*
X127837142Y-96934761D02*
X127456190Y-96934761D01*
X127265714Y-97030000D01*
X127075238Y-97220476D01*
X126980000Y-97601428D01*
X126980000Y-98268095D01*
X127075238Y-98649047D01*
X127265714Y-98839523D01*
X127456190Y-98934761D01*
X127837142Y-98934761D01*
X128027619Y-98839523D01*
X128218095Y-98649047D01*
X128313333Y-98268095D01*
X128313333Y-97601428D01*
X128218095Y-97220476D01*
X128027619Y-97030000D01*
X127837142Y-96934761D01*
X124789523Y-96934761D02*
X124313333Y-98934761D01*
X123932380Y-97506190D01*
X123551428Y-98934761D01*
X123075238Y-96934761D01*
X122408571Y-98363333D02*
X121456190Y-98363333D01*
X122599047Y-98934761D02*
X121932380Y-96934761D01*
X121265714Y-98934761D01*
X119456190Y-98934761D02*
X120122857Y-97982380D01*
X120599047Y-98934761D02*
X120599047Y-96934761D01*
X119837142Y-96934761D01*
X119646666Y-97030000D01*
X119551428Y-97125238D01*
X119456190Y-97315714D01*
X119456190Y-97601428D01*
X119551428Y-97791904D01*
X119646666Y-97887142D01*
X119837142Y-97982380D01*
X120599047Y-97982380D01*
X117456190Y-98934761D02*
X118122857Y-97982380D01*
X118599047Y-98934761D02*
X118599047Y-96934761D01*
X117837142Y-96934761D01*
X117646666Y-97030000D01*
X117551428Y-97125238D01*
X117456190Y-97315714D01*
X117456190Y-97601428D01*
X117551428Y-97791904D01*
X117646666Y-97887142D01*
X117837142Y-97982380D01*
X118599047Y-97982380D01*
X116694285Y-98363333D02*
X115741904Y-98363333D01*
X116884761Y-98934761D02*
X116218095Y-96934761D01*
X115551428Y-98934761D01*
X114884761Y-98934761D02*
X114884761Y-96934761D01*
X113741904Y-98934761D01*
X113741904Y-96934761D01*
X113075238Y-96934761D02*
X111932380Y-96934761D01*
X112503809Y-98934761D02*
X112503809Y-96934761D01*
X110884761Y-97982380D02*
X110884761Y-98934761D01*
X111551428Y-96934761D02*
X110884761Y-97982380D01*
X110218095Y-96934761D01*
X109456190Y-98839523D02*
X109456190Y-98934761D01*
X109551428Y-99125238D01*
X109646666Y-99220476D01*
X107075238Y-96934761D02*
X107075238Y-98553809D01*
X106980000Y-98744285D01*
X106884761Y-98839523D01*
X106694285Y-98934761D01*
X106313333Y-98934761D01*
X106122857Y-98839523D01*
X106027619Y-98744285D01*
X105932380Y-98553809D01*
X105932380Y-96934761D01*
X105075238Y-98839523D02*
X104789523Y-98934761D01*
X104313333Y-98934761D01*
X104122857Y-98839523D01*
X104027619Y-98744285D01*
X103932380Y-98553809D01*
X103932380Y-98363333D01*
X104027619Y-98172857D01*
X104122857Y-98077619D01*
X104313333Y-97982380D01*
X104694285Y-97887142D01*
X104884761Y-97791904D01*
X104980000Y-97696666D01*
X105075238Y-97506190D01*
X105075238Y-97315714D01*
X104980000Y-97125238D01*
X104884761Y-97030000D01*
X104694285Y-96934761D01*
X104218095Y-96934761D01*
X103932380Y-97030000D01*
X103075238Y-97887142D02*
X102408571Y-97887142D01*
X102122857Y-98934761D02*
X103075238Y-98934761D01*
X103075238Y-96934761D01*
X102122857Y-96934761D01*
X99837142Y-98363333D02*
X98884761Y-98363333D01*
X100027619Y-98934761D02*
X99360952Y-96934761D01*
X98694285Y-98934761D01*
X98313333Y-96934761D02*
X97170476Y-96934761D01*
X97741904Y-98934761D02*
X97741904Y-96934761D01*
X94599047Y-97982380D02*
X94599047Y-98934761D01*
X95265714Y-96934761D02*
X94599047Y-97982380D01*
X93932380Y-96934761D01*
X92884761Y-96934761D02*
X92503809Y-96934761D01*
X92313333Y-97030000D01*
X92122857Y-97220476D01*
X92027619Y-97601428D01*
X92027619Y-98268095D01*
X92122857Y-98649047D01*
X92313333Y-98839523D01*
X92503809Y-98934761D01*
X92884761Y-98934761D01*
X93075238Y-98839523D01*
X93265714Y-98649047D01*
X93360952Y-98268095D01*
X93360952Y-97601428D01*
X93265714Y-97220476D01*
X93075238Y-97030000D01*
X92884761Y-96934761D01*
X91170476Y-96934761D02*
X91170476Y-98553809D01*
X91075238Y-98744285D01*
X90980000Y-98839523D01*
X90789523Y-98934761D01*
X90408571Y-98934761D01*
X90218095Y-98839523D01*
X90122857Y-98744285D01*
X90027619Y-98553809D01*
X90027619Y-96934761D01*
X87932380Y-98934761D02*
X88599047Y-97982380D01*
X89075238Y-98934761D02*
X89075238Y-96934761D01*
X88313333Y-96934761D01*
X88122857Y-97030000D01*
X88027619Y-97125238D01*
X87932380Y-97315714D01*
X87932380Y-97601428D01*
X88027619Y-97791904D01*
X88122857Y-97887142D01*
X88313333Y-97982380D01*
X89075238Y-97982380D01*
X85170476Y-96934761D02*
X84789523Y-96934761D01*
X84599047Y-97030000D01*
X84408571Y-97220476D01*
X84313333Y-97601428D01*
X84313333Y-98268095D01*
X84408571Y-98649047D01*
X84599047Y-98839523D01*
X84789523Y-98934761D01*
X85170476Y-98934761D01*
X85360952Y-98839523D01*
X85551428Y-98649047D01*
X85646666Y-98268095D01*
X85646666Y-97601428D01*
X85551428Y-97220476D01*
X85360952Y-97030000D01*
X85170476Y-96934761D01*
X83646666Y-96934761D02*
X83170476Y-98934761D01*
X82789523Y-97506190D01*
X82408571Y-98934761D01*
X81932380Y-96934761D01*
X81170476Y-98934761D02*
X81170476Y-96934761D01*
X80027619Y-98934761D01*
X80027619Y-96934761D01*
X76408571Y-98934761D02*
X77075238Y-97982380D01*
X77551428Y-98934761D02*
X77551428Y-96934761D01*
X76789523Y-96934761D01*
X76599047Y-97030000D01*
X76503809Y-97125238D01*
X76408571Y-97315714D01*
X76408571Y-97601428D01*
X76503809Y-97791904D01*
X76599047Y-97887142D01*
X76789523Y-97982380D01*
X77551428Y-97982380D01*
X75551428Y-98934761D02*
X75551428Y-96934761D01*
X74694285Y-98839523D02*
X74408571Y-98934761D01*
X73932380Y-98934761D01*
X73741904Y-98839523D01*
X73646666Y-98744285D01*
X73551428Y-98553809D01*
X73551428Y-98363333D01*
X73646666Y-98172857D01*
X73741904Y-98077619D01*
X73932380Y-97982380D01*
X74313333Y-97887142D01*
X74503809Y-97791904D01*
X74599047Y-97696666D01*
X74694285Y-97506190D01*
X74694285Y-97315714D01*
X74599047Y-97125238D01*
X74503809Y-97030000D01*
X74313333Y-96934761D01*
X73837142Y-96934761D01*
X73551428Y-97030000D01*
X72694285Y-98934761D02*
X72694285Y-96934761D01*
X71551428Y-98934761D02*
X72408571Y-97791904D01*
X71551428Y-96934761D02*
X72694285Y-98077619D01*
D11*
X119632023Y-70977619D02*
X119584404Y-70930000D01*
X119489166Y-70882380D01*
X119251071Y-70882380D01*
X119155833Y-70930000D01*
X119108214Y-70977619D01*
X119060595Y-71072857D01*
X119060595Y-71168095D01*
X119108214Y-71310952D01*
X119679642Y-71882380D01*
X119060595Y-71882380D01*
X117441547Y-71215714D02*
X117441547Y-72025238D01*
X117489166Y-72120476D01*
X117536785Y-72168095D01*
X117632023Y-72215714D01*
X117774880Y-72215714D01*
X117870119Y-72168095D01*
X117441547Y-71834761D02*
X117536785Y-71882380D01*
X117727261Y-71882380D01*
X117822500Y-71834761D01*
X117870119Y-71787142D01*
X117917738Y-71691904D01*
X117917738Y-71406190D01*
X117870119Y-71310952D01*
X117822500Y-71263333D01*
X117727261Y-71215714D01*
X117536785Y-71215714D01*
X117441547Y-71263333D01*
X116965357Y-71882380D02*
X116965357Y-71215714D01*
X116965357Y-71406190D02*
X116917738Y-71310952D01*
X116870119Y-71263333D01*
X116774880Y-71215714D01*
X116679642Y-71215714D01*
X116203452Y-71882380D02*
X116298690Y-71834761D01*
X116346309Y-71787142D01*
X116393928Y-71691904D01*
X116393928Y-71406190D01*
X116346309Y-71310952D01*
X116298690Y-71263333D01*
X116203452Y-71215714D01*
X116060595Y-71215714D01*
X115965357Y-71263333D01*
X115917738Y-71310952D01*
X115870119Y-71406190D01*
X115870119Y-71691904D01*
X115917738Y-71787142D01*
X115965357Y-71834761D01*
X116060595Y-71882380D01*
X116203452Y-71882380D01*
X115012976Y-71215714D02*
X115012976Y-71882380D01*
X115441547Y-71215714D02*
X115441547Y-71739523D01*
X115393928Y-71834761D01*
X115298690Y-71882380D01*
X115155833Y-71882380D01*
X115060595Y-71834761D01*
X115012976Y-71787142D01*
X114536785Y-71215714D02*
X114536785Y-72215714D01*
X114536785Y-71263333D02*
X114441547Y-71215714D01*
X114251071Y-71215714D01*
X114155833Y-71263333D01*
X114108214Y-71310952D01*
X114060595Y-71406190D01*
X114060595Y-71691904D01*
X114108214Y-71787142D01*
X114155833Y-71834761D01*
X114251071Y-71882380D01*
X114441547Y-71882380D01*
X114536785Y-71834761D01*
X113679642Y-71834761D02*
X113584404Y-71882380D01*
X113393928Y-71882380D01*
X113298690Y-71834761D01*
X113251071Y-71739523D01*
X113251071Y-71691904D01*
X113298690Y-71596666D01*
X113393928Y-71549047D01*
X113536785Y-71549047D01*
X113632023Y-71501428D01*
X113679642Y-71406190D01*
X113679642Y-71358571D01*
X113632023Y-71263333D01*
X113536785Y-71215714D01*
X113393928Y-71215714D01*
X113298690Y-71263333D01*
X111917738Y-71882380D02*
X112012976Y-71834761D01*
X112060595Y-71787142D01*
X112108214Y-71691904D01*
X112108214Y-71406190D01*
X112060595Y-71310952D01*
X112012976Y-71263333D01*
X111917738Y-71215714D01*
X111774880Y-71215714D01*
X111679642Y-71263333D01*
X111632023Y-71310952D01*
X111584404Y-71406190D01*
X111584404Y-71691904D01*
X111632023Y-71787142D01*
X111679642Y-71834761D01*
X111774880Y-71882380D01*
X111917738Y-71882380D01*
X111298690Y-71215714D02*
X110917738Y-71215714D01*
X111155833Y-71882380D02*
X111155833Y-71025238D01*
X111108214Y-70930000D01*
X111012976Y-70882380D01*
X110917738Y-70882380D01*
X109393928Y-70882380D02*
X109584404Y-70882380D01*
X109679642Y-70930000D01*
X109727261Y-70977619D01*
X109822500Y-71120476D01*
X109870119Y-71310952D01*
X109870119Y-71691904D01*
X109822500Y-71787142D01*
X109774880Y-71834761D01*
X109679642Y-71882380D01*
X109489166Y-71882380D01*
X109393928Y-71834761D01*
X109346309Y-71787142D01*
X109298690Y-71691904D01*
X109298690Y-71453809D01*
X109346309Y-71358571D01*
X109393928Y-71310952D01*
X109489166Y-71263333D01*
X109679642Y-71263333D01*
X109774880Y-71310952D01*
X109822500Y-71358571D01*
X109870119Y-71453809D01*
X108155833Y-71834761D02*
X108060595Y-71882380D01*
X107870119Y-71882380D01*
X107774880Y-71834761D01*
X107727261Y-71739523D01*
X107727261Y-71691904D01*
X107774880Y-71596666D01*
X107870119Y-71549047D01*
X108012976Y-71549047D01*
X108108214Y-71501428D01*
X108155833Y-71406190D01*
X108155833Y-71358571D01*
X108108214Y-71263333D01*
X108012976Y-71215714D01*
X107870119Y-71215714D01*
X107774880Y-71263333D01*
X106917738Y-71834761D02*
X107012976Y-71882380D01*
X107203452Y-71882380D01*
X107298690Y-71834761D01*
X107346309Y-71739523D01*
X107346309Y-71358571D01*
X107298690Y-71263333D01*
X107203452Y-71215714D01*
X107012976Y-71215714D01*
X106917738Y-71263333D01*
X106870119Y-71358571D01*
X106870119Y-71453809D01*
X107346309Y-71549047D01*
X106441547Y-71882380D02*
X106441547Y-71215714D01*
X106441547Y-71406190D02*
X106393928Y-71310952D01*
X106346309Y-71263333D01*
X106251071Y-71215714D01*
X106155833Y-71215714D01*
X105917738Y-71215714D02*
X105679642Y-71882380D01*
X105441547Y-71215714D01*
X104917738Y-71882380D02*
X105012976Y-71834761D01*
X105060595Y-71787142D01*
X105108214Y-71691904D01*
X105108214Y-71406190D01*
X105060595Y-71310952D01*
X105012976Y-71263333D01*
X104917738Y-71215714D01*
X104774880Y-71215714D01*
X104679642Y-71263333D01*
X104632023Y-71310952D01*
X104584404Y-71406190D01*
X104584404Y-71691904D01*
X104632023Y-71787142D01*
X104679642Y-71834761D01*
X104774880Y-71882380D01*
X104917738Y-71882380D01*
X104203452Y-71834761D02*
X104108214Y-71882380D01*
X103917738Y-71882380D01*
X103822500Y-71834761D01*
X103774880Y-71739523D01*
X103774880Y-71691904D01*
X103822500Y-71596666D01*
X103917738Y-71549047D01*
X104060595Y-71549047D01*
X104155833Y-71501428D01*
X104203452Y-71406190D01*
X104203452Y-71358571D01*
X104155833Y-71263333D01*
X104060595Y-71215714D01*
X103917738Y-71215714D01*
X103822500Y-71263333D01*
X103298690Y-71834761D02*
X103298690Y-71882380D01*
X103346309Y-71977619D01*
X103393928Y-72025238D01*
X101679642Y-71215714D02*
X101679642Y-71882380D01*
X102108214Y-71215714D02*
X102108214Y-71739523D01*
X102060595Y-71834761D01*
X101965357Y-71882380D01*
X101822500Y-71882380D01*
X101727261Y-71834761D01*
X101679642Y-71787142D01*
X101203452Y-71215714D02*
X101203452Y-72215714D01*
X101203452Y-71263333D02*
X101108214Y-71215714D01*
X100917738Y-71215714D01*
X100822500Y-71263333D01*
X100774880Y-71310952D01*
X100727261Y-71406190D01*
X100727261Y-71691904D01*
X100774880Y-71787142D01*
X100822500Y-71834761D01*
X100917738Y-71882380D01*
X101108214Y-71882380D01*
X101203452Y-71834761D01*
X99679642Y-71215714D02*
X99298690Y-71215714D01*
X99536785Y-70882380D02*
X99536785Y-71739523D01*
X99489166Y-71834761D01*
X99393928Y-71882380D01*
X99298690Y-71882380D01*
X98822500Y-71882380D02*
X98917738Y-71834761D01*
X98965357Y-71787142D01*
X99012976Y-71691904D01*
X99012976Y-71406190D01*
X98965357Y-71310952D01*
X98917738Y-71263333D01*
X98822500Y-71215714D01*
X98679642Y-71215714D01*
X98584404Y-71263333D01*
X98536785Y-71310952D01*
X98489166Y-71406190D01*
X98489166Y-71691904D01*
X98536785Y-71787142D01*
X98584404Y-71834761D01*
X98679642Y-71882380D01*
X98822500Y-71882380D01*
X97346309Y-70977619D02*
X97298690Y-70930000D01*
X97203452Y-70882380D01*
X96965357Y-70882380D01*
X96870119Y-70930000D01*
X96822500Y-70977619D01*
X96774880Y-71072857D01*
X96774880Y-71168095D01*
X96822500Y-71310952D01*
X97393928Y-71882380D01*
X96774880Y-71882380D01*
X96346309Y-71787142D02*
X96298690Y-71834761D01*
X96346309Y-71882380D01*
X96393928Y-71834761D01*
X96346309Y-71787142D01*
X96346309Y-71882380D01*
X95393928Y-70882380D02*
X95870119Y-70882380D01*
X95917738Y-71358571D01*
X95870119Y-71310952D01*
X95774880Y-71263333D01*
X95536785Y-71263333D01*
X95441547Y-71310952D01*
X95393928Y-71358571D01*
X95346309Y-71453809D01*
X95346309Y-71691904D01*
X95393928Y-71787142D01*
X95441547Y-71834761D01*
X95536785Y-71882380D01*
X95774880Y-71882380D01*
X95870119Y-71834761D01*
X95917738Y-71787142D01*
X94965357Y-71596666D02*
X94489166Y-71596666D01*
X95060595Y-71882380D02*
X94727261Y-70882380D01*
X94393928Y-71882380D01*
X93346309Y-71834761D02*
X93251071Y-71882380D01*
X93060595Y-71882380D01*
X92965357Y-71834761D01*
X92917738Y-71739523D01*
X92917738Y-71691904D01*
X92965357Y-71596666D01*
X93060595Y-71549047D01*
X93203452Y-71549047D01*
X93298690Y-71501428D01*
X93346309Y-71406190D01*
X93346309Y-71358571D01*
X93298690Y-71263333D01*
X93203452Y-71215714D01*
X93060595Y-71215714D01*
X92965357Y-71263333D01*
X92632023Y-71215714D02*
X92251071Y-71215714D01*
X92489166Y-70882380D02*
X92489166Y-71739523D01*
X92441547Y-71834761D01*
X92346309Y-71882380D01*
X92251071Y-71882380D01*
X91489166Y-71882380D02*
X91489166Y-71358571D01*
X91536785Y-71263333D01*
X91632023Y-71215714D01*
X91822500Y-71215714D01*
X91917738Y-71263333D01*
X91489166Y-71834761D02*
X91584404Y-71882380D01*
X91822500Y-71882380D01*
X91917738Y-71834761D01*
X91965357Y-71739523D01*
X91965357Y-71644285D01*
X91917738Y-71549047D01*
X91822500Y-71501428D01*
X91584404Y-71501428D01*
X91489166Y-71453809D01*
X90870119Y-71882380D02*
X90965357Y-71834761D01*
X91012976Y-71739523D01*
X91012976Y-70882380D01*
X90346309Y-71882380D02*
X90441547Y-71834761D01*
X90489166Y-71739523D01*
X90489166Y-70882380D01*
X88774880Y-71834761D02*
X88870119Y-71882380D01*
X89060595Y-71882380D01*
X89155833Y-71834761D01*
X89203452Y-71787142D01*
X89251071Y-71691904D01*
X89251071Y-71406190D01*
X89203452Y-71310952D01*
X89155833Y-71263333D01*
X89060595Y-71215714D01*
X88870119Y-71215714D01*
X88774880Y-71263333D01*
X87917738Y-71215714D02*
X87917738Y-71882380D01*
X88346309Y-71215714D02*
X88346309Y-71739523D01*
X88298690Y-71834761D01*
X88203452Y-71882380D01*
X88060595Y-71882380D01*
X87965357Y-71834761D01*
X87917738Y-71787142D01*
X87441547Y-71882380D02*
X87441547Y-71215714D01*
X87441547Y-71406190D02*
X87393928Y-71310952D01*
X87346309Y-71263333D01*
X87251071Y-71215714D01*
X87155833Y-71215714D01*
X86822500Y-71882380D02*
X86822500Y-71215714D01*
X86822500Y-71406190D02*
X86774880Y-71310952D01*
X86727261Y-71263333D01*
X86632023Y-71215714D01*
X86536785Y-71215714D01*
X85822500Y-71834761D02*
X85917738Y-71882380D01*
X86108214Y-71882380D01*
X86203452Y-71834761D01*
X86251071Y-71739523D01*
X86251071Y-71358571D01*
X86203452Y-71263333D01*
X86108214Y-71215714D01*
X85917738Y-71215714D01*
X85822500Y-71263333D01*
X85774880Y-71358571D01*
X85774880Y-71453809D01*
X86251071Y-71549047D01*
X85346309Y-71215714D02*
X85346309Y-71882380D01*
X85346309Y-71310952D02*
X85298690Y-71263333D01*
X85203452Y-71215714D01*
X85060595Y-71215714D01*
X84965357Y-71263333D01*
X84917738Y-71358571D01*
X84917738Y-71882380D01*
X84584404Y-71215714D02*
X84203452Y-71215714D01*
X84441547Y-70882380D02*
X84441547Y-71739523D01*
X84393928Y-71834761D01*
X84298690Y-71882380D01*
X84203452Y-71882380D01*
X119584404Y-73532380D02*
X119584404Y-72532380D01*
X119203452Y-72532380D01*
X119108214Y-72580000D01*
X119060595Y-72627619D01*
X119012976Y-72722857D01*
X119012976Y-72865714D01*
X119060595Y-72960952D01*
X119108214Y-73008571D01*
X119203452Y-73056190D01*
X119584404Y-73056190D01*
X118012976Y-73437142D02*
X118060595Y-73484761D01*
X118203452Y-73532380D01*
X118298690Y-73532380D01*
X118441547Y-73484761D01*
X118536785Y-73389523D01*
X118584404Y-73294285D01*
X118632023Y-73103809D01*
X118632023Y-72960952D01*
X118584404Y-72770476D01*
X118536785Y-72675238D01*
X118441547Y-72580000D01*
X118298690Y-72532380D01*
X118203452Y-72532380D01*
X118060595Y-72580000D01*
X118012976Y-72627619D01*
X117632023Y-73246666D02*
X117155833Y-73246666D01*
X117727261Y-73532380D02*
X117393928Y-72532380D01*
X117060595Y-73532380D01*
X116679642Y-73532380D02*
X116489166Y-73532380D01*
X116393928Y-73484761D01*
X116346309Y-73437142D01*
X116251071Y-73294285D01*
X116203452Y-73103809D01*
X116203452Y-72722857D01*
X116251071Y-72627619D01*
X116298690Y-72580000D01*
X116393928Y-72532380D01*
X116584404Y-72532380D01*
X116679642Y-72580000D01*
X116727261Y-72627619D01*
X116774880Y-72722857D01*
X116774880Y-72960952D01*
X116727261Y-73056190D01*
X116679642Y-73103809D01*
X116584404Y-73151428D01*
X116393928Y-73151428D01*
X116298690Y-73103809D01*
X116251071Y-73056190D01*
X116203452Y-72960952D01*
X115346309Y-72532380D02*
X115536785Y-72532380D01*
X115632023Y-72580000D01*
X115679642Y-72627619D01*
X115774880Y-72770476D01*
X115822500Y-72960952D01*
X115822500Y-73341904D01*
X115774880Y-73437142D01*
X115727261Y-73484761D01*
X115632023Y-73532380D01*
X115441547Y-73532380D01*
X115346309Y-73484761D01*
X115298690Y-73437142D01*
X115251071Y-73341904D01*
X115251071Y-73103809D01*
X115298690Y-73008571D01*
X115346309Y-72960952D01*
X115441547Y-72913333D01*
X115632023Y-72913333D01*
X115727261Y-72960952D01*
X115774880Y-73008571D01*
X115822500Y-73103809D01*
X114679642Y-72960952D02*
X114774880Y-72913333D01*
X114822500Y-72865714D01*
X114870119Y-72770476D01*
X114870119Y-72722857D01*
X114822500Y-72627619D01*
X114774880Y-72580000D01*
X114679642Y-72532380D01*
X114489166Y-72532380D01*
X114393928Y-72580000D01*
X114346309Y-72627619D01*
X114298690Y-72722857D01*
X114298690Y-72770476D01*
X114346309Y-72865714D01*
X114393928Y-72913333D01*
X114489166Y-72960952D01*
X114679642Y-72960952D01*
X114774880Y-73008571D01*
X114822500Y-73056190D01*
X114870119Y-73151428D01*
X114870119Y-73341904D01*
X114822500Y-73437142D01*
X114774880Y-73484761D01*
X114679642Y-73532380D01*
X114489166Y-73532380D01*
X114393928Y-73484761D01*
X114346309Y-73437142D01*
X114298690Y-73341904D01*
X114298690Y-73151428D01*
X114346309Y-73056190D01*
X114393928Y-73008571D01*
X114489166Y-72960952D01*
X113393928Y-72532380D02*
X113870119Y-72532380D01*
X113917738Y-73008571D01*
X113870119Y-72960952D01*
X113774880Y-72913333D01*
X113536785Y-72913333D01*
X113441547Y-72960952D01*
X113393928Y-73008571D01*
X113346309Y-73103809D01*
X113346309Y-73341904D01*
X113393928Y-73437142D01*
X113441547Y-73484761D01*
X113536785Y-73532380D01*
X113774880Y-73532380D01*
X113870119Y-73484761D01*
X113917738Y-73437142D01*
X112155833Y-73532380D02*
X112155833Y-72532380D01*
X111774880Y-72532380D01*
X111679642Y-72580000D01*
X111632023Y-72627619D01*
X111584404Y-72722857D01*
X111584404Y-72865714D01*
X111632023Y-72960952D01*
X111679642Y-73008571D01*
X111774880Y-73056190D01*
X112155833Y-73056190D01*
X111251071Y-72532380D02*
X111012976Y-73532380D01*
X110822500Y-72818095D01*
X110632023Y-73532380D01*
X110393928Y-72532380D01*
X110012976Y-73532380D02*
X110012976Y-72532380D01*
X109679642Y-73246666D01*
X109346309Y-72532380D01*
X109346309Y-73532380D01*
X107679642Y-73484761D02*
X107774880Y-73532380D01*
X107965357Y-73532380D01*
X108060595Y-73484761D01*
X108108214Y-73437142D01*
X108155833Y-73341904D01*
X108155833Y-73056190D01*
X108108214Y-72960952D01*
X108060595Y-72913333D01*
X107965357Y-72865714D01*
X107774880Y-72865714D01*
X107679642Y-72913333D01*
X107108214Y-73532380D02*
X107203452Y-73484761D01*
X107251071Y-73437142D01*
X107298690Y-73341904D01*
X107298690Y-73056190D01*
X107251071Y-72960952D01*
X107203452Y-72913333D01*
X107108214Y-72865714D01*
X106965357Y-72865714D01*
X106870119Y-72913333D01*
X106822500Y-72960952D01*
X106774880Y-73056190D01*
X106774880Y-73341904D01*
X106822500Y-73437142D01*
X106870119Y-73484761D01*
X106965357Y-73532380D01*
X107108214Y-73532380D01*
X106346309Y-72865714D02*
X106346309Y-73532380D01*
X106346309Y-72960952D02*
X106298690Y-72913333D01*
X106203452Y-72865714D01*
X106060595Y-72865714D01*
X105965357Y-72913333D01*
X105917738Y-73008571D01*
X105917738Y-73532380D01*
X105584404Y-72865714D02*
X105203452Y-72865714D01*
X105441547Y-72532380D02*
X105441547Y-73389523D01*
X105393928Y-73484761D01*
X105298690Y-73532380D01*
X105203452Y-73532380D01*
X104870119Y-73532380D02*
X104870119Y-72865714D01*
X104870119Y-73056190D02*
X104822500Y-72960952D01*
X104774880Y-72913333D01*
X104679642Y-72865714D01*
X104584404Y-72865714D01*
X104108214Y-73532380D02*
X104203452Y-73484761D01*
X104251071Y-73437142D01*
X104298690Y-73341904D01*
X104298690Y-73056190D01*
X104251071Y-72960952D01*
X104203452Y-72913333D01*
X104108214Y-72865714D01*
X103965357Y-72865714D01*
X103870119Y-72913333D01*
X103822500Y-72960952D01*
X103774880Y-73056190D01*
X103774880Y-73341904D01*
X103822500Y-73437142D01*
X103870119Y-73484761D01*
X103965357Y-73532380D01*
X104108214Y-73532380D01*
X103203452Y-73532380D02*
X103298690Y-73484761D01*
X103346309Y-73389523D01*
X103346309Y-72532380D01*
X102679642Y-73532380D02*
X102774880Y-73484761D01*
X102822500Y-73389523D01*
X102822500Y-72532380D01*
X101917738Y-73484761D02*
X102012976Y-73532380D01*
X102203452Y-73532380D01*
X102298690Y-73484761D01*
X102346309Y-73389523D01*
X102346309Y-73008571D01*
X102298690Y-72913333D01*
X102203452Y-72865714D01*
X102012976Y-72865714D01*
X101917738Y-72913333D01*
X101870119Y-73008571D01*
X101870119Y-73103809D01*
X102346309Y-73199047D01*
X101441547Y-73532380D02*
X101441547Y-72865714D01*
X101441547Y-73056190D02*
X101393928Y-72960952D01*
X101346309Y-72913333D01*
X101251071Y-72865714D01*
X101155833Y-72865714D01*
X100774880Y-73484761D02*
X100774880Y-73532380D01*
X100822500Y-73627619D01*
X100870119Y-73675238D01*
X99632023Y-73484761D02*
X99536785Y-73532380D01*
X99346309Y-73532380D01*
X99251071Y-73484761D01*
X99203452Y-73389523D01*
X99203452Y-73341904D01*
X99251071Y-73246666D01*
X99346309Y-73199047D01*
X99489166Y-73199047D01*
X99584404Y-73151428D01*
X99632023Y-73056190D01*
X99632023Y-73008571D01*
X99584404Y-72913333D01*
X99489166Y-72865714D01*
X99346309Y-72865714D01*
X99251071Y-72913333D01*
X98393928Y-73484761D02*
X98489166Y-73532380D01*
X98679642Y-73532380D01*
X98774880Y-73484761D01*
X98822500Y-73389523D01*
X98822500Y-73008571D01*
X98774880Y-72913333D01*
X98679642Y-72865714D01*
X98489166Y-72865714D01*
X98393928Y-72913333D01*
X98346309Y-73008571D01*
X98346309Y-73103809D01*
X98822500Y-73199047D01*
X97774880Y-73532380D02*
X97870119Y-73484761D01*
X97917738Y-73389523D01*
X97917738Y-72532380D01*
X97012976Y-73484761D02*
X97108214Y-73532380D01*
X97298690Y-73532380D01*
X97393928Y-73484761D01*
X97441547Y-73389523D01*
X97441547Y-73008571D01*
X97393928Y-72913333D01*
X97298690Y-72865714D01*
X97108214Y-72865714D01*
X97012976Y-72913333D01*
X96965357Y-73008571D01*
X96965357Y-73103809D01*
X97441547Y-73199047D01*
X96108214Y-73484761D02*
X96203452Y-73532380D01*
X96393928Y-73532380D01*
X96489166Y-73484761D01*
X96536785Y-73437142D01*
X96584404Y-73341904D01*
X96584404Y-73056190D01*
X96536785Y-72960952D01*
X96489166Y-72913333D01*
X96393928Y-72865714D01*
X96203452Y-72865714D01*
X96108214Y-72913333D01*
X95822500Y-72865714D02*
X95441547Y-72865714D01*
X95679642Y-72532380D02*
X95679642Y-73389523D01*
X95632023Y-73484761D01*
X95536785Y-73532380D01*
X95441547Y-73532380D01*
X94679642Y-73532380D02*
X94679642Y-73008571D01*
X94727261Y-72913333D01*
X94822500Y-72865714D01*
X95012976Y-72865714D01*
X95108214Y-72913333D01*
X94679642Y-73484761D02*
X94774880Y-73532380D01*
X95012976Y-73532380D01*
X95108214Y-73484761D01*
X95155833Y-73389523D01*
X95155833Y-73294285D01*
X95108214Y-73199047D01*
X95012976Y-73151428D01*
X94774880Y-73151428D01*
X94679642Y-73103809D01*
X94203452Y-73532380D02*
X94203452Y-72532380D01*
X94203452Y-72913333D02*
X94108214Y-72865714D01*
X93917738Y-72865714D01*
X93822500Y-72913333D01*
X93774880Y-72960952D01*
X93727261Y-73056190D01*
X93727261Y-73341904D01*
X93774880Y-73437142D01*
X93822500Y-73484761D01*
X93917738Y-73532380D01*
X94108214Y-73532380D01*
X94203452Y-73484761D01*
X93155833Y-73532380D02*
X93251071Y-73484761D01*
X93298690Y-73389523D01*
X93298690Y-72532380D01*
X92393928Y-73484761D02*
X92489166Y-73532380D01*
X92679642Y-73532380D01*
X92774880Y-73484761D01*
X92822500Y-73389523D01*
X92822500Y-73008571D01*
X92774880Y-72913333D01*
X92679642Y-72865714D01*
X92489166Y-72865714D01*
X92393928Y-72913333D01*
X92346309Y-73008571D01*
X92346309Y-73103809D01*
X92822500Y-73199047D01*
X91155833Y-73532380D02*
X91155833Y-72532380D01*
X90727261Y-72294285D02*
X90632023Y-72246666D01*
X90489166Y-72246666D01*
X90393928Y-72294285D01*
X90346309Y-72389523D01*
X90346309Y-72484761D01*
X90393928Y-72580000D01*
X90727261Y-72913333D01*
X90346309Y-72913333D01*
X89346309Y-73437142D02*
X89393928Y-73484761D01*
X89536785Y-73532380D01*
X89632023Y-73532380D01*
X89774880Y-73484761D01*
X89870119Y-73389523D01*
X89917738Y-73294285D01*
X89965357Y-73103809D01*
X89965357Y-72960952D01*
X89917738Y-72770476D01*
X89870119Y-72675238D01*
X89774880Y-72580000D01*
X89632023Y-72532380D01*
X89536785Y-72532380D01*
X89393928Y-72580000D01*
X89346309Y-72627619D01*
X87727261Y-73532380D02*
X87727261Y-73008571D01*
X87774880Y-72913333D01*
X87870119Y-72865714D01*
X88060595Y-72865714D01*
X88155833Y-72913333D01*
X87727261Y-73484761D02*
X87822500Y-73532380D01*
X88060595Y-73532380D01*
X88155833Y-73484761D01*
X88203452Y-73389523D01*
X88203452Y-73294285D01*
X88155833Y-73199047D01*
X88060595Y-73151428D01*
X87822500Y-73151428D01*
X87727261Y-73103809D01*
X86822500Y-73532380D02*
X86822500Y-72532380D01*
X86822500Y-73484761D02*
X86917738Y-73532380D01*
X87108214Y-73532380D01*
X87203452Y-73484761D01*
X87251071Y-73437142D01*
X87298690Y-73341904D01*
X87298690Y-73056190D01*
X87251071Y-72960952D01*
X87203452Y-72913333D01*
X87108214Y-72865714D01*
X86917738Y-72865714D01*
X86822500Y-72913333D01*
X85917738Y-73532380D02*
X85917738Y-72532380D01*
X85917738Y-73484761D02*
X86012976Y-73532380D01*
X86203452Y-73532380D01*
X86298690Y-73484761D01*
X86346309Y-73437142D01*
X86393928Y-73341904D01*
X86393928Y-73056190D01*
X86346309Y-72960952D01*
X86298690Y-72913333D01*
X86203452Y-72865714D01*
X86012976Y-72865714D01*
X85917738Y-72913333D01*
X85441547Y-73532380D02*
X85441547Y-72865714D01*
X85441547Y-73056190D02*
X85393928Y-72960952D01*
X85346309Y-72913333D01*
X85251071Y-72865714D01*
X85155833Y-72865714D01*
X84441547Y-73484761D02*
X84536785Y-73532380D01*
X84727261Y-73532380D01*
X84822500Y-73484761D01*
X84870119Y-73389523D01*
X84870119Y-73008571D01*
X84822500Y-72913333D01*
X84727261Y-72865714D01*
X84536785Y-72865714D01*
X84441547Y-72913333D01*
X84393928Y-73008571D01*
X84393928Y-73103809D01*
X84870119Y-73199047D01*
X84012976Y-73484761D02*
X83917738Y-73532380D01*
X83727261Y-73532380D01*
X83632023Y-73484761D01*
X83584404Y-73389523D01*
X83584404Y-73341904D01*
X83632023Y-73246666D01*
X83727261Y-73199047D01*
X83870119Y-73199047D01*
X83965357Y-73151428D01*
X84012976Y-73056190D01*
X84012976Y-73008571D01*
X83965357Y-72913333D01*
X83870119Y-72865714D01*
X83727261Y-72865714D01*
X83632023Y-72913333D01*
X83203452Y-73484761D02*
X83108214Y-73532380D01*
X82917738Y-73532380D01*
X82822500Y-73484761D01*
X82774880Y-73389523D01*
X82774880Y-73341904D01*
X82822500Y-73246666D01*
X82917738Y-73199047D01*
X83060595Y-73199047D01*
X83155833Y-73151428D01*
X83203452Y-73056190D01*
X83203452Y-73008571D01*
X83155833Y-72913333D01*
X83060595Y-72865714D01*
X82917738Y-72865714D01*
X82822500Y-72913333D01*
X119584404Y-75182380D02*
X119584404Y-74182380D01*
X119584404Y-74563333D02*
X119489166Y-74515714D01*
X119298690Y-74515714D01*
X119203452Y-74563333D01*
X119155833Y-74610952D01*
X119108214Y-74706190D01*
X119108214Y-74991904D01*
X119155833Y-75087142D01*
X119203452Y-75134761D01*
X119298690Y-75182380D01*
X119489166Y-75182380D01*
X119584404Y-75134761D01*
X118774880Y-74515714D02*
X118536785Y-75182380D01*
X118298690Y-74515714D02*
X118536785Y-75182380D01*
X118632023Y-75420476D01*
X118679642Y-75468095D01*
X118774880Y-75515714D01*
X117203452Y-75134761D02*
X117108214Y-75182380D01*
X116917738Y-75182380D01*
X116822500Y-75134761D01*
X116774880Y-75039523D01*
X116774880Y-74991904D01*
X116822500Y-74896666D01*
X116917738Y-74849047D01*
X117060595Y-74849047D01*
X117155833Y-74801428D01*
X117203452Y-74706190D01*
X117203452Y-74658571D01*
X117155833Y-74563333D01*
X117060595Y-74515714D01*
X116917738Y-74515714D01*
X116822500Y-74563333D01*
X116203452Y-75182380D02*
X116298690Y-75134761D01*
X116346309Y-75087142D01*
X116393928Y-74991904D01*
X116393928Y-74706190D01*
X116346309Y-74610952D01*
X116298690Y-74563333D01*
X116203452Y-74515714D01*
X116060595Y-74515714D01*
X115965357Y-74563333D01*
X115917738Y-74610952D01*
X115870119Y-74706190D01*
X115870119Y-74991904D01*
X115917738Y-75087142D01*
X115965357Y-75134761D01*
X116060595Y-75182380D01*
X116203452Y-75182380D01*
X115298690Y-75182380D02*
X115393928Y-75134761D01*
X115441547Y-75039523D01*
X115441547Y-74182380D01*
X114489166Y-75182380D02*
X114489166Y-74182380D01*
X114489166Y-75134761D02*
X114584404Y-75182380D01*
X114774880Y-75182380D01*
X114870119Y-75134761D01*
X114917738Y-75087142D01*
X114965357Y-74991904D01*
X114965357Y-74706190D01*
X114917738Y-74610952D01*
X114870119Y-74563333D01*
X114774880Y-74515714D01*
X114584404Y-74515714D01*
X114489166Y-74563333D01*
X113632023Y-75134761D02*
X113727261Y-75182380D01*
X113917738Y-75182380D01*
X114012976Y-75134761D01*
X114060595Y-75039523D01*
X114060595Y-74658571D01*
X114012976Y-74563333D01*
X113917738Y-74515714D01*
X113727261Y-74515714D01*
X113632023Y-74563333D01*
X113584404Y-74658571D01*
X113584404Y-74753809D01*
X114060595Y-74849047D01*
X113155833Y-75182380D02*
X113155833Y-74515714D01*
X113155833Y-74706190D02*
X113108214Y-74610952D01*
X113060595Y-74563333D01*
X112965357Y-74515714D01*
X112870119Y-74515714D01*
X111774880Y-74515714D02*
X111774880Y-75515714D01*
X111774880Y-74563333D02*
X111679642Y-74515714D01*
X111489166Y-74515714D01*
X111393928Y-74563333D01*
X111346309Y-74610952D01*
X111298690Y-74706190D01*
X111298690Y-74991904D01*
X111346309Y-75087142D01*
X111393928Y-75134761D01*
X111489166Y-75182380D01*
X111679642Y-75182380D01*
X111774880Y-75134761D01*
X110441547Y-75182380D02*
X110441547Y-74658571D01*
X110489166Y-74563333D01*
X110584404Y-74515714D01*
X110774880Y-74515714D01*
X110870119Y-74563333D01*
X110441547Y-75134761D02*
X110536785Y-75182380D01*
X110774880Y-75182380D01*
X110870119Y-75134761D01*
X110917738Y-75039523D01*
X110917738Y-74944285D01*
X110870119Y-74849047D01*
X110774880Y-74801428D01*
X110536785Y-74801428D01*
X110441547Y-74753809D01*
X109536785Y-75182380D02*
X109536785Y-74182380D01*
X109536785Y-75134761D02*
X109632023Y-75182380D01*
X109822500Y-75182380D01*
X109917738Y-75134761D01*
X109965357Y-75087142D01*
X110012976Y-74991904D01*
X110012976Y-74706190D01*
X109965357Y-74610952D01*
X109917738Y-74563333D01*
X109822500Y-74515714D01*
X109632023Y-74515714D01*
X109536785Y-74563333D01*
X109108214Y-75134761D02*
X109012976Y-75182380D01*
X108822500Y-75182380D01*
X108727261Y-75134761D01*
X108679642Y-75039523D01*
X108679642Y-74991904D01*
X108727261Y-74896666D01*
X108822500Y-74849047D01*
X108965357Y-74849047D01*
X109060595Y-74801428D01*
X109108214Y-74706190D01*
X109108214Y-74658571D01*
X109060595Y-74563333D01*
X108965357Y-74515714D01*
X108822500Y-74515714D01*
X108727261Y-74563333D01*
X107536785Y-74896666D02*
X107060595Y-74896666D01*
X107632023Y-75182380D02*
X107298690Y-74182380D01*
X106965357Y-75182380D01*
X106441547Y-74182380D02*
X106346309Y-74182380D01*
X106251071Y-74230000D01*
X106203452Y-74277619D01*
X106155833Y-74372857D01*
X106108214Y-74563333D01*
X106108214Y-74801428D01*
X106155833Y-74991904D01*
X106203452Y-75087142D01*
X106251071Y-75134761D01*
X106346309Y-75182380D01*
X106441547Y-75182380D01*
X106536785Y-75134761D01*
X106584404Y-75087142D01*
X106632023Y-74991904D01*
X106679642Y-74801428D01*
X106679642Y-74563333D01*
X106632023Y-74372857D01*
X106584404Y-74277619D01*
X106536785Y-74230000D01*
X106441547Y-74182380D01*
X104917738Y-74801428D02*
X104155833Y-74801428D01*
X102965357Y-74896666D02*
X102489166Y-74896666D01*
X103060595Y-75182380D02*
X102727261Y-74182380D01*
X102393928Y-75182380D01*
X101584404Y-74182380D02*
X102060595Y-74182380D01*
X102108214Y-74658571D01*
X102060595Y-74610952D01*
X101965357Y-74563333D01*
X101727261Y-74563333D01*
X101632023Y-74610952D01*
X101584404Y-74658571D01*
X101536785Y-74753809D01*
X101536785Y-74991904D01*
X101584404Y-75087142D01*
X101632023Y-75134761D01*
X101727261Y-75182380D01*
X101965357Y-75182380D01*
X102060595Y-75134761D01*
X102108214Y-75087142D01*
X101060595Y-75134761D02*
X101060595Y-75182380D01*
X101108214Y-75277619D01*
X101155833Y-75325238D01*
X100679642Y-75134761D02*
X100584404Y-75182380D01*
X100393928Y-75182380D01*
X100298690Y-75134761D01*
X100251071Y-75039523D01*
X100251071Y-74991904D01*
X100298690Y-74896666D01*
X100393928Y-74849047D01*
X100536785Y-74849047D01*
X100632023Y-74801428D01*
X100679642Y-74706190D01*
X100679642Y-74658571D01*
X100632023Y-74563333D01*
X100536785Y-74515714D01*
X100393928Y-74515714D01*
X100298690Y-74563333D01*
X99441547Y-75134761D02*
X99536785Y-75182380D01*
X99727261Y-75182380D01*
X99822500Y-75134761D01*
X99870119Y-75039523D01*
X99870119Y-74658571D01*
X99822500Y-74563333D01*
X99727261Y-74515714D01*
X99536785Y-74515714D01*
X99441547Y-74563333D01*
X99393928Y-74658571D01*
X99393928Y-74753809D01*
X99870119Y-74849047D01*
X98584404Y-75134761D02*
X98679642Y-75182380D01*
X98870119Y-75182380D01*
X98965357Y-75134761D01*
X99012976Y-75039523D01*
X99012976Y-74658571D01*
X98965357Y-74563333D01*
X98870119Y-74515714D01*
X98679642Y-74515714D01*
X98584404Y-74563333D01*
X98536785Y-74658571D01*
X98536785Y-74753809D01*
X99012976Y-74849047D01*
X97346309Y-75182380D02*
X97346309Y-74182380D01*
X96965357Y-74182380D01*
X96870119Y-74230000D01*
X96822500Y-74277619D01*
X96774880Y-74372857D01*
X96774880Y-74515714D01*
X96822500Y-74610952D01*
X96870119Y-74658571D01*
X96965357Y-74706190D01*
X97346309Y-74706190D01*
X95774880Y-75087142D02*
X95822500Y-75134761D01*
X95965357Y-75182380D01*
X96060595Y-75182380D01*
X96203452Y-75134761D01*
X96298690Y-75039523D01*
X96346309Y-74944285D01*
X96393928Y-74753809D01*
X96393928Y-74610952D01*
X96346309Y-74420476D01*
X96298690Y-74325238D01*
X96203452Y-74230000D01*
X96060595Y-74182380D01*
X95965357Y-74182380D01*
X95822500Y-74230000D01*
X95774880Y-74277619D01*
X95393928Y-74896666D02*
X94917738Y-74896666D01*
X95489166Y-75182380D02*
X95155833Y-74182380D01*
X94822500Y-75182380D01*
X94441547Y-75182380D02*
X94251071Y-75182380D01*
X94155833Y-75134761D01*
X94108214Y-75087142D01*
X94012976Y-74944285D01*
X93965357Y-74753809D01*
X93965357Y-74372857D01*
X94012976Y-74277619D01*
X94060595Y-74230000D01*
X94155833Y-74182380D01*
X94346309Y-74182380D01*
X94441547Y-74230000D01*
X94489166Y-74277619D01*
X94536785Y-74372857D01*
X94536785Y-74610952D01*
X94489166Y-74706190D01*
X94441547Y-74753809D01*
X94346309Y-74801428D01*
X94155833Y-74801428D01*
X94060595Y-74753809D01*
X94012976Y-74706190D01*
X93965357Y-74610952D01*
X93108214Y-74182380D02*
X93298690Y-74182380D01*
X93393928Y-74230000D01*
X93441547Y-74277619D01*
X93536785Y-74420476D01*
X93584404Y-74610952D01*
X93584404Y-74991904D01*
X93536785Y-75087142D01*
X93489166Y-75134761D01*
X93393928Y-75182380D01*
X93203452Y-75182380D01*
X93108214Y-75134761D01*
X93060595Y-75087142D01*
X93012976Y-74991904D01*
X93012976Y-74753809D01*
X93060595Y-74658571D01*
X93108214Y-74610952D01*
X93203452Y-74563333D01*
X93393928Y-74563333D01*
X93489166Y-74610952D01*
X93536785Y-74658571D01*
X93584404Y-74753809D01*
X92441547Y-74610952D02*
X92536785Y-74563333D01*
X92584404Y-74515714D01*
X92632023Y-74420476D01*
X92632023Y-74372857D01*
X92584404Y-74277619D01*
X92536785Y-74230000D01*
X92441547Y-74182380D01*
X92251071Y-74182380D01*
X92155833Y-74230000D01*
X92108214Y-74277619D01*
X92060595Y-74372857D01*
X92060595Y-74420476D01*
X92108214Y-74515714D01*
X92155833Y-74563333D01*
X92251071Y-74610952D01*
X92441547Y-74610952D01*
X92536785Y-74658571D01*
X92584404Y-74706190D01*
X92632023Y-74801428D01*
X92632023Y-74991904D01*
X92584404Y-75087142D01*
X92536785Y-75134761D01*
X92441547Y-75182380D01*
X92251071Y-75182380D01*
X92155833Y-75134761D01*
X92108214Y-75087142D01*
X92060595Y-74991904D01*
X92060595Y-74801428D01*
X92108214Y-74706190D01*
X92155833Y-74658571D01*
X92251071Y-74610952D01*
X91155833Y-74182380D02*
X91632023Y-74182380D01*
X91679642Y-74658571D01*
X91632023Y-74610952D01*
X91536785Y-74563333D01*
X91298690Y-74563333D01*
X91203452Y-74610952D01*
X91155833Y-74658571D01*
X91108214Y-74753809D01*
X91108214Y-74991904D01*
X91155833Y-75087142D01*
X91203452Y-75134761D01*
X91298690Y-75182380D01*
X91536785Y-75182380D01*
X91632023Y-75134761D01*
X91679642Y-75087142D01*
X89489166Y-75182380D02*
X89489166Y-74182380D01*
X89489166Y-75134761D02*
X89584404Y-75182380D01*
X89774880Y-75182380D01*
X89870119Y-75134761D01*
X89917738Y-75087142D01*
X89965357Y-74991904D01*
X89965357Y-74706190D01*
X89917738Y-74610952D01*
X89870119Y-74563333D01*
X89774880Y-74515714D01*
X89584404Y-74515714D01*
X89489166Y-74563333D01*
X88584404Y-75182380D02*
X88584404Y-74658571D01*
X88632023Y-74563333D01*
X88727261Y-74515714D01*
X88917738Y-74515714D01*
X89012976Y-74563333D01*
X88584404Y-75134761D02*
X88679642Y-75182380D01*
X88917738Y-75182380D01*
X89012976Y-75134761D01*
X89060595Y-75039523D01*
X89060595Y-74944285D01*
X89012976Y-74849047D01*
X88917738Y-74801428D01*
X88679642Y-74801428D01*
X88584404Y-74753809D01*
X88251071Y-74515714D02*
X87870119Y-74515714D01*
X88108214Y-74182380D02*
X88108214Y-75039523D01*
X88060595Y-75134761D01*
X87965357Y-75182380D01*
X87870119Y-75182380D01*
X87108214Y-75182380D02*
X87108214Y-74658571D01*
X87155833Y-74563333D01*
X87251071Y-74515714D01*
X87441547Y-74515714D01*
X87536785Y-74563333D01*
X87108214Y-75134761D02*
X87203452Y-75182380D01*
X87441547Y-75182380D01*
X87536785Y-75134761D01*
X87584404Y-75039523D01*
X87584404Y-74944285D01*
X87536785Y-74849047D01*
X87441547Y-74801428D01*
X87203452Y-74801428D01*
X87108214Y-74753809D01*
X86679642Y-75134761D02*
X86584404Y-75182380D01*
X86393928Y-75182380D01*
X86298690Y-75134761D01*
X86251071Y-75039523D01*
X86251071Y-74991904D01*
X86298690Y-74896666D01*
X86393928Y-74849047D01*
X86536785Y-74849047D01*
X86632023Y-74801428D01*
X86679642Y-74706190D01*
X86679642Y-74658571D01*
X86632023Y-74563333D01*
X86536785Y-74515714D01*
X86393928Y-74515714D01*
X86298690Y-74563333D01*
X85822500Y-75182380D02*
X85822500Y-74182380D01*
X85393928Y-75182380D02*
X85393928Y-74658571D01*
X85441547Y-74563333D01*
X85536785Y-74515714D01*
X85679642Y-74515714D01*
X85774880Y-74563333D01*
X85822500Y-74610952D01*
X84536785Y-75134761D02*
X84632023Y-75182380D01*
X84822500Y-75182380D01*
X84917738Y-75134761D01*
X84965357Y-75039523D01*
X84965357Y-74658571D01*
X84917738Y-74563333D01*
X84822500Y-74515714D01*
X84632023Y-74515714D01*
X84536785Y-74563333D01*
X84489166Y-74658571D01*
X84489166Y-74753809D01*
X84965357Y-74849047D01*
X83679642Y-75134761D02*
X83774880Y-75182380D01*
X83965357Y-75182380D01*
X84060595Y-75134761D01*
X84108214Y-75039523D01*
X84108214Y-74658571D01*
X84060595Y-74563333D01*
X83965357Y-74515714D01*
X83774880Y-74515714D01*
X83679642Y-74563333D01*
X83632023Y-74658571D01*
X83632023Y-74753809D01*
X84108214Y-74849047D01*
X83346309Y-74515714D02*
X82965357Y-74515714D01*
X83203452Y-74182380D02*
X83203452Y-75039523D01*
X83155833Y-75134761D01*
X83060595Y-75182380D01*
X82965357Y-75182380D01*
X82012976Y-74515714D02*
X81632023Y-74515714D01*
X81870119Y-75182380D02*
X81870119Y-74325238D01*
X81822500Y-74230000D01*
X81727261Y-74182380D01*
X81632023Y-74182380D01*
X81155833Y-75182380D02*
X81251071Y-75134761D01*
X81298690Y-75087142D01*
X81346309Y-74991904D01*
X81346309Y-74706190D01*
X81298690Y-74610952D01*
X81251071Y-74563333D01*
X81155833Y-74515714D01*
X81012976Y-74515714D01*
X80917738Y-74563333D01*
X80870119Y-74610952D01*
X80822500Y-74706190D01*
X80822500Y-74991904D01*
X80870119Y-75087142D01*
X80917738Y-75134761D01*
X81012976Y-75182380D01*
X81155833Y-75182380D01*
X80393928Y-75182380D02*
X80393928Y-74515714D01*
X80393928Y-74706190D02*
X80346309Y-74610952D01*
X80298690Y-74563333D01*
X80203452Y-74515714D01*
X80108214Y-74515714D01*
X78584404Y-75182380D02*
X78584404Y-74182380D01*
X78584404Y-75134761D02*
X78679642Y-75182380D01*
X78870119Y-75182380D01*
X78965357Y-75134761D01*
X79012976Y-75087142D01*
X79060595Y-74991904D01*
X79060595Y-74706190D01*
X79012976Y-74610952D01*
X78965357Y-74563333D01*
X78870119Y-74515714D01*
X78679642Y-74515714D01*
X78584404Y-74563333D01*
X77727261Y-75134761D02*
X77822500Y-75182380D01*
X78012976Y-75182380D01*
X78108214Y-75134761D01*
X78155833Y-75039523D01*
X78155833Y-74658571D01*
X78108214Y-74563333D01*
X78012976Y-74515714D01*
X77822500Y-74515714D01*
X77727261Y-74563333D01*
X77679642Y-74658571D01*
X77679642Y-74753809D01*
X78155833Y-74849047D01*
X77393928Y-74515714D02*
X77012976Y-74515714D01*
X77251071Y-74182380D02*
X77251071Y-75039523D01*
X77203452Y-75134761D01*
X77108214Y-75182380D01*
X77012976Y-75182380D01*
X76251071Y-75182380D02*
X76251071Y-74658571D01*
X76298690Y-74563333D01*
X76393928Y-74515714D01*
X76584404Y-74515714D01*
X76679642Y-74563333D01*
X76251071Y-75134761D02*
X76346309Y-75182380D01*
X76584404Y-75182380D01*
X76679642Y-75134761D01*
X76727261Y-75039523D01*
X76727261Y-74944285D01*
X76679642Y-74849047D01*
X76584404Y-74801428D01*
X76346309Y-74801428D01*
X76251071Y-74753809D01*
X75774880Y-75182380D02*
X75774880Y-74515714D01*
X75774880Y-74182380D02*
X75822500Y-74230000D01*
X75774880Y-74277619D01*
X75727261Y-74230000D01*
X75774880Y-74182380D01*
X75774880Y-74277619D01*
X75155833Y-75182380D02*
X75251071Y-75134761D01*
X75298690Y-75039523D01*
X75298690Y-74182380D01*
X74822500Y-75134761D02*
X74727261Y-75182380D01*
X74536785Y-75182380D01*
X74441547Y-75134761D01*
X74393928Y-75039523D01*
X74393928Y-74991904D01*
X74441547Y-74896666D01*
X74536785Y-74849047D01*
X74679642Y-74849047D01*
X74774880Y-74801428D01*
X74822500Y-74706190D01*
X74822500Y-74658571D01*
X74774880Y-74563333D01*
X74679642Y-74515714D01*
X74536785Y-74515714D01*
X74441547Y-74563333D01*
X73965357Y-75087142D02*
X73917738Y-75134761D01*
X73965357Y-75182380D01*
X74012976Y-75134761D01*
X73965357Y-75087142D01*
X73965357Y-75182380D01*
X119632023Y-76546666D02*
X119155833Y-76546666D01*
X119727261Y-76832380D02*
X119393928Y-75832380D01*
X119060595Y-76832380D01*
X118298690Y-76832380D02*
X118298690Y-75832380D01*
X118298690Y-76784761D02*
X118393928Y-76832380D01*
X118584404Y-76832380D01*
X118679642Y-76784761D01*
X118727261Y-76737142D01*
X118774880Y-76641904D01*
X118774880Y-76356190D01*
X118727261Y-76260952D01*
X118679642Y-76213333D01*
X118584404Y-76165714D01*
X118393928Y-76165714D01*
X118298690Y-76213333D01*
X117393928Y-76832380D02*
X117393928Y-75832380D01*
X117393928Y-76784761D02*
X117489166Y-76832380D01*
X117679642Y-76832380D01*
X117774880Y-76784761D01*
X117822500Y-76737142D01*
X117870119Y-76641904D01*
X117870119Y-76356190D01*
X117822500Y-76260952D01*
X117774880Y-76213333D01*
X117679642Y-76165714D01*
X117489166Y-76165714D01*
X117393928Y-76213333D01*
X116155833Y-76165714D02*
X116155833Y-77165714D01*
X116155833Y-76213333D02*
X116060595Y-76165714D01*
X115870119Y-76165714D01*
X115774880Y-76213333D01*
X115727261Y-76260952D01*
X115679642Y-76356190D01*
X115679642Y-76641904D01*
X115727261Y-76737142D01*
X115774880Y-76784761D01*
X115870119Y-76832380D01*
X116060595Y-76832380D01*
X116155833Y-76784761D01*
X114822500Y-76165714D02*
X114822500Y-76832380D01*
X115251071Y-76165714D02*
X115251071Y-76689523D01*
X115203452Y-76784761D01*
X115108214Y-76832380D01*
X114965357Y-76832380D01*
X114870119Y-76784761D01*
X114822500Y-76737142D01*
X114203452Y-76832380D02*
X114298690Y-76784761D01*
X114346309Y-76689523D01*
X114346309Y-75832380D01*
X113679642Y-76832380D02*
X113774880Y-76784761D01*
X113822500Y-76689523D01*
X113822500Y-75832380D01*
X112870119Y-76165714D02*
X112870119Y-76832380D01*
X113298690Y-76165714D02*
X113298690Y-76689523D01*
X113251071Y-76784761D01*
X113155833Y-76832380D01*
X113012976Y-76832380D01*
X112917738Y-76784761D01*
X112870119Y-76737142D01*
X112393928Y-76165714D02*
X112393928Y-77165714D01*
X112393928Y-76213333D02*
X112298690Y-76165714D01*
X112108214Y-76165714D01*
X112012976Y-76213333D01*
X111965357Y-76260952D01*
X111917738Y-76356190D01*
X111917738Y-76641904D01*
X111965357Y-76737142D01*
X112012976Y-76784761D01*
X112108214Y-76832380D01*
X112298690Y-76832380D01*
X112393928Y-76784761D01*
X110727261Y-76832380D02*
X110727261Y-76165714D01*
X110727261Y-76356190D02*
X110679642Y-76260952D01*
X110632023Y-76213333D01*
X110536785Y-76165714D01*
X110441547Y-76165714D01*
X109727261Y-76784761D02*
X109822500Y-76832380D01*
X110012976Y-76832380D01*
X110108214Y-76784761D01*
X110155833Y-76689523D01*
X110155833Y-76308571D01*
X110108214Y-76213333D01*
X110012976Y-76165714D01*
X109822500Y-76165714D01*
X109727261Y-76213333D01*
X109679642Y-76308571D01*
X109679642Y-76403809D01*
X110155833Y-76499047D01*
X109298690Y-76784761D02*
X109203452Y-76832380D01*
X109012976Y-76832380D01*
X108917738Y-76784761D01*
X108870119Y-76689523D01*
X108870119Y-76641904D01*
X108917738Y-76546666D01*
X109012976Y-76499047D01*
X109155833Y-76499047D01*
X109251071Y-76451428D01*
X109298690Y-76356190D01*
X109298690Y-76308571D01*
X109251071Y-76213333D01*
X109155833Y-76165714D01*
X109012976Y-76165714D01*
X108917738Y-76213333D01*
X108441547Y-76832380D02*
X108441547Y-76165714D01*
X108441547Y-75832380D02*
X108489166Y-75880000D01*
X108441547Y-75927619D01*
X108393928Y-75880000D01*
X108441547Y-75832380D01*
X108441547Y-75927619D01*
X108012976Y-76784761D02*
X107917738Y-76832380D01*
X107727261Y-76832380D01*
X107632023Y-76784761D01*
X107584404Y-76689523D01*
X107584404Y-76641904D01*
X107632023Y-76546666D01*
X107727261Y-76499047D01*
X107870119Y-76499047D01*
X107965357Y-76451428D01*
X108012976Y-76356190D01*
X108012976Y-76308571D01*
X107965357Y-76213333D01*
X107870119Y-76165714D01*
X107727261Y-76165714D01*
X107632023Y-76213333D01*
X107298690Y-76165714D02*
X106917738Y-76165714D01*
X107155833Y-75832380D02*
X107155833Y-76689523D01*
X107108214Y-76784761D01*
X107012976Y-76832380D01*
X106917738Y-76832380D01*
X106441547Y-76832380D02*
X106536785Y-76784761D01*
X106584404Y-76737142D01*
X106632023Y-76641904D01*
X106632023Y-76356190D01*
X106584404Y-76260952D01*
X106536785Y-76213333D01*
X106441547Y-76165714D01*
X106298690Y-76165714D01*
X106203452Y-76213333D01*
X106155833Y-76260952D01*
X106108214Y-76356190D01*
X106108214Y-76641904D01*
X106155833Y-76737142D01*
X106203452Y-76784761D01*
X106298690Y-76832380D01*
X106441547Y-76832380D01*
X105679642Y-76832380D02*
X105679642Y-76165714D01*
X105679642Y-76356190D02*
X105632023Y-76260952D01*
X105584404Y-76213333D01*
X105489166Y-76165714D01*
X105393928Y-76165714D01*
X105108214Y-76784761D02*
X105012976Y-76832380D01*
X104822500Y-76832380D01*
X104727261Y-76784761D01*
X104679642Y-76689523D01*
X104679642Y-76641904D01*
X104727261Y-76546666D01*
X104822500Y-76499047D01*
X104965357Y-76499047D01*
X105060595Y-76451428D01*
X105108214Y-76356190D01*
X105108214Y-76308571D01*
X105060595Y-76213333D01*
X104965357Y-76165714D01*
X104822500Y-76165714D01*
X104727261Y-76213333D01*
X103632023Y-76165714D02*
X103251071Y-76165714D01*
X103489166Y-76832380D02*
X103489166Y-75975238D01*
X103441547Y-75880000D01*
X103346309Y-75832380D01*
X103251071Y-75832380D01*
X102774880Y-76832380D02*
X102870119Y-76784761D01*
X102917738Y-76737142D01*
X102965357Y-76641904D01*
X102965357Y-76356190D01*
X102917738Y-76260952D01*
X102870119Y-76213333D01*
X102774880Y-76165714D01*
X102632023Y-76165714D01*
X102536785Y-76213333D01*
X102489166Y-76260952D01*
X102441547Y-76356190D01*
X102441547Y-76641904D01*
X102489166Y-76737142D01*
X102536785Y-76784761D01*
X102632023Y-76832380D01*
X102774880Y-76832380D01*
X102012976Y-76832380D02*
X102012976Y-76165714D01*
X102012976Y-76356190D02*
X101965357Y-76260952D01*
X101917738Y-76213333D01*
X101822500Y-76165714D01*
X101727261Y-76165714D01*
X100632023Y-76832380D02*
X100632023Y-75832380D01*
X100203452Y-75594285D02*
X100108214Y-75546666D01*
X99965357Y-75546666D01*
X99870119Y-75594285D01*
X99822500Y-75689523D01*
X99822500Y-75784761D01*
X99870119Y-75880000D01*
X100203452Y-76213333D01*
X99822500Y-76213333D01*
X98822500Y-76737142D02*
X98870119Y-76784761D01*
X99012976Y-76832380D01*
X99108214Y-76832380D01*
X99251071Y-76784761D01*
X99346309Y-76689523D01*
X99393928Y-76594285D01*
X99441547Y-76403809D01*
X99441547Y-76260952D01*
X99393928Y-76070476D01*
X99346309Y-75975238D01*
X99251071Y-75880000D01*
X99108214Y-75832380D01*
X99012976Y-75832380D01*
X98870119Y-75880000D01*
X98822500Y-75927619D01*
X97679642Y-76784761D02*
X97536785Y-76832380D01*
X97298690Y-76832380D01*
X97203452Y-76784761D01*
X97155833Y-76737142D01*
X97108214Y-76641904D01*
X97108214Y-76546666D01*
X97155833Y-76451428D01*
X97203452Y-76403809D01*
X97298690Y-76356190D01*
X97489166Y-76308571D01*
X97584404Y-76260952D01*
X97632023Y-76213333D01*
X97679642Y-76118095D01*
X97679642Y-76022857D01*
X97632023Y-75927619D01*
X97584404Y-75880000D01*
X97489166Y-75832380D01*
X97251071Y-75832380D01*
X97108214Y-75880000D01*
X96108214Y-76737142D02*
X96155833Y-76784761D01*
X96298690Y-76832380D01*
X96393928Y-76832380D01*
X96536785Y-76784761D01*
X96632023Y-76689523D01*
X96679642Y-76594285D01*
X96727261Y-76403809D01*
X96727261Y-76260952D01*
X96679642Y-76070476D01*
X96632023Y-75975238D01*
X96536785Y-75880000D01*
X96393928Y-75832380D01*
X96298690Y-75832380D01*
X96155833Y-75880000D01*
X96108214Y-75927619D01*
X95203452Y-76832380D02*
X95679642Y-76832380D01*
X95679642Y-75832380D01*
X93679642Y-76832380D02*
X93679642Y-76308571D01*
X93727261Y-76213333D01*
X93822500Y-76165714D01*
X94012976Y-76165714D01*
X94108214Y-76213333D01*
X93679642Y-76784761D02*
X93774880Y-76832380D01*
X94012976Y-76832380D01*
X94108214Y-76784761D01*
X94155833Y-76689523D01*
X94155833Y-76594285D01*
X94108214Y-76499047D01*
X94012976Y-76451428D01*
X93774880Y-76451428D01*
X93679642Y-76403809D01*
X93203452Y-76165714D02*
X93203452Y-76832380D01*
X93203452Y-76260952D02*
X93155833Y-76213333D01*
X93060595Y-76165714D01*
X92917738Y-76165714D01*
X92822500Y-76213333D01*
X92774880Y-76308571D01*
X92774880Y-76832380D01*
X91870119Y-76832380D02*
X91870119Y-75832380D01*
X91870119Y-76784761D02*
X91965357Y-76832380D01*
X92155833Y-76832380D01*
X92251071Y-76784761D01*
X92298690Y-76737142D01*
X92346309Y-76641904D01*
X92346309Y-76356190D01*
X92298690Y-76260952D01*
X92251071Y-76213333D01*
X92155833Y-76165714D01*
X91965357Y-76165714D01*
X91870119Y-76213333D01*
X90679642Y-76784761D02*
X90536785Y-76832380D01*
X90298690Y-76832380D01*
X90203452Y-76784761D01*
X90155833Y-76737142D01*
X90108214Y-76641904D01*
X90108214Y-76546666D01*
X90155833Y-76451428D01*
X90203452Y-76403809D01*
X90298690Y-76356190D01*
X90489166Y-76308571D01*
X90584404Y-76260952D01*
X90632023Y-76213333D01*
X90679642Y-76118095D01*
X90679642Y-76022857D01*
X90632023Y-75927619D01*
X90584404Y-75880000D01*
X90489166Y-75832380D01*
X90251071Y-75832380D01*
X90108214Y-75880000D01*
X89679642Y-76832380D02*
X89679642Y-75832380D01*
X89441547Y-75832380D01*
X89298690Y-75880000D01*
X89203452Y-75975238D01*
X89155833Y-76070476D01*
X89108214Y-76260952D01*
X89108214Y-76403809D01*
X89155833Y-76594285D01*
X89203452Y-76689523D01*
X89298690Y-76784761D01*
X89441547Y-76832380D01*
X89679642Y-76832380D01*
X88727261Y-76546666D02*
X88251071Y-76546666D01*
X88822500Y-76832380D02*
X88489166Y-75832380D01*
X88155833Y-76832380D01*
X87060595Y-76832380D02*
X87060595Y-76165714D01*
X87060595Y-75832380D02*
X87108214Y-75880000D01*
X87060595Y-75927619D01*
X87012976Y-75880000D01*
X87060595Y-75832380D01*
X87060595Y-75927619D01*
X86727261Y-76165714D02*
X86346309Y-76165714D01*
X86584404Y-76832380D02*
X86584404Y-75975238D01*
X86536785Y-75880000D01*
X86441547Y-75832380D01*
X86346309Y-75832380D01*
X85251071Y-76165714D02*
X85251071Y-76832380D01*
X85251071Y-76260952D02*
X85203452Y-76213333D01*
X85108214Y-76165714D01*
X84965357Y-76165714D01*
X84870119Y-76213333D01*
X84822500Y-76308571D01*
X84822500Y-76832380D01*
X83965357Y-76784761D02*
X84060595Y-76832380D01*
X84251071Y-76832380D01*
X84346309Y-76784761D01*
X84393928Y-76689523D01*
X84393928Y-76308571D01*
X84346309Y-76213333D01*
X84251071Y-76165714D01*
X84060595Y-76165714D01*
X83965357Y-76213333D01*
X83917738Y-76308571D01*
X83917738Y-76403809D01*
X84393928Y-76499047D01*
X83108214Y-76784761D02*
X83203452Y-76832380D01*
X83393928Y-76832380D01*
X83489166Y-76784761D01*
X83536785Y-76689523D01*
X83536785Y-76308571D01*
X83489166Y-76213333D01*
X83393928Y-76165714D01*
X83203452Y-76165714D01*
X83108214Y-76213333D01*
X83060595Y-76308571D01*
X83060595Y-76403809D01*
X83536785Y-76499047D01*
X82203452Y-76832380D02*
X82203452Y-75832380D01*
X82203452Y-76784761D02*
X82298690Y-76832380D01*
X82489166Y-76832380D01*
X82584404Y-76784761D01*
X82632023Y-76737142D01*
X82679642Y-76641904D01*
X82679642Y-76356190D01*
X82632023Y-76260952D01*
X82584404Y-76213333D01*
X82489166Y-76165714D01*
X82298690Y-76165714D01*
X82203452Y-76213333D01*
X81346309Y-76784761D02*
X81441547Y-76832380D01*
X81632023Y-76832380D01*
X81727261Y-76784761D01*
X81774880Y-76689523D01*
X81774880Y-76308571D01*
X81727261Y-76213333D01*
X81632023Y-76165714D01*
X81441547Y-76165714D01*
X81346309Y-76213333D01*
X81298690Y-76308571D01*
X81298690Y-76403809D01*
X81774880Y-76499047D01*
X80441547Y-76832380D02*
X80441547Y-75832380D01*
X80441547Y-76784761D02*
X80536785Y-76832380D01*
X80727261Y-76832380D01*
X80822500Y-76784761D01*
X80870119Y-76737142D01*
X80917738Y-76641904D01*
X80917738Y-76356190D01*
X80870119Y-76260952D01*
X80822500Y-76213333D01*
X80727261Y-76165714D01*
X80536785Y-76165714D01*
X80441547Y-76213333D01*
X79965357Y-76737142D02*
X79917738Y-76784761D01*
X79965357Y-76832380D01*
X80012976Y-76784761D01*
X79965357Y-76737142D01*
X79965357Y-76832380D01*
X119632023Y-80084761D02*
X119489166Y-80132380D01*
X119251071Y-80132380D01*
X119155833Y-80084761D01*
X119108214Y-80037142D01*
X119060595Y-79941904D01*
X119060595Y-79846666D01*
X119108214Y-79751428D01*
X119155833Y-79703809D01*
X119251071Y-79656190D01*
X119441547Y-79608571D01*
X119536785Y-79560952D01*
X119584404Y-79513333D01*
X119632023Y-79418095D01*
X119632023Y-79322857D01*
X119584404Y-79227619D01*
X119536785Y-79180000D01*
X119441547Y-79132380D01*
X119203452Y-79132380D01*
X119060595Y-79180000D01*
X118632023Y-80132380D02*
X118632023Y-79132380D01*
X118203452Y-80132380D02*
X118203452Y-79608571D01*
X118251071Y-79513333D01*
X118346309Y-79465714D01*
X118489166Y-79465714D01*
X118584404Y-79513333D01*
X118632023Y-79560952D01*
X117298690Y-79465714D02*
X117298690Y-80132380D01*
X117727261Y-79465714D02*
X117727261Y-79989523D01*
X117679642Y-80084761D01*
X117584404Y-80132380D01*
X117441547Y-80132380D01*
X117346309Y-80084761D01*
X117298690Y-80037142D01*
X116822500Y-79465714D02*
X116822500Y-80132380D01*
X116822500Y-79560952D02*
X116774880Y-79513333D01*
X116679642Y-79465714D01*
X116536785Y-79465714D01*
X116441547Y-79513333D01*
X116393928Y-79608571D01*
X116393928Y-80132380D01*
X116060595Y-79465714D02*
X115679642Y-79465714D01*
X115917738Y-79132380D02*
X115917738Y-79989523D01*
X115870119Y-80084761D01*
X115774880Y-80132380D01*
X115679642Y-80132380D01*
X114584404Y-80132380D02*
X114584404Y-79465714D01*
X114584404Y-79656190D02*
X114536785Y-79560952D01*
X114489166Y-79513333D01*
X114393928Y-79465714D01*
X114298690Y-79465714D01*
X113584404Y-80084761D02*
X113679642Y-80132380D01*
X113870119Y-80132380D01*
X113965357Y-80084761D01*
X114012976Y-79989523D01*
X114012976Y-79608571D01*
X113965357Y-79513333D01*
X113870119Y-79465714D01*
X113679642Y-79465714D01*
X113584404Y-79513333D01*
X113536785Y-79608571D01*
X113536785Y-79703809D01*
X114012976Y-79799047D01*
X113155833Y-80084761D02*
X113060595Y-80132380D01*
X112870119Y-80132380D01*
X112774880Y-80084761D01*
X112727261Y-79989523D01*
X112727261Y-79941904D01*
X112774880Y-79846666D01*
X112870119Y-79799047D01*
X113012976Y-79799047D01*
X113108214Y-79751428D01*
X113155833Y-79656190D01*
X113155833Y-79608571D01*
X113108214Y-79513333D01*
X113012976Y-79465714D01*
X112870119Y-79465714D01*
X112774880Y-79513333D01*
X112298690Y-80132380D02*
X112298690Y-79465714D01*
X112298690Y-79132380D02*
X112346309Y-79180000D01*
X112298690Y-79227619D01*
X112251071Y-79180000D01*
X112298690Y-79132380D01*
X112298690Y-79227619D01*
X111870119Y-80084761D02*
X111774880Y-80132380D01*
X111584404Y-80132380D01*
X111489166Y-80084761D01*
X111441547Y-79989523D01*
X111441547Y-79941904D01*
X111489166Y-79846666D01*
X111584404Y-79799047D01*
X111727261Y-79799047D01*
X111822499Y-79751428D01*
X111870119Y-79656190D01*
X111870119Y-79608571D01*
X111822499Y-79513333D01*
X111727261Y-79465714D01*
X111584404Y-79465714D01*
X111489166Y-79513333D01*
X111155833Y-79465714D02*
X110774880Y-79465714D01*
X111012976Y-79132380D02*
X111012976Y-79989523D01*
X110965357Y-80084761D01*
X110870119Y-80132380D01*
X110774880Y-80132380D01*
X110298690Y-80132380D02*
X110393928Y-80084761D01*
X110441547Y-80037142D01*
X110489166Y-79941904D01*
X110489166Y-79656190D01*
X110441547Y-79560952D01*
X110393928Y-79513333D01*
X110298690Y-79465714D01*
X110155833Y-79465714D01*
X110060595Y-79513333D01*
X110012976Y-79560952D01*
X109965357Y-79656190D01*
X109965357Y-79941904D01*
X110012976Y-80037142D01*
X110060595Y-80084761D01*
X110155833Y-80132380D01*
X110298690Y-80132380D01*
X109536785Y-80132380D02*
X109536785Y-79465714D01*
X109536785Y-79656190D02*
X109489166Y-79560952D01*
X109441547Y-79513333D01*
X109346309Y-79465714D01*
X109251071Y-79465714D01*
X107727261Y-80132380D02*
X107727261Y-79608571D01*
X107774880Y-79513333D01*
X107870119Y-79465714D01*
X108060595Y-79465714D01*
X108155833Y-79513333D01*
X107727261Y-80084761D02*
X107822500Y-80132380D01*
X108060595Y-80132380D01*
X108155833Y-80084761D01*
X108203452Y-79989523D01*
X108203452Y-79894285D01*
X108155833Y-79799047D01*
X108060595Y-79751428D01*
X107822500Y-79751428D01*
X107727261Y-79703809D01*
X107251071Y-79465714D02*
X107251071Y-80132380D01*
X107251071Y-79560952D02*
X107203452Y-79513333D01*
X107108214Y-79465714D01*
X106965357Y-79465714D01*
X106870119Y-79513333D01*
X106822500Y-79608571D01*
X106822500Y-80132380D01*
X105917738Y-80132380D02*
X105917738Y-79132380D01*
X105917738Y-80084761D02*
X106012976Y-80132380D01*
X106203452Y-80132380D01*
X106298690Y-80084761D01*
X106346309Y-80037142D01*
X106393928Y-79941904D01*
X106393928Y-79656190D01*
X106346309Y-79560952D01*
X106298690Y-79513333D01*
X106203452Y-79465714D01*
X106012976Y-79465714D01*
X105917738Y-79513333D01*
X104727261Y-80084761D02*
X104632023Y-80132380D01*
X104441547Y-80132380D01*
X104346309Y-80084761D01*
X104298690Y-79989523D01*
X104298690Y-79941904D01*
X104346309Y-79846666D01*
X104441547Y-79799047D01*
X104584404Y-79799047D01*
X104679642Y-79751428D01*
X104727261Y-79656190D01*
X104727261Y-79608571D01*
X104679642Y-79513333D01*
X104584404Y-79465714D01*
X104441547Y-79465714D01*
X104346309Y-79513333D01*
X103727261Y-80132380D02*
X103822500Y-80084761D01*
X103870119Y-80037142D01*
X103917738Y-79941904D01*
X103917738Y-79656190D01*
X103870119Y-79560952D01*
X103822500Y-79513333D01*
X103727261Y-79465714D01*
X103584404Y-79465714D01*
X103489166Y-79513333D01*
X103441547Y-79560952D01*
X103393928Y-79656190D01*
X103393928Y-79941904D01*
X103441547Y-80037142D01*
X103489166Y-80084761D01*
X103584404Y-80132380D01*
X103727261Y-80132380D01*
X102822500Y-80132380D02*
X102917738Y-80084761D01*
X102965357Y-79989523D01*
X102965357Y-79132380D01*
X102012976Y-80132380D02*
X102012976Y-79132380D01*
X102012976Y-80084761D02*
X102108214Y-80132380D01*
X102298690Y-80132380D01*
X102393928Y-80084761D01*
X102441547Y-80037142D01*
X102489166Y-79941904D01*
X102489166Y-79656190D01*
X102441547Y-79560952D01*
X102393928Y-79513333D01*
X102298690Y-79465714D01*
X102108214Y-79465714D01*
X102012976Y-79513333D01*
X101155833Y-80084761D02*
X101251071Y-80132380D01*
X101441547Y-80132380D01*
X101536785Y-80084761D01*
X101584404Y-79989523D01*
X101584404Y-79608571D01*
X101536785Y-79513333D01*
X101441547Y-79465714D01*
X101251071Y-79465714D01*
X101155833Y-79513333D01*
X101108214Y-79608571D01*
X101108214Y-79703809D01*
X101584404Y-79799047D01*
X100679642Y-80132380D02*
X100679642Y-79465714D01*
X100679642Y-79656190D02*
X100632023Y-79560952D01*
X100584404Y-79513333D01*
X100489166Y-79465714D01*
X100393928Y-79465714D01*
X99298690Y-79465714D02*
X99298690Y-80465714D01*
X99298690Y-79513333D02*
X99203452Y-79465714D01*
X99012976Y-79465714D01*
X98917738Y-79513333D01*
X98870119Y-79560952D01*
X98822500Y-79656190D01*
X98822500Y-79941904D01*
X98870119Y-80037142D01*
X98917738Y-80084761D01*
X99012976Y-80132380D01*
X99203452Y-80132380D01*
X99298690Y-80084761D01*
X97965357Y-80132380D02*
X97965357Y-79608571D01*
X98012976Y-79513333D01*
X98108214Y-79465714D01*
X98298690Y-79465714D01*
X98393928Y-79513333D01*
X97965357Y-80084761D02*
X98060595Y-80132380D01*
X98298690Y-80132380D01*
X98393928Y-80084761D01*
X98441547Y-79989523D01*
X98441547Y-79894285D01*
X98393928Y-79799047D01*
X98298690Y-79751428D01*
X98060595Y-79751428D01*
X97965357Y-79703809D01*
X97060595Y-80132380D02*
X97060595Y-79132380D01*
X97060595Y-80084761D02*
X97155833Y-80132380D01*
X97346309Y-80132380D01*
X97441547Y-80084761D01*
X97489166Y-80037142D01*
X97536785Y-79941904D01*
X97536785Y-79656190D01*
X97489166Y-79560952D01*
X97441547Y-79513333D01*
X97346309Y-79465714D01*
X97155833Y-79465714D01*
X97060595Y-79513333D01*
X96632023Y-80084761D02*
X96536785Y-80132380D01*
X96346309Y-80132380D01*
X96251071Y-80084761D01*
X96203452Y-79989523D01*
X96203452Y-79941904D01*
X96251071Y-79846666D01*
X96346309Y-79799047D01*
X96489166Y-79799047D01*
X96584404Y-79751428D01*
X96632023Y-79656190D01*
X96632023Y-79608571D01*
X96584404Y-79513333D01*
X96489166Y-79465714D01*
X96346309Y-79465714D01*
X96251071Y-79513333D01*
X95155833Y-79465714D02*
X94774880Y-79465714D01*
X95012976Y-79132380D02*
X95012976Y-79989523D01*
X94965357Y-80084761D01*
X94870119Y-80132380D01*
X94774880Y-80132380D01*
X94298690Y-80132380D02*
X94393928Y-80084761D01*
X94441547Y-80037142D01*
X94489166Y-79941904D01*
X94489166Y-79656190D01*
X94441547Y-79560952D01*
X94393928Y-79513333D01*
X94298690Y-79465714D01*
X94155833Y-79465714D01*
X94060595Y-79513333D01*
X94012976Y-79560952D01*
X93965357Y-79656190D01*
X93965357Y-79941904D01*
X94012976Y-80037142D01*
X94060595Y-80084761D01*
X94155833Y-80132380D01*
X94298690Y-80132380D01*
X92774880Y-80132380D02*
X92774880Y-79465714D01*
X92774880Y-79560952D02*
X92727261Y-79513333D01*
X92632023Y-79465714D01*
X92489166Y-79465714D01*
X92393928Y-79513333D01*
X92346309Y-79608571D01*
X92346309Y-80132380D01*
X92346309Y-79608571D02*
X92298690Y-79513333D01*
X92203452Y-79465714D01*
X92060595Y-79465714D01*
X91965357Y-79513333D01*
X91917738Y-79608571D01*
X91917738Y-80132380D01*
X91060595Y-80084761D02*
X91155833Y-80132380D01*
X91346309Y-80132380D01*
X91441547Y-80084761D01*
X91489166Y-79989523D01*
X91489166Y-79608571D01*
X91441547Y-79513333D01*
X91346309Y-79465714D01*
X91155833Y-79465714D01*
X91060595Y-79513333D01*
X91012976Y-79608571D01*
X91012976Y-79703809D01*
X91489166Y-79799047D01*
X90155833Y-80132380D02*
X90155833Y-79608571D01*
X90203452Y-79513333D01*
X90298690Y-79465714D01*
X90489166Y-79465714D01*
X90584404Y-79513333D01*
X90155833Y-80084761D02*
X90251071Y-80132380D01*
X90489166Y-80132380D01*
X90584404Y-80084761D01*
X90632023Y-79989523D01*
X90632023Y-79894285D01*
X90584404Y-79799047D01*
X90489166Y-79751428D01*
X90251071Y-79751428D01*
X90155833Y-79703809D01*
X89727261Y-80084761D02*
X89632023Y-80132380D01*
X89441547Y-80132380D01*
X89346309Y-80084761D01*
X89298690Y-79989523D01*
X89298690Y-79941904D01*
X89346309Y-79846666D01*
X89441547Y-79799047D01*
X89584404Y-79799047D01*
X89679642Y-79751428D01*
X89727261Y-79656190D01*
X89727261Y-79608571D01*
X89679642Y-79513333D01*
X89584404Y-79465714D01*
X89441547Y-79465714D01*
X89346309Y-79513333D01*
X88441547Y-79465714D02*
X88441547Y-80132380D01*
X88870119Y-79465714D02*
X88870119Y-79989523D01*
X88822500Y-80084761D01*
X88727261Y-80132380D01*
X88584404Y-80132380D01*
X88489166Y-80084761D01*
X88441547Y-80037142D01*
X87965357Y-80132380D02*
X87965357Y-79465714D01*
X87965357Y-79656190D02*
X87917738Y-79560952D01*
X87870119Y-79513333D01*
X87774880Y-79465714D01*
X87679642Y-79465714D01*
X86965357Y-80084761D02*
X87060595Y-80132380D01*
X87251071Y-80132380D01*
X87346309Y-80084761D01*
X87393928Y-79989523D01*
X87393928Y-79608571D01*
X87346309Y-79513333D01*
X87251071Y-79465714D01*
X87060595Y-79465714D01*
X86965357Y-79513333D01*
X86917738Y-79608571D01*
X86917738Y-79703809D01*
X87393928Y-79799047D01*
X85298690Y-80084761D02*
X85393928Y-80132380D01*
X85584404Y-80132380D01*
X85679642Y-80084761D01*
X85727261Y-80037142D01*
X85774880Y-79941904D01*
X85774880Y-79656190D01*
X85727261Y-79560952D01*
X85679642Y-79513333D01*
X85584404Y-79465714D01*
X85393928Y-79465714D01*
X85298690Y-79513333D01*
X84441547Y-79465714D02*
X84441547Y-80132380D01*
X84870119Y-79465714D02*
X84870119Y-79989523D01*
X84822500Y-80084761D01*
X84727261Y-80132380D01*
X84584404Y-80132380D01*
X84489166Y-80084761D01*
X84441547Y-80037142D01*
X83965357Y-80132380D02*
X83965357Y-79465714D01*
X83965357Y-79656190D02*
X83917738Y-79560952D01*
X83870119Y-79513333D01*
X83774880Y-79465714D01*
X83679642Y-79465714D01*
X83346309Y-80132380D02*
X83346309Y-79465714D01*
X83346309Y-79656190D02*
X83298690Y-79560952D01*
X83251071Y-79513333D01*
X83155833Y-79465714D01*
X83060595Y-79465714D01*
X82346309Y-80084761D02*
X82441547Y-80132380D01*
X82632023Y-80132380D01*
X82727261Y-80084761D01*
X82774880Y-79989523D01*
X82774880Y-79608571D01*
X82727261Y-79513333D01*
X82632023Y-79465714D01*
X82441547Y-79465714D01*
X82346309Y-79513333D01*
X82298690Y-79608571D01*
X82298690Y-79703809D01*
X82774880Y-79799047D01*
X81870119Y-79465714D02*
X81870119Y-80132380D01*
X81870119Y-79560952D02*
X81822500Y-79513333D01*
X81727261Y-79465714D01*
X81584404Y-79465714D01*
X81489166Y-79513333D01*
X81441547Y-79608571D01*
X81441547Y-80132380D01*
X81108214Y-79465714D02*
X80727261Y-79465714D01*
X80965357Y-79132380D02*
X80965357Y-79989523D01*
X80917738Y-80084761D01*
X80822500Y-80132380D01*
X80727261Y-80132380D01*
X119441547Y-81782380D02*
X119536785Y-81734761D01*
X119584404Y-81687142D01*
X119632023Y-81591904D01*
X119632023Y-81306190D01*
X119584404Y-81210952D01*
X119536785Y-81163333D01*
X119441547Y-81115714D01*
X119298690Y-81115714D01*
X119203452Y-81163333D01*
X119155833Y-81210952D01*
X119108214Y-81306190D01*
X119108214Y-81591904D01*
X119155833Y-81687142D01*
X119203452Y-81734761D01*
X119298690Y-81782380D01*
X119441547Y-81782380D01*
X118822500Y-81115714D02*
X118441547Y-81115714D01*
X118679642Y-81782380D02*
X118679642Y-80925238D01*
X118632023Y-80830000D01*
X118536785Y-80782380D01*
X118441547Y-80782380D01*
X116965357Y-81734761D02*
X117060595Y-81782380D01*
X117251071Y-81782380D01*
X117346309Y-81734761D01*
X117393928Y-81639523D01*
X117393928Y-81258571D01*
X117346309Y-81163333D01*
X117251071Y-81115714D01*
X117060595Y-81115714D01*
X116965357Y-81163333D01*
X116917738Y-81258571D01*
X116917738Y-81353809D01*
X117393928Y-81449047D01*
X116060595Y-81782380D02*
X116060595Y-81258571D01*
X116108214Y-81163333D01*
X116203452Y-81115714D01*
X116393928Y-81115714D01*
X116489166Y-81163333D01*
X116060595Y-81734761D02*
X116155833Y-81782380D01*
X116393928Y-81782380D01*
X116489166Y-81734761D01*
X116536785Y-81639523D01*
X116536785Y-81544285D01*
X116489166Y-81449047D01*
X116393928Y-81401428D01*
X116155833Y-81401428D01*
X116060595Y-81353809D01*
X115155833Y-81734761D02*
X115251071Y-81782380D01*
X115441547Y-81782380D01*
X115536785Y-81734761D01*
X115584404Y-81687142D01*
X115632023Y-81591904D01*
X115632023Y-81306190D01*
X115584404Y-81210952D01*
X115536785Y-81163333D01*
X115441547Y-81115714D01*
X115251071Y-81115714D01*
X115155833Y-81163333D01*
X114727261Y-81782380D02*
X114727261Y-80782380D01*
X114298690Y-81782380D02*
X114298690Y-81258571D01*
X114346309Y-81163333D01*
X114441547Y-81115714D01*
X114584404Y-81115714D01*
X114679642Y-81163333D01*
X114727261Y-81210952D01*
X113060595Y-81782380D02*
X113060595Y-81115714D01*
X113060595Y-80782380D02*
X113108214Y-80830000D01*
X113060595Y-80877619D01*
X113012976Y-80830000D01*
X113060595Y-80782380D01*
X113060595Y-80877619D01*
X112584404Y-81115714D02*
X112584404Y-81782380D01*
X112584404Y-81210952D02*
X112536785Y-81163333D01*
X112441547Y-81115714D01*
X112298690Y-81115714D01*
X112203452Y-81163333D01*
X112155833Y-81258571D01*
X112155833Y-81782380D01*
X111251071Y-81782380D02*
X111251071Y-80782380D01*
X111251071Y-81734761D02*
X111346309Y-81782380D01*
X111536785Y-81782380D01*
X111632023Y-81734761D01*
X111679642Y-81687142D01*
X111727261Y-81591904D01*
X111727261Y-81306190D01*
X111679642Y-81210952D01*
X111632023Y-81163333D01*
X111536785Y-81115714D01*
X111346309Y-81115714D01*
X111251071Y-81163333D01*
X110774880Y-81782380D02*
X110774880Y-81115714D01*
X110774880Y-80782380D02*
X110822500Y-80830000D01*
X110774880Y-80877619D01*
X110727261Y-80830000D01*
X110774880Y-80782380D01*
X110774880Y-80877619D01*
X110393928Y-81115714D02*
X110155833Y-81782380D01*
X109917738Y-81115714D01*
X109536785Y-81782380D02*
X109536785Y-81115714D01*
X109536785Y-80782380D02*
X109584404Y-80830000D01*
X109536785Y-80877619D01*
X109489166Y-80830000D01*
X109536785Y-80782380D01*
X109536785Y-80877619D01*
X108632023Y-81782380D02*
X108632023Y-80782380D01*
X108632023Y-81734761D02*
X108727261Y-81782380D01*
X108917738Y-81782380D01*
X109012976Y-81734761D01*
X109060595Y-81687142D01*
X109108214Y-81591904D01*
X109108214Y-81306190D01*
X109060595Y-81210952D01*
X109012976Y-81163333D01*
X108917738Y-81115714D01*
X108727261Y-81115714D01*
X108632023Y-81163333D01*
X107727261Y-81115714D02*
X107727261Y-81782380D01*
X108155833Y-81115714D02*
X108155833Y-81639523D01*
X108108214Y-81734761D01*
X108012976Y-81782380D01*
X107870119Y-81782380D01*
X107774880Y-81734761D01*
X107727261Y-81687142D01*
X106822500Y-81782380D02*
X106822500Y-81258571D01*
X106870119Y-81163333D01*
X106965357Y-81115714D01*
X107155833Y-81115714D01*
X107251071Y-81163333D01*
X106822500Y-81734761D02*
X106917738Y-81782380D01*
X107155833Y-81782380D01*
X107251071Y-81734761D01*
X107298690Y-81639523D01*
X107298690Y-81544285D01*
X107251071Y-81449047D01*
X107155833Y-81401428D01*
X106917738Y-81401428D01*
X106822500Y-81353809D01*
X106203452Y-81782380D02*
X106298690Y-81734761D01*
X106346309Y-81639523D01*
X106346309Y-80782380D01*
X105108214Y-81734761D02*
X105012976Y-81782380D01*
X104822500Y-81782380D01*
X104727261Y-81734761D01*
X104679642Y-81639523D01*
X104679642Y-81591904D01*
X104727261Y-81496666D01*
X104822500Y-81449047D01*
X104965357Y-81449047D01*
X105060595Y-81401428D01*
X105108214Y-81306190D01*
X105108214Y-81258571D01*
X105060595Y-81163333D01*
X104965357Y-81115714D01*
X104822500Y-81115714D01*
X104727261Y-81163333D01*
X103870119Y-81734761D02*
X103965357Y-81782380D01*
X104155833Y-81782380D01*
X104251071Y-81734761D01*
X104298690Y-81639523D01*
X104298690Y-81258571D01*
X104251071Y-81163333D01*
X104155833Y-81115714D01*
X103965357Y-81115714D01*
X103870119Y-81163333D01*
X103822500Y-81258571D01*
X103822500Y-81353809D01*
X104298690Y-81449047D01*
X103393928Y-81782380D02*
X103393928Y-81115714D01*
X103393928Y-81306190D02*
X103346309Y-81210952D01*
X103298690Y-81163333D01*
X103203452Y-81115714D01*
X103108214Y-81115714D01*
X102870119Y-81115714D02*
X102632023Y-81782380D01*
X102393928Y-81115714D01*
X101870119Y-81782380D02*
X101965357Y-81734761D01*
X102012976Y-81687142D01*
X102060595Y-81591904D01*
X102060595Y-81306190D01*
X102012976Y-81210952D01*
X101965357Y-81163333D01*
X101870119Y-81115714D01*
X101727261Y-81115714D01*
X101632023Y-81163333D01*
X101584404Y-81210952D01*
X101536785Y-81306190D01*
X101536785Y-81591904D01*
X101584404Y-81687142D01*
X101632023Y-81734761D01*
X101727261Y-81782380D01*
X101870119Y-81782380D01*
X100346309Y-81782380D02*
X100346309Y-80782380D01*
X100346309Y-81163333D02*
X100251071Y-81115714D01*
X100060595Y-81115714D01*
X99965357Y-81163333D01*
X99917738Y-81210952D01*
X99870119Y-81306190D01*
X99870119Y-81591904D01*
X99917738Y-81687142D01*
X99965357Y-81734761D01*
X100060595Y-81782380D01*
X100251071Y-81782380D01*
X100346309Y-81734761D01*
X99536785Y-81115714D02*
X99298690Y-81782380D01*
X99060595Y-81115714D02*
X99298690Y-81782380D01*
X99393928Y-82020476D01*
X99441547Y-82068095D01*
X99536785Y-82115714D01*
X97489166Y-81782380D02*
X97489166Y-81258571D01*
X97536785Y-81163333D01*
X97632023Y-81115714D01*
X97822500Y-81115714D01*
X97917738Y-81163333D01*
X97489166Y-81734761D02*
X97584404Y-81782380D01*
X97822500Y-81782380D01*
X97917738Y-81734761D01*
X97965357Y-81639523D01*
X97965357Y-81544285D01*
X97917738Y-81449047D01*
X97822500Y-81401428D01*
X97584404Y-81401428D01*
X97489166Y-81353809D01*
X96584404Y-81782380D02*
X96584404Y-80782380D01*
X96584404Y-81734761D02*
X96679642Y-81782380D01*
X96870119Y-81782380D01*
X96965357Y-81734761D01*
X97012976Y-81687142D01*
X97060595Y-81591904D01*
X97060595Y-81306190D01*
X97012976Y-81210952D01*
X96965357Y-81163333D01*
X96870119Y-81115714D01*
X96679642Y-81115714D01*
X96584404Y-81163333D01*
X95679642Y-81782380D02*
X95679642Y-80782380D01*
X95679642Y-81734761D02*
X95774880Y-81782380D01*
X95965357Y-81782380D01*
X96060595Y-81734761D01*
X96108214Y-81687142D01*
X96155833Y-81591904D01*
X96155833Y-81306190D01*
X96108214Y-81210952D01*
X96060595Y-81163333D01*
X95965357Y-81115714D01*
X95774880Y-81115714D01*
X95679642Y-81163333D01*
X95203452Y-81782380D02*
X95203452Y-81115714D01*
X95203452Y-80782380D02*
X95251071Y-80830000D01*
X95203452Y-80877619D01*
X95155833Y-80830000D01*
X95203452Y-80782380D01*
X95203452Y-80877619D01*
X94870119Y-81115714D02*
X94489166Y-81115714D01*
X94727261Y-80782380D02*
X94727261Y-81639523D01*
X94679642Y-81734761D01*
X94584404Y-81782380D01*
X94489166Y-81782380D01*
X94155833Y-81782380D02*
X94155833Y-81115714D01*
X94155833Y-80782380D02*
X94203452Y-80830000D01*
X94155833Y-80877619D01*
X94108214Y-80830000D01*
X94155833Y-80782380D01*
X94155833Y-80877619D01*
X93536785Y-81782380D02*
X93632023Y-81734761D01*
X93679642Y-81687142D01*
X93727261Y-81591904D01*
X93727261Y-81306190D01*
X93679642Y-81210952D01*
X93632023Y-81163333D01*
X93536785Y-81115714D01*
X93393928Y-81115714D01*
X93298690Y-81163333D01*
X93251071Y-81210952D01*
X93203452Y-81306190D01*
X93203452Y-81591904D01*
X93251071Y-81687142D01*
X93298690Y-81734761D01*
X93393928Y-81782380D01*
X93536785Y-81782380D01*
X92774880Y-81115714D02*
X92774880Y-81782380D01*
X92774880Y-81210952D02*
X92727261Y-81163333D01*
X92632023Y-81115714D01*
X92489166Y-81115714D01*
X92393928Y-81163333D01*
X92346309Y-81258571D01*
X92346309Y-81782380D01*
X91441547Y-81782380D02*
X91441547Y-81258571D01*
X91489166Y-81163333D01*
X91584404Y-81115714D01*
X91774880Y-81115714D01*
X91870119Y-81163333D01*
X91441547Y-81734761D02*
X91536785Y-81782380D01*
X91774880Y-81782380D01*
X91870119Y-81734761D01*
X91917738Y-81639523D01*
X91917738Y-81544285D01*
X91870119Y-81449047D01*
X91774880Y-81401428D01*
X91536785Y-81401428D01*
X91441547Y-81353809D01*
X90822500Y-81782380D02*
X90917738Y-81734761D01*
X90965357Y-81639523D01*
X90965357Y-80782380D01*
X89679642Y-81782380D02*
X89679642Y-80782380D01*
X89679642Y-81163333D02*
X89584404Y-81115714D01*
X89393928Y-81115714D01*
X89298690Y-81163333D01*
X89251071Y-81210952D01*
X89203452Y-81306190D01*
X89203452Y-81591904D01*
X89251071Y-81687142D01*
X89298690Y-81734761D01*
X89393928Y-81782380D01*
X89584404Y-81782380D01*
X89679642Y-81734761D01*
X88632023Y-81782380D02*
X88727261Y-81734761D01*
X88774880Y-81687142D01*
X88822500Y-81591904D01*
X88822500Y-81306190D01*
X88774880Y-81210952D01*
X88727261Y-81163333D01*
X88632023Y-81115714D01*
X88489166Y-81115714D01*
X88393928Y-81163333D01*
X88346309Y-81210952D01*
X88298690Y-81306190D01*
X88298690Y-81591904D01*
X88346309Y-81687142D01*
X88393928Y-81734761D01*
X88489166Y-81782380D01*
X88632023Y-81782380D01*
X87441547Y-81782380D02*
X87441547Y-81258571D01*
X87489166Y-81163333D01*
X87584404Y-81115714D01*
X87774880Y-81115714D01*
X87870119Y-81163333D01*
X87441547Y-81734761D02*
X87536785Y-81782380D01*
X87774880Y-81782380D01*
X87870119Y-81734761D01*
X87917738Y-81639523D01*
X87917738Y-81544285D01*
X87870119Y-81449047D01*
X87774880Y-81401428D01*
X87536785Y-81401428D01*
X87441547Y-81353809D01*
X86965357Y-81782380D02*
X86965357Y-81115714D01*
X86965357Y-81306190D02*
X86917738Y-81210952D01*
X86870119Y-81163333D01*
X86774880Y-81115714D01*
X86679642Y-81115714D01*
X85917738Y-81782380D02*
X85917738Y-80782380D01*
X85917738Y-81734761D02*
X86012976Y-81782380D01*
X86203452Y-81782380D01*
X86298690Y-81734761D01*
X86346309Y-81687142D01*
X86393928Y-81591904D01*
X86393928Y-81306190D01*
X86346309Y-81210952D01*
X86298690Y-81163333D01*
X86203452Y-81115714D01*
X86012976Y-81115714D01*
X85917738Y-81163333D01*
X84393928Y-82163333D02*
X84441547Y-82115714D01*
X84536785Y-81972857D01*
X84584404Y-81877619D01*
X84632023Y-81734761D01*
X84679642Y-81496666D01*
X84679642Y-81306190D01*
X84632023Y-81068095D01*
X84584404Y-80925238D01*
X84536785Y-80830000D01*
X84441547Y-80687142D01*
X84393928Y-80639523D01*
X84012976Y-81782380D02*
X84012976Y-80782380D01*
X83536785Y-81782380D02*
X83536785Y-80782380D01*
X82965357Y-81782380D01*
X82965357Y-80782380D01*
X82536785Y-81496666D02*
X82060595Y-81496666D01*
X82632023Y-81782380D02*
X82298690Y-80782380D01*
X81965357Y-81782380D01*
X81727261Y-80782380D02*
X81108214Y-80782380D01*
X81441547Y-81163333D01*
X81298690Y-81163333D01*
X81203452Y-81210952D01*
X81155833Y-81258571D01*
X81108214Y-81353809D01*
X81108214Y-81591904D01*
X81155833Y-81687142D01*
X81203452Y-81734761D01*
X81298690Y-81782380D01*
X81584404Y-81782380D01*
X81679642Y-81734761D01*
X81727261Y-81687142D01*
X80727261Y-80877619D02*
X80679642Y-80830000D01*
X80584404Y-80782380D01*
X80346309Y-80782380D01*
X80251071Y-80830000D01*
X80203452Y-80877619D01*
X80155833Y-80972857D01*
X80155833Y-81068095D01*
X80203452Y-81210952D01*
X80774880Y-81782380D01*
X80155833Y-81782380D01*
X79774880Y-80877619D02*
X79727261Y-80830000D01*
X79632023Y-80782380D01*
X79393928Y-80782380D01*
X79298690Y-80830000D01*
X79251071Y-80877619D01*
X79203452Y-80972857D01*
X79203452Y-81068095D01*
X79251071Y-81210952D01*
X79822500Y-81782380D01*
X79203452Y-81782380D01*
X78251071Y-81782380D02*
X78822500Y-81782380D01*
X78536785Y-81782380D02*
X78536785Y-80782380D01*
X78632023Y-80925238D01*
X78727261Y-81020476D01*
X78822500Y-81068095D01*
X77917738Y-82163333D02*
X77870119Y-82115714D01*
X77774880Y-81972857D01*
X77727261Y-81877619D01*
X77679642Y-81734761D01*
X77632023Y-81496666D01*
X77632023Y-81306190D01*
X77679642Y-81068095D01*
X77727261Y-80925238D01*
X77774880Y-80830000D01*
X77870119Y-80687142D01*
X77917738Y-80639523D01*
X77155833Y-81687142D02*
X77108214Y-81734761D01*
X77155833Y-81782380D01*
X77203452Y-81734761D01*
X77155833Y-81687142D01*
X77155833Y-81782380D01*
X119298690Y-85463333D02*
X119346309Y-85415714D01*
X119441547Y-85272857D01*
X119489166Y-85177619D01*
X119536785Y-85034761D01*
X119584404Y-84796666D01*
X119584404Y-84606190D01*
X119536785Y-84368095D01*
X119489166Y-84225238D01*
X119441547Y-84130000D01*
X119346309Y-83987142D01*
X119298690Y-83939523D01*
X118346309Y-84987142D02*
X118393928Y-85034761D01*
X118536785Y-85082380D01*
X118632023Y-85082380D01*
X118774880Y-85034761D01*
X118870119Y-84939523D01*
X118917738Y-84844285D01*
X118965357Y-84653809D01*
X118965357Y-84510952D01*
X118917738Y-84320476D01*
X118870119Y-84225238D01*
X118774880Y-84130000D01*
X118632023Y-84082380D01*
X118536785Y-84082380D01*
X118393928Y-84130000D01*
X118346309Y-84177619D01*
X118012976Y-85463333D02*
X117965357Y-85415714D01*
X117870119Y-85272857D01*
X117822500Y-85177619D01*
X117774880Y-85034761D01*
X117727261Y-84796666D01*
X117727261Y-84606190D01*
X117774880Y-84368095D01*
X117822500Y-84225238D01*
X117870119Y-84130000D01*
X117965357Y-83987142D01*
X118012976Y-83939523D01*
X116536785Y-84177619D02*
X116489166Y-84130000D01*
X116393928Y-84082380D01*
X116155833Y-84082380D01*
X116060595Y-84130000D01*
X116012976Y-84177619D01*
X115965357Y-84272857D01*
X115965357Y-84368095D01*
X116012976Y-84510952D01*
X116584404Y-85082380D01*
X115965357Y-85082380D01*
X115346309Y-84082380D02*
X115251071Y-84082380D01*
X115155833Y-84130000D01*
X115108214Y-84177619D01*
X115060595Y-84272857D01*
X115012976Y-84463333D01*
X115012976Y-84701428D01*
X115060595Y-84891904D01*
X115108214Y-84987142D01*
X115155833Y-85034761D01*
X115251071Y-85082380D01*
X115346309Y-85082380D01*
X115441547Y-85034761D01*
X115489166Y-84987142D01*
X115536785Y-84891904D01*
X115584404Y-84701428D01*
X115584404Y-84463333D01*
X115536785Y-84272857D01*
X115489166Y-84177619D01*
X115441547Y-84130000D01*
X115346309Y-84082380D01*
X114060595Y-85082380D02*
X114632023Y-85082380D01*
X114346309Y-85082380D02*
X114346309Y-84082380D01*
X114441547Y-84225238D01*
X114536785Y-84320476D01*
X114632023Y-84368095D01*
X113584404Y-85082380D02*
X113393928Y-85082380D01*
X113298690Y-85034761D01*
X113251071Y-84987142D01*
X113155833Y-84844285D01*
X113108214Y-84653809D01*
X113108214Y-84272857D01*
X113155833Y-84177619D01*
X113203452Y-84130000D01*
X113298690Y-84082380D01*
X113489166Y-84082380D01*
X113584404Y-84130000D01*
X113632023Y-84177619D01*
X113679642Y-84272857D01*
X113679642Y-84510952D01*
X113632023Y-84606190D01*
X113584404Y-84653809D01*
X113489166Y-84701428D01*
X113298690Y-84701428D01*
X113203452Y-84653809D01*
X113155833Y-84606190D01*
X113108214Y-84510952D01*
X111917738Y-85082380D02*
X111917738Y-84082380D01*
X111917738Y-84463333D02*
X111822500Y-84415714D01*
X111632023Y-84415714D01*
X111536785Y-84463333D01*
X111489166Y-84510952D01*
X111441547Y-84606190D01*
X111441547Y-84891904D01*
X111489166Y-84987142D01*
X111536785Y-85034761D01*
X111632023Y-85082380D01*
X111822500Y-85082380D01*
X111917738Y-85034761D01*
X111108214Y-84415714D02*
X110870119Y-85082380D01*
X110632023Y-84415714D02*
X110870119Y-85082380D01*
X110965357Y-85320476D01*
X111012976Y-85368095D01*
X111108214Y-85415714D01*
X109489166Y-85082380D02*
X109489166Y-84082380D01*
X109108214Y-84082380D01*
X109012976Y-84130000D01*
X108965357Y-84177619D01*
X108917738Y-84272857D01*
X108917738Y-84415714D01*
X108965357Y-84510952D01*
X109012976Y-84558571D01*
X109108214Y-84606190D01*
X109489166Y-84606190D01*
X108060595Y-85082380D02*
X108060595Y-84558571D01*
X108108214Y-84463333D01*
X108203452Y-84415714D01*
X108393928Y-84415714D01*
X108489166Y-84463333D01*
X108060595Y-85034761D02*
X108155833Y-85082380D01*
X108393928Y-85082380D01*
X108489166Y-85034761D01*
X108536785Y-84939523D01*
X108536785Y-84844285D01*
X108489166Y-84749047D01*
X108393928Y-84701428D01*
X108155833Y-84701428D01*
X108060595Y-84653809D01*
X107727261Y-84415714D02*
X107346309Y-84415714D01*
X107584404Y-84082380D02*
X107584404Y-84939523D01*
X107536785Y-85034761D01*
X107441547Y-85082380D01*
X107346309Y-85082380D01*
X107012976Y-85082380D02*
X107012976Y-84415714D01*
X107012976Y-84606190D02*
X106965357Y-84510952D01*
X106917738Y-84463333D01*
X106822500Y-84415714D01*
X106727261Y-84415714D01*
X106393928Y-85082380D02*
X106393928Y-84415714D01*
X106393928Y-84082380D02*
X106441547Y-84130000D01*
X106393928Y-84177619D01*
X106346309Y-84130000D01*
X106393928Y-84082380D01*
X106393928Y-84177619D01*
X105489166Y-85034761D02*
X105584404Y-85082380D01*
X105774880Y-85082380D01*
X105870119Y-85034761D01*
X105917738Y-84987142D01*
X105965357Y-84891904D01*
X105965357Y-84606190D01*
X105917738Y-84510952D01*
X105870119Y-84463333D01*
X105774880Y-84415714D01*
X105584404Y-84415714D01*
X105489166Y-84463333D01*
X105060595Y-85082380D02*
X105060595Y-84082380D01*
X104965357Y-84701428D02*
X104679642Y-85082380D01*
X104679642Y-84415714D02*
X105060595Y-84796666D01*
X103584404Y-84082380D02*
X103346309Y-85082380D01*
X103155833Y-84368095D01*
X102965357Y-85082380D01*
X102727261Y-84082380D01*
X101965357Y-85034761D02*
X102060595Y-85082380D01*
X102251071Y-85082380D01*
X102346309Y-85034761D01*
X102393928Y-84939523D01*
X102393928Y-84558571D01*
X102346309Y-84463333D01*
X102251071Y-84415714D01*
X102060595Y-84415714D01*
X101965357Y-84463333D01*
X101917738Y-84558571D01*
X101917738Y-84653809D01*
X102393928Y-84749047D01*
X101489166Y-85082380D02*
X101489166Y-84082380D01*
X101489166Y-84463333D02*
X101393928Y-84415714D01*
X101203452Y-84415714D01*
X101108214Y-84463333D01*
X101060595Y-84510952D01*
X101012976Y-84606190D01*
X101012976Y-84891904D01*
X101060595Y-84987142D01*
X101108214Y-85034761D01*
X101203452Y-85082380D01*
X101393928Y-85082380D01*
X101489166Y-85034761D01*
X100203452Y-85034761D02*
X100298690Y-85082380D01*
X100489166Y-85082380D01*
X100584404Y-85034761D01*
X100632023Y-84939523D01*
X100632023Y-84558571D01*
X100584404Y-84463333D01*
X100489166Y-84415714D01*
X100298690Y-84415714D01*
X100203452Y-84463333D01*
X100155833Y-84558571D01*
X100155833Y-84653809D01*
X100632023Y-84749047D01*
X99727261Y-85082380D02*
X99727261Y-84415714D01*
X99727261Y-84606190D02*
X99679642Y-84510952D01*
X99632023Y-84463333D01*
X99536785Y-84415714D01*
X99441547Y-84415714D01*
X98441547Y-84415714D02*
X98251071Y-85082380D01*
X98060595Y-84606190D01*
X97870119Y-85082380D01*
X97679642Y-84415714D01*
X97393928Y-84415714D02*
X97203452Y-85082380D01*
X97012976Y-84606190D01*
X96822500Y-85082380D01*
X96632023Y-84415714D01*
X96346309Y-84415714D02*
X96155833Y-85082380D01*
X95965357Y-84606190D01*
X95774880Y-85082380D01*
X95584404Y-84415714D01*
X95203452Y-84987142D02*
X95155833Y-85034761D01*
X95203452Y-85082380D01*
X95251071Y-85034761D01*
X95203452Y-84987142D01*
X95203452Y-85082380D01*
X94822500Y-84415714D02*
X94632023Y-85082380D01*
X94441547Y-84606190D01*
X94251071Y-85082380D01*
X94060595Y-84415714D01*
X93298690Y-85034761D02*
X93393928Y-85082380D01*
X93584404Y-85082380D01*
X93679642Y-85034761D01*
X93727261Y-84939523D01*
X93727261Y-84558571D01*
X93679642Y-84463333D01*
X93584404Y-84415714D01*
X93393928Y-84415714D01*
X93298690Y-84463333D01*
X93251071Y-84558571D01*
X93251071Y-84653809D01*
X93727261Y-84749047D01*
X92822500Y-85082380D02*
X92822500Y-84082380D01*
X92822500Y-84463333D02*
X92727261Y-84415714D01*
X92536785Y-84415714D01*
X92441547Y-84463333D01*
X92393928Y-84510952D01*
X92346309Y-84606190D01*
X92346309Y-84891904D01*
X92393928Y-84987142D01*
X92441547Y-85034761D01*
X92536785Y-85082380D01*
X92727261Y-85082380D01*
X92822500Y-85034761D01*
X91536785Y-85034761D02*
X91632023Y-85082380D01*
X91822500Y-85082380D01*
X91917738Y-85034761D01*
X91965357Y-84939523D01*
X91965357Y-84558571D01*
X91917738Y-84463333D01*
X91822500Y-84415714D01*
X91632023Y-84415714D01*
X91536785Y-84463333D01*
X91489166Y-84558571D01*
X91489166Y-84653809D01*
X91965357Y-84749047D01*
X91060595Y-85082380D02*
X91060595Y-84415714D01*
X91060595Y-84606190D02*
X91012976Y-84510952D01*
X90965357Y-84463333D01*
X90870119Y-84415714D01*
X90774880Y-84415714D01*
X90441547Y-84415714D02*
X90441547Y-85415714D01*
X90441547Y-84463333D02*
X90346309Y-84415714D01*
X90155833Y-84415714D01*
X90060595Y-84463333D01*
X90012976Y-84510952D01*
X89965357Y-84606190D01*
X89965357Y-84891904D01*
X90012976Y-84987142D01*
X90060595Y-85034761D01*
X90155833Y-85082380D01*
X90346309Y-85082380D01*
X90441547Y-85034761D01*
X89108214Y-85082380D02*
X89108214Y-84558571D01*
X89155833Y-84463333D01*
X89251071Y-84415714D01*
X89441547Y-84415714D01*
X89536785Y-84463333D01*
X89108214Y-85034761D02*
X89203452Y-85082380D01*
X89441547Y-85082380D01*
X89536785Y-85034761D01*
X89584404Y-84939523D01*
X89584404Y-84844285D01*
X89536785Y-84749047D01*
X89441547Y-84701428D01*
X89203452Y-84701428D01*
X89108214Y-84653809D01*
X88774880Y-84415714D02*
X88393928Y-84415714D01*
X88632023Y-84082380D02*
X88632023Y-84939523D01*
X88584404Y-85034761D01*
X88489166Y-85082380D01*
X88393928Y-85082380D01*
X88060595Y-85082380D02*
X88060595Y-84415714D01*
X88060595Y-84606190D02*
X88012976Y-84510952D01*
X87965357Y-84463333D01*
X87870119Y-84415714D01*
X87774880Y-84415714D01*
X87441547Y-85082380D02*
X87441547Y-84415714D01*
X87441547Y-84082380D02*
X87489166Y-84130000D01*
X87441547Y-84177619D01*
X87393928Y-84130000D01*
X87441547Y-84082380D01*
X87441547Y-84177619D01*
X86536785Y-85034761D02*
X86632023Y-85082380D01*
X86822500Y-85082380D01*
X86917738Y-85034761D01*
X86965357Y-84987142D01*
X87012976Y-84891904D01*
X87012976Y-84606190D01*
X86965357Y-84510952D01*
X86917738Y-84463333D01*
X86822500Y-84415714D01*
X86632023Y-84415714D01*
X86536785Y-84463333D01*
X86108214Y-85082380D02*
X86108214Y-84082380D01*
X86012976Y-84701428D02*
X85727261Y-85082380D01*
X85727261Y-84415714D02*
X86108214Y-84796666D01*
X85298690Y-84987142D02*
X85251071Y-85034761D01*
X85298690Y-85082380D01*
X85346309Y-85034761D01*
X85298690Y-84987142D01*
X85298690Y-85082380D01*
X84393928Y-85082380D02*
X84393928Y-84082380D01*
X84393928Y-85034761D02*
X84489166Y-85082380D01*
X84679642Y-85082380D01*
X84774880Y-85034761D01*
X84822500Y-84987142D01*
X84870119Y-84891904D01*
X84870119Y-84606190D01*
X84822500Y-84510952D01*
X84774880Y-84463333D01*
X84679642Y-84415714D01*
X84489166Y-84415714D01*
X84393928Y-84463333D01*
X83536785Y-85034761D02*
X83632023Y-85082380D01*
X83822500Y-85082380D01*
X83917738Y-85034761D01*
X83965357Y-84939523D01*
X83965357Y-84558571D01*
X83917738Y-84463333D01*
X83822500Y-84415714D01*
X83632023Y-84415714D01*
X83536785Y-84463333D01*
X83489166Y-84558571D01*
X83489166Y-84653809D01*
X83965357Y-84749047D01*
M02*
