M48
; DRILL file {KiCad (5.1.2)-2} date 27.10.2019 19:51:06
; FORMAT={-:-/ absolute / inch / decimal}
; #@! TF.CreationDate,2019-10-27T19:51:06+01:00
; #@! TF.GenerationSoftware,Kicad,Pcbnew,(5.1.2)-2
; #@! TF.FileFunction,Plated,1,2,PTH
FMAT,2
INCH
T1C0.0157
T2C0.0315
T3C0.0374
T4C0.0394
T5C0.0598
T6C0.0630
T7C0.0787
%
G90
G05
T1
X3.3583Y-2.5728
X3.4311Y-2.7874
X3.4331Y-2.689
X3.439Y-2.8878
X3.7441Y-3.0098
X3.7461Y-2.7894
X3.7461Y-2.8898
X3.8307Y-3.0098
X3.876Y-2.9843
X3.8839Y-2.5197
X3.9193Y-2.9528
X3.9508Y-2.8465
X4.002Y-2.8524
X4.0709Y-2.6004
X4.1476Y-2.9606
X4.1496Y-3.0217
X4.2106Y-2.7362
X4.25Y-2.8346
X4.3839Y-2.8346
X4.4429Y-3.0394
T2
X4.7913Y-2.5787
X4.7913Y-2.7756
X3.0394Y-2.5787
X3.0394Y-2.7756
X4.2919Y-2.7254
X4.3919Y-2.7254
X4.0502Y-2.7254
X4.1502Y-2.7254
T3
X3.9724Y-2.5079
X4.0709Y-2.5079
X4.1693Y-2.5079
X4.2677Y-2.5079
T4
X4.0807Y-3.4449
X4.0807Y-3.5449
X4.0807Y-3.6449
X5.1575Y-3.4449
X5.1575Y-3.5449
X5.1575Y-3.6449
X3.811Y-3.4449
X3.811Y-3.5449
X3.811Y-3.6449
X4.3504Y-3.4449
X4.3504Y-3.5449
X4.3504Y-3.6449
X3.2756Y-3.4449
X3.2756Y-3.5449
X3.2756Y-3.6449
X3.0039Y-3.4449
X3.0039Y-3.5449
X3.0039Y-3.6449
X2.4685Y-3.4449
X2.4685Y-3.5449
X2.4685Y-3.6449
X4.6201Y-3.4449
X4.6201Y-3.5449
X4.6201Y-3.6449
X5.4272Y-3.4449
X5.4272Y-3.5449
X5.4272Y-3.6449
X4.8878Y-3.4449
X4.8878Y-3.5449
X4.8878Y-3.6449
X2.7362Y-3.4449
X2.7362Y-3.5449
X2.7362Y-3.6449
X3.5433Y-3.4449
X3.5433Y-3.5449
X3.5433Y-3.6449
T5
X2.4142Y-2.5984
X2.6142Y-2.5984
X5.2087Y-2.5945
X5.4087Y-2.5945
T6
X4.9449Y-3.1299
X5.4449Y-3.1299
X2.3858Y-3.1299
X2.8858Y-3.1299
T7
G00X2.4547Y-2.8425
M15
G01X2.3957Y-2.8425
M16
G05
G00X2.7697Y-2.8425
M15
G01X2.7106Y-2.8425
M16
G05
G00X5.0571Y-2.8465
M15
G01X5.1161Y-2.8465
M16
G05
G00X5.372Y-2.8465
M15
G01X5.4311Y-2.8465
M16
G05
T0
M30
