G04 #@! TF.GenerationSoftware,KiCad,Pcbnew,(5.1.2)-2*
G04 #@! TF.CreationDate,2019-10-27T19:51:02+01:00*
G04 #@! TF.ProjectId,Servo_PCB,53657276-6f5f-4504-9342-2e6b69636164,rev?*
G04 #@! TF.SameCoordinates,Original*
G04 #@! TF.FileFunction,Legend,Top*
G04 #@! TF.FilePolarity,Positive*
%FSLAX46Y46*%
G04 Gerber Fmt 4.6, Leading zero omitted, Abs format (unit mm)*
G04 Created by KiCad (PCBNEW (5.1.2)-2) date 2019-10-27 19:51:02*
%MOMM*%
%LPD*%
G04 APERTURE LIST*
%ADD10C,0.150000*%
%ADD11C,0.120000*%
G04 APERTURE END LIST*
D10*
X96560000Y-60002380D02*
X96893333Y-61002380D01*
X97226666Y-60002380D01*
X98131428Y-60907142D02*
X98083809Y-60954761D01*
X97940952Y-61002380D01*
X97845714Y-61002380D01*
X97702857Y-60954761D01*
X97607619Y-60859523D01*
X97560000Y-60764285D01*
X97512380Y-60573809D01*
X97512380Y-60430952D01*
X97560000Y-60240476D01*
X97607619Y-60145238D01*
X97702857Y-60050000D01*
X97845714Y-60002380D01*
X97940952Y-60002380D01*
X98083809Y-60050000D01*
X98131428Y-60097619D01*
X99131428Y-60907142D02*
X99083809Y-60954761D01*
X98940952Y-61002380D01*
X98845714Y-61002380D01*
X98702857Y-60954761D01*
X98607619Y-60859523D01*
X98560000Y-60764285D01*
X98512380Y-60573809D01*
X98512380Y-60430952D01*
X98560000Y-60240476D01*
X98607619Y-60145238D01*
X98702857Y-60050000D01*
X98845714Y-60002380D01*
X98940952Y-60002380D01*
X99083809Y-60050000D01*
X99131428Y-60097619D01*
X99560000Y-60621428D02*
X100321904Y-60621428D01*
X101321904Y-60050000D02*
X101226666Y-60002380D01*
X101083809Y-60002380D01*
X100940952Y-60050000D01*
X100845714Y-60145238D01*
X100798095Y-60240476D01*
X100750476Y-60430952D01*
X100750476Y-60573809D01*
X100798095Y-60764285D01*
X100845714Y-60859523D01*
X100940952Y-60954761D01*
X101083809Y-61002380D01*
X101179047Y-61002380D01*
X101321904Y-60954761D01*
X101369523Y-60907142D01*
X101369523Y-60573809D01*
X101179047Y-60573809D01*
X101798095Y-61002380D02*
X101798095Y-60002380D01*
X102369523Y-61002380D01*
X102369523Y-60002380D01*
X102845714Y-61002380D02*
X102845714Y-60002380D01*
X103083809Y-60002380D01*
X103226666Y-60050000D01*
X103321904Y-60145238D01*
X103369523Y-60240476D01*
X103417142Y-60430952D01*
X103417142Y-60573809D01*
X103369523Y-60764285D01*
X103321904Y-60859523D01*
X103226666Y-60954761D01*
X103083809Y-61002380D01*
X102845714Y-61002380D01*
X103845714Y-60621428D02*
X104607619Y-60621428D01*
X105036190Y-60954761D02*
X105179047Y-61002380D01*
X105417142Y-61002380D01*
X105512380Y-60954761D01*
X105560000Y-60907142D01*
X105607619Y-60811904D01*
X105607619Y-60716666D01*
X105560000Y-60621428D01*
X105512380Y-60573809D01*
X105417142Y-60526190D01*
X105226666Y-60478571D01*
X105131428Y-60430952D01*
X105083809Y-60383333D01*
X105036190Y-60288095D01*
X105036190Y-60192857D01*
X105083809Y-60097619D01*
X105131428Y-60050000D01*
X105226666Y-60002380D01*
X105464761Y-60002380D01*
X105607619Y-60050000D01*
X106607619Y-60907142D02*
X106560000Y-60954761D01*
X106417142Y-61002380D01*
X106321904Y-61002380D01*
X106179047Y-60954761D01*
X106083809Y-60859523D01*
X106036190Y-60764285D01*
X105988571Y-60573809D01*
X105988571Y-60430952D01*
X106036190Y-60240476D01*
X106083809Y-60145238D01*
X106179047Y-60050000D01*
X106321904Y-60002380D01*
X106417142Y-60002380D01*
X106560000Y-60050000D01*
X106607619Y-60097619D01*
X107512380Y-61002380D02*
X107036190Y-61002380D01*
X107036190Y-60002380D01*
X107845714Y-60621428D02*
X108607619Y-60621428D01*
X109036190Y-60954761D02*
X109179047Y-61002380D01*
X109417142Y-61002380D01*
X109512380Y-60954761D01*
X109560000Y-60907142D01*
X109607619Y-60811904D01*
X109607619Y-60716666D01*
X109560000Y-60621428D01*
X109512380Y-60573809D01*
X109417142Y-60526190D01*
X109226666Y-60478571D01*
X109131428Y-60430952D01*
X109083809Y-60383333D01*
X109036190Y-60288095D01*
X109036190Y-60192857D01*
X109083809Y-60097619D01*
X109131428Y-60050000D01*
X109226666Y-60002380D01*
X109464761Y-60002380D01*
X109607619Y-60050000D01*
X110036190Y-61002380D02*
X110036190Y-60002380D01*
X110274285Y-60002380D01*
X110417142Y-60050000D01*
X110512380Y-60145238D01*
X110560000Y-60240476D01*
X110607619Y-60430952D01*
X110607619Y-60573809D01*
X110560000Y-60764285D01*
X110512380Y-60859523D01*
X110417142Y-60954761D01*
X110274285Y-61002380D01*
X110036190Y-61002380D01*
X110988571Y-60716666D02*
X111464761Y-60716666D01*
X110893333Y-61002380D02*
X111226666Y-60002380D01*
X111560000Y-61002380D01*
X65708095Y-60510000D02*
X65612857Y-60462380D01*
X65470000Y-60462380D01*
X65327142Y-60510000D01*
X65231904Y-60605238D01*
X65184285Y-60700476D01*
X65136666Y-60890952D01*
X65136666Y-61033809D01*
X65184285Y-61224285D01*
X65231904Y-61319523D01*
X65327142Y-61414761D01*
X65470000Y-61462380D01*
X65565238Y-61462380D01*
X65708095Y-61414761D01*
X65755714Y-61367142D01*
X65755714Y-61033809D01*
X65565238Y-61033809D01*
X66184285Y-61462380D02*
X66184285Y-60462380D01*
X66755714Y-61462380D01*
X66755714Y-60462380D01*
X67231904Y-61462380D02*
X67231904Y-60462380D01*
X67470000Y-60462380D01*
X67612857Y-60510000D01*
X67708095Y-60605238D01*
X67755714Y-60700476D01*
X67803333Y-60890952D01*
X67803333Y-61033809D01*
X67755714Y-61224285D01*
X67708095Y-61319523D01*
X67612857Y-61414761D01*
X67470000Y-61462380D01*
X67231904Y-61462380D01*
X60046666Y-60492380D02*
X60380000Y-61492380D01*
X60713333Y-60492380D01*
X61618095Y-61397142D02*
X61570476Y-61444761D01*
X61427619Y-61492380D01*
X61332380Y-61492380D01*
X61189523Y-61444761D01*
X61094285Y-61349523D01*
X61046666Y-61254285D01*
X60999047Y-61063809D01*
X60999047Y-60920952D01*
X61046666Y-60730476D01*
X61094285Y-60635238D01*
X61189523Y-60540000D01*
X61332380Y-60492380D01*
X61427619Y-60492380D01*
X61570476Y-60540000D01*
X61618095Y-60587619D01*
X62618095Y-61397142D02*
X62570476Y-61444761D01*
X62427619Y-61492380D01*
X62332380Y-61492380D01*
X62189523Y-61444761D01*
X62094285Y-61349523D01*
X62046666Y-61254285D01*
X61999047Y-61063809D01*
X61999047Y-60920952D01*
X62046666Y-60730476D01*
X62094285Y-60635238D01*
X62189523Y-60540000D01*
X62332380Y-60492380D01*
X62427619Y-60492380D01*
X62570476Y-60540000D01*
X62618095Y-60587619D01*
X136096666Y-60552380D02*
X136430000Y-61552380D01*
X136763333Y-60552380D01*
X137668095Y-61457142D02*
X137620476Y-61504761D01*
X137477619Y-61552380D01*
X137382380Y-61552380D01*
X137239523Y-61504761D01*
X137144285Y-61409523D01*
X137096666Y-61314285D01*
X137049047Y-61123809D01*
X137049047Y-60980952D01*
X137096666Y-60790476D01*
X137144285Y-60695238D01*
X137239523Y-60600000D01*
X137382380Y-60552380D01*
X137477619Y-60552380D01*
X137620476Y-60600000D01*
X137668095Y-60647619D01*
X138668095Y-61457142D02*
X138620476Y-61504761D01*
X138477619Y-61552380D01*
X138382380Y-61552380D01*
X138239523Y-61504761D01*
X138144285Y-61409523D01*
X138096666Y-61314285D01*
X138049047Y-61123809D01*
X138049047Y-60980952D01*
X138096666Y-60790476D01*
X138144285Y-60695238D01*
X138239523Y-60600000D01*
X138382380Y-60552380D01*
X138477619Y-60552380D01*
X138620476Y-60600000D01*
X138668095Y-60647619D01*
X131528095Y-60620000D02*
X131432857Y-60572380D01*
X131290000Y-60572380D01*
X131147142Y-60620000D01*
X131051904Y-60715238D01*
X131004285Y-60810476D01*
X130956666Y-61000952D01*
X130956666Y-61143809D01*
X131004285Y-61334285D01*
X131051904Y-61429523D01*
X131147142Y-61524761D01*
X131290000Y-61572380D01*
X131385238Y-61572380D01*
X131528095Y-61524761D01*
X131575714Y-61477142D01*
X131575714Y-61143809D01*
X131385238Y-61143809D01*
X132004285Y-61572380D02*
X132004285Y-60572380D01*
X132575714Y-61572380D01*
X132575714Y-60572380D01*
X133051904Y-61572380D02*
X133051904Y-60572380D01*
X133290000Y-60572380D01*
X133432857Y-60620000D01*
X133528095Y-60715238D01*
X133575714Y-60810476D01*
X133623333Y-61000952D01*
X133623333Y-61143809D01*
X133575714Y-61334285D01*
X133528095Y-61429523D01*
X133432857Y-61524761D01*
X133290000Y-61572380D01*
X133051904Y-61572380D01*
D11*
X146310000Y-92650000D02*
X142960000Y-92650000D01*
X146330000Y-90060000D02*
X142980000Y-90060000D01*
X146260000Y-87550000D02*
X142910000Y-87550000D01*
D10*
X146646666Y-89612380D02*
X146980000Y-90612380D01*
X147313333Y-89612380D01*
X148218095Y-90517142D02*
X148170476Y-90564761D01*
X148027619Y-90612380D01*
X147932380Y-90612380D01*
X147789523Y-90564761D01*
X147694285Y-90469523D01*
X147646666Y-90374285D01*
X147599047Y-90183809D01*
X147599047Y-90040952D01*
X147646666Y-89850476D01*
X147694285Y-89755238D01*
X147789523Y-89660000D01*
X147932380Y-89612380D01*
X148027619Y-89612380D01*
X148170476Y-89660000D01*
X148218095Y-89707619D01*
X149218095Y-90517142D02*
X149170476Y-90564761D01*
X149027619Y-90612380D01*
X148932380Y-90612380D01*
X148789523Y-90564761D01*
X148694285Y-90469523D01*
X148646666Y-90374285D01*
X148599047Y-90183809D01*
X148599047Y-90040952D01*
X148646666Y-89850476D01*
X148694285Y-89755238D01*
X148789523Y-89660000D01*
X148932380Y-89612380D01*
X149027619Y-89612380D01*
X149170476Y-89660000D01*
X149218095Y-89707619D01*
X147188095Y-92120000D02*
X147092857Y-92072380D01*
X146950000Y-92072380D01*
X146807142Y-92120000D01*
X146711904Y-92215238D01*
X146664285Y-92310476D01*
X146616666Y-92500952D01*
X146616666Y-92643809D01*
X146664285Y-92834285D01*
X146711904Y-92929523D01*
X146807142Y-93024761D01*
X146950000Y-93072380D01*
X147045238Y-93072380D01*
X147188095Y-93024761D01*
X147235714Y-92977142D01*
X147235714Y-92643809D01*
X147045238Y-92643809D01*
X147664285Y-93072380D02*
X147664285Y-92072380D01*
X148235714Y-93072380D01*
X148235714Y-92072380D01*
X148711904Y-93072380D02*
X148711904Y-92072380D01*
X148950000Y-92072380D01*
X149092857Y-92120000D01*
X149188095Y-92215238D01*
X149235714Y-92310476D01*
X149283333Y-92500952D01*
X149283333Y-92643809D01*
X149235714Y-92834285D01*
X149188095Y-92929523D01*
X149092857Y-93024761D01*
X148950000Y-93072380D01*
X148711904Y-93072380D01*
X146726190Y-88034761D02*
X146869047Y-88082380D01*
X147107142Y-88082380D01*
X147202380Y-88034761D01*
X147250000Y-87987142D01*
X147297619Y-87891904D01*
X147297619Y-87796666D01*
X147250000Y-87701428D01*
X147202380Y-87653809D01*
X147107142Y-87606190D01*
X146916666Y-87558571D01*
X146821428Y-87510952D01*
X146773809Y-87463333D01*
X146726190Y-87368095D01*
X146726190Y-87272857D01*
X146773809Y-87177619D01*
X146821428Y-87130000D01*
X146916666Y-87082380D01*
X147154761Y-87082380D01*
X147297619Y-87130000D01*
X147726190Y-88082380D02*
X147726190Y-87082380D01*
X148726190Y-87130000D02*
X148630952Y-87082380D01*
X148488095Y-87082380D01*
X148345238Y-87130000D01*
X148250000Y-87225238D01*
X148202380Y-87320476D01*
X148154761Y-87510952D01*
X148154761Y-87653809D01*
X148202380Y-87844285D01*
X148250000Y-87939523D01*
X148345238Y-88034761D01*
X148488095Y-88082380D01*
X148583333Y-88082380D01*
X148726190Y-88034761D01*
X148773809Y-87987142D01*
X148773809Y-87653809D01*
X148583333Y-87653809D01*
X51046190Y-87974761D02*
X51189047Y-88022380D01*
X51427142Y-88022380D01*
X51522380Y-87974761D01*
X51570000Y-87927142D01*
X51617619Y-87831904D01*
X51617619Y-87736666D01*
X51570000Y-87641428D01*
X51522380Y-87593809D01*
X51427142Y-87546190D01*
X51236666Y-87498571D01*
X51141428Y-87450952D01*
X51093809Y-87403333D01*
X51046190Y-87308095D01*
X51046190Y-87212857D01*
X51093809Y-87117619D01*
X51141428Y-87070000D01*
X51236666Y-87022380D01*
X51474761Y-87022380D01*
X51617619Y-87070000D01*
X52046190Y-88022380D02*
X52046190Y-87022380D01*
X53046190Y-87070000D02*
X52950952Y-87022380D01*
X52808095Y-87022380D01*
X52665238Y-87070000D01*
X52570000Y-87165238D01*
X52522380Y-87260476D01*
X52474761Y-87450952D01*
X52474761Y-87593809D01*
X52522380Y-87784285D01*
X52570000Y-87879523D01*
X52665238Y-87974761D01*
X52808095Y-88022380D01*
X52903333Y-88022380D01*
X53046190Y-87974761D01*
X53093809Y-87927142D01*
X53093809Y-87593809D01*
X52903333Y-87593809D01*
X51508095Y-92060000D02*
X51412857Y-92012380D01*
X51270000Y-92012380D01*
X51127142Y-92060000D01*
X51031904Y-92155238D01*
X50984285Y-92250476D01*
X50936666Y-92440952D01*
X50936666Y-92583809D01*
X50984285Y-92774285D01*
X51031904Y-92869523D01*
X51127142Y-92964761D01*
X51270000Y-93012380D01*
X51365238Y-93012380D01*
X51508095Y-92964761D01*
X51555714Y-92917142D01*
X51555714Y-92583809D01*
X51365238Y-92583809D01*
X51984285Y-93012380D02*
X51984285Y-92012380D01*
X52555714Y-93012380D01*
X52555714Y-92012380D01*
X53031904Y-93012380D02*
X53031904Y-92012380D01*
X53270000Y-92012380D01*
X53412857Y-92060000D01*
X53508095Y-92155238D01*
X53555714Y-92250476D01*
X53603333Y-92440952D01*
X53603333Y-92583809D01*
X53555714Y-92774285D01*
X53508095Y-92869523D01*
X53412857Y-92964761D01*
X53270000Y-93012380D01*
X53031904Y-93012380D01*
X50966666Y-89552380D02*
X51300000Y-90552380D01*
X51633333Y-89552380D01*
X52538095Y-90457142D02*
X52490476Y-90504761D01*
X52347619Y-90552380D01*
X52252380Y-90552380D01*
X52109523Y-90504761D01*
X52014285Y-90409523D01*
X51966666Y-90314285D01*
X51919047Y-90123809D01*
X51919047Y-89980952D01*
X51966666Y-89790476D01*
X52014285Y-89695238D01*
X52109523Y-89600000D01*
X52252380Y-89552380D01*
X52347619Y-89552380D01*
X52490476Y-89600000D01*
X52538095Y-89647619D01*
X53538095Y-90457142D02*
X53490476Y-90504761D01*
X53347619Y-90552380D01*
X53252380Y-90552380D01*
X53109523Y-90504761D01*
X53014285Y-90409523D01*
X52966666Y-90314285D01*
X52919047Y-90123809D01*
X52919047Y-89980952D01*
X52966666Y-89790476D01*
X53014285Y-89695238D01*
X53109523Y-89600000D01*
X53252380Y-89552380D01*
X53347619Y-89552380D01*
X53490476Y-89600000D01*
X53538095Y-89647619D01*
D11*
X60800000Y-87570000D02*
X54310000Y-87570000D01*
X60800000Y-90090000D02*
X54310000Y-90090000D01*
X60780000Y-92560000D02*
X54290000Y-92560000D01*
X50000000Y-101200000D02*
X50000000Y-59800000D01*
X150000000Y-59800000D02*
X150000000Y-101200000D01*
X50000000Y-59800000D02*
X150000000Y-59800000D01*
X150000000Y-101200000D02*
X50000000Y-101200000D01*
X140300000Y-88350000D02*
X140300000Y-86450000D01*
X142200000Y-88350000D02*
X140300000Y-88350000D01*
X142200000Y-86450000D02*
X142200000Y-88350000D01*
X140300000Y-86450000D02*
X142200000Y-86450000D01*
X140300000Y-95950000D02*
X140300000Y-94050000D01*
X142200000Y-95950000D02*
X140300000Y-95950000D01*
X142200000Y-94050000D02*
X142200000Y-95950000D01*
X140300000Y-94050000D02*
X142200000Y-94050000D01*
X133450000Y-88350000D02*
X133450000Y-86450000D01*
X135350000Y-88350000D02*
X133450000Y-88350000D01*
X135350000Y-86450000D02*
X135350000Y-88350000D01*
X133450000Y-86450000D02*
X135350000Y-86450000D01*
X133450000Y-95950000D02*
X133450000Y-94050000D01*
X135350000Y-95950000D02*
X133450000Y-95950000D01*
X135350000Y-94050000D02*
X135350000Y-95950000D01*
X133450000Y-94050000D02*
X135350000Y-94050000D01*
X126650000Y-88550000D02*
X126650000Y-86650000D01*
X128550000Y-88550000D02*
X126650000Y-88550000D01*
X128550000Y-86650000D02*
X128550000Y-88550000D01*
X126650000Y-86650000D02*
X128550000Y-86650000D01*
X126650000Y-95950000D02*
X126650000Y-94050000D01*
X128550000Y-95950000D02*
X126650000Y-95950000D01*
X128550000Y-94050000D02*
X128550000Y-95950000D01*
X126650000Y-94050000D02*
X128550000Y-94050000D01*
X119800000Y-88550000D02*
X119800000Y-86650000D01*
X121700000Y-88550000D02*
X119800000Y-88550000D01*
X121700000Y-86650000D02*
X121700000Y-88550000D01*
X119800000Y-86650000D02*
X121700000Y-86650000D01*
X119800000Y-95950000D02*
X119800000Y-94050000D01*
X121700000Y-95950000D02*
X119800000Y-95950000D01*
X121700000Y-94050000D02*
X121700000Y-95950000D01*
X119800000Y-94050000D02*
X121700000Y-94050000D01*
X112950000Y-88550000D02*
X112950000Y-86650000D01*
X114850000Y-88550000D02*
X112950000Y-88550000D01*
X114850000Y-86650000D02*
X114850000Y-88550000D01*
X112950000Y-86650000D02*
X114850000Y-86650000D01*
X112950000Y-95950000D02*
X112950000Y-94050000D01*
X114850000Y-95950000D02*
X112950000Y-95950000D01*
X114850000Y-94050000D02*
X114850000Y-95950000D01*
X112950000Y-94050000D02*
X114850000Y-94050000D01*
X106150000Y-88550000D02*
X106150000Y-86650000D01*
X108050000Y-88550000D02*
X106150000Y-88550000D01*
X108050000Y-86650000D02*
X108050000Y-88550000D01*
X106150000Y-86650000D02*
X108050000Y-86650000D01*
X106150000Y-95950000D02*
X106150000Y-94050000D01*
X108050000Y-95950000D02*
X106150000Y-95950000D01*
X108050000Y-94050000D02*
X108050000Y-95950000D01*
X106150000Y-94050000D02*
X108050000Y-94050000D01*
X99250000Y-88550000D02*
X99250000Y-86650000D01*
X101150000Y-88550000D02*
X99250000Y-88550000D01*
X101150000Y-86650000D02*
X101150000Y-88550000D01*
X99250000Y-86650000D02*
X101150000Y-86650000D01*
X99250000Y-95950000D02*
X99250000Y-94050000D01*
X101150000Y-95950000D02*
X99250000Y-95950000D01*
X101150000Y-94050000D02*
X101150000Y-95950000D01*
X99250000Y-94050000D02*
X101150000Y-94050000D01*
X92450000Y-88550000D02*
X92450000Y-86650000D01*
X94350000Y-88550000D02*
X92450000Y-88550000D01*
X94350000Y-86650000D02*
X94350000Y-88550000D01*
X92450000Y-86650000D02*
X94350000Y-86650000D01*
X85650000Y-95950000D02*
X85650000Y-94050000D01*
X87550000Y-95950000D02*
X85650000Y-95950000D01*
X87550000Y-94050000D02*
X87550000Y-95950000D01*
X85650000Y-94050000D02*
X87550000Y-94050000D01*
X85650000Y-88500000D02*
X85650000Y-86600000D01*
X87550000Y-88500000D02*
X85650000Y-88500000D01*
X87550000Y-86600000D02*
X87550000Y-88500000D01*
X85650000Y-86600000D02*
X87550000Y-86600000D01*
X92450000Y-95950000D02*
X92450000Y-94050000D01*
X94350000Y-95950000D02*
X92450000Y-95950000D01*
X94350000Y-94050000D02*
X94350000Y-95950000D01*
X92450000Y-94050000D02*
X94350000Y-94050000D01*
X78800000Y-88500000D02*
X78800000Y-86600000D01*
X80700000Y-88500000D02*
X78800000Y-88500000D01*
X80700000Y-86600000D02*
X80700000Y-88500000D01*
X78800000Y-86600000D02*
X80700000Y-86600000D01*
X78750000Y-95950000D02*
X78750000Y-94050000D01*
X80650000Y-95950000D02*
X78750000Y-95950000D01*
X80650000Y-94050000D02*
X80650000Y-95950000D01*
X78750000Y-94050000D02*
X80650000Y-94050000D01*
X71950000Y-88500000D02*
X71950000Y-86600000D01*
X73850000Y-88500000D02*
X71950000Y-88500000D01*
X73850000Y-86600000D02*
X73850000Y-88500000D01*
X71950000Y-86600000D02*
X73850000Y-86600000D01*
X71950000Y-95950000D02*
X71950000Y-94050000D01*
X73850000Y-95950000D02*
X71950000Y-95950000D01*
X73850000Y-94050000D02*
X73850000Y-95950000D01*
X71950000Y-94050000D02*
X73850000Y-94050000D01*
X65150000Y-88450000D02*
X65150000Y-86550000D01*
X67050000Y-88450000D02*
X65150000Y-88450000D01*
X67050000Y-86550000D02*
X67050000Y-88450000D01*
X65150000Y-86550000D02*
X67050000Y-86550000D01*
X65150000Y-95950000D02*
X65150000Y-94050000D01*
X67050000Y-95950000D02*
X65150000Y-95950000D01*
X67050000Y-94050000D02*
X67050000Y-95950000D01*
X65150000Y-94050000D02*
X67050000Y-94050000D01*
X136520000Y-86170000D02*
X137850000Y-86170000D01*
X136520000Y-87500000D02*
X136520000Y-86170000D01*
X136520000Y-88770000D02*
X139180000Y-88770000D01*
X139180000Y-88770000D02*
X139180000Y-93910000D01*
X136520000Y-88770000D02*
X136520000Y-93910000D01*
X136520000Y-93910000D02*
X139180000Y-93910000D01*
X129670000Y-86170000D02*
X131000000Y-86170000D01*
X129670000Y-87500000D02*
X129670000Y-86170000D01*
X129670000Y-88770000D02*
X132330000Y-88770000D01*
X132330000Y-88770000D02*
X132330000Y-93910000D01*
X129670000Y-88770000D02*
X129670000Y-93910000D01*
X129670000Y-93910000D02*
X132330000Y-93910000D01*
X122820000Y-86170000D02*
X124150000Y-86170000D01*
X122820000Y-87500000D02*
X122820000Y-86170000D01*
X122820000Y-88770000D02*
X125480000Y-88770000D01*
X125480000Y-88770000D02*
X125480000Y-93910000D01*
X122820000Y-88770000D02*
X122820000Y-93910000D01*
X122820000Y-93910000D02*
X125480000Y-93910000D01*
X116020000Y-86170000D02*
X117350000Y-86170000D01*
X116020000Y-87500000D02*
X116020000Y-86170000D01*
X116020000Y-88770000D02*
X118680000Y-88770000D01*
X118680000Y-88770000D02*
X118680000Y-93910000D01*
X116020000Y-88770000D02*
X116020000Y-93910000D01*
X116020000Y-93910000D02*
X118680000Y-93910000D01*
X109170000Y-86170000D02*
X110500000Y-86170000D01*
X109170000Y-87500000D02*
X109170000Y-86170000D01*
X109170000Y-88770000D02*
X111830000Y-88770000D01*
X111830000Y-88770000D02*
X111830000Y-93910000D01*
X109170000Y-88770000D02*
X109170000Y-93910000D01*
X109170000Y-93910000D02*
X111830000Y-93910000D01*
X102320000Y-86170000D02*
X103650000Y-86170000D01*
X102320000Y-87500000D02*
X102320000Y-86170000D01*
X102320000Y-88770000D02*
X104980000Y-88770000D01*
X104980000Y-88770000D02*
X104980000Y-93910000D01*
X102320000Y-88770000D02*
X102320000Y-93910000D01*
X102320000Y-93910000D02*
X104980000Y-93910000D01*
X95470000Y-86170000D02*
X96800000Y-86170000D01*
X95470000Y-87500000D02*
X95470000Y-86170000D01*
X95470000Y-88770000D02*
X98130000Y-88770000D01*
X98130000Y-88770000D02*
X98130000Y-93910000D01*
X95470000Y-88770000D02*
X95470000Y-93910000D01*
X95470000Y-93910000D02*
X98130000Y-93910000D01*
X88670000Y-86170000D02*
X90000000Y-86170000D01*
X88670000Y-87500000D02*
X88670000Y-86170000D01*
X88670000Y-88770000D02*
X91330000Y-88770000D01*
X91330000Y-88770000D02*
X91330000Y-93910000D01*
X88670000Y-88770000D02*
X88670000Y-93910000D01*
X88670000Y-93910000D02*
X91330000Y-93910000D01*
X81870000Y-86170000D02*
X83200000Y-86170000D01*
X81870000Y-87500000D02*
X81870000Y-86170000D01*
X81870000Y-88770000D02*
X84530000Y-88770000D01*
X84530000Y-88770000D02*
X84530000Y-93910000D01*
X81870000Y-88770000D02*
X81870000Y-93910000D01*
X81870000Y-93910000D02*
X84530000Y-93910000D01*
X74970000Y-86170000D02*
X76300000Y-86170000D01*
X74970000Y-87500000D02*
X74970000Y-86170000D01*
X74970000Y-88770000D02*
X77630000Y-88770000D01*
X77630000Y-88770000D02*
X77630000Y-93910000D01*
X74970000Y-88770000D02*
X74970000Y-93910000D01*
X74970000Y-93910000D02*
X77630000Y-93910000D01*
X68170000Y-86170000D02*
X69500000Y-86170000D01*
X68170000Y-87500000D02*
X68170000Y-86170000D01*
X68170000Y-88770000D02*
X70830000Y-88770000D01*
X70830000Y-88770000D02*
X70830000Y-93910000D01*
X68170000Y-88770000D02*
X68170000Y-93910000D01*
X68170000Y-93910000D02*
X70830000Y-93910000D01*
X61370000Y-86170000D02*
X62700000Y-86170000D01*
X61370000Y-87500000D02*
X61370000Y-86170000D01*
X61370000Y-88770000D02*
X64030000Y-88770000D01*
X64030000Y-88770000D02*
X64030000Y-93910000D01*
X61370000Y-88770000D02*
X61370000Y-93910000D01*
X61370000Y-93910000D02*
X64030000Y-93910000D01*
X142610000Y-92052064D02*
X142610000Y-90847936D01*
X139890000Y-92052064D02*
X139890000Y-90847936D01*
X135760000Y-92052064D02*
X135760000Y-90847936D01*
X133040000Y-92052064D02*
X133040000Y-90847936D01*
X128960000Y-92052064D02*
X128960000Y-90847936D01*
X126240000Y-92052064D02*
X126240000Y-90847936D01*
X122110000Y-92052064D02*
X122110000Y-90847936D01*
X119390000Y-92052064D02*
X119390000Y-90847936D01*
X115260000Y-92052064D02*
X115260000Y-90847936D01*
X112540000Y-92052064D02*
X112540000Y-90847936D01*
X108460000Y-92052064D02*
X108460000Y-90847936D01*
X105740000Y-92052064D02*
X105740000Y-90847936D01*
X101560000Y-92052064D02*
X101560000Y-90847936D01*
X98840000Y-92052064D02*
X98840000Y-90847936D01*
X94760000Y-92052064D02*
X94760000Y-90847936D01*
X92040000Y-92052064D02*
X92040000Y-90847936D01*
X87960000Y-92052064D02*
X87960000Y-90847936D01*
X85240000Y-92052064D02*
X85240000Y-90847936D01*
X81060000Y-92002064D02*
X81060000Y-90797936D01*
X78340000Y-92002064D02*
X78340000Y-90797936D01*
X74260000Y-92002064D02*
X74260000Y-90797936D01*
X71540000Y-92002064D02*
X71540000Y-90797936D01*
X67460000Y-92002064D02*
X67460000Y-90797936D01*
X64740000Y-92002064D02*
X64740000Y-90797936D01*
X113310000Y-74013748D02*
X113310000Y-74536252D01*
X111890000Y-74013748D02*
X111890000Y-74536252D01*
X82320000Y-68000000D02*
G75*
G03X82320000Y-68000000I-5120000J0D01*
G01*
X126820000Y-68000000D02*
G75*
G03X126820000Y-68000000I-5120000J0D01*
G01*
X63645000Y-74830000D02*
X63645000Y-84170000D01*
X63885000Y-74830000D02*
X63885000Y-84170000D01*
X63765000Y-74830000D02*
X63765000Y-84170000D01*
X71620000Y-84170000D02*
X71620000Y-81340000D01*
X62280000Y-84170000D02*
X71620000Y-84170000D01*
X62280000Y-81340000D02*
X62280000Y-84170000D01*
X71620000Y-74830000D02*
X71620000Y-77660000D01*
X62280000Y-74830000D02*
X71620000Y-74830000D01*
X62280000Y-77660000D02*
X62280000Y-74830000D01*
X136620000Y-81340000D02*
X136620000Y-84170000D01*
X136620000Y-84170000D02*
X127280000Y-84170000D01*
X127280000Y-84170000D02*
X127280000Y-81340000D01*
X136620000Y-77660000D02*
X136620000Y-74830000D01*
X136620000Y-74830000D02*
X127280000Y-74830000D01*
X127280000Y-74830000D02*
X127280000Y-77660000D01*
X135135000Y-84170000D02*
X135135000Y-74830000D01*
X135015000Y-84170000D02*
X135015000Y-74830000D01*
X135255000Y-84170000D02*
X135255000Y-74830000D01*
X67200000Y-74200000D02*
X64000000Y-74200000D01*
X64000000Y-70200000D02*
X67200000Y-70200000D01*
X66350000Y-72200000D02*
X64750000Y-72200000D01*
X132450000Y-72300000D02*
X134050000Y-72300000D01*
X134800000Y-74300000D02*
X131600000Y-74300000D01*
X131600000Y-70300000D02*
X134800000Y-70300000D01*
X58780000Y-63460000D02*
X68940000Y-63460000D01*
X58780000Y-62190000D02*
X58780000Y-69810000D01*
X58780000Y-69810000D02*
X68940000Y-69810000D01*
X68940000Y-69810000D02*
X68940000Y-62190000D01*
X68940000Y-62190000D02*
X58780000Y-62190000D01*
X129760000Y-69710000D02*
X139920000Y-69710000D01*
X129760000Y-62090000D02*
X129760000Y-69710000D01*
X139920000Y-62090000D02*
X129760000Y-62090000D01*
X139920000Y-69710000D02*
X139920000Y-62090000D01*
X139920000Y-68440000D02*
X129760000Y-68440000D01*
X98340000Y-61240000D02*
X98340000Y-67210000D01*
X98340000Y-67210000D02*
X110960000Y-67210000D01*
X110960000Y-67210000D02*
X110960000Y-61240000D01*
X110960000Y-61240000D02*
X98340000Y-61240000D01*
X101650000Y-61250000D02*
X101650000Y-62000000D01*
X101650000Y-62000000D02*
X107650000Y-62000000D01*
X107650000Y-62000000D02*
X107650000Y-61250000D01*
X107650000Y-61250000D02*
X101650000Y-61250000D01*
X98350000Y-61250000D02*
X98350000Y-62000000D01*
X98350000Y-62000000D02*
X100150000Y-62000000D01*
X100150000Y-62000000D02*
X100150000Y-61250000D01*
X100150000Y-61250000D02*
X98350000Y-61250000D01*
X109150000Y-61250000D02*
X109150000Y-62000000D01*
X109150000Y-62000000D02*
X110950000Y-62000000D01*
X110950000Y-62000000D02*
X110950000Y-61250000D01*
X110950000Y-61250000D02*
X109150000Y-61250000D01*
X98350000Y-63500000D02*
X99100000Y-63500000D01*
X99100000Y-63500000D02*
X99100000Y-66450000D01*
X99100000Y-66450000D02*
X104650000Y-66450000D01*
X110950000Y-63500000D02*
X110200000Y-63500000D01*
X110200000Y-63500000D02*
X110200000Y-66450000D01*
X110200000Y-66450000D02*
X104650000Y-66450000D01*
X99300000Y-60950000D02*
X98050000Y-60950000D01*
X98050000Y-60950000D02*
X98050000Y-62200000D01*
X83700000Y-68600000D02*
X86500000Y-68600000D01*
X86500000Y-68600000D02*
X86500000Y-70600000D01*
X86500000Y-70600000D02*
X83700000Y-70600000D01*
X83700000Y-70600000D02*
X83700000Y-68600000D01*
X83700000Y-73100000D02*
X83700000Y-71100000D01*
X86500000Y-73100000D02*
X83700000Y-73100000D01*
X86500000Y-71100000D02*
X86500000Y-73100000D01*
X83700000Y-71100000D02*
X86500000Y-71100000D01*
X83700000Y-75600000D02*
X83700000Y-73600000D01*
X86500000Y-75600000D02*
X83700000Y-75600000D01*
X86500000Y-73600000D02*
X86500000Y-75600000D01*
X83700000Y-73600000D02*
X86500000Y-73600000D01*
X91600000Y-68600000D02*
X94400000Y-68600000D01*
X94400000Y-68600000D02*
X94400000Y-70600000D01*
X94400000Y-70600000D02*
X91600000Y-70600000D01*
X91600000Y-70600000D02*
X91600000Y-68600000D01*
X91600000Y-71100000D02*
X94400000Y-71100000D01*
X94400000Y-71100000D02*
X94400000Y-73100000D01*
X94400000Y-73100000D02*
X91600000Y-73100000D01*
X91600000Y-73100000D02*
X91600000Y-71100000D01*
X91600000Y-75600000D02*
X91600000Y-73600000D01*
X94400000Y-75600000D02*
X91600000Y-75600000D01*
X94400000Y-73600000D02*
X94400000Y-75600000D01*
X91600000Y-73600000D02*
X94400000Y-73600000D01*
D10*
X102275000Y-73225000D02*
X102275000Y-73450000D01*
X106925000Y-73225000D02*
X106925000Y-73550000D01*
X106925000Y-83175000D02*
X106925000Y-82850000D01*
X102275000Y-83175000D02*
X102275000Y-82850000D01*
X102275000Y-73225000D02*
X106925000Y-73225000D01*
X102275000Y-83175000D02*
X106925000Y-83175000D01*
X102275000Y-73450000D02*
X101200000Y-73450000D01*
D11*
X96337500Y-64340000D02*
X93652500Y-64340000D01*
X93652500Y-64340000D02*
X93652500Y-66260000D01*
X93652500Y-66260000D02*
X96337500Y-66260000D01*
X110303733Y-76740000D02*
X110646267Y-76740000D01*
X110303733Y-77760000D02*
X110646267Y-77760000D01*
X88578733Y-70110000D02*
X88921267Y-70110000D01*
X88578733Y-69090000D02*
X88921267Y-69090000D01*
X88653733Y-71590000D02*
X88996267Y-71590000D01*
X88653733Y-72610000D02*
X88996267Y-72610000D01*
X88678733Y-75110000D02*
X89021267Y-75110000D01*
X88678733Y-74090000D02*
X89021267Y-74090000D01*
X96553733Y-69090000D02*
X96896267Y-69090000D01*
X96553733Y-70110000D02*
X96896267Y-70110000D01*
X96553733Y-71590000D02*
X96896267Y-71590000D01*
X96553733Y-72610000D02*
X96896267Y-72610000D01*
X96553733Y-75110000D02*
X96896267Y-75110000D01*
X96553733Y-74090000D02*
X96896267Y-74090000D01*
X95003922Y-62190000D02*
X95521078Y-62190000D01*
X95003922Y-63610000D02*
X95521078Y-63610000D01*
X104245001Y-69225001D02*
X104315001Y-69225001D01*
X104245001Y-69225001D02*
G75*
G03X104245001Y-69225001I-1370000J0D01*
G01*
X110385001Y-69225001D02*
G75*
G03X110385001Y-69225001I-1370000J0D01*
G01*
X110385001Y-69225001D02*
X110455001Y-69225001D01*
X89330000Y-82550000D02*
X89330000Y-80450000D01*
X94670000Y-82550000D02*
X94670000Y-80450000D01*
X82930000Y-82550000D02*
X82930000Y-80450000D01*
X88270000Y-82550000D02*
X88270000Y-80450000D01*
X121670000Y-83350000D02*
X121670000Y-81250000D01*
X116330000Y-83350000D02*
X116330000Y-81250000D01*
D10*
X136661904Y-96824761D02*
X136804761Y-96872380D01*
X137042857Y-96872380D01*
X137138095Y-96824761D01*
X137185714Y-96777142D01*
X137233333Y-96681904D01*
X137233333Y-96586666D01*
X137185714Y-96491428D01*
X137138095Y-96443809D01*
X137042857Y-96396190D01*
X136852380Y-96348571D01*
X136757142Y-96300952D01*
X136709523Y-96253333D01*
X136661904Y-96158095D01*
X136661904Y-96062857D01*
X136709523Y-95967619D01*
X136757142Y-95920000D01*
X136852380Y-95872380D01*
X137090476Y-95872380D01*
X137233333Y-95920000D01*
X138185714Y-96872380D02*
X137614285Y-96872380D01*
X137900000Y-96872380D02*
X137900000Y-95872380D01*
X137804761Y-96015238D01*
X137709523Y-96110476D01*
X137614285Y-96158095D01*
X138566666Y-95967619D02*
X138614285Y-95920000D01*
X138709523Y-95872380D01*
X138947619Y-95872380D01*
X139042857Y-95920000D01*
X139090476Y-95967619D01*
X139138095Y-96062857D01*
X139138095Y-96158095D01*
X139090476Y-96300952D01*
X138519047Y-96872380D01*
X139138095Y-96872380D01*
X129811904Y-96824761D02*
X129954761Y-96872380D01*
X130192857Y-96872380D01*
X130288095Y-96824761D01*
X130335714Y-96777142D01*
X130383333Y-96681904D01*
X130383333Y-96586666D01*
X130335714Y-96491428D01*
X130288095Y-96443809D01*
X130192857Y-96396190D01*
X130002380Y-96348571D01*
X129907142Y-96300952D01*
X129859523Y-96253333D01*
X129811904Y-96158095D01*
X129811904Y-96062857D01*
X129859523Y-95967619D01*
X129907142Y-95920000D01*
X130002380Y-95872380D01*
X130240476Y-95872380D01*
X130383333Y-95920000D01*
X131335714Y-96872380D02*
X130764285Y-96872380D01*
X131050000Y-96872380D02*
X131050000Y-95872380D01*
X130954761Y-96015238D01*
X130859523Y-96110476D01*
X130764285Y-96158095D01*
X132288095Y-96872380D02*
X131716666Y-96872380D01*
X132002380Y-96872380D02*
X132002380Y-95872380D01*
X131907142Y-96015238D01*
X131811904Y-96110476D01*
X131716666Y-96158095D01*
X122961904Y-96824761D02*
X123104761Y-96872380D01*
X123342857Y-96872380D01*
X123438095Y-96824761D01*
X123485714Y-96777142D01*
X123533333Y-96681904D01*
X123533333Y-96586666D01*
X123485714Y-96491428D01*
X123438095Y-96443809D01*
X123342857Y-96396190D01*
X123152380Y-96348571D01*
X123057142Y-96300952D01*
X123009523Y-96253333D01*
X122961904Y-96158095D01*
X122961904Y-96062857D01*
X123009523Y-95967619D01*
X123057142Y-95920000D01*
X123152380Y-95872380D01*
X123390476Y-95872380D01*
X123533333Y-95920000D01*
X124485714Y-96872380D02*
X123914285Y-96872380D01*
X124200000Y-96872380D02*
X124200000Y-95872380D01*
X124104761Y-96015238D01*
X124009523Y-96110476D01*
X123914285Y-96158095D01*
X125104761Y-95872380D02*
X125200000Y-95872380D01*
X125295238Y-95920000D01*
X125342857Y-95967619D01*
X125390476Y-96062857D01*
X125438095Y-96253333D01*
X125438095Y-96491428D01*
X125390476Y-96681904D01*
X125342857Y-96777142D01*
X125295238Y-96824761D01*
X125200000Y-96872380D01*
X125104761Y-96872380D01*
X125009523Y-96824761D01*
X124961904Y-96777142D01*
X124914285Y-96681904D01*
X124866666Y-96491428D01*
X124866666Y-96253333D01*
X124914285Y-96062857D01*
X124961904Y-95967619D01*
X125009523Y-95920000D01*
X125104761Y-95872380D01*
X116638095Y-96824761D02*
X116780952Y-96872380D01*
X117019047Y-96872380D01*
X117114285Y-96824761D01*
X117161904Y-96777142D01*
X117209523Y-96681904D01*
X117209523Y-96586666D01*
X117161904Y-96491428D01*
X117114285Y-96443809D01*
X117019047Y-96396190D01*
X116828571Y-96348571D01*
X116733333Y-96300952D01*
X116685714Y-96253333D01*
X116638095Y-96158095D01*
X116638095Y-96062857D01*
X116685714Y-95967619D01*
X116733333Y-95920000D01*
X116828571Y-95872380D01*
X117066666Y-95872380D01*
X117209523Y-95920000D01*
X117685714Y-96872380D02*
X117876190Y-96872380D01*
X117971428Y-96824761D01*
X118019047Y-96777142D01*
X118114285Y-96634285D01*
X118161904Y-96443809D01*
X118161904Y-96062857D01*
X118114285Y-95967619D01*
X118066666Y-95920000D01*
X117971428Y-95872380D01*
X117780952Y-95872380D01*
X117685714Y-95920000D01*
X117638095Y-95967619D01*
X117590476Y-96062857D01*
X117590476Y-96300952D01*
X117638095Y-96396190D01*
X117685714Y-96443809D01*
X117780952Y-96491428D01*
X117971428Y-96491428D01*
X118066666Y-96443809D01*
X118114285Y-96396190D01*
X118161904Y-96300952D01*
X109788095Y-96824761D02*
X109930952Y-96872380D01*
X110169047Y-96872380D01*
X110264285Y-96824761D01*
X110311904Y-96777142D01*
X110359523Y-96681904D01*
X110359523Y-96586666D01*
X110311904Y-96491428D01*
X110264285Y-96443809D01*
X110169047Y-96396190D01*
X109978571Y-96348571D01*
X109883333Y-96300952D01*
X109835714Y-96253333D01*
X109788095Y-96158095D01*
X109788095Y-96062857D01*
X109835714Y-95967619D01*
X109883333Y-95920000D01*
X109978571Y-95872380D01*
X110216666Y-95872380D01*
X110359523Y-95920000D01*
X110930952Y-96300952D02*
X110835714Y-96253333D01*
X110788095Y-96205714D01*
X110740476Y-96110476D01*
X110740476Y-96062857D01*
X110788095Y-95967619D01*
X110835714Y-95920000D01*
X110930952Y-95872380D01*
X111121428Y-95872380D01*
X111216666Y-95920000D01*
X111264285Y-95967619D01*
X111311904Y-96062857D01*
X111311904Y-96110476D01*
X111264285Y-96205714D01*
X111216666Y-96253333D01*
X111121428Y-96300952D01*
X110930952Y-96300952D01*
X110835714Y-96348571D01*
X110788095Y-96396190D01*
X110740476Y-96491428D01*
X110740476Y-96681904D01*
X110788095Y-96777142D01*
X110835714Y-96824761D01*
X110930952Y-96872380D01*
X111121428Y-96872380D01*
X111216666Y-96824761D01*
X111264285Y-96777142D01*
X111311904Y-96681904D01*
X111311904Y-96491428D01*
X111264285Y-96396190D01*
X111216666Y-96348571D01*
X111121428Y-96300952D01*
X102938095Y-96824761D02*
X103080952Y-96872380D01*
X103319047Y-96872380D01*
X103414285Y-96824761D01*
X103461904Y-96777142D01*
X103509523Y-96681904D01*
X103509523Y-96586666D01*
X103461904Y-96491428D01*
X103414285Y-96443809D01*
X103319047Y-96396190D01*
X103128571Y-96348571D01*
X103033333Y-96300952D01*
X102985714Y-96253333D01*
X102938095Y-96158095D01*
X102938095Y-96062857D01*
X102985714Y-95967619D01*
X103033333Y-95920000D01*
X103128571Y-95872380D01*
X103366666Y-95872380D01*
X103509523Y-95920000D01*
X103842857Y-95872380D02*
X104509523Y-95872380D01*
X104080952Y-96872380D01*
X96138095Y-96674761D02*
X96280952Y-96722380D01*
X96519047Y-96722380D01*
X96614285Y-96674761D01*
X96661904Y-96627142D01*
X96709523Y-96531904D01*
X96709523Y-96436666D01*
X96661904Y-96341428D01*
X96614285Y-96293809D01*
X96519047Y-96246190D01*
X96328571Y-96198571D01*
X96233333Y-96150952D01*
X96185714Y-96103333D01*
X96138095Y-96008095D01*
X96138095Y-95912857D01*
X96185714Y-95817619D01*
X96233333Y-95770000D01*
X96328571Y-95722380D01*
X96566666Y-95722380D01*
X96709523Y-95770000D01*
X97566666Y-95722380D02*
X97376190Y-95722380D01*
X97280952Y-95770000D01*
X97233333Y-95817619D01*
X97138095Y-95960476D01*
X97090476Y-96150952D01*
X97090476Y-96531904D01*
X97138095Y-96627142D01*
X97185714Y-96674761D01*
X97280952Y-96722380D01*
X97471428Y-96722380D01*
X97566666Y-96674761D01*
X97614285Y-96627142D01*
X97661904Y-96531904D01*
X97661904Y-96293809D01*
X97614285Y-96198571D01*
X97566666Y-96150952D01*
X97471428Y-96103333D01*
X97280952Y-96103333D01*
X97185714Y-96150952D01*
X97138095Y-96198571D01*
X97090476Y-96293809D01*
X89338095Y-96674761D02*
X89480952Y-96722380D01*
X89719047Y-96722380D01*
X89814285Y-96674761D01*
X89861904Y-96627142D01*
X89909523Y-96531904D01*
X89909523Y-96436666D01*
X89861904Y-96341428D01*
X89814285Y-96293809D01*
X89719047Y-96246190D01*
X89528571Y-96198571D01*
X89433333Y-96150952D01*
X89385714Y-96103333D01*
X89338095Y-96008095D01*
X89338095Y-95912857D01*
X89385714Y-95817619D01*
X89433333Y-95770000D01*
X89528571Y-95722380D01*
X89766666Y-95722380D01*
X89909523Y-95770000D01*
X90814285Y-95722380D02*
X90338095Y-95722380D01*
X90290476Y-96198571D01*
X90338095Y-96150952D01*
X90433333Y-96103333D01*
X90671428Y-96103333D01*
X90766666Y-96150952D01*
X90814285Y-96198571D01*
X90861904Y-96293809D01*
X90861904Y-96531904D01*
X90814285Y-96627142D01*
X90766666Y-96674761D01*
X90671428Y-96722380D01*
X90433333Y-96722380D01*
X90338095Y-96674761D01*
X90290476Y-96627142D01*
X82538095Y-96674761D02*
X82680952Y-96722380D01*
X82919047Y-96722380D01*
X83014285Y-96674761D01*
X83061904Y-96627142D01*
X83109523Y-96531904D01*
X83109523Y-96436666D01*
X83061904Y-96341428D01*
X83014285Y-96293809D01*
X82919047Y-96246190D01*
X82728571Y-96198571D01*
X82633333Y-96150952D01*
X82585714Y-96103333D01*
X82538095Y-96008095D01*
X82538095Y-95912857D01*
X82585714Y-95817619D01*
X82633333Y-95770000D01*
X82728571Y-95722380D01*
X82966666Y-95722380D01*
X83109523Y-95770000D01*
X83966666Y-96055714D02*
X83966666Y-96722380D01*
X83728571Y-95674761D02*
X83490476Y-96389047D01*
X84109523Y-96389047D01*
X75638095Y-96674761D02*
X75780952Y-96722380D01*
X76019047Y-96722380D01*
X76114285Y-96674761D01*
X76161904Y-96627142D01*
X76209523Y-96531904D01*
X76209523Y-96436666D01*
X76161904Y-96341428D01*
X76114285Y-96293809D01*
X76019047Y-96246190D01*
X75828571Y-96198571D01*
X75733333Y-96150952D01*
X75685714Y-96103333D01*
X75638095Y-96008095D01*
X75638095Y-95912857D01*
X75685714Y-95817619D01*
X75733333Y-95770000D01*
X75828571Y-95722380D01*
X76066666Y-95722380D01*
X76209523Y-95770000D01*
X76542857Y-95722380D02*
X77161904Y-95722380D01*
X76828571Y-96103333D01*
X76971428Y-96103333D01*
X77066666Y-96150952D01*
X77114285Y-96198571D01*
X77161904Y-96293809D01*
X77161904Y-96531904D01*
X77114285Y-96627142D01*
X77066666Y-96674761D01*
X76971428Y-96722380D01*
X76685714Y-96722380D01*
X76590476Y-96674761D01*
X76542857Y-96627142D01*
X68838095Y-96674761D02*
X68980952Y-96722380D01*
X69219047Y-96722380D01*
X69314285Y-96674761D01*
X69361904Y-96627142D01*
X69409523Y-96531904D01*
X69409523Y-96436666D01*
X69361904Y-96341428D01*
X69314285Y-96293809D01*
X69219047Y-96246190D01*
X69028571Y-96198571D01*
X68933333Y-96150952D01*
X68885714Y-96103333D01*
X68838095Y-96008095D01*
X68838095Y-95912857D01*
X68885714Y-95817619D01*
X68933333Y-95770000D01*
X69028571Y-95722380D01*
X69266666Y-95722380D01*
X69409523Y-95770000D01*
X69790476Y-95817619D02*
X69838095Y-95770000D01*
X69933333Y-95722380D01*
X70171428Y-95722380D01*
X70266666Y-95770000D01*
X70314285Y-95817619D01*
X70361904Y-95912857D01*
X70361904Y-96008095D01*
X70314285Y-96150952D01*
X69742857Y-96722380D01*
X70361904Y-96722380D01*
X62038095Y-96674761D02*
X62180952Y-96722380D01*
X62419047Y-96722380D01*
X62514285Y-96674761D01*
X62561904Y-96627142D01*
X62609523Y-96531904D01*
X62609523Y-96436666D01*
X62561904Y-96341428D01*
X62514285Y-96293809D01*
X62419047Y-96246190D01*
X62228571Y-96198571D01*
X62133333Y-96150952D01*
X62085714Y-96103333D01*
X62038095Y-96008095D01*
X62038095Y-95912857D01*
X62085714Y-95817619D01*
X62133333Y-95770000D01*
X62228571Y-95722380D01*
X62466666Y-95722380D01*
X62609523Y-95770000D01*
X63561904Y-96722380D02*
X62990476Y-96722380D01*
X63276190Y-96722380D02*
X63276190Y-95722380D01*
X63180952Y-95865238D01*
X63085714Y-95960476D01*
X62990476Y-96008095D01*
X79567142Y-73858095D02*
X79614761Y-73905714D01*
X79662380Y-74048571D01*
X79662380Y-74143809D01*
X79614761Y-74286666D01*
X79519523Y-74381904D01*
X79424285Y-74429523D01*
X79233809Y-74477142D01*
X79090952Y-74477142D01*
X78900476Y-74429523D01*
X78805238Y-74381904D01*
X78710000Y-74286666D01*
X78662380Y-74143809D01*
X78662380Y-74048571D01*
X78710000Y-73905714D01*
X78757619Y-73858095D01*
X79662380Y-73429523D02*
X78662380Y-73429523D01*
X79376666Y-73096190D01*
X78662380Y-72762857D01*
X79662380Y-72762857D01*
X79662380Y-71858095D02*
X79138571Y-71858095D01*
X79043333Y-71905714D01*
X78995714Y-72000952D01*
X78995714Y-72191428D01*
X79043333Y-72286666D01*
X79614761Y-71858095D02*
X79662380Y-71953333D01*
X79662380Y-72191428D01*
X79614761Y-72286666D01*
X79519523Y-72334285D01*
X79424285Y-72334285D01*
X79329047Y-72286666D01*
X79281428Y-72191428D01*
X79281428Y-71953333D01*
X79233809Y-71858095D01*
X79662380Y-71381904D02*
X78995714Y-71381904D01*
X78662380Y-71381904D02*
X78710000Y-71429523D01*
X78757619Y-71381904D01*
X78710000Y-71334285D01*
X78662380Y-71381904D01*
X78757619Y-71381904D01*
X78995714Y-70905714D02*
X79662380Y-70905714D01*
X79090952Y-70905714D02*
X79043333Y-70858095D01*
X78995714Y-70762857D01*
X78995714Y-70620000D01*
X79043333Y-70524761D01*
X79138571Y-70477142D01*
X79662380Y-70477142D01*
X79757619Y-70239047D02*
X79757619Y-69477142D01*
X79614761Y-69286666D02*
X79662380Y-69143809D01*
X79662380Y-68905714D01*
X79614761Y-68810476D01*
X79567142Y-68762857D01*
X79471904Y-68715238D01*
X79376666Y-68715238D01*
X79281428Y-68762857D01*
X79233809Y-68810476D01*
X79186190Y-68905714D01*
X79138571Y-69096190D01*
X79090952Y-69191428D01*
X79043333Y-69239047D01*
X78948095Y-69286666D01*
X78852857Y-69286666D01*
X78757619Y-69239047D01*
X78710000Y-69191428D01*
X78662380Y-69096190D01*
X78662380Y-68858095D01*
X78710000Y-68715238D01*
X79614761Y-67905714D02*
X79662380Y-68000952D01*
X79662380Y-68191428D01*
X79614761Y-68286666D01*
X79519523Y-68334285D01*
X79138571Y-68334285D01*
X79043333Y-68286666D01*
X78995714Y-68191428D01*
X78995714Y-68000952D01*
X79043333Y-67905714D01*
X79138571Y-67858095D01*
X79233809Y-67858095D01*
X79329047Y-68334285D01*
X79662380Y-67429523D02*
X78995714Y-67429523D01*
X79186190Y-67429523D02*
X79090952Y-67381904D01*
X79043333Y-67334285D01*
X78995714Y-67239047D01*
X78995714Y-67143809D01*
X78995714Y-66905714D02*
X79662380Y-66667619D01*
X78995714Y-66429523D01*
X79662380Y-65905714D02*
X79614761Y-66000952D01*
X79567142Y-66048571D01*
X79471904Y-66096190D01*
X79186190Y-66096190D01*
X79090952Y-66048571D01*
X79043333Y-66000952D01*
X78995714Y-65905714D01*
X78995714Y-65762857D01*
X79043333Y-65667619D01*
X79090952Y-65620000D01*
X79186190Y-65572380D01*
X79471904Y-65572380D01*
X79567142Y-65620000D01*
X79614761Y-65667619D01*
X79662380Y-65762857D01*
X79662380Y-65905714D01*
X78662380Y-65286666D02*
X79662380Y-64953333D01*
X78662380Y-64620000D01*
X79567142Y-63715238D02*
X79614761Y-63762857D01*
X79662380Y-63905714D01*
X79662380Y-64000952D01*
X79614761Y-64143809D01*
X79519523Y-64239047D01*
X79424285Y-64286666D01*
X79233809Y-64334285D01*
X79090952Y-64334285D01*
X78900476Y-64286666D01*
X78805238Y-64239047D01*
X78710000Y-64143809D01*
X78662380Y-64000952D01*
X78662380Y-63905714D01*
X78710000Y-63762857D01*
X78757619Y-63715238D01*
X79567142Y-62715238D02*
X79614761Y-62762857D01*
X79662380Y-62905714D01*
X79662380Y-63000952D01*
X79614761Y-63143809D01*
X79519523Y-63239047D01*
X79424285Y-63286666D01*
X79233809Y-63334285D01*
X79090952Y-63334285D01*
X78900476Y-63286666D01*
X78805238Y-63239047D01*
X78710000Y-63143809D01*
X78662380Y-63000952D01*
X78662380Y-62905714D01*
X78710000Y-62762857D01*
X78757619Y-62715238D01*
X79662380Y-61762857D02*
X79662380Y-62334285D01*
X79662380Y-62048571D02*
X78662380Y-62048571D01*
X78805238Y-62143809D01*
X78900476Y-62239047D01*
X78948095Y-62334285D01*
X119047142Y-73798095D02*
X119094761Y-73845714D01*
X119142380Y-73988571D01*
X119142380Y-74083809D01*
X119094761Y-74226666D01*
X118999523Y-74321904D01*
X118904285Y-74369523D01*
X118713809Y-74417142D01*
X118570952Y-74417142D01*
X118380476Y-74369523D01*
X118285238Y-74321904D01*
X118190000Y-74226666D01*
X118142380Y-74083809D01*
X118142380Y-73988571D01*
X118190000Y-73845714D01*
X118237619Y-73798095D01*
X119142380Y-73369523D02*
X118142380Y-73369523D01*
X118856666Y-73036190D01*
X118142380Y-72702857D01*
X119142380Y-72702857D01*
X119142380Y-71798095D02*
X118618571Y-71798095D01*
X118523333Y-71845714D01*
X118475714Y-71940952D01*
X118475714Y-72131428D01*
X118523333Y-72226666D01*
X119094761Y-71798095D02*
X119142380Y-71893333D01*
X119142380Y-72131428D01*
X119094761Y-72226666D01*
X118999523Y-72274285D01*
X118904285Y-72274285D01*
X118809047Y-72226666D01*
X118761428Y-72131428D01*
X118761428Y-71893333D01*
X118713809Y-71798095D01*
X119142380Y-71321904D02*
X118475714Y-71321904D01*
X118142380Y-71321904D02*
X118190000Y-71369523D01*
X118237619Y-71321904D01*
X118190000Y-71274285D01*
X118142380Y-71321904D01*
X118237619Y-71321904D01*
X118475714Y-70845714D02*
X119142380Y-70845714D01*
X118570952Y-70845714D02*
X118523333Y-70798095D01*
X118475714Y-70702857D01*
X118475714Y-70560000D01*
X118523333Y-70464761D01*
X118618571Y-70417142D01*
X119142380Y-70417142D01*
X119237619Y-70179047D02*
X119237619Y-69417142D01*
X119094761Y-69226666D02*
X119142380Y-69083809D01*
X119142380Y-68845714D01*
X119094761Y-68750476D01*
X119047142Y-68702857D01*
X118951904Y-68655238D01*
X118856666Y-68655238D01*
X118761428Y-68702857D01*
X118713809Y-68750476D01*
X118666190Y-68845714D01*
X118618571Y-69036190D01*
X118570952Y-69131428D01*
X118523333Y-69179047D01*
X118428095Y-69226666D01*
X118332857Y-69226666D01*
X118237619Y-69179047D01*
X118190000Y-69131428D01*
X118142380Y-69036190D01*
X118142380Y-68798095D01*
X118190000Y-68655238D01*
X119094761Y-67845714D02*
X119142380Y-67940952D01*
X119142380Y-68131428D01*
X119094761Y-68226666D01*
X118999523Y-68274285D01*
X118618571Y-68274285D01*
X118523333Y-68226666D01*
X118475714Y-68131428D01*
X118475714Y-67940952D01*
X118523333Y-67845714D01*
X118618571Y-67798095D01*
X118713809Y-67798095D01*
X118809047Y-68274285D01*
X119142380Y-67369523D02*
X118475714Y-67369523D01*
X118666190Y-67369523D02*
X118570952Y-67321904D01*
X118523333Y-67274285D01*
X118475714Y-67179047D01*
X118475714Y-67083809D01*
X118475714Y-66845714D02*
X119142380Y-66607619D01*
X118475714Y-66369523D01*
X119142380Y-65845714D02*
X119094761Y-65940952D01*
X119047142Y-65988571D01*
X118951904Y-66036190D01*
X118666190Y-66036190D01*
X118570952Y-65988571D01*
X118523333Y-65940952D01*
X118475714Y-65845714D01*
X118475714Y-65702857D01*
X118523333Y-65607619D01*
X118570952Y-65560000D01*
X118666190Y-65512380D01*
X118951904Y-65512380D01*
X119047142Y-65560000D01*
X119094761Y-65607619D01*
X119142380Y-65702857D01*
X119142380Y-65845714D01*
X118142380Y-65226666D02*
X119142380Y-64893333D01*
X118142380Y-64560000D01*
X119047142Y-63655238D02*
X119094761Y-63702857D01*
X119142380Y-63845714D01*
X119142380Y-63940952D01*
X119094761Y-64083809D01*
X118999523Y-64179047D01*
X118904285Y-64226666D01*
X118713809Y-64274285D01*
X118570952Y-64274285D01*
X118380476Y-64226666D01*
X118285238Y-64179047D01*
X118190000Y-64083809D01*
X118142380Y-63940952D01*
X118142380Y-63845714D01*
X118190000Y-63702857D01*
X118237619Y-63655238D01*
X119047142Y-62655238D02*
X119094761Y-62702857D01*
X119142380Y-62845714D01*
X119142380Y-62940952D01*
X119094761Y-63083809D01*
X118999523Y-63179047D01*
X118904285Y-63226666D01*
X118713809Y-63274285D01*
X118570952Y-63274285D01*
X118380476Y-63226666D01*
X118285238Y-63179047D01*
X118190000Y-63083809D01*
X118142380Y-62940952D01*
X118142380Y-62845714D01*
X118190000Y-62702857D01*
X118237619Y-62655238D01*
X118237619Y-62274285D02*
X118190000Y-62226666D01*
X118142380Y-62131428D01*
X118142380Y-61893333D01*
X118190000Y-61798095D01*
X118237619Y-61750476D01*
X118332857Y-61702857D01*
X118428095Y-61702857D01*
X118570952Y-61750476D01*
X119142380Y-62321904D01*
X119142380Y-61702857D01*
X65097619Y-79402380D02*
X65097619Y-78402380D01*
X65335714Y-78402380D01*
X65478571Y-78450000D01*
X65573809Y-78545238D01*
X65621428Y-78640476D01*
X65669047Y-78830952D01*
X65669047Y-78973809D01*
X65621428Y-79164285D01*
X65573809Y-79259523D01*
X65478571Y-79354761D01*
X65335714Y-79402380D01*
X65097619Y-79402380D01*
X66097619Y-79402380D02*
X66097619Y-78402380D01*
X66430952Y-79116666D01*
X66764285Y-78402380D01*
X66764285Y-79402380D01*
X67669047Y-79402380D02*
X67669047Y-78878571D01*
X67621428Y-78783333D01*
X67526190Y-78735714D01*
X67335714Y-78735714D01*
X67240476Y-78783333D01*
X67669047Y-79354761D02*
X67573809Y-79402380D01*
X67335714Y-79402380D01*
X67240476Y-79354761D01*
X67192857Y-79259523D01*
X67192857Y-79164285D01*
X67240476Y-79069047D01*
X67335714Y-79021428D01*
X67573809Y-79021428D01*
X67669047Y-78973809D01*
X68145238Y-79402380D02*
X68145238Y-78735714D01*
X68145238Y-78402380D02*
X68097619Y-78450000D01*
X68145238Y-78497619D01*
X68192857Y-78450000D01*
X68145238Y-78402380D01*
X68145238Y-78497619D01*
X68621428Y-78735714D02*
X68621428Y-79402380D01*
X68621428Y-78830952D02*
X68669047Y-78783333D01*
X68764285Y-78735714D01*
X68907142Y-78735714D01*
X69002380Y-78783333D01*
X69050000Y-78878571D01*
X69050000Y-79402380D01*
X70050000Y-79402380D02*
X69478571Y-79402380D01*
X69764285Y-79402380D02*
X69764285Y-78402380D01*
X69669047Y-78545238D01*
X69573809Y-78640476D01*
X69478571Y-78688095D01*
X128747619Y-80052380D02*
X128747619Y-79052380D01*
X128985714Y-79052380D01*
X129128571Y-79100000D01*
X129223809Y-79195238D01*
X129271428Y-79290476D01*
X129319047Y-79480952D01*
X129319047Y-79623809D01*
X129271428Y-79814285D01*
X129223809Y-79909523D01*
X129128571Y-80004761D01*
X128985714Y-80052380D01*
X128747619Y-80052380D01*
X129747619Y-80052380D02*
X129747619Y-79052380D01*
X130080952Y-79766666D01*
X130414285Y-79052380D01*
X130414285Y-80052380D01*
X131319047Y-80052380D02*
X131319047Y-79528571D01*
X131271428Y-79433333D01*
X131176190Y-79385714D01*
X130985714Y-79385714D01*
X130890476Y-79433333D01*
X131319047Y-80004761D02*
X131223809Y-80052380D01*
X130985714Y-80052380D01*
X130890476Y-80004761D01*
X130842857Y-79909523D01*
X130842857Y-79814285D01*
X130890476Y-79719047D01*
X130985714Y-79671428D01*
X131223809Y-79671428D01*
X131319047Y-79623809D01*
X131795238Y-80052380D02*
X131795238Y-79385714D01*
X131795238Y-79052380D02*
X131747619Y-79100000D01*
X131795238Y-79147619D01*
X131842857Y-79100000D01*
X131795238Y-79052380D01*
X131795238Y-79147619D01*
X132271428Y-79385714D02*
X132271428Y-80052380D01*
X132271428Y-79480952D02*
X132319047Y-79433333D01*
X132414285Y-79385714D01*
X132557142Y-79385714D01*
X132652380Y-79433333D01*
X132700000Y-79528571D01*
X132700000Y-80052380D01*
X133128571Y-79147619D02*
X133176190Y-79100000D01*
X133271428Y-79052380D01*
X133509523Y-79052380D01*
X133604761Y-79100000D01*
X133652380Y-79147619D01*
X133700000Y-79242857D01*
X133700000Y-79338095D01*
X133652380Y-79480952D01*
X133080952Y-80052380D01*
X133700000Y-80052380D01*
X63802380Y-74028571D02*
X63469047Y-74028571D01*
X63469047Y-74552380D02*
X63469047Y-73552380D01*
X63945238Y-73552380D01*
X64326190Y-74552380D02*
X64326190Y-73552380D01*
X64659523Y-74266666D01*
X64992857Y-73552380D01*
X64992857Y-74552380D01*
X65897619Y-74552380D02*
X65897619Y-74028571D01*
X65850000Y-73933333D01*
X65754761Y-73885714D01*
X65564285Y-73885714D01*
X65469047Y-73933333D01*
X65897619Y-74504761D02*
X65802380Y-74552380D01*
X65564285Y-74552380D01*
X65469047Y-74504761D01*
X65421428Y-74409523D01*
X65421428Y-74314285D01*
X65469047Y-74219047D01*
X65564285Y-74171428D01*
X65802380Y-74171428D01*
X65897619Y-74123809D01*
X66373809Y-74552380D02*
X66373809Y-73885714D01*
X66373809Y-73552380D02*
X66326190Y-73600000D01*
X66373809Y-73647619D01*
X66421428Y-73600000D01*
X66373809Y-73552380D01*
X66373809Y-73647619D01*
X66850000Y-73885714D02*
X66850000Y-74552380D01*
X66850000Y-73980952D02*
X66897619Y-73933333D01*
X66992857Y-73885714D01*
X67135714Y-73885714D01*
X67230952Y-73933333D01*
X67278571Y-74028571D01*
X67278571Y-74552380D01*
X68278571Y-74552380D02*
X67707142Y-74552380D01*
X67992857Y-74552380D02*
X67992857Y-73552380D01*
X67897619Y-73695238D01*
X67802380Y-73790476D01*
X67707142Y-73838095D01*
X131502380Y-74228571D02*
X131169047Y-74228571D01*
X131169047Y-74752380D02*
X131169047Y-73752380D01*
X131645238Y-73752380D01*
X132026190Y-74752380D02*
X132026190Y-73752380D01*
X132359523Y-74466666D01*
X132692857Y-73752380D01*
X132692857Y-74752380D01*
X133597619Y-74752380D02*
X133597619Y-74228571D01*
X133550000Y-74133333D01*
X133454761Y-74085714D01*
X133264285Y-74085714D01*
X133169047Y-74133333D01*
X133597619Y-74704761D02*
X133502380Y-74752380D01*
X133264285Y-74752380D01*
X133169047Y-74704761D01*
X133121428Y-74609523D01*
X133121428Y-74514285D01*
X133169047Y-74419047D01*
X133264285Y-74371428D01*
X133502380Y-74371428D01*
X133597619Y-74323809D01*
X134073809Y-74752380D02*
X134073809Y-74085714D01*
X134073809Y-73752380D02*
X134026190Y-73800000D01*
X134073809Y-73847619D01*
X134121428Y-73800000D01*
X134073809Y-73752380D01*
X134073809Y-73847619D01*
X134550000Y-74085714D02*
X134550000Y-74752380D01*
X134550000Y-74180952D02*
X134597619Y-74133333D01*
X134692857Y-74085714D01*
X134835714Y-74085714D01*
X134930952Y-74133333D01*
X134978571Y-74228571D01*
X134978571Y-74752380D01*
X135407142Y-73847619D02*
X135454761Y-73800000D01*
X135550000Y-73752380D01*
X135788095Y-73752380D01*
X135883333Y-73800000D01*
X135930952Y-73847619D01*
X135978571Y-73942857D01*
X135978571Y-74038095D01*
X135930952Y-74180952D01*
X135359523Y-74752380D01*
X135978571Y-74752380D01*
X82055714Y-70606666D02*
X82531904Y-70606666D01*
X81960476Y-70892380D02*
X82293809Y-69892380D01*
X82627142Y-70892380D01*
X83150952Y-69892380D02*
X83246190Y-69892380D01*
X83341428Y-69940000D01*
X83389047Y-69987619D01*
X83436666Y-70082857D01*
X83484285Y-70273333D01*
X83484285Y-70511428D01*
X83436666Y-70701904D01*
X83389047Y-70797142D01*
X83341428Y-70844761D01*
X83246190Y-70892380D01*
X83150952Y-70892380D01*
X83055714Y-70844761D01*
X83008095Y-70797142D01*
X82960476Y-70701904D01*
X82912857Y-70511428D01*
X82912857Y-70273333D01*
X82960476Y-70082857D01*
X83008095Y-69987619D01*
X83055714Y-69940000D01*
X83150952Y-69892380D01*
X82025714Y-72336666D02*
X82501904Y-72336666D01*
X81930476Y-72622380D02*
X82263809Y-71622380D01*
X82597142Y-72622380D01*
X83454285Y-72622380D02*
X82882857Y-72622380D01*
X83168571Y-72622380D02*
X83168571Y-71622380D01*
X83073333Y-71765238D01*
X82978095Y-71860476D01*
X82882857Y-71908095D01*
X81885714Y-74626666D02*
X82361904Y-74626666D01*
X81790476Y-74912380D02*
X82123809Y-73912380D01*
X82457142Y-74912380D01*
X82742857Y-74007619D02*
X82790476Y-73960000D01*
X82885714Y-73912380D01*
X83123809Y-73912380D01*
X83219047Y-73960000D01*
X83266666Y-74007619D01*
X83314285Y-74102857D01*
X83314285Y-74198095D01*
X83266666Y-74340952D01*
X82695238Y-74912380D01*
X83314285Y-74912380D01*
X89905714Y-68216666D02*
X90381904Y-68216666D01*
X89810476Y-68502380D02*
X90143809Y-67502380D01*
X90477142Y-68502380D01*
X90715238Y-67502380D02*
X91334285Y-67502380D01*
X91000952Y-67883333D01*
X91143809Y-67883333D01*
X91239047Y-67930952D01*
X91286666Y-67978571D01*
X91334285Y-68073809D01*
X91334285Y-68311904D01*
X91286666Y-68407142D01*
X91239047Y-68454761D01*
X91143809Y-68502380D01*
X90858095Y-68502380D01*
X90762857Y-68454761D01*
X90715238Y-68407142D01*
X90115714Y-70936666D02*
X90591904Y-70936666D01*
X90020476Y-71222380D02*
X90353809Y-70222380D01*
X90687142Y-71222380D01*
X91449047Y-70555714D02*
X91449047Y-71222380D01*
X91210952Y-70174761D02*
X90972857Y-70889047D01*
X91591904Y-70889047D01*
X89835714Y-73426666D02*
X90311904Y-73426666D01*
X89740476Y-73712380D02*
X90073809Y-72712380D01*
X90407142Y-73712380D01*
X91216666Y-72712380D02*
X90740476Y-72712380D01*
X90692857Y-73188571D01*
X90740476Y-73140952D01*
X90835714Y-73093333D01*
X91073809Y-73093333D01*
X91169047Y-73140952D01*
X91216666Y-73188571D01*
X91264285Y-73283809D01*
X91264285Y-73521904D01*
X91216666Y-73617142D01*
X91169047Y-73664761D01*
X91073809Y-73712380D01*
X90835714Y-73712380D01*
X90740476Y-73664761D01*
X90692857Y-73617142D01*
X102397619Y-72052380D02*
X102064285Y-71576190D01*
X101826190Y-72052380D02*
X101826190Y-71052380D01*
X102207142Y-71052380D01*
X102302380Y-71100000D01*
X102350000Y-71147619D01*
X102397619Y-71242857D01*
X102397619Y-71385714D01*
X102350000Y-71480952D01*
X102302380Y-71528571D01*
X102207142Y-71576190D01*
X101826190Y-71576190D01*
X102588095Y-72147619D02*
X103350000Y-72147619D01*
X103540476Y-72004761D02*
X103683333Y-72052380D01*
X103921428Y-72052380D01*
X104016666Y-72004761D01*
X104064285Y-71957142D01*
X104111904Y-71861904D01*
X104111904Y-71766666D01*
X104064285Y-71671428D01*
X104016666Y-71623809D01*
X103921428Y-71576190D01*
X103730952Y-71528571D01*
X103635714Y-71480952D01*
X103588095Y-71433333D01*
X103540476Y-71338095D01*
X103540476Y-71242857D01*
X103588095Y-71147619D01*
X103635714Y-71100000D01*
X103730952Y-71052380D01*
X103969047Y-71052380D01*
X104111904Y-71100000D01*
X105111904Y-71957142D02*
X105064285Y-72004761D01*
X104921428Y-72052380D01*
X104826190Y-72052380D01*
X104683333Y-72004761D01*
X104588095Y-71909523D01*
X104540476Y-71814285D01*
X104492857Y-71623809D01*
X104492857Y-71480952D01*
X104540476Y-71290476D01*
X104588095Y-71195238D01*
X104683333Y-71100000D01*
X104826190Y-71052380D01*
X104921428Y-71052380D01*
X105064285Y-71100000D01*
X105111904Y-71147619D01*
X106016666Y-72052380D02*
X105540476Y-72052380D01*
X105540476Y-71052380D01*
X108673809Y-72102380D02*
X108340476Y-71626190D01*
X108102380Y-72102380D02*
X108102380Y-71102380D01*
X108483333Y-71102380D01*
X108578571Y-71150000D01*
X108626190Y-71197619D01*
X108673809Y-71292857D01*
X108673809Y-71435714D01*
X108626190Y-71530952D01*
X108578571Y-71578571D01*
X108483333Y-71626190D01*
X108102380Y-71626190D01*
X108864285Y-72197619D02*
X109626190Y-72197619D01*
X109816666Y-72054761D02*
X109959523Y-72102380D01*
X110197619Y-72102380D01*
X110292857Y-72054761D01*
X110340476Y-72007142D01*
X110388095Y-71911904D01*
X110388095Y-71816666D01*
X110340476Y-71721428D01*
X110292857Y-71673809D01*
X110197619Y-71626190D01*
X110007142Y-71578571D01*
X109911904Y-71530952D01*
X109864285Y-71483333D01*
X109816666Y-71388095D01*
X109816666Y-71292857D01*
X109864285Y-71197619D01*
X109911904Y-71150000D01*
X110007142Y-71102380D01*
X110245238Y-71102380D01*
X110388095Y-71150000D01*
X110816666Y-72102380D02*
X110816666Y-71102380D01*
X111054761Y-71102380D01*
X111197619Y-71150000D01*
X111292857Y-71245238D01*
X111340476Y-71340476D01*
X111388095Y-71530952D01*
X111388095Y-71673809D01*
X111340476Y-71864285D01*
X111292857Y-71959523D01*
X111197619Y-72054761D01*
X111054761Y-72102380D01*
X110816666Y-72102380D01*
X111769047Y-71816666D02*
X112245238Y-71816666D01*
X111673809Y-72102380D02*
X112007142Y-71102380D01*
X112340476Y-72102380D01*
M02*
